G04 EAGLE Gerber RS-274X export*
G75*
%MOMM*%
%FSLAX34Y34*%
%LPD*%
%IN*%
%IPPOS*%
%AMOC8*
5,1,8,0,0,1.08239X$1,22.5*%
G01*
G04 Define Apertures*
%ADD10C,0.254000*%
D10*
X0Y120000D02*
X457Y109541D01*
X1823Y99162D01*
X4089Y88942D01*
X7237Y78958D01*
X11243Y69286D01*
X16077Y60000D01*
X21702Y51171D01*
X28075Y42866D01*
X35147Y35147D01*
X42866Y28075D01*
X51171Y21702D01*
X60000Y16077D01*
X69286Y11243D01*
X78958Y7237D01*
X88942Y4089D01*
X99162Y1823D01*
X109541Y457D01*
X120000Y0D01*
X770000Y0D01*
X780459Y457D01*
X790838Y1823D01*
X801058Y4089D01*
X811042Y7237D01*
X820714Y11243D01*
X830000Y16077D01*
X838829Y21702D01*
X847135Y28075D01*
X854853Y35147D01*
X861925Y42866D01*
X868298Y51171D01*
X873923Y60000D01*
X878757Y69286D01*
X882763Y78958D01*
X885911Y88942D01*
X888177Y99162D01*
X889543Y109541D01*
X890000Y120000D01*
X890000Y420000D01*
X889543Y430459D01*
X888177Y440838D01*
X885911Y451058D01*
X882763Y461042D01*
X878757Y470714D01*
X873923Y480000D01*
X868298Y488829D01*
X861925Y497135D01*
X854853Y504853D01*
X847135Y511925D01*
X838829Y518298D01*
X830000Y523923D01*
X820714Y528757D01*
X811042Y532763D01*
X801058Y535911D01*
X790838Y538177D01*
X780459Y539543D01*
X770000Y540000D01*
X120000Y540000D01*
X109541Y539543D01*
X99162Y538177D01*
X88942Y535911D01*
X78958Y532763D01*
X69286Y528757D01*
X60000Y523923D01*
X51171Y518298D01*
X42866Y511925D01*
X35147Y504853D01*
X28075Y497135D01*
X21702Y488829D01*
X16077Y480000D01*
X11243Y470714D01*
X7237Y461042D01*
X4089Y451058D01*
X1823Y440838D01*
X457Y430459D01*
X0Y420000D01*
X0Y120000D01*
M02*
