G04 EAGLE Gerber RS-274X export*
G75*
%MOMM*%
%FSLAX34Y34*%
%LPD*%
%INSoldermask Top*%
%IPPOS*%
%AMOC8*
5,1,8,0,0,1.08239X$1,22.5*%
G01*
G04 Define Apertures*
%ADD10C,2.601600*%
%ADD11C,1.601600*%
%ADD12C,1.101600*%
%ADD13R,0.801600X1.201600*%
%ADD14R,1.201600X0.801600*%
%ADD15R,1.101600X2.501600*%
%ADD16C,0.751600*%
D10*
X70000Y60000D03*
X820000Y60000D03*
X820000Y480000D03*
X70000Y480000D03*
D11*
X865000Y355000D03*
X795000Y355000D03*
D12*
X852500Y239500D03*
X852500Y159500D03*
D13*
G36*
X158975Y475227D02*
X153307Y469559D01*
X144811Y478055D01*
X150479Y483723D01*
X158975Y475227D01*
G37*
G36*
X190441Y506693D02*
X184773Y501025D01*
X176277Y509521D01*
X181945Y515189D01*
X190441Y506693D01*
G37*
G36*
X215189Y481945D02*
X209521Y476277D01*
X201025Y484773D01*
X206693Y490441D01*
X215189Y481945D01*
G37*
G36*
X183723Y450479D02*
X178055Y444811D01*
X169559Y453307D01*
X175227Y458975D01*
X183723Y450479D01*
G37*
G36*
X108975Y424487D02*
X103307Y418819D01*
X94811Y427315D01*
X100479Y432983D01*
X108975Y424487D01*
G37*
G36*
X140441Y455953D02*
X134773Y450285D01*
X126277Y458781D01*
X131945Y464449D01*
X140441Y455953D01*
G37*
G36*
X165189Y431205D02*
X159521Y425537D01*
X151025Y434033D01*
X156693Y439701D01*
X165189Y431205D01*
G37*
G36*
X133723Y399739D02*
X128055Y394071D01*
X119559Y402567D01*
X125227Y408235D01*
X133723Y399739D01*
G37*
G36*
X201025Y384773D02*
X206693Y390441D01*
X215189Y381945D01*
X209521Y376277D01*
X201025Y384773D01*
G37*
G36*
X169559Y353307D02*
X175227Y358975D01*
X183723Y350479D01*
X178055Y344811D01*
X169559Y353307D01*
G37*
G36*
X144811Y378055D02*
X150479Y383723D01*
X158975Y375227D01*
X153307Y369559D01*
X144811Y378055D01*
G37*
G36*
X176277Y409521D02*
X181945Y415189D01*
X190441Y406693D01*
X184773Y401025D01*
X176277Y409521D01*
G37*
G36*
X251025Y435303D02*
X256693Y440971D01*
X265189Y432475D01*
X259521Y426807D01*
X251025Y435303D01*
G37*
G36*
X219559Y403837D02*
X225227Y409505D01*
X233723Y401009D01*
X228055Y395341D01*
X219559Y403837D01*
G37*
G36*
X194811Y428585D02*
X200479Y434253D01*
X208975Y425757D01*
X203307Y420089D01*
X194811Y428585D01*
G37*
G36*
X226277Y460051D02*
X231945Y465719D01*
X240441Y457223D01*
X234773Y451555D01*
X226277Y460051D01*
G37*
G36*
X688975Y475227D02*
X683307Y469559D01*
X674811Y478055D01*
X680479Y483723D01*
X688975Y475227D01*
G37*
G36*
X720441Y506693D02*
X714773Y501025D01*
X706277Y509521D01*
X711945Y515189D01*
X720441Y506693D01*
G37*
G36*
X745189Y481945D02*
X739521Y476277D01*
X731025Y484773D01*
X736693Y490441D01*
X745189Y481945D01*
G37*
G36*
X713723Y450479D02*
X708055Y444811D01*
X699559Y453307D01*
X705227Y458975D01*
X713723Y450479D01*
G37*
G36*
X638975Y425227D02*
X633307Y419559D01*
X624811Y428055D01*
X630479Y433723D01*
X638975Y425227D01*
G37*
G36*
X670441Y456693D02*
X664773Y451025D01*
X656277Y459521D01*
X661945Y465189D01*
X670441Y456693D01*
G37*
G36*
X695189Y431945D02*
X689521Y426277D01*
X681025Y434773D01*
X686693Y440441D01*
X695189Y431945D01*
G37*
G36*
X663723Y400479D02*
X658055Y394811D01*
X649559Y403307D01*
X655227Y408975D01*
X663723Y400479D01*
G37*
G36*
X781025Y434773D02*
X786693Y440441D01*
X795189Y431945D01*
X789521Y426277D01*
X781025Y434773D01*
G37*
G36*
X749559Y403307D02*
X755227Y408975D01*
X763723Y400479D01*
X758055Y394811D01*
X749559Y403307D01*
G37*
G36*
X724811Y428055D02*
X730479Y433723D01*
X738975Y425227D01*
X733307Y419559D01*
X724811Y428055D01*
G37*
G36*
X756277Y459521D02*
X761945Y465189D01*
X770441Y456693D01*
X764773Y451025D01*
X756277Y459521D01*
G37*
G36*
X731025Y384773D02*
X736693Y390441D01*
X745189Y381945D01*
X739521Y376277D01*
X731025Y384773D01*
G37*
G36*
X699559Y353307D02*
X705227Y358975D01*
X713723Y350479D01*
X708055Y344811D01*
X699559Y353307D01*
G37*
G36*
X674811Y378055D02*
X680479Y383723D01*
X688975Y375227D01*
X683307Y369559D01*
X674811Y378055D01*
G37*
G36*
X706277Y409521D02*
X711945Y415189D01*
X720441Y406693D01*
X714773Y401025D01*
X706277Y409521D01*
G37*
X382750Y397500D03*
X427250Y397500D03*
X427250Y362500D03*
X382750Y362500D03*
X457750Y397500D03*
X502250Y397500D03*
X502250Y362500D03*
X457750Y362500D03*
D14*
X52500Y277750D03*
X52500Y322250D03*
X87500Y322250D03*
X87500Y277750D03*
X127500Y277750D03*
X127500Y322250D03*
X162500Y322250D03*
X162500Y277750D03*
X202500Y277750D03*
X202500Y322250D03*
X237500Y322250D03*
X237500Y277750D03*
X277500Y277750D03*
X277500Y322250D03*
X312500Y322250D03*
X312500Y277750D03*
X352500Y277750D03*
X352500Y322250D03*
X387500Y322250D03*
X387500Y277750D03*
X427500Y277750D03*
X427500Y322250D03*
X462500Y322250D03*
X462500Y277750D03*
X502500Y277750D03*
X502500Y322250D03*
X537500Y322250D03*
X537500Y277750D03*
X577500Y277750D03*
X577500Y322250D03*
X612500Y322250D03*
X612500Y277750D03*
X652500Y277750D03*
X652500Y322250D03*
X687500Y322250D03*
X687500Y277750D03*
X727500Y277750D03*
X727500Y322250D03*
X762500Y322250D03*
X762500Y277750D03*
X52500Y197750D03*
X52500Y242250D03*
X87500Y242250D03*
X87500Y197750D03*
X127500Y197750D03*
X127500Y242250D03*
X162500Y242250D03*
X162500Y197750D03*
X202500Y197750D03*
X202500Y242250D03*
X237500Y242250D03*
X237500Y197750D03*
X277500Y197750D03*
X277500Y242250D03*
X312500Y242250D03*
X312500Y197750D03*
X352500Y197750D03*
X352500Y242250D03*
X387500Y242250D03*
X387500Y197750D03*
X427500Y197750D03*
X427500Y242250D03*
X462500Y242250D03*
X462500Y197750D03*
X502500Y197750D03*
X502500Y242250D03*
X537500Y242250D03*
X537500Y197750D03*
X577500Y197750D03*
X577500Y242250D03*
X612500Y242250D03*
X612500Y197750D03*
X652500Y197750D03*
X652500Y242250D03*
X687500Y242250D03*
X687500Y197750D03*
X802500Y277750D03*
X802500Y322250D03*
X837500Y322250D03*
X837500Y277750D03*
X52500Y117750D03*
X52500Y162250D03*
X87500Y162250D03*
X87500Y117750D03*
X127500Y117750D03*
X127500Y162250D03*
X162500Y162250D03*
X162500Y117750D03*
X202500Y117750D03*
X202500Y162250D03*
X237500Y162250D03*
X237500Y117750D03*
X277500Y117750D03*
X277500Y162250D03*
X312500Y162250D03*
X312500Y117750D03*
X352500Y117750D03*
X352500Y162250D03*
X387500Y162250D03*
X387500Y117750D03*
X427500Y117750D03*
X427500Y162250D03*
X462500Y162250D03*
X462500Y117750D03*
X502500Y117750D03*
X502500Y162250D03*
X537500Y162250D03*
X537500Y117750D03*
X577500Y117750D03*
X577500Y162250D03*
X612500Y162250D03*
X612500Y117750D03*
X652500Y117750D03*
X652500Y162250D03*
X687500Y162250D03*
X687500Y117750D03*
X762500Y117750D03*
X762500Y162250D03*
X797500Y162250D03*
X797500Y117750D03*
X127500Y37750D03*
X127500Y82250D03*
X162500Y82250D03*
X162500Y37750D03*
X202500Y37750D03*
X202500Y82250D03*
X237500Y82250D03*
X237500Y37750D03*
X277500Y37750D03*
X277500Y82250D03*
X312500Y82250D03*
X312500Y37750D03*
X387500Y37750D03*
X387500Y82250D03*
X422500Y82250D03*
X422500Y37750D03*
X462500Y37750D03*
X462500Y82250D03*
X497500Y82250D03*
X497500Y37750D03*
X575000Y32750D03*
X575000Y77250D03*
X610000Y77250D03*
X610000Y32750D03*
X652500Y37750D03*
X652500Y82250D03*
X687500Y82250D03*
X687500Y37750D03*
X727500Y37750D03*
X727500Y82250D03*
X762500Y82250D03*
X762500Y37750D03*
X727500Y197750D03*
X727500Y242250D03*
X762500Y242250D03*
X762500Y197750D03*
X802500Y197750D03*
X802500Y242250D03*
X837500Y242250D03*
X837500Y197750D03*
D15*
X521000Y490000D03*
X521000Y460000D03*
D16*
X48550Y333600D03*
X48550Y391400D03*
M02*
