G04 EAGLE Gerber RS-274X export*
G75*
%MOMM*%
%FSLAX34Y34*%
%LPD*%
%INSoldermask Bottom*%
%IPPOS*%
%AMOC8*
5,1,8,0,0,1.08239X$1,22.5*%
G01*
G04 Define Apertures*
%ADD10C,2.601600*%
%ADD11R,0.771600X0.401600*%
%ADD12C,0.170934*%
%ADD13R,1.401600X1.001600*%
%ADD14R,0.900300X1.075500*%
%ADD15R,0.713400X1.013400*%
%ADD16R,1.075500X0.900300*%
%ADD17R,1.266200X1.566900*%
%ADD18R,1.566900X1.266200*%
%ADD19R,1.301600X3.901600*%
%ADD20R,1.022500X1.071800*%
%ADD21C,0.150800*%
%ADD22R,3.201600X3.201600*%
%ADD23R,1.401600X1.151600*%
%ADD24R,1.071800X1.022500*%
%ADD25R,1.101600X1.101600*%
%ADD26R,1.101600X3.601600*%
%ADD27R,1.601600X3.501600*%
%ADD28R,3.590000X3.590000*%
%ADD29R,1.916900X1.266200*%
%ADD30C,1.601600*%
%ADD31R,1.601600X2.101600*%
%ADD32R,0.762000X1.371600*%
%ADD33C,0.701600*%
%ADD34R,1.101600X1.501600*%
%ADD35R,1.501600X1.101600*%
%ADD36R,1.462800X1.216200*%
%ADD37C,1.101600*%
%ADD38R,2.301600X1.301600*%
%ADD39R,1.901600X1.301600*%
%ADD40R,1.601600X1.701600*%
%ADD41R,1.701600X0.801600*%
%ADD42C,0.240406*%
%ADD43R,1.371600X0.762000*%
%ADD44R,0.400000X1.500000*%
%ADD45C,0.411616*%
%ADD46R,3.501600X4.401600*%
%ADD47C,1.371600*%
%ADD48R,1.251600X0.401600*%
%ADD49R,1.251600X0.701600*%
%ADD50R,1.601600X1.601600*%
%ADD51C,0.751600*%
G36*
X44289Y245491D02*
X44110Y245610D01*
X43991Y245789D01*
X43950Y245995D01*
X43950Y248005D01*
X43991Y248211D01*
X44110Y248390D01*
X44289Y248509D01*
X44495Y248550D01*
X49505Y248550D01*
X49711Y248509D01*
X49890Y248390D01*
X50009Y248211D01*
X50050Y248005D01*
X50050Y245995D01*
X50009Y245789D01*
X49890Y245610D01*
X49711Y245491D01*
X49505Y245450D01*
X44495Y245450D01*
X44289Y245491D01*
G37*
G36*
X44289Y249491D02*
X44110Y249610D01*
X43991Y249789D01*
X43950Y249995D01*
X43950Y252005D01*
X43991Y252211D01*
X44110Y252390D01*
X44289Y252509D01*
X44495Y252550D01*
X49505Y252550D01*
X49711Y252509D01*
X49890Y252390D01*
X50009Y252211D01*
X50050Y252005D01*
X50050Y249995D01*
X50009Y249789D01*
X49890Y249610D01*
X49711Y249491D01*
X49505Y249450D01*
X44495Y249450D01*
X44289Y249491D01*
G37*
G36*
X44289Y253491D02*
X44110Y253610D01*
X43991Y253789D01*
X43950Y253995D01*
X43950Y256005D01*
X43991Y256211D01*
X44110Y256390D01*
X44289Y256509D01*
X44495Y256550D01*
X49505Y256550D01*
X49711Y256509D01*
X49890Y256390D01*
X50009Y256211D01*
X50050Y256005D01*
X50050Y253995D01*
X50009Y253789D01*
X49890Y253610D01*
X49711Y253491D01*
X49505Y253450D01*
X44495Y253450D01*
X44289Y253491D01*
G37*
G36*
X44289Y257491D02*
X44110Y257610D01*
X43991Y257789D01*
X43950Y257995D01*
X43950Y260005D01*
X43991Y260211D01*
X44110Y260390D01*
X44289Y260509D01*
X44495Y260550D01*
X49505Y260550D01*
X49711Y260509D01*
X49890Y260390D01*
X50009Y260211D01*
X50050Y260005D01*
X50050Y257995D01*
X50009Y257789D01*
X49890Y257610D01*
X49711Y257491D01*
X49505Y257450D01*
X44495Y257450D01*
X44289Y257491D01*
G37*
G36*
X44289Y261491D02*
X44110Y261610D01*
X43991Y261789D01*
X43950Y261995D01*
X43950Y264005D01*
X43991Y264211D01*
X44110Y264390D01*
X44289Y264509D01*
X44495Y264550D01*
X49505Y264550D01*
X49711Y264509D01*
X49890Y264390D01*
X50009Y264211D01*
X50050Y264005D01*
X50050Y261995D01*
X50009Y261789D01*
X49890Y261610D01*
X49711Y261491D01*
X49505Y261450D01*
X44495Y261450D01*
X44289Y261491D01*
G37*
G36*
X65289Y245491D02*
X65110Y245610D01*
X64991Y245789D01*
X64950Y245995D01*
X64950Y248005D01*
X64991Y248211D01*
X65110Y248390D01*
X65289Y248509D01*
X65495Y248550D01*
X70505Y248550D01*
X70711Y248509D01*
X70890Y248390D01*
X71009Y248211D01*
X71050Y248005D01*
X71050Y245995D01*
X71009Y245789D01*
X70890Y245610D01*
X70711Y245491D01*
X70505Y245450D01*
X65495Y245450D01*
X65289Y245491D01*
G37*
G36*
X65289Y249491D02*
X65110Y249610D01*
X64991Y249789D01*
X64950Y249995D01*
X64950Y252005D01*
X64991Y252211D01*
X65110Y252390D01*
X65289Y252509D01*
X65495Y252550D01*
X70505Y252550D01*
X70711Y252509D01*
X70890Y252390D01*
X71009Y252211D01*
X71050Y252005D01*
X71050Y249995D01*
X71009Y249789D01*
X70890Y249610D01*
X70711Y249491D01*
X70505Y249450D01*
X65495Y249450D01*
X65289Y249491D01*
G37*
G36*
X65289Y253491D02*
X65110Y253610D01*
X64991Y253789D01*
X64950Y253995D01*
X64950Y256005D01*
X64991Y256211D01*
X65110Y256390D01*
X65289Y256509D01*
X65495Y256550D01*
X70505Y256550D01*
X70711Y256509D01*
X70890Y256390D01*
X71009Y256211D01*
X71050Y256005D01*
X71050Y253995D01*
X71009Y253789D01*
X70890Y253610D01*
X70711Y253491D01*
X70505Y253450D01*
X65495Y253450D01*
X65289Y253491D01*
G37*
G36*
X65289Y257491D02*
X65110Y257610D01*
X64991Y257789D01*
X64950Y257995D01*
X64950Y260005D01*
X64991Y260211D01*
X65110Y260390D01*
X65289Y260509D01*
X65495Y260550D01*
X70505Y260550D01*
X70711Y260509D01*
X70890Y260390D01*
X71009Y260211D01*
X71050Y260005D01*
X71050Y257995D01*
X71009Y257789D01*
X70890Y257610D01*
X70711Y257491D01*
X70505Y257450D01*
X65495Y257450D01*
X65289Y257491D01*
G37*
G36*
X65289Y261491D02*
X65110Y261610D01*
X64991Y261789D01*
X64950Y261995D01*
X64950Y264005D01*
X64991Y264211D01*
X65110Y264390D01*
X65289Y264509D01*
X65495Y264550D01*
X70505Y264550D01*
X70711Y264509D01*
X70890Y264390D01*
X71009Y264211D01*
X71050Y264005D01*
X71050Y261995D01*
X71009Y261789D01*
X70890Y261610D01*
X70711Y261491D01*
X70505Y261450D01*
X65495Y261450D01*
X65289Y261491D01*
G37*
G36*
X113095Y309960D02*
X113095Y315040D01*
X116905Y315040D01*
X116905Y309960D01*
X113095Y309960D01*
G37*
G36*
X867620Y418095D02*
X862540Y418095D01*
X862540Y421905D01*
X867620Y421905D01*
X867620Y418095D01*
G37*
G36*
X724411Y451959D02*
X724590Y451840D01*
X724709Y451661D01*
X724750Y451455D01*
X724750Y448545D01*
X724709Y448339D01*
X724590Y448160D01*
X724411Y448041D01*
X724205Y448000D01*
X717795Y448000D01*
X717589Y448041D01*
X717410Y448160D01*
X717291Y448339D01*
X717250Y448545D01*
X717250Y451455D01*
X717291Y451661D01*
X717410Y451840D01*
X717589Y451959D01*
X717795Y452000D01*
X724205Y452000D01*
X724411Y451959D01*
G37*
G36*
X724411Y456959D02*
X724590Y456840D01*
X724709Y456661D01*
X724750Y456455D01*
X724750Y453545D01*
X724709Y453339D01*
X724590Y453160D01*
X724411Y453041D01*
X724205Y453000D01*
X717795Y453000D01*
X717589Y453041D01*
X717410Y453160D01*
X717291Y453339D01*
X717250Y453545D01*
X717250Y456455D01*
X717291Y456661D01*
X717410Y456840D01*
X717589Y456959D01*
X717795Y457000D01*
X724205Y457000D01*
X724411Y456959D01*
G37*
G36*
X724411Y461959D02*
X724590Y461840D01*
X724709Y461661D01*
X724750Y461455D01*
X724750Y458545D01*
X724709Y458339D01*
X724590Y458160D01*
X724411Y458041D01*
X724205Y458000D01*
X717795Y458000D01*
X717589Y458041D01*
X717410Y458160D01*
X717291Y458339D01*
X717250Y458545D01*
X717250Y461455D01*
X717291Y461661D01*
X717410Y461840D01*
X717589Y461959D01*
X717795Y462000D01*
X724205Y462000D01*
X724411Y461959D01*
G37*
G36*
X724411Y466959D02*
X724590Y466840D01*
X724709Y466661D01*
X724750Y466455D01*
X724750Y463545D01*
X724709Y463339D01*
X724590Y463160D01*
X724411Y463041D01*
X724205Y463000D01*
X717795Y463000D01*
X717589Y463041D01*
X717410Y463160D01*
X717291Y463339D01*
X717250Y463545D01*
X717250Y466455D01*
X717291Y466661D01*
X717410Y466840D01*
X717589Y466959D01*
X717795Y467000D01*
X724205Y467000D01*
X724411Y466959D01*
G37*
G36*
X724411Y471959D02*
X724590Y471840D01*
X724709Y471661D01*
X724750Y471455D01*
X724750Y468545D01*
X724709Y468339D01*
X724590Y468160D01*
X724411Y468041D01*
X724205Y468000D01*
X717795Y468000D01*
X717589Y468041D01*
X717410Y468160D01*
X717291Y468339D01*
X717250Y468545D01*
X717250Y471455D01*
X717291Y471661D01*
X717410Y471840D01*
X717589Y471959D01*
X717795Y472000D01*
X724205Y472000D01*
X724411Y471959D01*
G37*
G36*
X724411Y476959D02*
X724590Y476840D01*
X724709Y476661D01*
X724750Y476455D01*
X724750Y473545D01*
X724709Y473339D01*
X724590Y473160D01*
X724411Y473041D01*
X724205Y473000D01*
X717795Y473000D01*
X717589Y473041D01*
X717410Y473160D01*
X717291Y473339D01*
X717250Y473545D01*
X717250Y476455D01*
X717291Y476661D01*
X717410Y476840D01*
X717589Y476959D01*
X717795Y477000D01*
X724205Y477000D01*
X724411Y476959D01*
G37*
G36*
X724411Y481959D02*
X724590Y481840D01*
X724709Y481661D01*
X724750Y481455D01*
X724750Y478545D01*
X724709Y478339D01*
X724590Y478160D01*
X724411Y478041D01*
X724205Y478000D01*
X717795Y478000D01*
X717589Y478041D01*
X717410Y478160D01*
X717291Y478339D01*
X717250Y478545D01*
X717250Y481455D01*
X717291Y481661D01*
X717410Y481840D01*
X717589Y481959D01*
X717795Y482000D01*
X724205Y482000D01*
X724411Y481959D01*
G37*
G36*
X724411Y486959D02*
X724590Y486840D01*
X724709Y486661D01*
X724750Y486455D01*
X724750Y483545D01*
X724709Y483339D01*
X724590Y483160D01*
X724411Y483041D01*
X724205Y483000D01*
X717795Y483000D01*
X717589Y483041D01*
X717410Y483160D01*
X717291Y483339D01*
X717250Y483545D01*
X717250Y486455D01*
X717291Y486661D01*
X717410Y486840D01*
X717589Y486959D01*
X717795Y487000D01*
X724205Y487000D01*
X724411Y486959D01*
G37*
G36*
X729161Y447209D02*
X729340Y447090D01*
X729459Y446911D01*
X729500Y446705D01*
X729500Y440295D01*
X729459Y440089D01*
X729340Y439910D01*
X729161Y439791D01*
X728955Y439750D01*
X726045Y439750D01*
X725839Y439791D01*
X725660Y439910D01*
X725541Y440089D01*
X725500Y440295D01*
X725500Y446705D01*
X725541Y446911D01*
X725660Y447090D01*
X725839Y447209D01*
X726045Y447250D01*
X728955Y447250D01*
X729161Y447209D01*
G37*
G36*
X729161Y495209D02*
X729340Y495090D01*
X729459Y494911D01*
X729500Y494705D01*
X729500Y488295D01*
X729459Y488089D01*
X729340Y487910D01*
X729161Y487791D01*
X728955Y487750D01*
X726045Y487750D01*
X725839Y487791D01*
X725660Y487910D01*
X725541Y488089D01*
X725500Y488295D01*
X725500Y494705D01*
X725541Y494911D01*
X725660Y495090D01*
X725839Y495209D01*
X726045Y495250D01*
X728955Y495250D01*
X729161Y495209D01*
G37*
G36*
X734161Y447209D02*
X734340Y447090D01*
X734459Y446911D01*
X734500Y446705D01*
X734500Y440295D01*
X734459Y440089D01*
X734340Y439910D01*
X734161Y439791D01*
X733955Y439750D01*
X731045Y439750D01*
X730839Y439791D01*
X730660Y439910D01*
X730541Y440089D01*
X730500Y440295D01*
X730500Y446705D01*
X730541Y446911D01*
X730660Y447090D01*
X730839Y447209D01*
X731045Y447250D01*
X733955Y447250D01*
X734161Y447209D01*
G37*
G36*
X734161Y495209D02*
X734340Y495090D01*
X734459Y494911D01*
X734500Y494705D01*
X734500Y488295D01*
X734459Y488089D01*
X734340Y487910D01*
X734161Y487791D01*
X733955Y487750D01*
X731045Y487750D01*
X730839Y487791D01*
X730660Y487910D01*
X730541Y488089D01*
X730500Y488295D01*
X730500Y494705D01*
X730541Y494911D01*
X730660Y495090D01*
X730839Y495209D01*
X731045Y495250D01*
X733955Y495250D01*
X734161Y495209D01*
G37*
G36*
X739161Y447209D02*
X739340Y447090D01*
X739459Y446911D01*
X739500Y446705D01*
X739500Y440295D01*
X739459Y440089D01*
X739340Y439910D01*
X739161Y439791D01*
X738955Y439750D01*
X736045Y439750D01*
X735839Y439791D01*
X735660Y439910D01*
X735541Y440089D01*
X735500Y440295D01*
X735500Y446705D01*
X735541Y446911D01*
X735660Y447090D01*
X735839Y447209D01*
X736045Y447250D01*
X738955Y447250D01*
X739161Y447209D01*
G37*
G36*
X739161Y495209D02*
X739340Y495090D01*
X739459Y494911D01*
X739500Y494705D01*
X739500Y488295D01*
X739459Y488089D01*
X739340Y487910D01*
X739161Y487791D01*
X738955Y487750D01*
X736045Y487750D01*
X735839Y487791D01*
X735660Y487910D01*
X735541Y488089D01*
X735500Y488295D01*
X735500Y494705D01*
X735541Y494911D01*
X735660Y495090D01*
X735839Y495209D01*
X736045Y495250D01*
X738955Y495250D01*
X739161Y495209D01*
G37*
G36*
X744161Y447209D02*
X744340Y447090D01*
X744459Y446911D01*
X744500Y446705D01*
X744500Y440295D01*
X744459Y440089D01*
X744340Y439910D01*
X744161Y439791D01*
X743955Y439750D01*
X741045Y439750D01*
X740839Y439791D01*
X740660Y439910D01*
X740541Y440089D01*
X740500Y440295D01*
X740500Y446705D01*
X740541Y446911D01*
X740660Y447090D01*
X740839Y447209D01*
X741045Y447250D01*
X743955Y447250D01*
X744161Y447209D01*
G37*
G36*
X744161Y495209D02*
X744340Y495090D01*
X744459Y494911D01*
X744500Y494705D01*
X744500Y488295D01*
X744459Y488089D01*
X744340Y487910D01*
X744161Y487791D01*
X743955Y487750D01*
X741045Y487750D01*
X740839Y487791D01*
X740660Y487910D01*
X740541Y488089D01*
X740500Y488295D01*
X740500Y494705D01*
X740541Y494911D01*
X740660Y495090D01*
X740839Y495209D01*
X741045Y495250D01*
X743955Y495250D01*
X744161Y495209D01*
G37*
G36*
X749161Y447209D02*
X749340Y447090D01*
X749459Y446911D01*
X749500Y446705D01*
X749500Y440295D01*
X749459Y440089D01*
X749340Y439910D01*
X749161Y439791D01*
X748955Y439750D01*
X746045Y439750D01*
X745839Y439791D01*
X745660Y439910D01*
X745541Y440089D01*
X745500Y440295D01*
X745500Y446705D01*
X745541Y446911D01*
X745660Y447090D01*
X745839Y447209D01*
X746045Y447250D01*
X748955Y447250D01*
X749161Y447209D01*
G37*
G36*
X749161Y495209D02*
X749340Y495090D01*
X749459Y494911D01*
X749500Y494705D01*
X749500Y488295D01*
X749459Y488089D01*
X749340Y487910D01*
X749161Y487791D01*
X748955Y487750D01*
X746045Y487750D01*
X745839Y487791D01*
X745660Y487910D01*
X745541Y488089D01*
X745500Y488295D01*
X745500Y494705D01*
X745541Y494911D01*
X745660Y495090D01*
X745839Y495209D01*
X746045Y495250D01*
X748955Y495250D01*
X749161Y495209D01*
G37*
G36*
X754161Y447209D02*
X754340Y447090D01*
X754459Y446911D01*
X754500Y446705D01*
X754500Y440295D01*
X754459Y440089D01*
X754340Y439910D01*
X754161Y439791D01*
X753955Y439750D01*
X751045Y439750D01*
X750839Y439791D01*
X750660Y439910D01*
X750541Y440089D01*
X750500Y440295D01*
X750500Y446705D01*
X750541Y446911D01*
X750660Y447090D01*
X750839Y447209D01*
X751045Y447250D01*
X753955Y447250D01*
X754161Y447209D01*
G37*
G36*
X754161Y495209D02*
X754340Y495090D01*
X754459Y494911D01*
X754500Y494705D01*
X754500Y488295D01*
X754459Y488089D01*
X754340Y487910D01*
X754161Y487791D01*
X753955Y487750D01*
X751045Y487750D01*
X750839Y487791D01*
X750660Y487910D01*
X750541Y488089D01*
X750500Y488295D01*
X750500Y494705D01*
X750541Y494911D01*
X750660Y495090D01*
X750839Y495209D01*
X751045Y495250D01*
X753955Y495250D01*
X754161Y495209D01*
G37*
G36*
X759161Y447209D02*
X759340Y447090D01*
X759459Y446911D01*
X759500Y446705D01*
X759500Y440295D01*
X759459Y440089D01*
X759340Y439910D01*
X759161Y439791D01*
X758955Y439750D01*
X756045Y439750D01*
X755839Y439791D01*
X755660Y439910D01*
X755541Y440089D01*
X755500Y440295D01*
X755500Y446705D01*
X755541Y446911D01*
X755660Y447090D01*
X755839Y447209D01*
X756045Y447250D01*
X758955Y447250D01*
X759161Y447209D01*
G37*
G36*
X759161Y495209D02*
X759340Y495090D01*
X759459Y494911D01*
X759500Y494705D01*
X759500Y488295D01*
X759459Y488089D01*
X759340Y487910D01*
X759161Y487791D01*
X758955Y487750D01*
X756045Y487750D01*
X755839Y487791D01*
X755660Y487910D01*
X755541Y488089D01*
X755500Y488295D01*
X755500Y494705D01*
X755541Y494911D01*
X755660Y495090D01*
X755839Y495209D01*
X756045Y495250D01*
X758955Y495250D01*
X759161Y495209D01*
G37*
G36*
X764161Y447209D02*
X764340Y447090D01*
X764459Y446911D01*
X764500Y446705D01*
X764500Y440295D01*
X764459Y440089D01*
X764340Y439910D01*
X764161Y439791D01*
X763955Y439750D01*
X761045Y439750D01*
X760839Y439791D01*
X760660Y439910D01*
X760541Y440089D01*
X760500Y440295D01*
X760500Y446705D01*
X760541Y446911D01*
X760660Y447090D01*
X760839Y447209D01*
X761045Y447250D01*
X763955Y447250D01*
X764161Y447209D01*
G37*
G36*
X764161Y495209D02*
X764340Y495090D01*
X764459Y494911D01*
X764500Y494705D01*
X764500Y488295D01*
X764459Y488089D01*
X764340Y487910D01*
X764161Y487791D01*
X763955Y487750D01*
X761045Y487750D01*
X760839Y487791D01*
X760660Y487910D01*
X760541Y488089D01*
X760500Y488295D01*
X760500Y494705D01*
X760541Y494911D01*
X760660Y495090D01*
X760839Y495209D01*
X761045Y495250D01*
X763955Y495250D01*
X764161Y495209D01*
G37*
G36*
X772411Y451959D02*
X772590Y451840D01*
X772709Y451661D01*
X772750Y451455D01*
X772750Y448545D01*
X772709Y448339D01*
X772590Y448160D01*
X772411Y448041D01*
X772205Y448000D01*
X765795Y448000D01*
X765589Y448041D01*
X765410Y448160D01*
X765291Y448339D01*
X765250Y448545D01*
X765250Y451455D01*
X765291Y451661D01*
X765410Y451840D01*
X765589Y451959D01*
X765795Y452000D01*
X772205Y452000D01*
X772411Y451959D01*
G37*
G36*
X772411Y456959D02*
X772590Y456840D01*
X772709Y456661D01*
X772750Y456455D01*
X772750Y453545D01*
X772709Y453339D01*
X772590Y453160D01*
X772411Y453041D01*
X772205Y453000D01*
X765795Y453000D01*
X765589Y453041D01*
X765410Y453160D01*
X765291Y453339D01*
X765250Y453545D01*
X765250Y456455D01*
X765291Y456661D01*
X765410Y456840D01*
X765589Y456959D01*
X765795Y457000D01*
X772205Y457000D01*
X772411Y456959D01*
G37*
G36*
X772411Y461959D02*
X772590Y461840D01*
X772709Y461661D01*
X772750Y461455D01*
X772750Y458545D01*
X772709Y458339D01*
X772590Y458160D01*
X772411Y458041D01*
X772205Y458000D01*
X765795Y458000D01*
X765589Y458041D01*
X765410Y458160D01*
X765291Y458339D01*
X765250Y458545D01*
X765250Y461455D01*
X765291Y461661D01*
X765410Y461840D01*
X765589Y461959D01*
X765795Y462000D01*
X772205Y462000D01*
X772411Y461959D01*
G37*
G36*
X772411Y466959D02*
X772590Y466840D01*
X772709Y466661D01*
X772750Y466455D01*
X772750Y463545D01*
X772709Y463339D01*
X772590Y463160D01*
X772411Y463041D01*
X772205Y463000D01*
X765795Y463000D01*
X765589Y463041D01*
X765410Y463160D01*
X765291Y463339D01*
X765250Y463545D01*
X765250Y466455D01*
X765291Y466661D01*
X765410Y466840D01*
X765589Y466959D01*
X765795Y467000D01*
X772205Y467000D01*
X772411Y466959D01*
G37*
G36*
X772411Y471959D02*
X772590Y471840D01*
X772709Y471661D01*
X772750Y471455D01*
X772750Y468545D01*
X772709Y468339D01*
X772590Y468160D01*
X772411Y468041D01*
X772205Y468000D01*
X765795Y468000D01*
X765589Y468041D01*
X765410Y468160D01*
X765291Y468339D01*
X765250Y468545D01*
X765250Y471455D01*
X765291Y471661D01*
X765410Y471840D01*
X765589Y471959D01*
X765795Y472000D01*
X772205Y472000D01*
X772411Y471959D01*
G37*
G36*
X772411Y476959D02*
X772590Y476840D01*
X772709Y476661D01*
X772750Y476455D01*
X772750Y473545D01*
X772709Y473339D01*
X772590Y473160D01*
X772411Y473041D01*
X772205Y473000D01*
X765795Y473000D01*
X765589Y473041D01*
X765410Y473160D01*
X765291Y473339D01*
X765250Y473545D01*
X765250Y476455D01*
X765291Y476661D01*
X765410Y476840D01*
X765589Y476959D01*
X765795Y477000D01*
X772205Y477000D01*
X772411Y476959D01*
G37*
G36*
X772411Y481959D02*
X772590Y481840D01*
X772709Y481661D01*
X772750Y481455D01*
X772750Y478545D01*
X772709Y478339D01*
X772590Y478160D01*
X772411Y478041D01*
X772205Y478000D01*
X765795Y478000D01*
X765589Y478041D01*
X765410Y478160D01*
X765291Y478339D01*
X765250Y478545D01*
X765250Y481455D01*
X765291Y481661D01*
X765410Y481840D01*
X765589Y481959D01*
X765795Y482000D01*
X772205Y482000D01*
X772411Y481959D01*
G37*
G36*
X772411Y486959D02*
X772590Y486840D01*
X772709Y486661D01*
X772750Y486455D01*
X772750Y483545D01*
X772709Y483339D01*
X772590Y483160D01*
X772411Y483041D01*
X772205Y483000D01*
X765795Y483000D01*
X765589Y483041D01*
X765410Y483160D01*
X765291Y483339D01*
X765250Y483545D01*
X765250Y486455D01*
X765291Y486661D01*
X765410Y486840D01*
X765589Y486959D01*
X765795Y487000D01*
X772205Y487000D01*
X772411Y486959D01*
G37*
G36*
X53175Y247001D02*
X52882Y247150D01*
X52650Y247382D01*
X52501Y247675D01*
X52450Y247996D01*
X52450Y262004D01*
X52501Y262325D01*
X52650Y262618D01*
X52882Y262850D01*
X53175Y262999D01*
X53496Y263050D01*
X61504Y263050D01*
X61825Y262999D01*
X62118Y262850D01*
X62350Y262618D01*
X62499Y262325D01*
X62550Y262004D01*
X62550Y247996D01*
X62499Y247675D01*
X62350Y247382D01*
X62118Y247150D01*
X61825Y247001D01*
X61504Y246950D01*
X53496Y246950D01*
X53175Y247001D01*
G37*
G36*
X404050Y485950D02*
X382450Y485950D01*
X382450Y490950D01*
X375450Y490950D01*
X375450Y504050D01*
X389450Y504050D01*
X389450Y511050D01*
X404050Y511050D01*
X404050Y485950D01*
G37*
G36*
X500550Y504050D02*
X514550Y504050D01*
X514550Y490950D01*
X507550Y490950D01*
X507550Y485950D01*
X485950Y485950D01*
X485950Y511050D01*
X500550Y511050D01*
X500550Y504050D01*
G37*
D10*
X70000Y60000D03*
X820000Y60000D03*
X820000Y480000D03*
X70000Y480000D03*
D11*
X192600Y450000D03*
X192600Y455000D03*
X192600Y460000D03*
X207400Y460000D03*
X207400Y455000D03*
X207400Y450000D03*
D12*
X126004Y73104D02*
X126004Y66196D01*
X123996Y66196D01*
X123996Y73104D01*
X126004Y73104D01*
X126004Y67820D02*
X123996Y67820D01*
X123996Y69444D02*
X126004Y69444D01*
X126004Y71068D02*
X123996Y71068D01*
X123996Y72692D02*
X126004Y72692D01*
X121004Y73104D02*
X121004Y66196D01*
X118996Y66196D01*
X118996Y73104D01*
X121004Y73104D01*
X121004Y67820D02*
X118996Y67820D01*
X118996Y69444D02*
X121004Y69444D01*
X121004Y71068D02*
X118996Y71068D01*
X118996Y72692D02*
X121004Y72692D01*
X116004Y73104D02*
X116004Y66196D01*
X113996Y66196D01*
X113996Y73104D01*
X116004Y73104D01*
X116004Y67820D02*
X113996Y67820D01*
X113996Y69444D02*
X116004Y69444D01*
X116004Y71068D02*
X113996Y71068D01*
X113996Y72692D02*
X116004Y72692D01*
X111004Y73104D02*
X111004Y66196D01*
X108996Y66196D01*
X108996Y73104D01*
X111004Y73104D01*
X111004Y67820D02*
X108996Y67820D01*
X108996Y69444D02*
X111004Y69444D01*
X111004Y71068D02*
X108996Y71068D01*
X108996Y72692D02*
X111004Y72692D01*
X111004Y85896D02*
X111004Y92804D01*
X111004Y85896D02*
X108996Y85896D01*
X108996Y92804D01*
X111004Y92804D01*
X111004Y87520D02*
X108996Y87520D01*
X108996Y89144D02*
X111004Y89144D01*
X111004Y90768D02*
X108996Y90768D01*
X108996Y92392D02*
X111004Y92392D01*
X116004Y92804D02*
X116004Y85896D01*
X113996Y85896D01*
X113996Y92804D01*
X116004Y92804D01*
X116004Y87520D02*
X113996Y87520D01*
X113996Y89144D02*
X116004Y89144D01*
X116004Y90768D02*
X113996Y90768D01*
X113996Y92392D02*
X116004Y92392D01*
X121004Y92804D02*
X121004Y85896D01*
X118996Y85896D01*
X118996Y92804D01*
X121004Y92804D01*
X121004Y87520D02*
X118996Y87520D01*
X118996Y89144D02*
X121004Y89144D01*
X121004Y90768D02*
X118996Y90768D01*
X118996Y92392D02*
X121004Y92392D01*
X126004Y92804D02*
X126004Y85896D01*
X123996Y85896D01*
X123996Y92804D01*
X126004Y92804D01*
X126004Y87520D02*
X123996Y87520D01*
X123996Y89144D02*
X126004Y89144D01*
X126004Y90768D02*
X123996Y90768D01*
X123996Y92392D02*
X126004Y92392D01*
D13*
X117500Y79500D03*
D14*
X11848Y242500D03*
X28152Y242500D03*
X11848Y262500D03*
X28152Y262500D03*
X11848Y222500D03*
X28152Y222500D03*
D15*
X10000Y432500D03*
X25000Y432500D03*
D16*
X77500Y318152D03*
X77500Y301848D03*
X41250Y434348D03*
X41250Y450652D03*
D15*
X10000Y292500D03*
X25000Y292500D03*
D17*
X93754Y282500D03*
X76246Y282500D03*
X41246Y282500D03*
X58754Y282500D03*
D16*
X175000Y446848D03*
X175000Y463152D03*
D18*
X230000Y451246D03*
X230000Y468754D03*
X255000Y451246D03*
X255000Y468754D03*
D14*
X161848Y429850D03*
X178152Y429850D03*
X191848Y429450D03*
X208152Y429450D03*
D19*
X172750Y495000D03*
X197250Y495000D03*
D20*
X157746Y455000D03*
X142254Y455000D03*
X109754Y50000D03*
X125246Y50000D03*
D14*
X109348Y110000D03*
X125652Y110000D03*
X136848Y245000D03*
X153152Y245000D03*
X136848Y225000D03*
X153152Y225000D03*
D21*
X239496Y136454D02*
X241004Y136454D01*
X241004Y128546D01*
X239496Y128546D01*
X239496Y136454D01*
X239496Y129979D02*
X241004Y129979D01*
X241004Y131412D02*
X239496Y131412D01*
X239496Y132845D02*
X241004Y132845D01*
X241004Y134278D02*
X239496Y134278D01*
X239496Y135711D02*
X241004Y135711D01*
X237004Y136454D02*
X235496Y136454D01*
X237004Y136454D02*
X237004Y128546D01*
X235496Y128546D01*
X235496Y136454D01*
X235496Y129979D02*
X237004Y129979D01*
X237004Y131412D02*
X235496Y131412D01*
X235496Y132845D02*
X237004Y132845D01*
X237004Y134278D02*
X235496Y134278D01*
X235496Y135711D02*
X237004Y135711D01*
X233004Y136454D02*
X231496Y136454D01*
X233004Y136454D02*
X233004Y128546D01*
X231496Y128546D01*
X231496Y136454D01*
X231496Y129979D02*
X233004Y129979D01*
X233004Y131412D02*
X231496Y131412D01*
X231496Y132845D02*
X233004Y132845D01*
X233004Y134278D02*
X231496Y134278D01*
X231496Y135711D02*
X233004Y135711D01*
X229004Y136454D02*
X227496Y136454D01*
X229004Y136454D02*
X229004Y128546D01*
X227496Y128546D01*
X227496Y136454D01*
X227496Y129979D02*
X229004Y129979D01*
X229004Y131412D02*
X227496Y131412D01*
X227496Y132845D02*
X229004Y132845D01*
X229004Y134278D02*
X227496Y134278D01*
X227496Y135711D02*
X229004Y135711D01*
X225004Y136454D02*
X223496Y136454D01*
X225004Y136454D02*
X225004Y128546D01*
X223496Y128546D01*
X223496Y136454D01*
X223496Y129979D02*
X225004Y129979D01*
X225004Y131412D02*
X223496Y131412D01*
X223496Y132845D02*
X225004Y132845D01*
X225004Y134278D02*
X223496Y134278D01*
X223496Y135711D02*
X225004Y135711D01*
X221004Y136454D02*
X219496Y136454D01*
X221004Y136454D02*
X221004Y128546D01*
X219496Y128546D01*
X219496Y136454D01*
X219496Y129979D02*
X221004Y129979D01*
X221004Y131412D02*
X219496Y131412D01*
X219496Y132845D02*
X221004Y132845D01*
X221004Y134278D02*
X219496Y134278D01*
X219496Y135711D02*
X221004Y135711D01*
X217004Y136454D02*
X215496Y136454D01*
X217004Y136454D02*
X217004Y128546D01*
X215496Y128546D01*
X215496Y136454D01*
X215496Y129979D02*
X217004Y129979D01*
X217004Y131412D02*
X215496Y131412D01*
X215496Y132845D02*
X217004Y132845D01*
X217004Y134278D02*
X215496Y134278D01*
X215496Y135711D02*
X217004Y135711D01*
X213004Y136454D02*
X211496Y136454D01*
X213004Y136454D02*
X213004Y128546D01*
X211496Y128546D01*
X211496Y136454D01*
X211496Y129979D02*
X213004Y129979D01*
X213004Y131412D02*
X211496Y131412D01*
X211496Y132845D02*
X213004Y132845D01*
X213004Y134278D02*
X211496Y134278D01*
X211496Y135711D02*
X213004Y135711D01*
X209004Y136454D02*
X207496Y136454D01*
X209004Y136454D02*
X209004Y128546D01*
X207496Y128546D01*
X207496Y136454D01*
X207496Y129979D02*
X209004Y129979D01*
X209004Y131412D02*
X207496Y131412D01*
X207496Y132845D02*
X209004Y132845D01*
X209004Y134278D02*
X207496Y134278D01*
X207496Y135711D02*
X209004Y135711D01*
X205004Y136454D02*
X203496Y136454D01*
X205004Y136454D02*
X205004Y128546D01*
X203496Y128546D01*
X203496Y136454D01*
X203496Y129979D02*
X205004Y129979D01*
X205004Y131412D02*
X203496Y131412D01*
X203496Y132845D02*
X205004Y132845D01*
X205004Y134278D02*
X203496Y134278D01*
X203496Y135711D02*
X205004Y135711D01*
X201004Y136454D02*
X199496Y136454D01*
X201004Y136454D02*
X201004Y128546D01*
X199496Y128546D01*
X199496Y136454D01*
X199496Y129979D02*
X201004Y129979D01*
X201004Y131412D02*
X199496Y131412D01*
X199496Y132845D02*
X201004Y132845D01*
X201004Y134278D02*
X199496Y134278D01*
X199496Y135711D02*
X201004Y135711D01*
X197004Y136454D02*
X195496Y136454D01*
X197004Y136454D02*
X197004Y128546D01*
X195496Y128546D01*
X195496Y136454D01*
X195496Y129979D02*
X197004Y129979D01*
X197004Y131412D02*
X195496Y131412D01*
X195496Y132845D02*
X197004Y132845D01*
X197004Y134278D02*
X195496Y134278D01*
X195496Y135711D02*
X197004Y135711D01*
X193004Y136454D02*
X191496Y136454D01*
X193004Y136454D02*
X193004Y128546D01*
X191496Y128546D01*
X191496Y136454D01*
X191496Y129979D02*
X193004Y129979D01*
X193004Y131412D02*
X191496Y131412D01*
X191496Y132845D02*
X193004Y132845D01*
X193004Y134278D02*
X191496Y134278D01*
X191496Y135711D02*
X193004Y135711D01*
X189004Y136454D02*
X187496Y136454D01*
X189004Y136454D02*
X189004Y128546D01*
X187496Y128546D01*
X187496Y136454D01*
X187496Y129979D02*
X189004Y129979D01*
X189004Y131412D02*
X187496Y131412D01*
X187496Y132845D02*
X189004Y132845D01*
X189004Y134278D02*
X187496Y134278D01*
X187496Y135711D02*
X189004Y135711D01*
X189004Y205154D02*
X187496Y205154D01*
X189004Y205154D02*
X189004Y197246D01*
X187496Y197246D01*
X187496Y205154D01*
X187496Y198679D02*
X189004Y198679D01*
X189004Y200112D02*
X187496Y200112D01*
X187496Y201545D02*
X189004Y201545D01*
X189004Y202978D02*
X187496Y202978D01*
X187496Y204411D02*
X189004Y204411D01*
X191496Y205154D02*
X193004Y205154D01*
X193004Y197246D01*
X191496Y197246D01*
X191496Y205154D01*
X191496Y198679D02*
X193004Y198679D01*
X193004Y200112D02*
X191496Y200112D01*
X191496Y201545D02*
X193004Y201545D01*
X193004Y202978D02*
X191496Y202978D01*
X191496Y204411D02*
X193004Y204411D01*
X195496Y205154D02*
X197004Y205154D01*
X197004Y197246D01*
X195496Y197246D01*
X195496Y205154D01*
X195496Y198679D02*
X197004Y198679D01*
X197004Y200112D02*
X195496Y200112D01*
X195496Y201545D02*
X197004Y201545D01*
X197004Y202978D02*
X195496Y202978D01*
X195496Y204411D02*
X197004Y204411D01*
X199496Y205154D02*
X201004Y205154D01*
X201004Y197246D01*
X199496Y197246D01*
X199496Y205154D01*
X199496Y198679D02*
X201004Y198679D01*
X201004Y200112D02*
X199496Y200112D01*
X199496Y201545D02*
X201004Y201545D01*
X201004Y202978D02*
X199496Y202978D01*
X199496Y204411D02*
X201004Y204411D01*
X203496Y205154D02*
X205004Y205154D01*
X205004Y197246D01*
X203496Y197246D01*
X203496Y205154D01*
X203496Y198679D02*
X205004Y198679D01*
X205004Y200112D02*
X203496Y200112D01*
X203496Y201545D02*
X205004Y201545D01*
X205004Y202978D02*
X203496Y202978D01*
X203496Y204411D02*
X205004Y204411D01*
X207496Y205154D02*
X209004Y205154D01*
X209004Y197246D01*
X207496Y197246D01*
X207496Y205154D01*
X207496Y198679D02*
X209004Y198679D01*
X209004Y200112D02*
X207496Y200112D01*
X207496Y201545D02*
X209004Y201545D01*
X209004Y202978D02*
X207496Y202978D01*
X207496Y204411D02*
X209004Y204411D01*
X211496Y205154D02*
X213004Y205154D01*
X213004Y197246D01*
X211496Y197246D01*
X211496Y205154D01*
X211496Y198679D02*
X213004Y198679D01*
X213004Y200112D02*
X211496Y200112D01*
X211496Y201545D02*
X213004Y201545D01*
X213004Y202978D02*
X211496Y202978D01*
X211496Y204411D02*
X213004Y204411D01*
X215496Y205154D02*
X217004Y205154D01*
X217004Y197246D01*
X215496Y197246D01*
X215496Y205154D01*
X215496Y198679D02*
X217004Y198679D01*
X217004Y200112D02*
X215496Y200112D01*
X215496Y201545D02*
X217004Y201545D01*
X217004Y202978D02*
X215496Y202978D01*
X215496Y204411D02*
X217004Y204411D01*
X219496Y205154D02*
X221004Y205154D01*
X221004Y197246D01*
X219496Y197246D01*
X219496Y205154D01*
X219496Y198679D02*
X221004Y198679D01*
X221004Y200112D02*
X219496Y200112D01*
X219496Y201545D02*
X221004Y201545D01*
X221004Y202978D02*
X219496Y202978D01*
X219496Y204411D02*
X221004Y204411D01*
X223496Y205154D02*
X225004Y205154D01*
X225004Y197246D01*
X223496Y197246D01*
X223496Y205154D01*
X223496Y198679D02*
X225004Y198679D01*
X225004Y200112D02*
X223496Y200112D01*
X223496Y201545D02*
X225004Y201545D01*
X225004Y202978D02*
X223496Y202978D01*
X223496Y204411D02*
X225004Y204411D01*
X227496Y205154D02*
X229004Y205154D01*
X229004Y197246D01*
X227496Y197246D01*
X227496Y205154D01*
X227496Y198679D02*
X229004Y198679D01*
X229004Y200112D02*
X227496Y200112D01*
X227496Y201545D02*
X229004Y201545D01*
X229004Y202978D02*
X227496Y202978D01*
X227496Y204411D02*
X229004Y204411D01*
X231496Y205154D02*
X233004Y205154D01*
X233004Y197246D01*
X231496Y197246D01*
X231496Y205154D01*
X231496Y198679D02*
X233004Y198679D01*
X233004Y200112D02*
X231496Y200112D01*
X231496Y201545D02*
X233004Y201545D01*
X233004Y202978D02*
X231496Y202978D01*
X231496Y204411D02*
X233004Y204411D01*
X235496Y205154D02*
X237004Y205154D01*
X237004Y197246D01*
X235496Y197246D01*
X235496Y205154D01*
X235496Y198679D02*
X237004Y198679D01*
X237004Y200112D02*
X235496Y200112D01*
X235496Y201545D02*
X237004Y201545D01*
X237004Y202978D02*
X235496Y202978D01*
X235496Y204411D02*
X237004Y204411D01*
X239496Y205154D02*
X241004Y205154D01*
X241004Y197246D01*
X239496Y197246D01*
X239496Y205154D01*
X239496Y198679D02*
X241004Y198679D01*
X241004Y200112D02*
X239496Y200112D01*
X239496Y201545D02*
X241004Y201545D01*
X241004Y202978D02*
X239496Y202978D01*
X239496Y204411D02*
X241004Y204411D01*
X244646Y193604D02*
X252554Y193604D01*
X252554Y192096D01*
X244646Y192096D01*
X244646Y193604D01*
X244646Y193529D02*
X252554Y193529D01*
X252554Y189604D02*
X244646Y189604D01*
X252554Y189604D02*
X252554Y188096D01*
X244646Y188096D01*
X244646Y189604D01*
X244646Y189529D02*
X252554Y189529D01*
X252554Y185604D02*
X244646Y185604D01*
X252554Y185604D02*
X252554Y184096D01*
X244646Y184096D01*
X244646Y185604D01*
X244646Y185529D02*
X252554Y185529D01*
X252554Y181604D02*
X244646Y181604D01*
X252554Y181604D02*
X252554Y180096D01*
X244646Y180096D01*
X244646Y181604D01*
X244646Y181529D02*
X252554Y181529D01*
X252554Y177604D02*
X244646Y177604D01*
X252554Y177604D02*
X252554Y176096D01*
X244646Y176096D01*
X244646Y177604D01*
X244646Y177529D02*
X252554Y177529D01*
X252554Y173604D02*
X244646Y173604D01*
X252554Y173604D02*
X252554Y172096D01*
X244646Y172096D01*
X244646Y173604D01*
X244646Y173529D02*
X252554Y173529D01*
X252554Y169604D02*
X244646Y169604D01*
X252554Y169604D02*
X252554Y168096D01*
X244646Y168096D01*
X244646Y169604D01*
X244646Y169529D02*
X252554Y169529D01*
X252554Y165604D02*
X244646Y165604D01*
X252554Y165604D02*
X252554Y164096D01*
X244646Y164096D01*
X244646Y165604D01*
X244646Y165529D02*
X252554Y165529D01*
X252554Y161604D02*
X244646Y161604D01*
X252554Y161604D02*
X252554Y160096D01*
X244646Y160096D01*
X244646Y161604D01*
X244646Y161529D02*
X252554Y161529D01*
X252554Y157604D02*
X244646Y157604D01*
X252554Y157604D02*
X252554Y156096D01*
X244646Y156096D01*
X244646Y157604D01*
X244646Y157529D02*
X252554Y157529D01*
X252554Y153604D02*
X244646Y153604D01*
X252554Y153604D02*
X252554Y152096D01*
X244646Y152096D01*
X244646Y153604D01*
X244646Y153529D02*
X252554Y153529D01*
X252554Y149604D02*
X244646Y149604D01*
X252554Y149604D02*
X252554Y148096D01*
X244646Y148096D01*
X244646Y149604D01*
X244646Y149529D02*
X252554Y149529D01*
X252554Y145604D02*
X244646Y145604D01*
X252554Y145604D02*
X252554Y144096D01*
X244646Y144096D01*
X244646Y145604D01*
X244646Y145529D02*
X252554Y145529D01*
X252554Y141604D02*
X244646Y141604D01*
X252554Y141604D02*
X252554Y140096D01*
X244646Y140096D01*
X244646Y141604D01*
X244646Y141529D02*
X252554Y141529D01*
X183854Y141604D02*
X175946Y141604D01*
X183854Y141604D02*
X183854Y140096D01*
X175946Y140096D01*
X175946Y141604D01*
X175946Y141529D02*
X183854Y141529D01*
X183854Y145604D02*
X175946Y145604D01*
X183854Y145604D02*
X183854Y144096D01*
X175946Y144096D01*
X175946Y145604D01*
X175946Y145529D02*
X183854Y145529D01*
X183854Y149604D02*
X175946Y149604D01*
X183854Y149604D02*
X183854Y148096D01*
X175946Y148096D01*
X175946Y149604D01*
X175946Y149529D02*
X183854Y149529D01*
X183854Y153604D02*
X175946Y153604D01*
X183854Y153604D02*
X183854Y152096D01*
X175946Y152096D01*
X175946Y153604D01*
X175946Y153529D02*
X183854Y153529D01*
X183854Y157604D02*
X175946Y157604D01*
X183854Y157604D02*
X183854Y156096D01*
X175946Y156096D01*
X175946Y157604D01*
X175946Y157529D02*
X183854Y157529D01*
X183854Y161604D02*
X175946Y161604D01*
X183854Y161604D02*
X183854Y160096D01*
X175946Y160096D01*
X175946Y161604D01*
X175946Y161529D02*
X183854Y161529D01*
X183854Y165604D02*
X175946Y165604D01*
X183854Y165604D02*
X183854Y164096D01*
X175946Y164096D01*
X175946Y165604D01*
X175946Y165529D02*
X183854Y165529D01*
X183854Y169604D02*
X175946Y169604D01*
X183854Y169604D02*
X183854Y168096D01*
X175946Y168096D01*
X175946Y169604D01*
X175946Y169529D02*
X183854Y169529D01*
X183854Y173604D02*
X175946Y173604D01*
X183854Y173604D02*
X183854Y172096D01*
X175946Y172096D01*
X175946Y173604D01*
X175946Y173529D02*
X183854Y173529D01*
X183854Y177604D02*
X175946Y177604D01*
X183854Y177604D02*
X183854Y176096D01*
X175946Y176096D01*
X175946Y177604D01*
X175946Y177529D02*
X183854Y177529D01*
X183854Y181604D02*
X175946Y181604D01*
X183854Y181604D02*
X183854Y180096D01*
X175946Y180096D01*
X175946Y181604D01*
X175946Y181529D02*
X183854Y181529D01*
X183854Y185604D02*
X175946Y185604D01*
X183854Y185604D02*
X183854Y184096D01*
X175946Y184096D01*
X175946Y185604D01*
X175946Y185529D02*
X183854Y185529D01*
X183854Y189604D02*
X175946Y189604D01*
X183854Y189604D02*
X183854Y188096D01*
X175946Y188096D01*
X175946Y189604D01*
X175946Y189529D02*
X183854Y189529D01*
X183854Y193604D02*
X175946Y193604D01*
X183854Y193604D02*
X183854Y192096D01*
X175946Y192096D01*
X175946Y193604D01*
X175946Y193529D02*
X183854Y193529D01*
D22*
X214250Y166850D03*
D23*
X211000Y58750D03*
X234000Y58750D03*
X234000Y76250D03*
X211000Y76250D03*
D24*
X242500Y94754D03*
X242500Y110246D03*
X190000Y59754D03*
X190000Y75246D03*
D16*
X222500Y94348D03*
X222500Y110652D03*
D25*
X144500Y50000D03*
X160500Y50000D03*
X160500Y90000D03*
X144500Y90000D03*
X264500Y50000D03*
X280500Y50000D03*
X280500Y90000D03*
X264500Y90000D03*
D14*
X144348Y110000D03*
X160652Y110000D03*
D20*
X152746Y205000D03*
X137254Y205000D03*
D24*
X202500Y110246D03*
X202500Y94754D03*
X212500Y222254D03*
X212500Y237746D03*
D20*
X272254Y147500D03*
X287746Y147500D03*
X152746Y147500D03*
X137254Y147500D03*
X272254Y205000D03*
X287746Y205000D03*
X272254Y225000D03*
X287746Y225000D03*
D24*
X182500Y110246D03*
X182500Y94754D03*
X252500Y222254D03*
X252500Y237746D03*
X192500Y222254D03*
X192500Y237746D03*
X170000Y222254D03*
X170000Y237746D03*
D16*
X192500Y254896D03*
X192500Y271200D03*
X212500Y271200D03*
X212500Y254896D03*
D26*
X52500Y207500D03*
X72500Y207500D03*
D27*
X29000Y150000D03*
X96000Y150000D03*
D18*
X95000Y256254D03*
X95000Y238746D03*
D28*
X745000Y467500D03*
D14*
X736848Y422500D03*
X753152Y422500D03*
D29*
X745000Y365246D03*
X745000Y394754D03*
X745000Y344754D03*
X745000Y315246D03*
D30*
X865000Y355000D03*
X795000Y355000D03*
D31*
X869000Y320000D03*
X869000Y390000D03*
X835000Y320000D03*
X780000Y320000D03*
X797000Y390000D03*
X775000Y390000D03*
D14*
X736848Y517500D03*
X753152Y517500D03*
D32*
X849586Y420000D03*
X860000Y420000D03*
X870414Y420000D03*
D24*
X770000Y504754D03*
X770000Y520246D03*
D20*
X697198Y480000D03*
X681706Y480000D03*
X697198Y500000D03*
X681706Y500000D03*
D17*
X778746Y422500D03*
X796254Y422500D03*
X693746Y427500D03*
X711254Y427500D03*
D24*
X790000Y504754D03*
X790000Y520246D03*
D33*
X675000Y54000D02*
X675000Y36000D01*
X665000Y36000D02*
X665000Y54000D01*
X655000Y54000D02*
X655000Y36000D01*
X645000Y36000D02*
X645000Y54000D01*
X635000Y54000D02*
X635000Y36000D01*
X625000Y36000D02*
X625000Y54000D01*
X615000Y54000D02*
X615000Y36000D01*
X605000Y36000D02*
X605000Y54000D01*
X595000Y54000D02*
X595000Y36000D01*
X585000Y36000D02*
X585000Y54000D01*
X575000Y54000D02*
X575000Y36000D01*
X565000Y36000D02*
X565000Y54000D01*
X555000Y54000D02*
X555000Y36000D01*
X545000Y36000D02*
X545000Y54000D01*
X535000Y54000D02*
X535000Y36000D01*
X525000Y36000D02*
X525000Y54000D01*
X515000Y54000D02*
X515000Y36000D01*
X505000Y36000D02*
X505000Y54000D01*
X495000Y54000D02*
X495000Y36000D01*
X485000Y36000D02*
X485000Y54000D01*
X475000Y54000D02*
X475000Y36000D01*
X465000Y36000D02*
X465000Y54000D01*
X455000Y54000D02*
X455000Y36000D01*
X445000Y36000D02*
X445000Y54000D01*
X435000Y54000D02*
X435000Y36000D01*
X425000Y36000D02*
X425000Y54000D01*
X415000Y54000D02*
X415000Y36000D01*
X405000Y36000D02*
X405000Y54000D01*
X395000Y54000D02*
X395000Y36000D01*
X385000Y36000D02*
X385000Y54000D01*
X375000Y54000D02*
X375000Y36000D01*
X365000Y36000D02*
X365000Y54000D01*
X355000Y54000D02*
X355000Y36000D01*
X359000Y80000D02*
X341000Y80000D01*
X341000Y90000D02*
X359000Y90000D01*
X359000Y100000D02*
X341000Y100000D01*
X341000Y110000D02*
X359000Y110000D01*
X359000Y120000D02*
X341000Y120000D01*
X341000Y130000D02*
X359000Y130000D01*
X359000Y140000D02*
X341000Y140000D01*
X341000Y150000D02*
X359000Y150000D01*
X359000Y160000D02*
X341000Y160000D01*
X341000Y170000D02*
X359000Y170000D01*
X359000Y180000D02*
X341000Y180000D01*
X341000Y190000D02*
X359000Y190000D01*
X359000Y200000D02*
X341000Y200000D01*
X341000Y210000D02*
X359000Y210000D01*
X359000Y220000D02*
X341000Y220000D01*
X341000Y230000D02*
X359000Y230000D01*
X359000Y240000D02*
X341000Y240000D01*
X341000Y250000D02*
X359000Y250000D01*
X359000Y260000D02*
X341000Y260000D01*
X341000Y270000D02*
X359000Y270000D01*
X359000Y280000D02*
X341000Y280000D01*
X341000Y290000D02*
X359000Y290000D01*
X359000Y300000D02*
X341000Y300000D01*
X341000Y310000D02*
X359000Y310000D01*
X359000Y320000D02*
X341000Y320000D01*
X341000Y330000D02*
X359000Y330000D01*
X359000Y340000D02*
X341000Y340000D01*
X341000Y350000D02*
X359000Y350000D01*
X359000Y360000D02*
X341000Y360000D01*
X341000Y370000D02*
X359000Y370000D01*
X359000Y380000D02*
X341000Y380000D01*
X341000Y390000D02*
X359000Y390000D01*
X359000Y400000D02*
X341000Y400000D01*
X355000Y426000D02*
X355000Y444000D01*
X365000Y444000D02*
X365000Y426000D01*
X375000Y426000D02*
X375000Y444000D01*
X385000Y444000D02*
X385000Y426000D01*
X395000Y426000D02*
X395000Y444000D01*
X405000Y444000D02*
X405000Y426000D01*
X415000Y426000D02*
X415000Y444000D01*
X425000Y444000D02*
X425000Y426000D01*
X435000Y426000D02*
X435000Y444000D01*
X445000Y444000D02*
X445000Y426000D01*
X455000Y426000D02*
X455000Y444000D01*
X465000Y444000D02*
X465000Y426000D01*
X475000Y426000D02*
X475000Y444000D01*
X485000Y444000D02*
X485000Y426000D01*
X495000Y426000D02*
X495000Y444000D01*
X505000Y444000D02*
X505000Y426000D01*
X515000Y426000D02*
X515000Y444000D01*
X525000Y444000D02*
X525000Y426000D01*
X535000Y426000D02*
X535000Y444000D01*
X545000Y444000D02*
X545000Y426000D01*
X555000Y426000D02*
X555000Y444000D01*
X565000Y444000D02*
X565000Y426000D01*
X575000Y426000D02*
X575000Y444000D01*
X585000Y444000D02*
X585000Y426000D01*
X595000Y426000D02*
X595000Y444000D01*
X605000Y444000D02*
X605000Y426000D01*
X615000Y426000D02*
X615000Y444000D01*
X625000Y444000D02*
X625000Y426000D01*
X635000Y426000D02*
X635000Y444000D01*
X645000Y444000D02*
X645000Y426000D01*
X655000Y426000D02*
X655000Y444000D01*
X665000Y444000D02*
X665000Y426000D01*
X675000Y426000D02*
X675000Y444000D01*
X671000Y400000D02*
X689000Y400000D01*
X689000Y390000D02*
X671000Y390000D01*
X671000Y380000D02*
X689000Y380000D01*
X689000Y370000D02*
X671000Y370000D01*
X671000Y360000D02*
X689000Y360000D01*
X689000Y350000D02*
X671000Y350000D01*
X671000Y340000D02*
X689000Y340000D01*
X689000Y330000D02*
X671000Y330000D01*
X671000Y320000D02*
X689000Y320000D01*
X689000Y310000D02*
X671000Y310000D01*
X671000Y300000D02*
X689000Y300000D01*
X689000Y290000D02*
X671000Y290000D01*
X671000Y280000D02*
X689000Y280000D01*
X689000Y270000D02*
X671000Y270000D01*
X671000Y260000D02*
X689000Y260000D01*
X689000Y250000D02*
X671000Y250000D01*
X671000Y240000D02*
X689000Y240000D01*
X689000Y230000D02*
X671000Y230000D01*
X671000Y220000D02*
X689000Y220000D01*
X689000Y210000D02*
X671000Y210000D01*
X671000Y200000D02*
X689000Y200000D01*
X689000Y190000D02*
X671000Y190000D01*
X671000Y180000D02*
X689000Y180000D01*
X689000Y170000D02*
X671000Y170000D01*
X671000Y160000D02*
X689000Y160000D01*
X689000Y150000D02*
X671000Y150000D01*
X671000Y140000D02*
X689000Y140000D01*
X689000Y130000D02*
X671000Y130000D01*
X671000Y120000D02*
X689000Y120000D01*
X689000Y110000D02*
X671000Y110000D01*
X671000Y100000D02*
X689000Y100000D01*
X689000Y90000D02*
X671000Y90000D01*
X671000Y80000D02*
X689000Y80000D01*
D34*
X130000Y401000D03*
X120500Y379000D03*
X139500Y379000D03*
D16*
X102500Y463152D03*
X102500Y446848D03*
D24*
X122500Y447254D03*
X122500Y462746D03*
D35*
X159000Y385000D03*
X181000Y375500D03*
X181000Y394500D03*
D16*
X250000Y433152D03*
X250000Y416848D03*
D24*
X230000Y417254D03*
X230000Y432746D03*
D36*
X275000Y433504D03*
X275000Y401496D03*
X300000Y433504D03*
X300000Y401496D03*
D16*
X275000Y369348D03*
X275000Y385652D03*
X300000Y369348D03*
X300000Y385652D03*
D37*
X852500Y239500D03*
X852500Y159500D03*
D38*
X848500Y267500D03*
X848500Y112500D03*
D39*
X755500Y267500D03*
D40*
X753000Y121500D03*
D41*
X742500Y255500D03*
X742500Y244500D03*
X742500Y233500D03*
X742500Y222500D03*
X742500Y211500D03*
X742500Y200500D03*
X742500Y189500D03*
X742500Y178500D03*
X742500Y167500D03*
D42*
X215706Y284644D02*
X215706Y298256D01*
X215706Y284644D02*
X214294Y284644D01*
X214294Y298256D01*
X215706Y298256D01*
X215706Y286928D02*
X214294Y286928D01*
X214294Y289212D02*
X215706Y289212D01*
X215706Y291496D02*
X214294Y291496D01*
X214294Y293780D02*
X215706Y293780D01*
X215706Y296064D02*
X214294Y296064D01*
X210706Y298256D02*
X210706Y284644D01*
X209294Y284644D01*
X209294Y298256D01*
X210706Y298256D01*
X210706Y286928D02*
X209294Y286928D01*
X209294Y289212D02*
X210706Y289212D01*
X210706Y291496D02*
X209294Y291496D01*
X209294Y293780D02*
X210706Y293780D01*
X210706Y296064D02*
X209294Y296064D01*
X205706Y298256D02*
X205706Y284644D01*
X204294Y284644D01*
X204294Y298256D01*
X205706Y298256D01*
X205706Y286928D02*
X204294Y286928D01*
X204294Y289212D02*
X205706Y289212D01*
X205706Y291496D02*
X204294Y291496D01*
X204294Y293780D02*
X205706Y293780D01*
X205706Y296064D02*
X204294Y296064D01*
X200706Y298256D02*
X200706Y284644D01*
X199294Y284644D01*
X199294Y298256D01*
X200706Y298256D01*
X200706Y286928D02*
X199294Y286928D01*
X199294Y289212D02*
X200706Y289212D01*
X200706Y291496D02*
X199294Y291496D01*
X199294Y293780D02*
X200706Y293780D01*
X200706Y296064D02*
X199294Y296064D01*
X195706Y298256D02*
X195706Y284644D01*
X194294Y284644D01*
X194294Y298256D01*
X195706Y298256D01*
X195706Y286928D02*
X194294Y286928D01*
X194294Y289212D02*
X195706Y289212D01*
X195706Y291496D02*
X194294Y291496D01*
X194294Y293780D02*
X195706Y293780D01*
X195706Y296064D02*
X194294Y296064D01*
X195706Y326744D02*
X195706Y340356D01*
X195706Y326744D02*
X194294Y326744D01*
X194294Y340356D01*
X195706Y340356D01*
X195706Y329028D02*
X194294Y329028D01*
X194294Y331312D02*
X195706Y331312D01*
X195706Y333596D02*
X194294Y333596D01*
X194294Y335880D02*
X195706Y335880D01*
X195706Y338164D02*
X194294Y338164D01*
X200706Y340356D02*
X200706Y326744D01*
X199294Y326744D01*
X199294Y340356D01*
X200706Y340356D01*
X200706Y329028D02*
X199294Y329028D01*
X199294Y331312D02*
X200706Y331312D01*
X200706Y333596D02*
X199294Y333596D01*
X199294Y335880D02*
X200706Y335880D01*
X200706Y338164D02*
X199294Y338164D01*
X205706Y340356D02*
X205706Y326744D01*
X204294Y326744D01*
X204294Y340356D01*
X205706Y340356D01*
X205706Y329028D02*
X204294Y329028D01*
X204294Y331312D02*
X205706Y331312D01*
X205706Y333596D02*
X204294Y333596D01*
X204294Y335880D02*
X205706Y335880D01*
X205706Y338164D02*
X204294Y338164D01*
X210706Y340356D02*
X210706Y326744D01*
X209294Y326744D01*
X209294Y340356D01*
X210706Y340356D01*
X210706Y329028D02*
X209294Y329028D01*
X209294Y331312D02*
X210706Y331312D01*
X210706Y333596D02*
X209294Y333596D01*
X209294Y335880D02*
X210706Y335880D01*
X210706Y338164D02*
X209294Y338164D01*
X215706Y340356D02*
X215706Y326744D01*
X214294Y326744D01*
X214294Y340356D01*
X215706Y340356D01*
X215706Y329028D02*
X214294Y329028D01*
X214294Y331312D02*
X215706Y331312D01*
X215706Y333596D02*
X214294Y333596D01*
X214294Y335880D02*
X215706Y335880D01*
X215706Y338164D02*
X214294Y338164D01*
D14*
X145652Y322500D03*
X129348Y322500D03*
X129348Y302500D03*
X145652Y302500D03*
D43*
X115000Y317707D03*
X115000Y307293D03*
D44*
X452500Y486000D03*
X447500Y486000D03*
X442500Y486000D03*
X437500Y486000D03*
X432500Y486000D03*
X427500Y486000D03*
X422500Y486000D03*
X417500Y486000D03*
X412500Y486000D03*
X407500Y486000D03*
X457500Y486000D03*
X462500Y486000D03*
X467500Y486000D03*
X472500Y486000D03*
X477500Y486000D03*
X482500Y486000D03*
D18*
X280000Y451246D03*
X280000Y468754D03*
D45*
X289800Y307200D02*
X297100Y307200D01*
X297100Y305900D01*
X289800Y305900D01*
X289800Y307200D01*
X289800Y294500D02*
X297100Y294500D01*
X297100Y293200D01*
X289800Y293200D01*
X289800Y294500D01*
X289800Y281800D02*
X297100Y281800D01*
X297100Y280500D01*
X289800Y280500D01*
X289800Y281800D01*
X289800Y269100D02*
X297100Y269100D01*
X297100Y267800D01*
X289800Y267800D01*
X289800Y269100D01*
X240200Y269100D02*
X232900Y269100D01*
X240200Y269100D02*
X240200Y267800D01*
X232900Y267800D01*
X232900Y269100D01*
X232900Y281800D02*
X240200Y281800D01*
X240200Y280500D01*
X232900Y280500D01*
X232900Y281800D01*
X232900Y294500D02*
X240200Y294500D01*
X240200Y293200D01*
X232900Y293200D01*
X232900Y294500D01*
X232900Y307200D02*
X240200Y307200D01*
X240200Y305900D01*
X232900Y305900D01*
X232900Y307200D01*
D46*
X265000Y287500D03*
D20*
X250246Y327500D03*
X234754Y327500D03*
D14*
X295652Y327500D03*
X279348Y327500D03*
X264348Y110000D03*
X280652Y110000D03*
D47*
X330000Y467500D03*
X362500Y485000D03*
X362500Y510000D03*
X655000Y520000D03*
X172500Y357500D03*
X172500Y338276D03*
X131250Y420000D03*
X96576Y389055D03*
X707500Y282500D03*
X724942Y282442D03*
X335000Y432500D03*
X575000Y495000D03*
X740000Y35000D03*
X122500Y512500D03*
D48*
X59200Y360000D03*
X59200Y355000D03*
X59200Y350000D03*
X59200Y345000D03*
X59200Y365000D03*
X59200Y370000D03*
X59200Y375000D03*
X59200Y380000D03*
D49*
X59200Y338500D03*
X59200Y330500D03*
X59200Y386500D03*
X59200Y394500D03*
D50*
X53550Y311300D03*
X53550Y413700D03*
X14250Y311300D03*
X14250Y413700D03*
D51*
X48550Y333600D03*
X48550Y391400D03*
D16*
X61250Y434348D03*
X61250Y450652D03*
X81250Y450652D03*
X81250Y434348D03*
D24*
X703750Y390246D03*
X703750Y374754D03*
M02*
