G04 EAGLE Gerber RS-274X export*
G75*
%MOMM*%
%FSLAX34Y34*%
%LPD*%
%INSolderpaste Top*%
%IPPOS*%
%AMOC8*
5,1,8,0,0,1.08239X$1,22.5*%
G01*
G04 Define Apertures*
%ADD10R,0.700000X1.100000*%
%ADD11R,1.100000X0.700000*%
%ADD12R,1.000000X2.400000*%
D10*
G36*
X158256Y475227D02*
X153307Y470278D01*
X145530Y478055D01*
X150479Y483004D01*
X158256Y475227D01*
G37*
G36*
X189722Y506693D02*
X184773Y501744D01*
X176996Y509521D01*
X181945Y514470D01*
X189722Y506693D01*
G37*
G36*
X214470Y481945D02*
X209521Y476996D01*
X201744Y484773D01*
X206693Y489722D01*
X214470Y481945D01*
G37*
G36*
X183004Y450479D02*
X178055Y445530D01*
X170278Y453307D01*
X175227Y458256D01*
X183004Y450479D01*
G37*
G36*
X108256Y424487D02*
X103307Y419538D01*
X95530Y427315D01*
X100479Y432264D01*
X108256Y424487D01*
G37*
G36*
X139722Y455953D02*
X134773Y451004D01*
X126996Y458781D01*
X131945Y463730D01*
X139722Y455953D01*
G37*
G36*
X164470Y431205D02*
X159521Y426256D01*
X151744Y434033D01*
X156693Y438982D01*
X164470Y431205D01*
G37*
G36*
X133004Y399739D02*
X128055Y394790D01*
X120278Y402567D01*
X125227Y407516D01*
X133004Y399739D01*
G37*
G36*
X201744Y384773D02*
X206693Y389722D01*
X214470Y381945D01*
X209521Y376996D01*
X201744Y384773D01*
G37*
G36*
X170278Y353307D02*
X175227Y358256D01*
X183004Y350479D01*
X178055Y345530D01*
X170278Y353307D01*
G37*
G36*
X145530Y378055D02*
X150479Y383004D01*
X158256Y375227D01*
X153307Y370278D01*
X145530Y378055D01*
G37*
G36*
X176996Y409521D02*
X181945Y414470D01*
X189722Y406693D01*
X184773Y401744D01*
X176996Y409521D01*
G37*
G36*
X251744Y435303D02*
X256693Y440252D01*
X264470Y432475D01*
X259521Y427526D01*
X251744Y435303D01*
G37*
G36*
X220278Y403837D02*
X225227Y408786D01*
X233004Y401009D01*
X228055Y396060D01*
X220278Y403837D01*
G37*
G36*
X195530Y428585D02*
X200479Y433534D01*
X208256Y425757D01*
X203307Y420808D01*
X195530Y428585D01*
G37*
G36*
X226996Y460051D02*
X231945Y465000D01*
X239722Y457223D01*
X234773Y452274D01*
X226996Y460051D01*
G37*
G36*
X688256Y475227D02*
X683307Y470278D01*
X675530Y478055D01*
X680479Y483004D01*
X688256Y475227D01*
G37*
G36*
X719722Y506693D02*
X714773Y501744D01*
X706996Y509521D01*
X711945Y514470D01*
X719722Y506693D01*
G37*
G36*
X744470Y481945D02*
X739521Y476996D01*
X731744Y484773D01*
X736693Y489722D01*
X744470Y481945D01*
G37*
G36*
X713004Y450479D02*
X708055Y445530D01*
X700278Y453307D01*
X705227Y458256D01*
X713004Y450479D01*
G37*
G36*
X638256Y425227D02*
X633307Y420278D01*
X625530Y428055D01*
X630479Y433004D01*
X638256Y425227D01*
G37*
G36*
X669722Y456693D02*
X664773Y451744D01*
X656996Y459521D01*
X661945Y464470D01*
X669722Y456693D01*
G37*
G36*
X694470Y431945D02*
X689521Y426996D01*
X681744Y434773D01*
X686693Y439722D01*
X694470Y431945D01*
G37*
G36*
X663004Y400479D02*
X658055Y395530D01*
X650278Y403307D01*
X655227Y408256D01*
X663004Y400479D01*
G37*
G36*
X781744Y434773D02*
X786693Y439722D01*
X794470Y431945D01*
X789521Y426996D01*
X781744Y434773D01*
G37*
G36*
X750278Y403307D02*
X755227Y408256D01*
X763004Y400479D01*
X758055Y395530D01*
X750278Y403307D01*
G37*
G36*
X725530Y428055D02*
X730479Y433004D01*
X738256Y425227D01*
X733307Y420278D01*
X725530Y428055D01*
G37*
G36*
X756996Y459521D02*
X761945Y464470D01*
X769722Y456693D01*
X764773Y451744D01*
X756996Y459521D01*
G37*
G36*
X731744Y384773D02*
X736693Y389722D01*
X744470Y381945D01*
X739521Y376996D01*
X731744Y384773D01*
G37*
G36*
X700278Y353307D02*
X705227Y358256D01*
X713004Y350479D01*
X708055Y345530D01*
X700278Y353307D01*
G37*
G36*
X675530Y378055D02*
X680479Y383004D01*
X688256Y375227D01*
X683307Y370278D01*
X675530Y378055D01*
G37*
G36*
X706996Y409521D02*
X711945Y414470D01*
X719722Y406693D01*
X714773Y401744D01*
X706996Y409521D01*
G37*
X382750Y397500D03*
X427250Y397500D03*
X427250Y362500D03*
X382750Y362500D03*
X457750Y397500D03*
X502250Y397500D03*
X502250Y362500D03*
X457750Y362500D03*
D11*
X52500Y277750D03*
X52500Y322250D03*
X87500Y322250D03*
X87500Y277750D03*
X127500Y277750D03*
X127500Y322250D03*
X162500Y322250D03*
X162500Y277750D03*
X202500Y277750D03*
X202500Y322250D03*
X237500Y322250D03*
X237500Y277750D03*
X277500Y277750D03*
X277500Y322250D03*
X312500Y322250D03*
X312500Y277750D03*
X352500Y277750D03*
X352500Y322250D03*
X387500Y322250D03*
X387500Y277750D03*
X427500Y277750D03*
X427500Y322250D03*
X462500Y322250D03*
X462500Y277750D03*
X502500Y277750D03*
X502500Y322250D03*
X537500Y322250D03*
X537500Y277750D03*
X577500Y277750D03*
X577500Y322250D03*
X612500Y322250D03*
X612500Y277750D03*
X652500Y277750D03*
X652500Y322250D03*
X687500Y322250D03*
X687500Y277750D03*
X727500Y277750D03*
X727500Y322250D03*
X762500Y322250D03*
X762500Y277750D03*
X52500Y197750D03*
X52500Y242250D03*
X87500Y242250D03*
X87500Y197750D03*
X127500Y197750D03*
X127500Y242250D03*
X162500Y242250D03*
X162500Y197750D03*
X202500Y197750D03*
X202500Y242250D03*
X237500Y242250D03*
X237500Y197750D03*
X277500Y197750D03*
X277500Y242250D03*
X312500Y242250D03*
X312500Y197750D03*
X352500Y197750D03*
X352500Y242250D03*
X387500Y242250D03*
X387500Y197750D03*
X427500Y197750D03*
X427500Y242250D03*
X462500Y242250D03*
X462500Y197750D03*
X502500Y197750D03*
X502500Y242250D03*
X537500Y242250D03*
X537500Y197750D03*
X577500Y197750D03*
X577500Y242250D03*
X612500Y242250D03*
X612500Y197750D03*
X652500Y197750D03*
X652500Y242250D03*
X687500Y242250D03*
X687500Y197750D03*
X802500Y277750D03*
X802500Y322250D03*
X837500Y322250D03*
X837500Y277750D03*
X52500Y117750D03*
X52500Y162250D03*
X87500Y162250D03*
X87500Y117750D03*
X127500Y117750D03*
X127500Y162250D03*
X162500Y162250D03*
X162500Y117750D03*
X202500Y117750D03*
X202500Y162250D03*
X237500Y162250D03*
X237500Y117750D03*
X277500Y117750D03*
X277500Y162250D03*
X312500Y162250D03*
X312500Y117750D03*
X352500Y117750D03*
X352500Y162250D03*
X387500Y162250D03*
X387500Y117750D03*
X427500Y117750D03*
X427500Y162250D03*
X462500Y162250D03*
X462500Y117750D03*
X502500Y117750D03*
X502500Y162250D03*
X537500Y162250D03*
X537500Y117750D03*
X577500Y117750D03*
X577500Y162250D03*
X612500Y162250D03*
X612500Y117750D03*
X652500Y117750D03*
X652500Y162250D03*
X687500Y162250D03*
X687500Y117750D03*
X762500Y117750D03*
X762500Y162250D03*
X797500Y162250D03*
X797500Y117750D03*
X127500Y37750D03*
X127500Y82250D03*
X162500Y82250D03*
X162500Y37750D03*
X202500Y37750D03*
X202500Y82250D03*
X237500Y82250D03*
X237500Y37750D03*
X277500Y37750D03*
X277500Y82250D03*
X312500Y82250D03*
X312500Y37750D03*
X387500Y37750D03*
X387500Y82250D03*
X422500Y82250D03*
X422500Y37750D03*
X462500Y37750D03*
X462500Y82250D03*
X497500Y82250D03*
X497500Y37750D03*
X575000Y32750D03*
X575000Y77250D03*
X610000Y77250D03*
X610000Y32750D03*
X652500Y37750D03*
X652500Y82250D03*
X687500Y82250D03*
X687500Y37750D03*
X727500Y37750D03*
X727500Y82250D03*
X762500Y82250D03*
X762500Y37750D03*
X727500Y197750D03*
X727500Y242250D03*
X762500Y242250D03*
X762500Y197750D03*
X802500Y197750D03*
X802500Y242250D03*
X837500Y242250D03*
X837500Y197750D03*
D12*
X521000Y490000D03*
X521000Y460000D03*
M02*
