G04 EAGLE Gerber RS-274X export*
G75*
%MOMM*%
%FSLAX34Y34*%
%LPD*%
%INSolderpaste Bottom*%
%IPPOS*%
%AMOC8*
5,1,8,0,0,1.08239X$1,22.5*%
G01*
G04 Define Apertures*
%ADD10C,0.104000*%
%ADD11R,0.670000X0.300000*%
%ADD12R,0.820000X0.560000*%
%ADD13C,0.067500*%
%ADD14R,0.798700X0.973900*%
%ADD15R,0.611800X0.911800*%
%ADD16R,0.973900X0.798700*%
%ADD17R,1.164600X1.465300*%
%ADD18R,1.465300X1.164600*%
%ADD19R,1.200000X3.800000*%
%ADD20R,0.920900X0.970200*%
%ADD21R,1.960000X1.960000*%
%ADD22C,0.050000*%
%ADD23R,1.300000X1.050000*%
%ADD24R,0.970200X0.920900*%
%ADD25R,1.000000X1.000000*%
%ADD26R,1.000000X3.500000*%
%ADD27R,1.500000X3.400000*%
%ADD28R,1.490000X1.490000*%
%ADD29C,0.062500*%
%ADD30R,1.815300X1.164600*%
%ADD31R,1.500000X2.000000*%
%ADD32C,0.600000*%
%ADD33R,1.000000X1.400000*%
%ADD34R,1.400000X1.000000*%
%ADD35R,1.361200X1.114600*%
%ADD36R,2.200000X1.200000*%
%ADD37R,1.800000X1.200000*%
%ADD38R,1.500000X1.600000*%
%ADD39R,1.600000X0.700000*%
%ADD40C,0.140000*%
%ADD41R,0.300000X1.400000*%
%ADD42R,2.151009X2.721281*%
%ADD43C,0.308000*%
%ADD44R,1.150000X0.300000*%
%ADD45R,1.150000X0.600000*%
%ADD46R,1.500000X1.500000*%
G36*
X53539Y248091D02*
X53360Y248210D01*
X53241Y248389D01*
X53200Y248595D01*
X53200Y261405D01*
X53241Y261611D01*
X53360Y261790D01*
X53539Y261909D01*
X53745Y261950D01*
X61255Y261950D01*
X61461Y261909D01*
X61640Y261790D01*
X61759Y261611D01*
X61800Y261405D01*
X61800Y248595D01*
X61759Y248389D01*
X61640Y248210D01*
X61461Y248091D01*
X61255Y248050D01*
X53745Y248050D01*
X53539Y248091D01*
G37*
G36*
X403050Y486950D02*
X383450Y486950D01*
X383450Y491950D01*
X376450Y491950D01*
X376450Y503050D01*
X390450Y503050D01*
X390450Y510050D01*
X403050Y510050D01*
X403050Y486950D01*
G37*
G36*
X499550Y503050D02*
X513550Y503050D01*
X513550Y491950D01*
X506550Y491950D01*
X506550Y486950D01*
X486950Y486950D01*
X486950Y510050D01*
X499550Y510050D01*
X499550Y503050D01*
G37*
D10*
X66020Y263480D02*
X69980Y263480D01*
X69980Y262520D01*
X66020Y262520D01*
X66020Y263480D01*
X66020Y259480D02*
X69980Y259480D01*
X69980Y258520D01*
X66020Y258520D01*
X66020Y259480D01*
X66020Y255480D02*
X69980Y255480D01*
X69980Y254520D01*
X66020Y254520D01*
X66020Y255480D01*
X66020Y251480D02*
X69980Y251480D01*
X69980Y250520D01*
X66020Y250520D01*
X66020Y251480D01*
X66020Y247480D02*
X69980Y247480D01*
X69980Y246520D01*
X66020Y246520D01*
X66020Y247480D01*
X48980Y247480D02*
X45020Y247480D01*
X48980Y247480D02*
X48980Y246520D01*
X45020Y246520D01*
X45020Y247480D01*
X45020Y251480D02*
X48980Y251480D01*
X48980Y250520D01*
X45020Y250520D01*
X45020Y251480D01*
X45020Y255480D02*
X48980Y255480D01*
X48980Y254520D01*
X45020Y254520D01*
X45020Y255480D01*
X45020Y259480D02*
X48980Y259480D01*
X48980Y258520D01*
X45020Y258520D01*
X45020Y259480D01*
X45020Y263480D02*
X48980Y263480D01*
X48980Y262520D01*
X45020Y262520D01*
X45020Y263480D01*
D11*
X192600Y450000D03*
X192600Y455000D03*
X192600Y460000D03*
X207400Y460000D03*
X207400Y455000D03*
X207400Y450000D03*
D12*
X117500Y79500D03*
D13*
X126013Y73113D02*
X126013Y66187D01*
X123987Y66187D01*
X123987Y73113D01*
X126013Y73113D01*
X126013Y66828D02*
X123987Y66828D01*
X123987Y67469D02*
X126013Y67469D01*
X126013Y68110D02*
X123987Y68110D01*
X123987Y68751D02*
X126013Y68751D01*
X126013Y69392D02*
X123987Y69392D01*
X123987Y70033D02*
X126013Y70033D01*
X126013Y70674D02*
X123987Y70674D01*
X123987Y71315D02*
X126013Y71315D01*
X126013Y71956D02*
X123987Y71956D01*
X123987Y72597D02*
X126013Y72597D01*
X121013Y73113D02*
X121013Y66187D01*
X118987Y66187D01*
X118987Y73113D01*
X121013Y73113D01*
X121013Y66828D02*
X118987Y66828D01*
X118987Y67469D02*
X121013Y67469D01*
X121013Y68110D02*
X118987Y68110D01*
X118987Y68751D02*
X121013Y68751D01*
X121013Y69392D02*
X118987Y69392D01*
X118987Y70033D02*
X121013Y70033D01*
X121013Y70674D02*
X118987Y70674D01*
X118987Y71315D02*
X121013Y71315D01*
X121013Y71956D02*
X118987Y71956D01*
X118987Y72597D02*
X121013Y72597D01*
X116013Y73113D02*
X116013Y66187D01*
X113987Y66187D01*
X113987Y73113D01*
X116013Y73113D01*
X116013Y66828D02*
X113987Y66828D01*
X113987Y67469D02*
X116013Y67469D01*
X116013Y68110D02*
X113987Y68110D01*
X113987Y68751D02*
X116013Y68751D01*
X116013Y69392D02*
X113987Y69392D01*
X113987Y70033D02*
X116013Y70033D01*
X116013Y70674D02*
X113987Y70674D01*
X113987Y71315D02*
X116013Y71315D01*
X116013Y71956D02*
X113987Y71956D01*
X113987Y72597D02*
X116013Y72597D01*
X111013Y73113D02*
X111013Y66187D01*
X108987Y66187D01*
X108987Y73113D01*
X111013Y73113D01*
X111013Y66828D02*
X108987Y66828D01*
X108987Y67469D02*
X111013Y67469D01*
X111013Y68110D02*
X108987Y68110D01*
X108987Y68751D02*
X111013Y68751D01*
X111013Y69392D02*
X108987Y69392D01*
X108987Y70033D02*
X111013Y70033D01*
X111013Y70674D02*
X108987Y70674D01*
X108987Y71315D02*
X111013Y71315D01*
X111013Y71956D02*
X108987Y71956D01*
X108987Y72597D02*
X111013Y72597D01*
X111013Y85887D02*
X111013Y92813D01*
X111013Y85887D02*
X108987Y85887D01*
X108987Y92813D01*
X111013Y92813D01*
X111013Y86528D02*
X108987Y86528D01*
X108987Y87169D02*
X111013Y87169D01*
X111013Y87810D02*
X108987Y87810D01*
X108987Y88451D02*
X111013Y88451D01*
X111013Y89092D02*
X108987Y89092D01*
X108987Y89733D02*
X111013Y89733D01*
X111013Y90374D02*
X108987Y90374D01*
X108987Y91015D02*
X111013Y91015D01*
X111013Y91656D02*
X108987Y91656D01*
X108987Y92297D02*
X111013Y92297D01*
X116013Y92813D02*
X116013Y85887D01*
X113987Y85887D01*
X113987Y92813D01*
X116013Y92813D01*
X116013Y86528D02*
X113987Y86528D01*
X113987Y87169D02*
X116013Y87169D01*
X116013Y87810D02*
X113987Y87810D01*
X113987Y88451D02*
X116013Y88451D01*
X116013Y89092D02*
X113987Y89092D01*
X113987Y89733D02*
X116013Y89733D01*
X116013Y90374D02*
X113987Y90374D01*
X113987Y91015D02*
X116013Y91015D01*
X116013Y91656D02*
X113987Y91656D01*
X113987Y92297D02*
X116013Y92297D01*
X121013Y92813D02*
X121013Y85887D01*
X118987Y85887D01*
X118987Y92813D01*
X121013Y92813D01*
X121013Y86528D02*
X118987Y86528D01*
X118987Y87169D02*
X121013Y87169D01*
X121013Y87810D02*
X118987Y87810D01*
X118987Y88451D02*
X121013Y88451D01*
X121013Y89092D02*
X118987Y89092D01*
X118987Y89733D02*
X121013Y89733D01*
X121013Y90374D02*
X118987Y90374D01*
X118987Y91015D02*
X121013Y91015D01*
X121013Y91656D02*
X118987Y91656D01*
X118987Y92297D02*
X121013Y92297D01*
X126013Y92813D02*
X126013Y85887D01*
X123987Y85887D01*
X123987Y92813D01*
X126013Y92813D01*
X126013Y86528D02*
X123987Y86528D01*
X123987Y87169D02*
X126013Y87169D01*
X126013Y87810D02*
X123987Y87810D01*
X123987Y88451D02*
X126013Y88451D01*
X126013Y89092D02*
X123987Y89092D01*
X123987Y89733D02*
X126013Y89733D01*
X126013Y90374D02*
X123987Y90374D01*
X123987Y91015D02*
X126013Y91015D01*
X126013Y91656D02*
X123987Y91656D01*
X123987Y92297D02*
X126013Y92297D01*
D14*
X11848Y242500D03*
X28152Y242500D03*
X11848Y262500D03*
X28152Y262500D03*
X11848Y222500D03*
X28152Y222500D03*
D15*
X10000Y432500D03*
X25000Y432500D03*
D16*
X77500Y318152D03*
X77500Y301848D03*
X41250Y434348D03*
X41250Y450652D03*
D15*
X10000Y292500D03*
X25000Y292500D03*
D17*
X93754Y282500D03*
X76246Y282500D03*
X41246Y282500D03*
X58754Y282500D03*
D16*
X175000Y446848D03*
X175000Y463152D03*
D18*
X230000Y451246D03*
X230000Y468754D03*
X255000Y451246D03*
X255000Y468754D03*
D14*
X161848Y429850D03*
X178152Y429850D03*
X191848Y429450D03*
X208152Y429450D03*
D19*
X172750Y495000D03*
X197250Y495000D03*
D20*
X157746Y455000D03*
X142254Y455000D03*
X109754Y50000D03*
X125246Y50000D03*
D14*
X109348Y110000D03*
X125652Y110000D03*
X136848Y245000D03*
X153152Y245000D03*
X136848Y225000D03*
X153152Y225000D03*
D21*
X214250Y166850D03*
D22*
X239500Y136450D02*
X241000Y136450D01*
X241000Y128550D01*
X239500Y128550D01*
X239500Y136450D01*
X239500Y129025D02*
X241000Y129025D01*
X241000Y129500D02*
X239500Y129500D01*
X239500Y129975D02*
X241000Y129975D01*
X241000Y130450D02*
X239500Y130450D01*
X239500Y130925D02*
X241000Y130925D01*
X241000Y131400D02*
X239500Y131400D01*
X239500Y131875D02*
X241000Y131875D01*
X241000Y132350D02*
X239500Y132350D01*
X239500Y132825D02*
X241000Y132825D01*
X241000Y133300D02*
X239500Y133300D01*
X239500Y133775D02*
X241000Y133775D01*
X241000Y134250D02*
X239500Y134250D01*
X239500Y134725D02*
X241000Y134725D01*
X241000Y135200D02*
X239500Y135200D01*
X239500Y135675D02*
X241000Y135675D01*
X241000Y136150D02*
X239500Y136150D01*
X237000Y136450D02*
X235500Y136450D01*
X237000Y136450D02*
X237000Y128550D01*
X235500Y128550D01*
X235500Y136450D01*
X235500Y129025D02*
X237000Y129025D01*
X237000Y129500D02*
X235500Y129500D01*
X235500Y129975D02*
X237000Y129975D01*
X237000Y130450D02*
X235500Y130450D01*
X235500Y130925D02*
X237000Y130925D01*
X237000Y131400D02*
X235500Y131400D01*
X235500Y131875D02*
X237000Y131875D01*
X237000Y132350D02*
X235500Y132350D01*
X235500Y132825D02*
X237000Y132825D01*
X237000Y133300D02*
X235500Y133300D01*
X235500Y133775D02*
X237000Y133775D01*
X237000Y134250D02*
X235500Y134250D01*
X235500Y134725D02*
X237000Y134725D01*
X237000Y135200D02*
X235500Y135200D01*
X235500Y135675D02*
X237000Y135675D01*
X237000Y136150D02*
X235500Y136150D01*
X233000Y136450D02*
X231500Y136450D01*
X233000Y136450D02*
X233000Y128550D01*
X231500Y128550D01*
X231500Y136450D01*
X231500Y129025D02*
X233000Y129025D01*
X233000Y129500D02*
X231500Y129500D01*
X231500Y129975D02*
X233000Y129975D01*
X233000Y130450D02*
X231500Y130450D01*
X231500Y130925D02*
X233000Y130925D01*
X233000Y131400D02*
X231500Y131400D01*
X231500Y131875D02*
X233000Y131875D01*
X233000Y132350D02*
X231500Y132350D01*
X231500Y132825D02*
X233000Y132825D01*
X233000Y133300D02*
X231500Y133300D01*
X231500Y133775D02*
X233000Y133775D01*
X233000Y134250D02*
X231500Y134250D01*
X231500Y134725D02*
X233000Y134725D01*
X233000Y135200D02*
X231500Y135200D01*
X231500Y135675D02*
X233000Y135675D01*
X233000Y136150D02*
X231500Y136150D01*
X229000Y136450D02*
X227500Y136450D01*
X229000Y136450D02*
X229000Y128550D01*
X227500Y128550D01*
X227500Y136450D01*
X227500Y129025D02*
X229000Y129025D01*
X229000Y129500D02*
X227500Y129500D01*
X227500Y129975D02*
X229000Y129975D01*
X229000Y130450D02*
X227500Y130450D01*
X227500Y130925D02*
X229000Y130925D01*
X229000Y131400D02*
X227500Y131400D01*
X227500Y131875D02*
X229000Y131875D01*
X229000Y132350D02*
X227500Y132350D01*
X227500Y132825D02*
X229000Y132825D01*
X229000Y133300D02*
X227500Y133300D01*
X227500Y133775D02*
X229000Y133775D01*
X229000Y134250D02*
X227500Y134250D01*
X227500Y134725D02*
X229000Y134725D01*
X229000Y135200D02*
X227500Y135200D01*
X227500Y135675D02*
X229000Y135675D01*
X229000Y136150D02*
X227500Y136150D01*
X225000Y136450D02*
X223500Y136450D01*
X225000Y136450D02*
X225000Y128550D01*
X223500Y128550D01*
X223500Y136450D01*
X223500Y129025D02*
X225000Y129025D01*
X225000Y129500D02*
X223500Y129500D01*
X223500Y129975D02*
X225000Y129975D01*
X225000Y130450D02*
X223500Y130450D01*
X223500Y130925D02*
X225000Y130925D01*
X225000Y131400D02*
X223500Y131400D01*
X223500Y131875D02*
X225000Y131875D01*
X225000Y132350D02*
X223500Y132350D01*
X223500Y132825D02*
X225000Y132825D01*
X225000Y133300D02*
X223500Y133300D01*
X223500Y133775D02*
X225000Y133775D01*
X225000Y134250D02*
X223500Y134250D01*
X223500Y134725D02*
X225000Y134725D01*
X225000Y135200D02*
X223500Y135200D01*
X223500Y135675D02*
X225000Y135675D01*
X225000Y136150D02*
X223500Y136150D01*
X221000Y136450D02*
X219500Y136450D01*
X221000Y136450D02*
X221000Y128550D01*
X219500Y128550D01*
X219500Y136450D01*
X219500Y129025D02*
X221000Y129025D01*
X221000Y129500D02*
X219500Y129500D01*
X219500Y129975D02*
X221000Y129975D01*
X221000Y130450D02*
X219500Y130450D01*
X219500Y130925D02*
X221000Y130925D01*
X221000Y131400D02*
X219500Y131400D01*
X219500Y131875D02*
X221000Y131875D01*
X221000Y132350D02*
X219500Y132350D01*
X219500Y132825D02*
X221000Y132825D01*
X221000Y133300D02*
X219500Y133300D01*
X219500Y133775D02*
X221000Y133775D01*
X221000Y134250D02*
X219500Y134250D01*
X219500Y134725D02*
X221000Y134725D01*
X221000Y135200D02*
X219500Y135200D01*
X219500Y135675D02*
X221000Y135675D01*
X221000Y136150D02*
X219500Y136150D01*
X217000Y136450D02*
X215500Y136450D01*
X217000Y136450D02*
X217000Y128550D01*
X215500Y128550D01*
X215500Y136450D01*
X215500Y129025D02*
X217000Y129025D01*
X217000Y129500D02*
X215500Y129500D01*
X215500Y129975D02*
X217000Y129975D01*
X217000Y130450D02*
X215500Y130450D01*
X215500Y130925D02*
X217000Y130925D01*
X217000Y131400D02*
X215500Y131400D01*
X215500Y131875D02*
X217000Y131875D01*
X217000Y132350D02*
X215500Y132350D01*
X215500Y132825D02*
X217000Y132825D01*
X217000Y133300D02*
X215500Y133300D01*
X215500Y133775D02*
X217000Y133775D01*
X217000Y134250D02*
X215500Y134250D01*
X215500Y134725D02*
X217000Y134725D01*
X217000Y135200D02*
X215500Y135200D01*
X215500Y135675D02*
X217000Y135675D01*
X217000Y136150D02*
X215500Y136150D01*
X213000Y136450D02*
X211500Y136450D01*
X213000Y136450D02*
X213000Y128550D01*
X211500Y128550D01*
X211500Y136450D01*
X211500Y129025D02*
X213000Y129025D01*
X213000Y129500D02*
X211500Y129500D01*
X211500Y129975D02*
X213000Y129975D01*
X213000Y130450D02*
X211500Y130450D01*
X211500Y130925D02*
X213000Y130925D01*
X213000Y131400D02*
X211500Y131400D01*
X211500Y131875D02*
X213000Y131875D01*
X213000Y132350D02*
X211500Y132350D01*
X211500Y132825D02*
X213000Y132825D01*
X213000Y133300D02*
X211500Y133300D01*
X211500Y133775D02*
X213000Y133775D01*
X213000Y134250D02*
X211500Y134250D01*
X211500Y134725D02*
X213000Y134725D01*
X213000Y135200D02*
X211500Y135200D01*
X211500Y135675D02*
X213000Y135675D01*
X213000Y136150D02*
X211500Y136150D01*
X209000Y136450D02*
X207500Y136450D01*
X209000Y136450D02*
X209000Y128550D01*
X207500Y128550D01*
X207500Y136450D01*
X207500Y129025D02*
X209000Y129025D01*
X209000Y129500D02*
X207500Y129500D01*
X207500Y129975D02*
X209000Y129975D01*
X209000Y130450D02*
X207500Y130450D01*
X207500Y130925D02*
X209000Y130925D01*
X209000Y131400D02*
X207500Y131400D01*
X207500Y131875D02*
X209000Y131875D01*
X209000Y132350D02*
X207500Y132350D01*
X207500Y132825D02*
X209000Y132825D01*
X209000Y133300D02*
X207500Y133300D01*
X207500Y133775D02*
X209000Y133775D01*
X209000Y134250D02*
X207500Y134250D01*
X207500Y134725D02*
X209000Y134725D01*
X209000Y135200D02*
X207500Y135200D01*
X207500Y135675D02*
X209000Y135675D01*
X209000Y136150D02*
X207500Y136150D01*
X205000Y136450D02*
X203500Y136450D01*
X205000Y136450D02*
X205000Y128550D01*
X203500Y128550D01*
X203500Y136450D01*
X203500Y129025D02*
X205000Y129025D01*
X205000Y129500D02*
X203500Y129500D01*
X203500Y129975D02*
X205000Y129975D01*
X205000Y130450D02*
X203500Y130450D01*
X203500Y130925D02*
X205000Y130925D01*
X205000Y131400D02*
X203500Y131400D01*
X203500Y131875D02*
X205000Y131875D01*
X205000Y132350D02*
X203500Y132350D01*
X203500Y132825D02*
X205000Y132825D01*
X205000Y133300D02*
X203500Y133300D01*
X203500Y133775D02*
X205000Y133775D01*
X205000Y134250D02*
X203500Y134250D01*
X203500Y134725D02*
X205000Y134725D01*
X205000Y135200D02*
X203500Y135200D01*
X203500Y135675D02*
X205000Y135675D01*
X205000Y136150D02*
X203500Y136150D01*
X201000Y136450D02*
X199500Y136450D01*
X201000Y136450D02*
X201000Y128550D01*
X199500Y128550D01*
X199500Y136450D01*
X199500Y129025D02*
X201000Y129025D01*
X201000Y129500D02*
X199500Y129500D01*
X199500Y129975D02*
X201000Y129975D01*
X201000Y130450D02*
X199500Y130450D01*
X199500Y130925D02*
X201000Y130925D01*
X201000Y131400D02*
X199500Y131400D01*
X199500Y131875D02*
X201000Y131875D01*
X201000Y132350D02*
X199500Y132350D01*
X199500Y132825D02*
X201000Y132825D01*
X201000Y133300D02*
X199500Y133300D01*
X199500Y133775D02*
X201000Y133775D01*
X201000Y134250D02*
X199500Y134250D01*
X199500Y134725D02*
X201000Y134725D01*
X201000Y135200D02*
X199500Y135200D01*
X199500Y135675D02*
X201000Y135675D01*
X201000Y136150D02*
X199500Y136150D01*
X197000Y136450D02*
X195500Y136450D01*
X197000Y136450D02*
X197000Y128550D01*
X195500Y128550D01*
X195500Y136450D01*
X195500Y129025D02*
X197000Y129025D01*
X197000Y129500D02*
X195500Y129500D01*
X195500Y129975D02*
X197000Y129975D01*
X197000Y130450D02*
X195500Y130450D01*
X195500Y130925D02*
X197000Y130925D01*
X197000Y131400D02*
X195500Y131400D01*
X195500Y131875D02*
X197000Y131875D01*
X197000Y132350D02*
X195500Y132350D01*
X195500Y132825D02*
X197000Y132825D01*
X197000Y133300D02*
X195500Y133300D01*
X195500Y133775D02*
X197000Y133775D01*
X197000Y134250D02*
X195500Y134250D01*
X195500Y134725D02*
X197000Y134725D01*
X197000Y135200D02*
X195500Y135200D01*
X195500Y135675D02*
X197000Y135675D01*
X197000Y136150D02*
X195500Y136150D01*
X193000Y136450D02*
X191500Y136450D01*
X193000Y136450D02*
X193000Y128550D01*
X191500Y128550D01*
X191500Y136450D01*
X191500Y129025D02*
X193000Y129025D01*
X193000Y129500D02*
X191500Y129500D01*
X191500Y129975D02*
X193000Y129975D01*
X193000Y130450D02*
X191500Y130450D01*
X191500Y130925D02*
X193000Y130925D01*
X193000Y131400D02*
X191500Y131400D01*
X191500Y131875D02*
X193000Y131875D01*
X193000Y132350D02*
X191500Y132350D01*
X191500Y132825D02*
X193000Y132825D01*
X193000Y133300D02*
X191500Y133300D01*
X191500Y133775D02*
X193000Y133775D01*
X193000Y134250D02*
X191500Y134250D01*
X191500Y134725D02*
X193000Y134725D01*
X193000Y135200D02*
X191500Y135200D01*
X191500Y135675D02*
X193000Y135675D01*
X193000Y136150D02*
X191500Y136150D01*
X189000Y136450D02*
X187500Y136450D01*
X189000Y136450D02*
X189000Y128550D01*
X187500Y128550D01*
X187500Y136450D01*
X187500Y129025D02*
X189000Y129025D01*
X189000Y129500D02*
X187500Y129500D01*
X187500Y129975D02*
X189000Y129975D01*
X189000Y130450D02*
X187500Y130450D01*
X187500Y130925D02*
X189000Y130925D01*
X189000Y131400D02*
X187500Y131400D01*
X187500Y131875D02*
X189000Y131875D01*
X189000Y132350D02*
X187500Y132350D01*
X187500Y132825D02*
X189000Y132825D01*
X189000Y133300D02*
X187500Y133300D01*
X187500Y133775D02*
X189000Y133775D01*
X189000Y134250D02*
X187500Y134250D01*
X187500Y134725D02*
X189000Y134725D01*
X189000Y135200D02*
X187500Y135200D01*
X187500Y135675D02*
X189000Y135675D01*
X189000Y136150D02*
X187500Y136150D01*
X187500Y205150D02*
X189000Y205150D01*
X189000Y197250D01*
X187500Y197250D01*
X187500Y205150D01*
X187500Y197725D02*
X189000Y197725D01*
X189000Y198200D02*
X187500Y198200D01*
X187500Y198675D02*
X189000Y198675D01*
X189000Y199150D02*
X187500Y199150D01*
X187500Y199625D02*
X189000Y199625D01*
X189000Y200100D02*
X187500Y200100D01*
X187500Y200575D02*
X189000Y200575D01*
X189000Y201050D02*
X187500Y201050D01*
X187500Y201525D02*
X189000Y201525D01*
X189000Y202000D02*
X187500Y202000D01*
X187500Y202475D02*
X189000Y202475D01*
X189000Y202950D02*
X187500Y202950D01*
X187500Y203425D02*
X189000Y203425D01*
X189000Y203900D02*
X187500Y203900D01*
X187500Y204375D02*
X189000Y204375D01*
X189000Y204850D02*
X187500Y204850D01*
X191500Y205150D02*
X193000Y205150D01*
X193000Y197250D01*
X191500Y197250D01*
X191500Y205150D01*
X191500Y197725D02*
X193000Y197725D01*
X193000Y198200D02*
X191500Y198200D01*
X191500Y198675D02*
X193000Y198675D01*
X193000Y199150D02*
X191500Y199150D01*
X191500Y199625D02*
X193000Y199625D01*
X193000Y200100D02*
X191500Y200100D01*
X191500Y200575D02*
X193000Y200575D01*
X193000Y201050D02*
X191500Y201050D01*
X191500Y201525D02*
X193000Y201525D01*
X193000Y202000D02*
X191500Y202000D01*
X191500Y202475D02*
X193000Y202475D01*
X193000Y202950D02*
X191500Y202950D01*
X191500Y203425D02*
X193000Y203425D01*
X193000Y203900D02*
X191500Y203900D01*
X191500Y204375D02*
X193000Y204375D01*
X193000Y204850D02*
X191500Y204850D01*
X195500Y205150D02*
X197000Y205150D01*
X197000Y197250D01*
X195500Y197250D01*
X195500Y205150D01*
X195500Y197725D02*
X197000Y197725D01*
X197000Y198200D02*
X195500Y198200D01*
X195500Y198675D02*
X197000Y198675D01*
X197000Y199150D02*
X195500Y199150D01*
X195500Y199625D02*
X197000Y199625D01*
X197000Y200100D02*
X195500Y200100D01*
X195500Y200575D02*
X197000Y200575D01*
X197000Y201050D02*
X195500Y201050D01*
X195500Y201525D02*
X197000Y201525D01*
X197000Y202000D02*
X195500Y202000D01*
X195500Y202475D02*
X197000Y202475D01*
X197000Y202950D02*
X195500Y202950D01*
X195500Y203425D02*
X197000Y203425D01*
X197000Y203900D02*
X195500Y203900D01*
X195500Y204375D02*
X197000Y204375D01*
X197000Y204850D02*
X195500Y204850D01*
X199500Y205150D02*
X201000Y205150D01*
X201000Y197250D01*
X199500Y197250D01*
X199500Y205150D01*
X199500Y197725D02*
X201000Y197725D01*
X201000Y198200D02*
X199500Y198200D01*
X199500Y198675D02*
X201000Y198675D01*
X201000Y199150D02*
X199500Y199150D01*
X199500Y199625D02*
X201000Y199625D01*
X201000Y200100D02*
X199500Y200100D01*
X199500Y200575D02*
X201000Y200575D01*
X201000Y201050D02*
X199500Y201050D01*
X199500Y201525D02*
X201000Y201525D01*
X201000Y202000D02*
X199500Y202000D01*
X199500Y202475D02*
X201000Y202475D01*
X201000Y202950D02*
X199500Y202950D01*
X199500Y203425D02*
X201000Y203425D01*
X201000Y203900D02*
X199500Y203900D01*
X199500Y204375D02*
X201000Y204375D01*
X201000Y204850D02*
X199500Y204850D01*
X203500Y205150D02*
X205000Y205150D01*
X205000Y197250D01*
X203500Y197250D01*
X203500Y205150D01*
X203500Y197725D02*
X205000Y197725D01*
X205000Y198200D02*
X203500Y198200D01*
X203500Y198675D02*
X205000Y198675D01*
X205000Y199150D02*
X203500Y199150D01*
X203500Y199625D02*
X205000Y199625D01*
X205000Y200100D02*
X203500Y200100D01*
X203500Y200575D02*
X205000Y200575D01*
X205000Y201050D02*
X203500Y201050D01*
X203500Y201525D02*
X205000Y201525D01*
X205000Y202000D02*
X203500Y202000D01*
X203500Y202475D02*
X205000Y202475D01*
X205000Y202950D02*
X203500Y202950D01*
X203500Y203425D02*
X205000Y203425D01*
X205000Y203900D02*
X203500Y203900D01*
X203500Y204375D02*
X205000Y204375D01*
X205000Y204850D02*
X203500Y204850D01*
X207500Y205150D02*
X209000Y205150D01*
X209000Y197250D01*
X207500Y197250D01*
X207500Y205150D01*
X207500Y197725D02*
X209000Y197725D01*
X209000Y198200D02*
X207500Y198200D01*
X207500Y198675D02*
X209000Y198675D01*
X209000Y199150D02*
X207500Y199150D01*
X207500Y199625D02*
X209000Y199625D01*
X209000Y200100D02*
X207500Y200100D01*
X207500Y200575D02*
X209000Y200575D01*
X209000Y201050D02*
X207500Y201050D01*
X207500Y201525D02*
X209000Y201525D01*
X209000Y202000D02*
X207500Y202000D01*
X207500Y202475D02*
X209000Y202475D01*
X209000Y202950D02*
X207500Y202950D01*
X207500Y203425D02*
X209000Y203425D01*
X209000Y203900D02*
X207500Y203900D01*
X207500Y204375D02*
X209000Y204375D01*
X209000Y204850D02*
X207500Y204850D01*
X211500Y205150D02*
X213000Y205150D01*
X213000Y197250D01*
X211500Y197250D01*
X211500Y205150D01*
X211500Y197725D02*
X213000Y197725D01*
X213000Y198200D02*
X211500Y198200D01*
X211500Y198675D02*
X213000Y198675D01*
X213000Y199150D02*
X211500Y199150D01*
X211500Y199625D02*
X213000Y199625D01*
X213000Y200100D02*
X211500Y200100D01*
X211500Y200575D02*
X213000Y200575D01*
X213000Y201050D02*
X211500Y201050D01*
X211500Y201525D02*
X213000Y201525D01*
X213000Y202000D02*
X211500Y202000D01*
X211500Y202475D02*
X213000Y202475D01*
X213000Y202950D02*
X211500Y202950D01*
X211500Y203425D02*
X213000Y203425D01*
X213000Y203900D02*
X211500Y203900D01*
X211500Y204375D02*
X213000Y204375D01*
X213000Y204850D02*
X211500Y204850D01*
X215500Y205150D02*
X217000Y205150D01*
X217000Y197250D01*
X215500Y197250D01*
X215500Y205150D01*
X215500Y197725D02*
X217000Y197725D01*
X217000Y198200D02*
X215500Y198200D01*
X215500Y198675D02*
X217000Y198675D01*
X217000Y199150D02*
X215500Y199150D01*
X215500Y199625D02*
X217000Y199625D01*
X217000Y200100D02*
X215500Y200100D01*
X215500Y200575D02*
X217000Y200575D01*
X217000Y201050D02*
X215500Y201050D01*
X215500Y201525D02*
X217000Y201525D01*
X217000Y202000D02*
X215500Y202000D01*
X215500Y202475D02*
X217000Y202475D01*
X217000Y202950D02*
X215500Y202950D01*
X215500Y203425D02*
X217000Y203425D01*
X217000Y203900D02*
X215500Y203900D01*
X215500Y204375D02*
X217000Y204375D01*
X217000Y204850D02*
X215500Y204850D01*
X219500Y205150D02*
X221000Y205150D01*
X221000Y197250D01*
X219500Y197250D01*
X219500Y205150D01*
X219500Y197725D02*
X221000Y197725D01*
X221000Y198200D02*
X219500Y198200D01*
X219500Y198675D02*
X221000Y198675D01*
X221000Y199150D02*
X219500Y199150D01*
X219500Y199625D02*
X221000Y199625D01*
X221000Y200100D02*
X219500Y200100D01*
X219500Y200575D02*
X221000Y200575D01*
X221000Y201050D02*
X219500Y201050D01*
X219500Y201525D02*
X221000Y201525D01*
X221000Y202000D02*
X219500Y202000D01*
X219500Y202475D02*
X221000Y202475D01*
X221000Y202950D02*
X219500Y202950D01*
X219500Y203425D02*
X221000Y203425D01*
X221000Y203900D02*
X219500Y203900D01*
X219500Y204375D02*
X221000Y204375D01*
X221000Y204850D02*
X219500Y204850D01*
X223500Y205150D02*
X225000Y205150D01*
X225000Y197250D01*
X223500Y197250D01*
X223500Y205150D01*
X223500Y197725D02*
X225000Y197725D01*
X225000Y198200D02*
X223500Y198200D01*
X223500Y198675D02*
X225000Y198675D01*
X225000Y199150D02*
X223500Y199150D01*
X223500Y199625D02*
X225000Y199625D01*
X225000Y200100D02*
X223500Y200100D01*
X223500Y200575D02*
X225000Y200575D01*
X225000Y201050D02*
X223500Y201050D01*
X223500Y201525D02*
X225000Y201525D01*
X225000Y202000D02*
X223500Y202000D01*
X223500Y202475D02*
X225000Y202475D01*
X225000Y202950D02*
X223500Y202950D01*
X223500Y203425D02*
X225000Y203425D01*
X225000Y203900D02*
X223500Y203900D01*
X223500Y204375D02*
X225000Y204375D01*
X225000Y204850D02*
X223500Y204850D01*
X227500Y205150D02*
X229000Y205150D01*
X229000Y197250D01*
X227500Y197250D01*
X227500Y205150D01*
X227500Y197725D02*
X229000Y197725D01*
X229000Y198200D02*
X227500Y198200D01*
X227500Y198675D02*
X229000Y198675D01*
X229000Y199150D02*
X227500Y199150D01*
X227500Y199625D02*
X229000Y199625D01*
X229000Y200100D02*
X227500Y200100D01*
X227500Y200575D02*
X229000Y200575D01*
X229000Y201050D02*
X227500Y201050D01*
X227500Y201525D02*
X229000Y201525D01*
X229000Y202000D02*
X227500Y202000D01*
X227500Y202475D02*
X229000Y202475D01*
X229000Y202950D02*
X227500Y202950D01*
X227500Y203425D02*
X229000Y203425D01*
X229000Y203900D02*
X227500Y203900D01*
X227500Y204375D02*
X229000Y204375D01*
X229000Y204850D02*
X227500Y204850D01*
X231500Y205150D02*
X233000Y205150D01*
X233000Y197250D01*
X231500Y197250D01*
X231500Y205150D01*
X231500Y197725D02*
X233000Y197725D01*
X233000Y198200D02*
X231500Y198200D01*
X231500Y198675D02*
X233000Y198675D01*
X233000Y199150D02*
X231500Y199150D01*
X231500Y199625D02*
X233000Y199625D01*
X233000Y200100D02*
X231500Y200100D01*
X231500Y200575D02*
X233000Y200575D01*
X233000Y201050D02*
X231500Y201050D01*
X231500Y201525D02*
X233000Y201525D01*
X233000Y202000D02*
X231500Y202000D01*
X231500Y202475D02*
X233000Y202475D01*
X233000Y202950D02*
X231500Y202950D01*
X231500Y203425D02*
X233000Y203425D01*
X233000Y203900D02*
X231500Y203900D01*
X231500Y204375D02*
X233000Y204375D01*
X233000Y204850D02*
X231500Y204850D01*
X235500Y205150D02*
X237000Y205150D01*
X237000Y197250D01*
X235500Y197250D01*
X235500Y205150D01*
X235500Y197725D02*
X237000Y197725D01*
X237000Y198200D02*
X235500Y198200D01*
X235500Y198675D02*
X237000Y198675D01*
X237000Y199150D02*
X235500Y199150D01*
X235500Y199625D02*
X237000Y199625D01*
X237000Y200100D02*
X235500Y200100D01*
X235500Y200575D02*
X237000Y200575D01*
X237000Y201050D02*
X235500Y201050D01*
X235500Y201525D02*
X237000Y201525D01*
X237000Y202000D02*
X235500Y202000D01*
X235500Y202475D02*
X237000Y202475D01*
X237000Y202950D02*
X235500Y202950D01*
X235500Y203425D02*
X237000Y203425D01*
X237000Y203900D02*
X235500Y203900D01*
X235500Y204375D02*
X237000Y204375D01*
X237000Y204850D02*
X235500Y204850D01*
X239500Y205150D02*
X241000Y205150D01*
X241000Y197250D01*
X239500Y197250D01*
X239500Y205150D01*
X239500Y197725D02*
X241000Y197725D01*
X241000Y198200D02*
X239500Y198200D01*
X239500Y198675D02*
X241000Y198675D01*
X241000Y199150D02*
X239500Y199150D01*
X239500Y199625D02*
X241000Y199625D01*
X241000Y200100D02*
X239500Y200100D01*
X239500Y200575D02*
X241000Y200575D01*
X241000Y201050D02*
X239500Y201050D01*
X239500Y201525D02*
X241000Y201525D01*
X241000Y202000D02*
X239500Y202000D01*
X239500Y202475D02*
X241000Y202475D01*
X241000Y202950D02*
X239500Y202950D01*
X239500Y203425D02*
X241000Y203425D01*
X241000Y203900D02*
X239500Y203900D01*
X239500Y204375D02*
X241000Y204375D01*
X241000Y204850D02*
X239500Y204850D01*
X244650Y193600D02*
X252550Y193600D01*
X252550Y192100D01*
X244650Y192100D01*
X244650Y193600D01*
X244650Y192575D02*
X252550Y192575D01*
X252550Y193050D02*
X244650Y193050D01*
X244650Y193525D02*
X252550Y193525D01*
X252550Y189600D02*
X244650Y189600D01*
X252550Y189600D02*
X252550Y188100D01*
X244650Y188100D01*
X244650Y189600D01*
X244650Y188575D02*
X252550Y188575D01*
X252550Y189050D02*
X244650Y189050D01*
X244650Y189525D02*
X252550Y189525D01*
X252550Y185600D02*
X244650Y185600D01*
X252550Y185600D02*
X252550Y184100D01*
X244650Y184100D01*
X244650Y185600D01*
X244650Y184575D02*
X252550Y184575D01*
X252550Y185050D02*
X244650Y185050D01*
X244650Y185525D02*
X252550Y185525D01*
X252550Y181600D02*
X244650Y181600D01*
X252550Y181600D02*
X252550Y180100D01*
X244650Y180100D01*
X244650Y181600D01*
X244650Y180575D02*
X252550Y180575D01*
X252550Y181050D02*
X244650Y181050D01*
X244650Y181525D02*
X252550Y181525D01*
X252550Y177600D02*
X244650Y177600D01*
X252550Y177600D02*
X252550Y176100D01*
X244650Y176100D01*
X244650Y177600D01*
X244650Y176575D02*
X252550Y176575D01*
X252550Y177050D02*
X244650Y177050D01*
X244650Y177525D02*
X252550Y177525D01*
X252550Y173600D02*
X244650Y173600D01*
X252550Y173600D02*
X252550Y172100D01*
X244650Y172100D01*
X244650Y173600D01*
X244650Y172575D02*
X252550Y172575D01*
X252550Y173050D02*
X244650Y173050D01*
X244650Y173525D02*
X252550Y173525D01*
X252550Y169600D02*
X244650Y169600D01*
X252550Y169600D02*
X252550Y168100D01*
X244650Y168100D01*
X244650Y169600D01*
X244650Y168575D02*
X252550Y168575D01*
X252550Y169050D02*
X244650Y169050D01*
X244650Y169525D02*
X252550Y169525D01*
X252550Y165600D02*
X244650Y165600D01*
X252550Y165600D02*
X252550Y164100D01*
X244650Y164100D01*
X244650Y165600D01*
X244650Y164575D02*
X252550Y164575D01*
X252550Y165050D02*
X244650Y165050D01*
X244650Y165525D02*
X252550Y165525D01*
X252550Y161600D02*
X244650Y161600D01*
X252550Y161600D02*
X252550Y160100D01*
X244650Y160100D01*
X244650Y161600D01*
X244650Y160575D02*
X252550Y160575D01*
X252550Y161050D02*
X244650Y161050D01*
X244650Y161525D02*
X252550Y161525D01*
X252550Y157600D02*
X244650Y157600D01*
X252550Y157600D02*
X252550Y156100D01*
X244650Y156100D01*
X244650Y157600D01*
X244650Y156575D02*
X252550Y156575D01*
X252550Y157050D02*
X244650Y157050D01*
X244650Y157525D02*
X252550Y157525D01*
X252550Y153600D02*
X244650Y153600D01*
X252550Y153600D02*
X252550Y152100D01*
X244650Y152100D01*
X244650Y153600D01*
X244650Y152575D02*
X252550Y152575D01*
X252550Y153050D02*
X244650Y153050D01*
X244650Y153525D02*
X252550Y153525D01*
X252550Y149600D02*
X244650Y149600D01*
X252550Y149600D02*
X252550Y148100D01*
X244650Y148100D01*
X244650Y149600D01*
X244650Y148575D02*
X252550Y148575D01*
X252550Y149050D02*
X244650Y149050D01*
X244650Y149525D02*
X252550Y149525D01*
X252550Y145600D02*
X244650Y145600D01*
X252550Y145600D02*
X252550Y144100D01*
X244650Y144100D01*
X244650Y145600D01*
X244650Y144575D02*
X252550Y144575D01*
X252550Y145050D02*
X244650Y145050D01*
X244650Y145525D02*
X252550Y145525D01*
X252550Y141600D02*
X244650Y141600D01*
X252550Y141600D02*
X252550Y140100D01*
X244650Y140100D01*
X244650Y141600D01*
X244650Y140575D02*
X252550Y140575D01*
X252550Y141050D02*
X244650Y141050D01*
X244650Y141525D02*
X252550Y141525D01*
X183850Y141600D02*
X175950Y141600D01*
X183850Y141600D02*
X183850Y140100D01*
X175950Y140100D01*
X175950Y141600D01*
X175950Y140575D02*
X183850Y140575D01*
X183850Y141050D02*
X175950Y141050D01*
X175950Y141525D02*
X183850Y141525D01*
X183850Y145600D02*
X175950Y145600D01*
X183850Y145600D02*
X183850Y144100D01*
X175950Y144100D01*
X175950Y145600D01*
X175950Y144575D02*
X183850Y144575D01*
X183850Y145050D02*
X175950Y145050D01*
X175950Y145525D02*
X183850Y145525D01*
X183850Y149600D02*
X175950Y149600D01*
X183850Y149600D02*
X183850Y148100D01*
X175950Y148100D01*
X175950Y149600D01*
X175950Y148575D02*
X183850Y148575D01*
X183850Y149050D02*
X175950Y149050D01*
X175950Y149525D02*
X183850Y149525D01*
X183850Y153600D02*
X175950Y153600D01*
X183850Y153600D02*
X183850Y152100D01*
X175950Y152100D01*
X175950Y153600D01*
X175950Y152575D02*
X183850Y152575D01*
X183850Y153050D02*
X175950Y153050D01*
X175950Y153525D02*
X183850Y153525D01*
X183850Y157600D02*
X175950Y157600D01*
X183850Y157600D02*
X183850Y156100D01*
X175950Y156100D01*
X175950Y157600D01*
X175950Y156575D02*
X183850Y156575D01*
X183850Y157050D02*
X175950Y157050D01*
X175950Y157525D02*
X183850Y157525D01*
X183850Y161600D02*
X175950Y161600D01*
X183850Y161600D02*
X183850Y160100D01*
X175950Y160100D01*
X175950Y161600D01*
X175950Y160575D02*
X183850Y160575D01*
X183850Y161050D02*
X175950Y161050D01*
X175950Y161525D02*
X183850Y161525D01*
X183850Y165600D02*
X175950Y165600D01*
X183850Y165600D02*
X183850Y164100D01*
X175950Y164100D01*
X175950Y165600D01*
X175950Y164575D02*
X183850Y164575D01*
X183850Y165050D02*
X175950Y165050D01*
X175950Y165525D02*
X183850Y165525D01*
X183850Y169600D02*
X175950Y169600D01*
X183850Y169600D02*
X183850Y168100D01*
X175950Y168100D01*
X175950Y169600D01*
X175950Y168575D02*
X183850Y168575D01*
X183850Y169050D02*
X175950Y169050D01*
X175950Y169525D02*
X183850Y169525D01*
X183850Y173600D02*
X175950Y173600D01*
X183850Y173600D02*
X183850Y172100D01*
X175950Y172100D01*
X175950Y173600D01*
X175950Y172575D02*
X183850Y172575D01*
X183850Y173050D02*
X175950Y173050D01*
X175950Y173525D02*
X183850Y173525D01*
X183850Y177600D02*
X175950Y177600D01*
X183850Y177600D02*
X183850Y176100D01*
X175950Y176100D01*
X175950Y177600D01*
X175950Y176575D02*
X183850Y176575D01*
X183850Y177050D02*
X175950Y177050D01*
X175950Y177525D02*
X183850Y177525D01*
X183850Y181600D02*
X175950Y181600D01*
X183850Y181600D02*
X183850Y180100D01*
X175950Y180100D01*
X175950Y181600D01*
X175950Y180575D02*
X183850Y180575D01*
X183850Y181050D02*
X175950Y181050D01*
X175950Y181525D02*
X183850Y181525D01*
X183850Y185600D02*
X175950Y185600D01*
X183850Y185600D02*
X183850Y184100D01*
X175950Y184100D01*
X175950Y185600D01*
X175950Y184575D02*
X183850Y184575D01*
X183850Y185050D02*
X175950Y185050D01*
X175950Y185525D02*
X183850Y185525D01*
X183850Y189600D02*
X175950Y189600D01*
X183850Y189600D02*
X183850Y188100D01*
X175950Y188100D01*
X175950Y189600D01*
X175950Y188575D02*
X183850Y188575D01*
X183850Y189050D02*
X175950Y189050D01*
X175950Y189525D02*
X183850Y189525D01*
X183850Y193600D02*
X175950Y193600D01*
X183850Y193600D02*
X183850Y192100D01*
X175950Y192100D01*
X175950Y193600D01*
X175950Y192575D02*
X183850Y192575D01*
X183850Y193050D02*
X175950Y193050D01*
X175950Y193525D02*
X183850Y193525D01*
D23*
X211000Y58750D03*
X234000Y58750D03*
X234000Y76250D03*
X211000Y76250D03*
D24*
X242500Y94754D03*
X242500Y110246D03*
X190000Y59754D03*
X190000Y75246D03*
D16*
X222500Y94348D03*
X222500Y110652D03*
D25*
X144500Y50000D03*
X160500Y50000D03*
X160500Y90000D03*
X144500Y90000D03*
X264500Y50000D03*
X280500Y50000D03*
X280500Y90000D03*
X264500Y90000D03*
D14*
X144348Y110000D03*
X160652Y110000D03*
D20*
X152746Y205000D03*
X137254Y205000D03*
D24*
X202500Y110246D03*
X202500Y94754D03*
X212500Y222254D03*
X212500Y237746D03*
D20*
X272254Y147500D03*
X287746Y147500D03*
X152746Y147500D03*
X137254Y147500D03*
X272254Y205000D03*
X287746Y205000D03*
X272254Y225000D03*
X287746Y225000D03*
D24*
X182500Y110246D03*
X182500Y94754D03*
X252500Y222254D03*
X252500Y237746D03*
X192500Y222254D03*
X192500Y237746D03*
X170000Y222254D03*
X170000Y237746D03*
D16*
X192500Y254896D03*
X192500Y271200D03*
X212500Y271200D03*
X212500Y254896D03*
D26*
X52500Y207500D03*
X72500Y207500D03*
D27*
X29000Y150000D03*
X96000Y150000D03*
D18*
X95000Y256254D03*
X95000Y238746D03*
D28*
X736550Y459050D03*
X753450Y459050D03*
X736550Y475950D03*
X753450Y475950D03*
D29*
X728438Y488812D02*
X726562Y488812D01*
X726562Y494188D01*
X728438Y494188D01*
X728438Y488812D01*
X728438Y489406D02*
X726562Y489406D01*
X726562Y490000D02*
X728438Y490000D01*
X728438Y490594D02*
X726562Y490594D01*
X726562Y491188D02*
X728438Y491188D01*
X728438Y491782D02*
X726562Y491782D01*
X726562Y492376D02*
X728438Y492376D01*
X728438Y492970D02*
X726562Y492970D01*
X726562Y493564D02*
X728438Y493564D01*
X728438Y494158D02*
X726562Y494158D01*
X731562Y488812D02*
X733438Y488812D01*
X731562Y488812D02*
X731562Y494188D01*
X733438Y494188D01*
X733438Y488812D01*
X733438Y489406D02*
X731562Y489406D01*
X731562Y490000D02*
X733438Y490000D01*
X733438Y490594D02*
X731562Y490594D01*
X731562Y491188D02*
X733438Y491188D01*
X733438Y491782D02*
X731562Y491782D01*
X731562Y492376D02*
X733438Y492376D01*
X733438Y492970D02*
X731562Y492970D01*
X731562Y493564D02*
X733438Y493564D01*
X733438Y494158D02*
X731562Y494158D01*
X736562Y488812D02*
X738438Y488812D01*
X736562Y488812D02*
X736562Y494188D01*
X738438Y494188D01*
X738438Y488812D01*
X738438Y489406D02*
X736562Y489406D01*
X736562Y490000D02*
X738438Y490000D01*
X738438Y490594D02*
X736562Y490594D01*
X736562Y491188D02*
X738438Y491188D01*
X738438Y491782D02*
X736562Y491782D01*
X736562Y492376D02*
X738438Y492376D01*
X738438Y492970D02*
X736562Y492970D01*
X736562Y493564D02*
X738438Y493564D01*
X738438Y494158D02*
X736562Y494158D01*
X741562Y488812D02*
X743438Y488812D01*
X741562Y488812D02*
X741562Y494188D01*
X743438Y494188D01*
X743438Y488812D01*
X743438Y489406D02*
X741562Y489406D01*
X741562Y490000D02*
X743438Y490000D01*
X743438Y490594D02*
X741562Y490594D01*
X741562Y491188D02*
X743438Y491188D01*
X743438Y491782D02*
X741562Y491782D01*
X741562Y492376D02*
X743438Y492376D01*
X743438Y492970D02*
X741562Y492970D01*
X741562Y493564D02*
X743438Y493564D01*
X743438Y494158D02*
X741562Y494158D01*
X746562Y488812D02*
X748438Y488812D01*
X746562Y488812D02*
X746562Y494188D01*
X748438Y494188D01*
X748438Y488812D01*
X748438Y489406D02*
X746562Y489406D01*
X746562Y490000D02*
X748438Y490000D01*
X748438Y490594D02*
X746562Y490594D01*
X746562Y491188D02*
X748438Y491188D01*
X748438Y491782D02*
X746562Y491782D01*
X746562Y492376D02*
X748438Y492376D01*
X748438Y492970D02*
X746562Y492970D01*
X746562Y493564D02*
X748438Y493564D01*
X748438Y494158D02*
X746562Y494158D01*
X751562Y488812D02*
X753438Y488812D01*
X751562Y488812D02*
X751562Y494188D01*
X753438Y494188D01*
X753438Y488812D01*
X753438Y489406D02*
X751562Y489406D01*
X751562Y490000D02*
X753438Y490000D01*
X753438Y490594D02*
X751562Y490594D01*
X751562Y491188D02*
X753438Y491188D01*
X753438Y491782D02*
X751562Y491782D01*
X751562Y492376D02*
X753438Y492376D01*
X753438Y492970D02*
X751562Y492970D01*
X751562Y493564D02*
X753438Y493564D01*
X753438Y494158D02*
X751562Y494158D01*
X756562Y488812D02*
X758438Y488812D01*
X756562Y488812D02*
X756562Y494188D01*
X758438Y494188D01*
X758438Y488812D01*
X758438Y489406D02*
X756562Y489406D01*
X756562Y490000D02*
X758438Y490000D01*
X758438Y490594D02*
X756562Y490594D01*
X756562Y491188D02*
X758438Y491188D01*
X758438Y491782D02*
X756562Y491782D01*
X756562Y492376D02*
X758438Y492376D01*
X758438Y492970D02*
X756562Y492970D01*
X756562Y493564D02*
X758438Y493564D01*
X758438Y494158D02*
X756562Y494158D01*
X761562Y488812D02*
X763438Y488812D01*
X761562Y488812D02*
X761562Y494188D01*
X763438Y494188D01*
X763438Y488812D01*
X763438Y489406D02*
X761562Y489406D01*
X761562Y490000D02*
X763438Y490000D01*
X763438Y490594D02*
X761562Y490594D01*
X761562Y491188D02*
X763438Y491188D01*
X763438Y491782D02*
X761562Y491782D01*
X761562Y492376D02*
X763438Y492376D01*
X763438Y492970D02*
X761562Y492970D01*
X761562Y493564D02*
X763438Y493564D01*
X763438Y494158D02*
X761562Y494158D01*
X761562Y440812D02*
X763438Y440812D01*
X761562Y440812D02*
X761562Y446188D01*
X763438Y446188D01*
X763438Y440812D01*
X763438Y441406D02*
X761562Y441406D01*
X761562Y442000D02*
X763438Y442000D01*
X763438Y442594D02*
X761562Y442594D01*
X761562Y443188D02*
X763438Y443188D01*
X763438Y443782D02*
X761562Y443782D01*
X761562Y444376D02*
X763438Y444376D01*
X763438Y444970D02*
X761562Y444970D01*
X761562Y445564D02*
X763438Y445564D01*
X763438Y446158D02*
X761562Y446158D01*
X758438Y440812D02*
X756562Y440812D01*
X756562Y446188D01*
X758438Y446188D01*
X758438Y440812D01*
X758438Y441406D02*
X756562Y441406D01*
X756562Y442000D02*
X758438Y442000D01*
X758438Y442594D02*
X756562Y442594D01*
X756562Y443188D02*
X758438Y443188D01*
X758438Y443782D02*
X756562Y443782D01*
X756562Y444376D02*
X758438Y444376D01*
X758438Y444970D02*
X756562Y444970D01*
X756562Y445564D02*
X758438Y445564D01*
X758438Y446158D02*
X756562Y446158D01*
X753438Y440812D02*
X751562Y440812D01*
X751562Y446188D01*
X753438Y446188D01*
X753438Y440812D01*
X753438Y441406D02*
X751562Y441406D01*
X751562Y442000D02*
X753438Y442000D01*
X753438Y442594D02*
X751562Y442594D01*
X751562Y443188D02*
X753438Y443188D01*
X753438Y443782D02*
X751562Y443782D01*
X751562Y444376D02*
X753438Y444376D01*
X753438Y444970D02*
X751562Y444970D01*
X751562Y445564D02*
X753438Y445564D01*
X753438Y446158D02*
X751562Y446158D01*
X748438Y440812D02*
X746562Y440812D01*
X746562Y446188D01*
X748438Y446188D01*
X748438Y440812D01*
X748438Y441406D02*
X746562Y441406D01*
X746562Y442000D02*
X748438Y442000D01*
X748438Y442594D02*
X746562Y442594D01*
X746562Y443188D02*
X748438Y443188D01*
X748438Y443782D02*
X746562Y443782D01*
X746562Y444376D02*
X748438Y444376D01*
X748438Y444970D02*
X746562Y444970D01*
X746562Y445564D02*
X748438Y445564D01*
X748438Y446158D02*
X746562Y446158D01*
X743438Y440812D02*
X741562Y440812D01*
X741562Y446188D01*
X743438Y446188D01*
X743438Y440812D01*
X743438Y441406D02*
X741562Y441406D01*
X741562Y442000D02*
X743438Y442000D01*
X743438Y442594D02*
X741562Y442594D01*
X741562Y443188D02*
X743438Y443188D01*
X743438Y443782D02*
X741562Y443782D01*
X741562Y444376D02*
X743438Y444376D01*
X743438Y444970D02*
X741562Y444970D01*
X741562Y445564D02*
X743438Y445564D01*
X743438Y446158D02*
X741562Y446158D01*
X738438Y440812D02*
X736562Y440812D01*
X736562Y446188D01*
X738438Y446188D01*
X738438Y440812D01*
X738438Y441406D02*
X736562Y441406D01*
X736562Y442000D02*
X738438Y442000D01*
X738438Y442594D02*
X736562Y442594D01*
X736562Y443188D02*
X738438Y443188D01*
X738438Y443782D02*
X736562Y443782D01*
X736562Y444376D02*
X738438Y444376D01*
X738438Y444970D02*
X736562Y444970D01*
X736562Y445564D02*
X738438Y445564D01*
X738438Y446158D02*
X736562Y446158D01*
X733438Y440812D02*
X731562Y440812D01*
X731562Y446188D01*
X733438Y446188D01*
X733438Y440812D01*
X733438Y441406D02*
X731562Y441406D01*
X731562Y442000D02*
X733438Y442000D01*
X733438Y442594D02*
X731562Y442594D01*
X731562Y443188D02*
X733438Y443188D01*
X733438Y443782D02*
X731562Y443782D01*
X731562Y444376D02*
X733438Y444376D01*
X733438Y444970D02*
X731562Y444970D01*
X731562Y445564D02*
X733438Y445564D01*
X733438Y446158D02*
X731562Y446158D01*
X728438Y440812D02*
X726562Y440812D01*
X726562Y446188D01*
X728438Y446188D01*
X728438Y440812D01*
X728438Y441406D02*
X726562Y441406D01*
X726562Y442000D02*
X728438Y442000D01*
X728438Y442594D02*
X726562Y442594D01*
X726562Y443188D02*
X728438Y443188D01*
X728438Y443782D02*
X726562Y443782D01*
X726562Y444376D02*
X728438Y444376D01*
X728438Y444970D02*
X726562Y444970D01*
X726562Y445564D02*
X728438Y445564D01*
X728438Y446158D02*
X726562Y446158D01*
X723688Y449062D02*
X718312Y449062D01*
X718312Y450938D01*
X723688Y450938D01*
X723688Y449062D01*
X723688Y449656D02*
X718312Y449656D01*
X718312Y450250D02*
X723688Y450250D01*
X723688Y450844D02*
X718312Y450844D01*
X718312Y454062D02*
X723688Y454062D01*
X718312Y454062D02*
X718312Y455938D01*
X723688Y455938D01*
X723688Y454062D01*
X723688Y454656D02*
X718312Y454656D01*
X718312Y455250D02*
X723688Y455250D01*
X723688Y455844D02*
X718312Y455844D01*
X718312Y459062D02*
X723688Y459062D01*
X718312Y459062D02*
X718312Y460938D01*
X723688Y460938D01*
X723688Y459062D01*
X723688Y459656D02*
X718312Y459656D01*
X718312Y460250D02*
X723688Y460250D01*
X723688Y460844D02*
X718312Y460844D01*
X718312Y464062D02*
X723688Y464062D01*
X718312Y464062D02*
X718312Y465938D01*
X723688Y465938D01*
X723688Y464062D01*
X723688Y464656D02*
X718312Y464656D01*
X718312Y465250D02*
X723688Y465250D01*
X723688Y465844D02*
X718312Y465844D01*
X718312Y469062D02*
X723688Y469062D01*
X718312Y469062D02*
X718312Y470938D01*
X723688Y470938D01*
X723688Y469062D01*
X723688Y469656D02*
X718312Y469656D01*
X718312Y470250D02*
X723688Y470250D01*
X723688Y470844D02*
X718312Y470844D01*
X718312Y474062D02*
X723688Y474062D01*
X718312Y474062D02*
X718312Y475938D01*
X723688Y475938D01*
X723688Y474062D01*
X723688Y474656D02*
X718312Y474656D01*
X718312Y475250D02*
X723688Y475250D01*
X723688Y475844D02*
X718312Y475844D01*
X718312Y479062D02*
X723688Y479062D01*
X718312Y479062D02*
X718312Y480938D01*
X723688Y480938D01*
X723688Y479062D01*
X723688Y479656D02*
X718312Y479656D01*
X718312Y480250D02*
X723688Y480250D01*
X723688Y480844D02*
X718312Y480844D01*
X718312Y484062D02*
X723688Y484062D01*
X718312Y484062D02*
X718312Y485938D01*
X723688Y485938D01*
X723688Y484062D01*
X723688Y484656D02*
X718312Y484656D01*
X718312Y485250D02*
X723688Y485250D01*
X723688Y485844D02*
X718312Y485844D01*
X766312Y484062D02*
X771688Y484062D01*
X766312Y484062D02*
X766312Y485938D01*
X771688Y485938D01*
X771688Y484062D01*
X771688Y484656D02*
X766312Y484656D01*
X766312Y485250D02*
X771688Y485250D01*
X771688Y485844D02*
X766312Y485844D01*
X766312Y479062D02*
X771688Y479062D01*
X766312Y479062D02*
X766312Y480938D01*
X771688Y480938D01*
X771688Y479062D01*
X771688Y479656D02*
X766312Y479656D01*
X766312Y480250D02*
X771688Y480250D01*
X771688Y480844D02*
X766312Y480844D01*
X766312Y474062D02*
X771688Y474062D01*
X766312Y474062D02*
X766312Y475938D01*
X771688Y475938D01*
X771688Y474062D01*
X771688Y474656D02*
X766312Y474656D01*
X766312Y475250D02*
X771688Y475250D01*
X771688Y475844D02*
X766312Y475844D01*
X766312Y469062D02*
X771688Y469062D01*
X766312Y469062D02*
X766312Y470938D01*
X771688Y470938D01*
X771688Y469062D01*
X771688Y469656D02*
X766312Y469656D01*
X766312Y470250D02*
X771688Y470250D01*
X771688Y470844D02*
X766312Y470844D01*
X766312Y464062D02*
X771688Y464062D01*
X766312Y464062D02*
X766312Y465938D01*
X771688Y465938D01*
X771688Y464062D01*
X771688Y464656D02*
X766312Y464656D01*
X766312Y465250D02*
X771688Y465250D01*
X771688Y465844D02*
X766312Y465844D01*
X766312Y459062D02*
X771688Y459062D01*
X766312Y459062D02*
X766312Y460938D01*
X771688Y460938D01*
X771688Y459062D01*
X771688Y459656D02*
X766312Y459656D01*
X766312Y460250D02*
X771688Y460250D01*
X771688Y460844D02*
X766312Y460844D01*
X766312Y454062D02*
X771688Y454062D01*
X766312Y454062D02*
X766312Y455938D01*
X771688Y455938D01*
X771688Y454062D01*
X771688Y454656D02*
X766312Y454656D01*
X766312Y455250D02*
X771688Y455250D01*
X771688Y455844D02*
X766312Y455844D01*
X766312Y449062D02*
X771688Y449062D01*
X766312Y449062D02*
X766312Y450938D01*
X771688Y450938D01*
X771688Y449062D01*
X771688Y449656D02*
X766312Y449656D01*
X766312Y450250D02*
X771688Y450250D01*
X771688Y450844D02*
X766312Y450844D01*
D14*
X736848Y422500D03*
X753152Y422500D03*
D30*
X745000Y365246D03*
X745000Y394754D03*
X745000Y344754D03*
X745000Y315246D03*
D31*
X869000Y320000D03*
X869000Y390000D03*
X835000Y320000D03*
X780000Y320000D03*
X797000Y390000D03*
X775000Y390000D03*
D14*
X736848Y517500D03*
X753152Y517500D03*
D24*
X770000Y504754D03*
X770000Y520246D03*
D20*
X697198Y480000D03*
X681706Y480000D03*
X697198Y500000D03*
X681706Y500000D03*
D17*
X778746Y422500D03*
X796254Y422500D03*
X693746Y427500D03*
X711254Y427500D03*
D24*
X790000Y504754D03*
X790000Y520246D03*
D32*
X675000Y54000D02*
X675000Y36000D01*
X665000Y36000D02*
X665000Y54000D01*
X655000Y54000D02*
X655000Y36000D01*
X645000Y36000D02*
X645000Y54000D01*
X635000Y54000D02*
X635000Y36000D01*
X625000Y36000D02*
X625000Y54000D01*
X615000Y54000D02*
X615000Y36000D01*
X605000Y36000D02*
X605000Y54000D01*
X595000Y54000D02*
X595000Y36000D01*
X585000Y36000D02*
X585000Y54000D01*
X575000Y54000D02*
X575000Y36000D01*
X565000Y36000D02*
X565000Y54000D01*
X555000Y54000D02*
X555000Y36000D01*
X545000Y36000D02*
X545000Y54000D01*
X535000Y54000D02*
X535000Y36000D01*
X525000Y36000D02*
X525000Y54000D01*
X515000Y54000D02*
X515000Y36000D01*
X505000Y36000D02*
X505000Y54000D01*
X495000Y54000D02*
X495000Y36000D01*
X485000Y36000D02*
X485000Y54000D01*
X475000Y54000D02*
X475000Y36000D01*
X465000Y36000D02*
X465000Y54000D01*
X455000Y54000D02*
X455000Y36000D01*
X445000Y36000D02*
X445000Y54000D01*
X435000Y54000D02*
X435000Y36000D01*
X425000Y36000D02*
X425000Y54000D01*
X415000Y54000D02*
X415000Y36000D01*
X405000Y36000D02*
X405000Y54000D01*
X395000Y54000D02*
X395000Y36000D01*
X385000Y36000D02*
X385000Y54000D01*
X375000Y54000D02*
X375000Y36000D01*
X365000Y36000D02*
X365000Y54000D01*
X355000Y54000D02*
X355000Y36000D01*
X359000Y80000D02*
X341000Y80000D01*
X341000Y90000D02*
X359000Y90000D01*
X359000Y100000D02*
X341000Y100000D01*
X341000Y110000D02*
X359000Y110000D01*
X359000Y120000D02*
X341000Y120000D01*
X341000Y130000D02*
X359000Y130000D01*
X359000Y140000D02*
X341000Y140000D01*
X341000Y150000D02*
X359000Y150000D01*
X359000Y160000D02*
X341000Y160000D01*
X341000Y170000D02*
X359000Y170000D01*
X359000Y180000D02*
X341000Y180000D01*
X341000Y190000D02*
X359000Y190000D01*
X359000Y200000D02*
X341000Y200000D01*
X341000Y210000D02*
X359000Y210000D01*
X359000Y220000D02*
X341000Y220000D01*
X341000Y230000D02*
X359000Y230000D01*
X359000Y240000D02*
X341000Y240000D01*
X341000Y250000D02*
X359000Y250000D01*
X359000Y260000D02*
X341000Y260000D01*
X341000Y270000D02*
X359000Y270000D01*
X359000Y280000D02*
X341000Y280000D01*
X341000Y290000D02*
X359000Y290000D01*
X359000Y300000D02*
X341000Y300000D01*
X341000Y310000D02*
X359000Y310000D01*
X359000Y320000D02*
X341000Y320000D01*
X341000Y330000D02*
X359000Y330000D01*
X359000Y340000D02*
X341000Y340000D01*
X341000Y350000D02*
X359000Y350000D01*
X359000Y360000D02*
X341000Y360000D01*
X341000Y370000D02*
X359000Y370000D01*
X359000Y380000D02*
X341000Y380000D01*
X341000Y390000D02*
X359000Y390000D01*
X359000Y400000D02*
X341000Y400000D01*
X355000Y426000D02*
X355000Y444000D01*
X365000Y444000D02*
X365000Y426000D01*
X375000Y426000D02*
X375000Y444000D01*
X385000Y444000D02*
X385000Y426000D01*
X395000Y426000D02*
X395000Y444000D01*
X405000Y444000D02*
X405000Y426000D01*
X415000Y426000D02*
X415000Y444000D01*
X425000Y444000D02*
X425000Y426000D01*
X435000Y426000D02*
X435000Y444000D01*
X445000Y444000D02*
X445000Y426000D01*
X455000Y426000D02*
X455000Y444000D01*
X465000Y444000D02*
X465000Y426000D01*
X475000Y426000D02*
X475000Y444000D01*
X485000Y444000D02*
X485000Y426000D01*
X495000Y426000D02*
X495000Y444000D01*
X505000Y444000D02*
X505000Y426000D01*
X515000Y426000D02*
X515000Y444000D01*
X525000Y444000D02*
X525000Y426000D01*
X535000Y426000D02*
X535000Y444000D01*
X545000Y444000D02*
X545000Y426000D01*
X555000Y426000D02*
X555000Y444000D01*
X565000Y444000D02*
X565000Y426000D01*
X575000Y426000D02*
X575000Y444000D01*
X585000Y444000D02*
X585000Y426000D01*
X595000Y426000D02*
X595000Y444000D01*
X605000Y444000D02*
X605000Y426000D01*
X615000Y426000D02*
X615000Y444000D01*
X625000Y444000D02*
X625000Y426000D01*
X635000Y426000D02*
X635000Y444000D01*
X645000Y444000D02*
X645000Y426000D01*
X655000Y426000D02*
X655000Y444000D01*
X665000Y444000D02*
X665000Y426000D01*
X675000Y426000D02*
X675000Y444000D01*
X671000Y400000D02*
X689000Y400000D01*
X689000Y390000D02*
X671000Y390000D01*
X671000Y380000D02*
X689000Y380000D01*
X689000Y370000D02*
X671000Y370000D01*
X671000Y360000D02*
X689000Y360000D01*
X689000Y350000D02*
X671000Y350000D01*
X671000Y340000D02*
X689000Y340000D01*
X689000Y330000D02*
X671000Y330000D01*
X671000Y320000D02*
X689000Y320000D01*
X689000Y310000D02*
X671000Y310000D01*
X671000Y300000D02*
X689000Y300000D01*
X689000Y290000D02*
X671000Y290000D01*
X671000Y280000D02*
X689000Y280000D01*
X689000Y270000D02*
X671000Y270000D01*
X671000Y260000D02*
X689000Y260000D01*
X689000Y250000D02*
X671000Y250000D01*
X671000Y240000D02*
X689000Y240000D01*
X689000Y230000D02*
X671000Y230000D01*
X671000Y220000D02*
X689000Y220000D01*
X689000Y210000D02*
X671000Y210000D01*
X671000Y200000D02*
X689000Y200000D01*
X689000Y190000D02*
X671000Y190000D01*
X671000Y180000D02*
X689000Y180000D01*
X689000Y170000D02*
X671000Y170000D01*
X671000Y160000D02*
X689000Y160000D01*
X689000Y150000D02*
X671000Y150000D01*
X671000Y140000D02*
X689000Y140000D01*
X689000Y130000D02*
X671000Y130000D01*
X671000Y120000D02*
X689000Y120000D01*
X689000Y110000D02*
X671000Y110000D01*
X671000Y100000D02*
X689000Y100000D01*
X689000Y90000D02*
X671000Y90000D01*
X671000Y80000D02*
X689000Y80000D01*
D33*
X130000Y401000D03*
X120500Y379000D03*
X139500Y379000D03*
D16*
X102500Y463152D03*
X102500Y446848D03*
D24*
X122500Y447254D03*
X122500Y462746D03*
D34*
X159000Y385000D03*
X181000Y375500D03*
X181000Y394500D03*
D16*
X250000Y433152D03*
X250000Y416848D03*
D24*
X230000Y417254D03*
X230000Y432746D03*
D35*
X275000Y433504D03*
X275000Y401496D03*
X300000Y433504D03*
X300000Y401496D03*
D16*
X275000Y369348D03*
X275000Y385652D03*
X300000Y369348D03*
X300000Y385652D03*
D36*
X848500Y267500D03*
X848500Y112500D03*
D37*
X755500Y267500D03*
D38*
X753000Y121500D03*
D39*
X742500Y255500D03*
X742500Y244500D03*
X742500Y233500D03*
X742500Y222500D03*
X742500Y211500D03*
X742500Y200500D03*
X742500Y189500D03*
X742500Y178500D03*
X742500Y167500D03*
D40*
X215700Y284650D02*
X215700Y298250D01*
X215700Y284650D02*
X214300Y284650D01*
X214300Y298250D01*
X215700Y298250D01*
X215700Y285980D02*
X214300Y285980D01*
X214300Y287310D02*
X215700Y287310D01*
X215700Y288640D02*
X214300Y288640D01*
X214300Y289970D02*
X215700Y289970D01*
X215700Y291300D02*
X214300Y291300D01*
X214300Y292630D02*
X215700Y292630D01*
X215700Y293960D02*
X214300Y293960D01*
X214300Y295290D02*
X215700Y295290D01*
X215700Y296620D02*
X214300Y296620D01*
X214300Y297950D02*
X215700Y297950D01*
X210700Y298250D02*
X210700Y284650D01*
X209300Y284650D01*
X209300Y298250D01*
X210700Y298250D01*
X210700Y285980D02*
X209300Y285980D01*
X209300Y287310D02*
X210700Y287310D01*
X210700Y288640D02*
X209300Y288640D01*
X209300Y289970D02*
X210700Y289970D01*
X210700Y291300D02*
X209300Y291300D01*
X209300Y292630D02*
X210700Y292630D01*
X210700Y293960D02*
X209300Y293960D01*
X209300Y295290D02*
X210700Y295290D01*
X210700Y296620D02*
X209300Y296620D01*
X209300Y297950D02*
X210700Y297950D01*
X205700Y298250D02*
X205700Y284650D01*
X204300Y284650D01*
X204300Y298250D01*
X205700Y298250D01*
X205700Y285980D02*
X204300Y285980D01*
X204300Y287310D02*
X205700Y287310D01*
X205700Y288640D02*
X204300Y288640D01*
X204300Y289970D02*
X205700Y289970D01*
X205700Y291300D02*
X204300Y291300D01*
X204300Y292630D02*
X205700Y292630D01*
X205700Y293960D02*
X204300Y293960D01*
X204300Y295290D02*
X205700Y295290D01*
X205700Y296620D02*
X204300Y296620D01*
X204300Y297950D02*
X205700Y297950D01*
X200700Y298250D02*
X200700Y284650D01*
X199300Y284650D01*
X199300Y298250D01*
X200700Y298250D01*
X200700Y285980D02*
X199300Y285980D01*
X199300Y287310D02*
X200700Y287310D01*
X200700Y288640D02*
X199300Y288640D01*
X199300Y289970D02*
X200700Y289970D01*
X200700Y291300D02*
X199300Y291300D01*
X199300Y292630D02*
X200700Y292630D01*
X200700Y293960D02*
X199300Y293960D01*
X199300Y295290D02*
X200700Y295290D01*
X200700Y296620D02*
X199300Y296620D01*
X199300Y297950D02*
X200700Y297950D01*
X195700Y298250D02*
X195700Y284650D01*
X194300Y284650D01*
X194300Y298250D01*
X195700Y298250D01*
X195700Y285980D02*
X194300Y285980D01*
X194300Y287310D02*
X195700Y287310D01*
X195700Y288640D02*
X194300Y288640D01*
X194300Y289970D02*
X195700Y289970D01*
X195700Y291300D02*
X194300Y291300D01*
X194300Y292630D02*
X195700Y292630D01*
X195700Y293960D02*
X194300Y293960D01*
X194300Y295290D02*
X195700Y295290D01*
X195700Y296620D02*
X194300Y296620D01*
X194300Y297950D02*
X195700Y297950D01*
X195700Y326750D02*
X195700Y340350D01*
X195700Y326750D02*
X194300Y326750D01*
X194300Y340350D01*
X195700Y340350D01*
X195700Y328080D02*
X194300Y328080D01*
X194300Y329410D02*
X195700Y329410D01*
X195700Y330740D02*
X194300Y330740D01*
X194300Y332070D02*
X195700Y332070D01*
X195700Y333400D02*
X194300Y333400D01*
X194300Y334730D02*
X195700Y334730D01*
X195700Y336060D02*
X194300Y336060D01*
X194300Y337390D02*
X195700Y337390D01*
X195700Y338720D02*
X194300Y338720D01*
X194300Y340050D02*
X195700Y340050D01*
X200700Y340350D02*
X200700Y326750D01*
X199300Y326750D01*
X199300Y340350D01*
X200700Y340350D01*
X200700Y328080D02*
X199300Y328080D01*
X199300Y329410D02*
X200700Y329410D01*
X200700Y330740D02*
X199300Y330740D01*
X199300Y332070D02*
X200700Y332070D01*
X200700Y333400D02*
X199300Y333400D01*
X199300Y334730D02*
X200700Y334730D01*
X200700Y336060D02*
X199300Y336060D01*
X199300Y337390D02*
X200700Y337390D01*
X200700Y338720D02*
X199300Y338720D01*
X199300Y340050D02*
X200700Y340050D01*
X205700Y340350D02*
X205700Y326750D01*
X204300Y326750D01*
X204300Y340350D01*
X205700Y340350D01*
X205700Y328080D02*
X204300Y328080D01*
X204300Y329410D02*
X205700Y329410D01*
X205700Y330740D02*
X204300Y330740D01*
X204300Y332070D02*
X205700Y332070D01*
X205700Y333400D02*
X204300Y333400D01*
X204300Y334730D02*
X205700Y334730D01*
X205700Y336060D02*
X204300Y336060D01*
X204300Y337390D02*
X205700Y337390D01*
X205700Y338720D02*
X204300Y338720D01*
X204300Y340050D02*
X205700Y340050D01*
X210700Y340350D02*
X210700Y326750D01*
X209300Y326750D01*
X209300Y340350D01*
X210700Y340350D01*
X210700Y328080D02*
X209300Y328080D01*
X209300Y329410D02*
X210700Y329410D01*
X210700Y330740D02*
X209300Y330740D01*
X209300Y332070D02*
X210700Y332070D01*
X210700Y333400D02*
X209300Y333400D01*
X209300Y334730D02*
X210700Y334730D01*
X210700Y336060D02*
X209300Y336060D01*
X209300Y337390D02*
X210700Y337390D01*
X210700Y338720D02*
X209300Y338720D01*
X209300Y340050D02*
X210700Y340050D01*
X215700Y340350D02*
X215700Y326750D01*
X214300Y326750D01*
X214300Y340350D01*
X215700Y340350D01*
X215700Y328080D02*
X214300Y328080D01*
X214300Y329410D02*
X215700Y329410D01*
X215700Y330740D02*
X214300Y330740D01*
X214300Y332070D02*
X215700Y332070D01*
X215700Y333400D02*
X214300Y333400D01*
X214300Y334730D02*
X215700Y334730D01*
X215700Y336060D02*
X214300Y336060D01*
X214300Y337390D02*
X215700Y337390D01*
X215700Y338720D02*
X214300Y338720D01*
X214300Y340050D02*
X215700Y340050D01*
D14*
X145652Y322500D03*
X129348Y322500D03*
X129348Y302500D03*
X145652Y302500D03*
D41*
X407500Y486000D03*
X412500Y486000D03*
X417500Y486000D03*
X422500Y486000D03*
X427500Y486000D03*
X432500Y486000D03*
X437500Y486000D03*
X442500Y486000D03*
X447500Y486000D03*
X452500Y486000D03*
X457500Y486000D03*
X462500Y486000D03*
X467500Y486000D03*
X472500Y486000D03*
X477500Y486000D03*
X482500Y486000D03*
D18*
X280000Y451246D03*
X280000Y468754D03*
D42*
X265005Y287494D03*
D43*
X289790Y307210D02*
X297110Y307210D01*
X297110Y305890D01*
X289790Y305890D01*
X289790Y307210D01*
X289790Y294510D02*
X297110Y294510D01*
X297110Y293190D01*
X289790Y293190D01*
X289790Y294510D01*
X289790Y281810D02*
X297110Y281810D01*
X297110Y280490D01*
X289790Y280490D01*
X289790Y281810D01*
X289790Y269110D02*
X297110Y269110D01*
X297110Y267790D01*
X289790Y267790D01*
X289790Y269110D01*
X240210Y269110D02*
X232890Y269110D01*
X240210Y269110D02*
X240210Y267790D01*
X232890Y267790D01*
X232890Y269110D01*
X232890Y281810D02*
X240210Y281810D01*
X240210Y280490D01*
X232890Y280490D01*
X232890Y281810D01*
X232890Y294510D02*
X240210Y294510D01*
X240210Y293190D01*
X232890Y293190D01*
X232890Y294510D01*
X232890Y307210D02*
X240210Y307210D01*
X240210Y305890D01*
X232890Y305890D01*
X232890Y307210D01*
D20*
X250246Y327500D03*
X234754Y327500D03*
D14*
X295652Y327500D03*
X279348Y327500D03*
X264348Y110000D03*
X280652Y110000D03*
D44*
X59200Y360000D03*
X59200Y355000D03*
X59200Y350000D03*
X59200Y345000D03*
X59200Y365000D03*
X59200Y370000D03*
X59200Y375000D03*
X59200Y380000D03*
D45*
X59200Y338500D03*
X59200Y330500D03*
X59200Y386500D03*
X59200Y394500D03*
D46*
X53550Y311300D03*
X53550Y413700D03*
X14250Y311300D03*
X14250Y413700D03*
D16*
X61250Y434348D03*
X61250Y450652D03*
X81250Y450652D03*
X81250Y434348D03*
D24*
X703750Y390246D03*
X703750Y374754D03*
M02*
