M48
;GenerationSoftware,Autodesk,EAGLE,9.7.0*%
;CreationDate,2026-09-03T21:12:24Z*%
FMAT,2
ICI,OFF
METRIC,TZ,000.000
T2C0.350
T1C1.200
%
G90
M71
T1
X1750Y48620
X69500Y1580
X69500Y48620
X1750Y1580
T2
X25950Y45366
X37211Y35126
X36250Y31221
X41500Y37000
X36000Y26250
X45450Y47964
X42450Y47964
X39450Y47964
X36450Y47964
X30450Y47964
X27450Y47964
X24450Y47964
X12450Y47964
X3450Y47964
X46950Y45366
X31950Y45366
X16950Y45366
X13950Y45366
X4950Y45366
X1950Y45366
X33450Y42768
X18450Y42768
X15450Y42768
X9450Y42768
X6450Y42768
X3450Y42768
X43950Y40170
X37950Y40170
X25950Y40170
X22950Y40170
X19950Y40170
X22950Y45366
X16950Y40170
X13950Y40170
X4950Y40170
X1950Y40170
X24450Y37572
X21450Y37572
X18450Y37572
X9450Y37572
X9450Y47964
X3450Y37572
X31950Y34974
X28950Y34974
X19950Y34974
X10950Y34974
X1950Y34974
X6450Y47964
X10950Y40170
X24450Y32376
X21450Y32376
X18450Y32376
X3450Y32376
X4950Y34974
X450Y32376
X-5550Y32376
X27450Y42768
X31950Y3798
X9450Y32376
X25950Y29778
X34950Y45366
X22950Y29778
X18450Y27180
X18450Y21984
X19950Y29778
X10950Y29778
X3450Y6396
X40950Y24582
X24450Y27180
X15450Y27180
X12450Y27180
X9450Y27180
X12450Y32376
X33450Y11592
X33450Y47964
X3450Y21984
X34950Y24582
X12450Y37572
X25950Y24582
X22950Y24582
X19950Y24582
X13950Y24582
X43950Y8994
X13950Y29778
X1950Y24582
X21450Y42768
X1950Y3798
X42450Y21984
X37950Y24582
X10950Y24582
X16950Y29778
X-1050Y24582
X28950Y40170
X24450Y21984
X12450Y11592
X9450Y21984
X27450Y37572
X-2550Y21984
X22950Y8994
X30450Y16788
X1950Y29778
X46950Y19386
X6450Y27180
X16950Y24582
X13950Y8994
X37950Y45366
X7950Y24582
X15450Y37572
X45450Y21984
X42450Y16788
X15450Y32376
X450Y27180
X24450Y16788
X7950Y14190
X45450Y6396
X34950Y14190
X4950Y24582
X34950Y40170
X10950Y8994
X22950Y14190
X42450Y11592
X46250Y39250
X10950Y3798
X46950Y14190
X42500Y32000
X21450Y11592
X30450Y42768
X22950Y34974
X16950Y3798
X15450Y11592
X-4050Y29778
X43950Y3798
X46950Y8994
X30450Y32376
X10950Y14190
X6450Y11592
X40950Y8994
X18450Y11592
X6450Y32376
X19950Y8994
X45450Y27180
X16950Y8994
X36450Y11592
X46950Y3798
X21450Y47964
X7950Y45366
X42450Y27180
X1950Y8994
X7950Y8994
X24450Y42768
X6450Y16788
X18450Y6396
X6450Y37572
X28950Y14190
X42450Y6396
X7950Y34974
X9450Y16788
X15450Y6396
X12450Y42768
X21450Y16788
X28950Y29778
X450Y16788
X21450Y6396
X21450Y27180
X9450Y11592
X4950Y14190
X19950Y3798
X19950Y14190
X7950Y29778
X28950Y8994
X13950Y34974
X33450Y16788
X40950Y3798
X13950Y14190
X43950Y45366
X12450Y6396
X45450Y1200
X12450Y21984
X9450Y6396
X16950Y14190
X4950Y3798
X40950Y45366
X3450Y1200
X15450Y47964
X7950Y40170
X46950Y24582
X40950Y40170
X13950Y3798
X-1050Y29778
X1950Y14190
X30450Y11592
X12450Y16788
X7950Y3798
X25950Y34974
X39450Y1200
X22950Y3798
X18450Y16788
X19950Y45366
X15450Y16788
X36450Y1200
X4950Y29778
X21450Y21984
X24450Y6396
X28950Y45366
X6450Y21984
X9450Y1200
X16950Y34974
X25950Y3798
X39450Y21984
X18450Y47964
X10950Y45366
X42450Y1200
X15450Y21984
X6450Y1200
X44947Y32845
X45096Y16351
X40034Y18869
X36750Y16750
X39750Y30250
X34904Y35000
X39248Y28848
X44927Y28850
X41000Y31250
X45790Y30460
X41500Y32750
X46000Y33750
X33917Y10649
X44749Y12856
X-1750Y23750
X34000Y7750
X38061Y31805
X34750Y33000
X34000Y5000
X34894Y34298
X25750Y19000
X35779Y5000
X22250Y19000
X-5250Y19750
X-2000Y31750
X40500Y32000
X30000Y5000
X30000Y7750
X46250Y11000
X38252Y34085
X37211Y34085
X38252Y35126
X24450Y11592
M30