G04 EAGLE Gerber RS-274X export*
G75*
%MOMM*%
%FSLAX34Y34*%
%LPD*%
%INTop Copper*%
%IPPOS*%
%AMOC8*
5,1,8,0,0,1.08239X$1,22.5*%
G01*
G04 Define Apertures*
G36*
X325021Y-266238D02*
X325000Y-266238D01*
X-135000Y-266238D01*
X-135197Y-266212D01*
X-137935Y-265478D01*
X-138277Y-265281D01*
X-140281Y-263277D01*
X-140478Y-262935D01*
X-141212Y-260197D01*
X-141238Y-260000D01*
X-141238Y-177263D01*
X-143333Y-172204D01*
X-147204Y-168333D01*
X-152263Y-166238D01*
X-275000Y-166238D01*
X-275197Y-166212D01*
X-277935Y-165478D01*
X-278277Y-165281D01*
X-280281Y-163277D01*
X-280478Y-162935D01*
X-281212Y-160197D01*
X-281238Y-160000D01*
X-281238Y-57263D01*
X-283333Y-52204D01*
X-287204Y-48333D01*
X-292263Y-46238D01*
X-435000Y-46238D01*
X-435197Y-46212D01*
X-437935Y-45478D01*
X-438277Y-45281D01*
X-440281Y-43277D01*
X-440478Y-42935D01*
X-441212Y-40197D01*
X-441238Y-40000D01*
X-441238Y32500D01*
X-441212Y32697D01*
X-440478Y35435D01*
X-440281Y35777D01*
X-438277Y37781D01*
X-437935Y37978D01*
X-435197Y38712D01*
X-435000Y38738D01*
X-382263Y38738D01*
X-377204Y40833D01*
X-373333Y44704D01*
X-371238Y49763D01*
X-371238Y135237D01*
X-373333Y140296D01*
X-377204Y144167D01*
X-382263Y146262D01*
X-435000Y146262D01*
X-435197Y146288D01*
X-437935Y147022D01*
X-438277Y147219D01*
X-440281Y149223D01*
X-440478Y149565D01*
X-441212Y152303D01*
X-441238Y152500D01*
X-441238Y162000D01*
X-441212Y162197D01*
X-440478Y164935D01*
X-440281Y165277D01*
X-438277Y167281D01*
X-437935Y167478D01*
X-435197Y168212D01*
X-435000Y168238D01*
X-369502Y168238D01*
X-358880Y171084D01*
X-349358Y176582D01*
X-341582Y184358D01*
X-336084Y193880D01*
X-333238Y204502D01*
X-333238Y259982D01*
X-333181Y260270D01*
X-331612Y264107D01*
X-331458Y264346D01*
X-331208Y264519D01*
X-327401Y266157D01*
X-327106Y266218D01*
X-327106Y266219D01*
X-325007Y266238D01*
X-325000Y266238D01*
X-323126Y266238D01*
X-323126Y266238D01*
X325000Y266238D01*
X325021Y266238D01*
X331320Y266066D01*
X331619Y265996D01*
X335297Y264293D01*
X335518Y264137D01*
X335684Y263883D01*
X337184Y260118D01*
X337238Y259836D01*
X337238Y205029D01*
X339811Y195424D01*
X344783Y186814D01*
X351814Y179783D01*
X360424Y174811D01*
X370029Y172238D01*
X435000Y172238D01*
X435197Y172212D01*
X437935Y171478D01*
X438277Y171281D01*
X440281Y169277D01*
X440478Y168935D01*
X441212Y166197D01*
X441238Y166000D01*
X441238Y135000D01*
X441212Y134803D01*
X440478Y132065D01*
X440281Y131723D01*
X438277Y129719D01*
X437935Y129522D01*
X435197Y128788D01*
X435000Y128762D01*
X322263Y128762D01*
X317204Y126667D01*
X313333Y122796D01*
X311238Y117737D01*
X311238Y52263D01*
X313333Y47204D01*
X317204Y43333D01*
X322263Y41238D01*
X435000Y41238D01*
X435197Y41212D01*
X437935Y40478D01*
X438277Y40281D01*
X440281Y38277D01*
X440478Y37935D01*
X441212Y35197D01*
X441238Y35000D01*
X441238Y-150000D01*
X441236Y-150056D01*
X440008Y-166852D01*
X439916Y-167163D01*
X438078Y-170511D01*
X437933Y-170698D01*
X437675Y-170858D01*
X434096Y-172190D01*
X433830Y-172238D01*
X370029Y-172238D01*
X360424Y-174811D01*
X351814Y-179783D01*
X344783Y-186814D01*
X339811Y-195424D01*
X337238Y-205029D01*
X337238Y-259836D01*
X337184Y-260118D01*
X335684Y-263883D01*
X335541Y-264113D01*
X335297Y-264293D01*
X331619Y-265996D01*
X331320Y-266066D01*
X325021Y-266238D01*
G37*
%LPC*%
G36*
X101263Y15238D02*
X226737Y15238D01*
X231796Y17333D01*
X235667Y21204D01*
X237762Y26263D01*
X237762Y151737D01*
X235667Y156796D01*
X231796Y160667D01*
X226737Y162762D01*
X101263Y162762D01*
X96204Y160667D01*
X92333Y156796D01*
X90238Y151737D01*
X90238Y26263D01*
X92333Y21204D01*
X96204Y17333D01*
X101263Y15238D01*
G37*
%LPD*%
M02*
