G04 EAGLE Gerber RS-274X export*
G75*
%MOMM*%
%FSLAX34Y34*%
%LPD*%
%INBottom Copper*%
%IPPOS*%
%AMOC8*
5,1,8,0,0,1.08239X$1,22.5*%
G01*
G04 Define Apertures*
%ADD10C,0.654800*%
%ADD11R,1.000000X1.000000*%
%ADD12R,0.611800X0.911800*%
%ADD13C,0.550000*%
%ADD14C,0.304800*%
%ADD15C,0.203200*%
G36*
X469137Y3029D02*
X468840Y3000D01*
X4556Y3000D01*
X4006Y3102D01*
X3495Y3429D01*
X3152Y3930D01*
X3032Y4524D01*
X3032Y158873D01*
X3082Y159261D01*
X3180Y159460D01*
X3044Y160526D01*
X3032Y160719D01*
X3032Y161748D01*
X3005Y161783D01*
X2810Y162357D01*
X2551Y164389D01*
X-529Y170909D01*
X-5472Y176158D01*
X-11795Y179623D01*
X-18879Y180964D01*
X-22168Y180544D01*
X-22361Y180532D01*
X-47929Y180532D01*
X-48226Y180561D01*
X-53972Y181704D01*
X-54522Y181932D01*
X-59393Y185187D01*
X-59814Y185607D01*
X-63068Y190478D01*
X-63296Y191028D01*
X-64439Y196774D01*
X-64468Y197071D01*
X-64468Y316340D01*
X-64439Y316637D01*
X-63175Y322991D01*
X-62947Y323541D01*
X-59348Y328928D01*
X-58928Y329348D01*
X-53541Y332947D01*
X-52991Y333175D01*
X-46637Y334439D01*
X-46340Y334468D01*
X-22361Y334468D01*
X-22168Y334456D01*
X-18879Y334036D01*
X-11795Y335377D01*
X-5472Y338842D01*
X-529Y344091D01*
X2551Y350611D01*
X2810Y352643D01*
X2909Y353022D01*
X3032Y353207D01*
X3032Y354281D01*
X3044Y354474D01*
X3174Y355495D01*
X3152Y355533D01*
X3032Y356127D01*
X3032Y500476D01*
X3134Y501025D01*
X3461Y501536D01*
X3961Y501879D01*
X4556Y502000D01*
X470429Y502000D01*
X470726Y501971D01*
X476484Y500825D01*
X477034Y500598D01*
X481915Y497336D01*
X482336Y496915D01*
X485598Y492034D01*
X485825Y491484D01*
X486971Y485726D01*
X487000Y485429D01*
X487000Y21160D01*
X486971Y20863D01*
X485704Y14497D01*
X485477Y13947D01*
X481871Y8550D01*
X481450Y8130D01*
X476053Y4523D01*
X475503Y4296D01*
X469137Y3029D01*
G37*
%LPC*%
G36*
X15710Y477200D02*
X19290Y477200D01*
X22598Y478570D01*
X25130Y481102D01*
X26500Y484410D01*
X26500Y487990D01*
X25130Y491298D01*
X22598Y493830D01*
X19290Y495200D01*
X15710Y495200D01*
X12402Y493830D01*
X9870Y491298D01*
X8500Y487990D01*
X8500Y484410D01*
X9870Y481102D01*
X12402Y478570D01*
X15710Y477200D01*
G37*
G36*
X366835Y352024D02*
X371347Y352024D01*
X371347Y356536D01*
X371060Y356536D01*
X369122Y355733D01*
X367638Y354249D01*
X366835Y352311D01*
X366835Y352024D01*
G37*
G36*
X372871Y335574D02*
X373158Y335574D01*
X375097Y336377D01*
X376239Y337518D01*
X376700Y337834D01*
X377292Y337965D01*
X377888Y337853D01*
X378394Y337518D01*
X379536Y336377D01*
X381474Y335574D01*
X381761Y335574D01*
X381761Y341610D01*
X387797Y341610D01*
X387797Y341897D01*
X386994Y343835D01*
X385852Y344977D01*
X385536Y345438D01*
X385406Y346030D01*
X385517Y346627D01*
X385852Y347132D01*
X386994Y348274D01*
X387797Y350213D01*
X387797Y350500D01*
X381761Y350500D01*
X381761Y356536D01*
X381474Y356536D01*
X379536Y355733D01*
X378394Y354591D01*
X377933Y354275D01*
X377341Y354145D01*
X376744Y354256D01*
X376239Y354591D01*
X375097Y355733D01*
X373158Y356536D01*
X372871Y356536D01*
X372871Y350500D01*
X366835Y350500D01*
X366835Y350213D01*
X367638Y348274D01*
X368780Y347132D01*
X369096Y346671D01*
X369226Y346079D01*
X369115Y345483D01*
X368780Y344977D01*
X367638Y343835D01*
X366835Y341897D01*
X366835Y341610D01*
X372871Y341610D01*
X372871Y335574D01*
G37*
G36*
X383285Y352024D02*
X387797Y352024D01*
X387797Y352311D01*
X386994Y354249D01*
X385511Y355733D01*
X383572Y356536D01*
X383285Y356536D01*
X383285Y352024D01*
G37*
G36*
X338230Y45726D02*
X341770Y45726D01*
X344274Y48230D01*
X344274Y51770D01*
X341770Y54274D01*
X339949Y54274D01*
X339377Y54385D01*
X338872Y54720D01*
X319430Y74162D01*
X319105Y74645D01*
X318984Y75239D01*
X318984Y91245D01*
X319078Y91771D01*
X319397Y92287D01*
X319891Y92638D01*
X320484Y92768D01*
X321080Y92657D01*
X321586Y92322D01*
X335280Y78628D01*
X335605Y78145D01*
X335726Y77551D01*
X335726Y75730D01*
X338230Y73226D01*
X341770Y73226D01*
X344274Y75730D01*
X344274Y79270D01*
X341770Y81774D01*
X339949Y81774D01*
X339377Y81885D01*
X338872Y82220D01*
X322986Y98106D01*
X322661Y98589D01*
X322540Y99183D01*
X322540Y245600D01*
X322651Y246172D01*
X322986Y246678D01*
X383146Y306837D01*
X383146Y313917D01*
X383257Y314489D01*
X383592Y314995D01*
X384880Y316283D01*
X384880Y319823D01*
X382853Y321850D01*
X382547Y322289D01*
X382407Y322879D01*
X382509Y323477D01*
X382836Y323988D01*
X383336Y324331D01*
X383931Y324452D01*
X385606Y324452D01*
X386178Y324341D01*
X386684Y324006D01*
X394006Y316684D01*
X394331Y316201D01*
X394452Y315606D01*
X394452Y306128D01*
X394341Y305556D01*
X394006Y305050D01*
X393226Y304270D01*
X393226Y303168D01*
X393115Y302596D01*
X392780Y302090D01*
X364452Y273763D01*
X364452Y171128D01*
X364341Y170556D01*
X364006Y170050D01*
X363226Y169270D01*
X363226Y165730D01*
X365730Y163226D01*
X369270Y163226D01*
X370050Y164006D01*
X370533Y164331D01*
X371128Y164452D01*
X388763Y164452D01*
X403388Y179078D01*
X403388Y184116D01*
X403491Y184665D01*
X403818Y185176D01*
X404318Y185519D01*
X404912Y185640D01*
X423895Y185640D01*
X424467Y185528D01*
X424973Y185193D01*
X446243Y163923D01*
X446568Y163440D01*
X446689Y162846D01*
X446689Y161743D01*
X449193Y159239D01*
X452733Y159239D01*
X455237Y161743D01*
X455237Y165284D01*
X452733Y167787D01*
X451631Y167787D01*
X451059Y167899D01*
X450553Y168234D01*
X427051Y191736D01*
X403968Y191736D01*
X403396Y191847D01*
X402890Y192182D01*
X402111Y192962D01*
X398570Y192962D01*
X396066Y190458D01*
X396066Y186917D01*
X396846Y186138D01*
X397172Y185654D01*
X397292Y185060D01*
X397292Y182234D01*
X397181Y181662D01*
X396846Y181156D01*
X386684Y170994D01*
X386201Y170669D01*
X385606Y170548D01*
X372072Y170548D01*
X371523Y170650D01*
X371012Y170977D01*
X370669Y171478D01*
X370548Y172072D01*
X370548Y270606D01*
X370659Y271178D01*
X370994Y271684D01*
X386038Y286727D01*
X386499Y287043D01*
X387091Y287173D01*
X387687Y287062D01*
X388193Y286727D01*
X390713Y284207D01*
X394254Y284207D01*
X395561Y285514D01*
X396044Y285839D01*
X396639Y285960D01*
X445138Y285960D01*
X445710Y285849D01*
X446215Y285514D01*
X447503Y284226D01*
X451044Y284226D01*
X453547Y286730D01*
X453547Y290270D01*
X451044Y292774D01*
X447503Y292774D01*
X446215Y291486D01*
X445732Y291161D01*
X445138Y291040D01*
X396600Y291040D01*
X396028Y291151D01*
X395522Y291486D01*
X394237Y292772D01*
X393921Y293232D01*
X393791Y293825D01*
X393902Y294421D01*
X394237Y294927D01*
X397090Y297780D01*
X397573Y298105D01*
X398168Y298226D01*
X399270Y298226D01*
X400050Y299006D01*
X400533Y299331D01*
X401128Y299452D01*
X418763Y299452D01*
X444267Y324957D01*
X444751Y325282D01*
X445345Y325403D01*
X445847Y325403D01*
X446419Y325292D01*
X446925Y324957D01*
X447704Y324177D01*
X451245Y324177D01*
X452754Y325686D01*
X453193Y325992D01*
X453783Y326132D01*
X454381Y326030D01*
X454892Y325703D01*
X455235Y325203D01*
X455356Y324609D01*
X455356Y308740D01*
X455245Y308168D01*
X454910Y307662D01*
X453622Y306374D01*
X453622Y302834D01*
X456126Y300330D01*
X459666Y300330D01*
X462170Y302834D01*
X462170Y306374D01*
X460882Y307662D01*
X460557Y308145D01*
X460436Y308740D01*
X460436Y330670D01*
X460162Y331063D01*
X460022Y331653D01*
X460124Y332251D01*
X460451Y332762D01*
X460951Y333105D01*
X461545Y333226D01*
X461770Y333226D01*
X464274Y335730D01*
X464274Y339270D01*
X461770Y341774D01*
X458230Y341774D01*
X457366Y340910D01*
X456905Y340594D01*
X456313Y340464D01*
X455716Y340575D01*
X455211Y340910D01*
X455025Y341096D01*
X425004Y341096D01*
X416128Y332220D01*
X415645Y331895D01*
X415051Y331774D01*
X413230Y331774D01*
X410726Y329270D01*
X410726Y325730D01*
X413230Y323226D01*
X413455Y323226D01*
X413981Y323132D01*
X414497Y322813D01*
X414848Y322319D01*
X414978Y321726D01*
X414867Y321130D01*
X414532Y320624D01*
X411128Y317220D01*
X410645Y316895D01*
X410051Y316774D01*
X408230Y316774D01*
X405726Y314270D01*
X405726Y310730D01*
X408306Y308150D01*
X408612Y307711D01*
X408752Y307121D01*
X408650Y306523D01*
X408323Y306012D01*
X407823Y305669D01*
X407228Y305548D01*
X402072Y305548D01*
X401523Y305650D01*
X401012Y305977D01*
X400669Y306478D01*
X400548Y307072D01*
X400548Y318763D01*
X388763Y330548D01*
X369394Y330548D01*
X368822Y330659D01*
X368316Y330994D01*
X363494Y335816D01*
X363169Y336299D01*
X363048Y336894D01*
X363048Y346263D01*
X356263Y353048D01*
X352670Y353048D01*
X352098Y353159D01*
X351592Y353494D01*
X350813Y354274D01*
X347272Y354274D01*
X344768Y351770D01*
X344768Y348230D01*
X345380Y347618D01*
X345696Y347157D01*
X345826Y346564D01*
X345715Y345968D01*
X345380Y345463D01*
X344664Y344746D01*
X344664Y342925D01*
X344552Y342353D01*
X344217Y341848D01*
X313904Y311534D01*
X313904Y72504D01*
X335280Y51128D01*
X335605Y50645D01*
X335726Y50051D01*
X335726Y48230D01*
X338230Y45726D01*
G37*
G36*
X371060Y335574D02*
X371347Y335574D01*
X371347Y340086D01*
X366835Y340086D01*
X366835Y339799D01*
X367638Y337860D01*
X369122Y336377D01*
X371060Y335574D01*
G37*
G36*
X383285Y335574D02*
X383572Y335574D01*
X385511Y336377D01*
X386994Y337860D01*
X387797Y339799D01*
X387797Y340086D01*
X383285Y340086D01*
X383285Y335574D01*
G37*
G36*
X-46190Y191417D02*
X-38810Y191417D01*
X-37917Y192310D01*
X-37917Y202690D01*
X-38810Y203583D01*
X-46190Y203583D01*
X-47083Y202690D01*
X-47083Y201807D01*
X-47177Y201280D01*
X-47496Y200764D01*
X-47990Y200413D01*
X-48583Y200283D01*
X-49179Y200394D01*
X-49685Y200729D01*
X-50730Y201774D01*
X-52551Y201774D01*
X-53123Y201885D01*
X-53628Y202220D01*
X-54514Y203106D01*
X-54839Y203589D01*
X-54960Y204183D01*
X-54960Y310817D01*
X-54849Y311389D01*
X-54514Y311894D01*
X-51894Y314514D01*
X-51411Y314839D01*
X-50817Y314960D01*
X-48607Y314960D01*
X-48058Y314858D01*
X-47547Y314531D01*
X-47204Y314030D01*
X-47083Y313436D01*
X-47083Y312310D01*
X-46190Y311417D01*
X-38810Y311417D01*
X-37917Y312310D01*
X-37917Y322690D01*
X-38810Y323583D01*
X-46190Y323583D01*
X-47083Y322690D01*
X-47083Y321564D01*
X-47185Y321015D01*
X-47512Y320504D01*
X-48013Y320161D01*
X-48607Y320040D01*
X-53552Y320040D01*
X-60040Y313552D01*
X-60040Y201448D01*
X-57220Y198628D01*
X-56895Y198145D01*
X-56774Y197551D01*
X-56774Y195730D01*
X-54270Y193226D01*
X-50730Y193226D01*
X-49685Y194271D01*
X-49246Y194577D01*
X-48656Y194717D01*
X-48058Y194615D01*
X-47547Y194288D01*
X-47204Y193788D01*
X-47083Y193193D01*
X-47083Y192310D01*
X-46190Y191417D01*
G37*
G36*
X-31190Y311417D02*
X-23810Y311417D01*
X-22529Y312698D01*
X-22488Y312762D01*
X-21987Y313105D01*
X-21393Y313226D01*
X-18230Y313226D01*
X-15726Y315730D01*
X-15726Y319270D01*
X-18230Y321774D01*
X-21393Y321774D01*
X-21942Y321876D01*
X-22453Y322203D01*
X-22504Y322277D01*
X-23810Y323583D01*
X-31190Y323583D01*
X-32083Y322690D01*
X-32083Y312310D01*
X-31190Y311417D01*
G37*
G36*
X-50000Y278262D02*
X-43762Y278262D01*
X-43762Y284500D01*
X-48828Y284500D01*
X-50000Y283328D01*
X-50000Y278262D01*
G37*
G36*
X-42238Y230500D02*
X-37172Y230500D01*
X-35741Y231931D01*
X-35280Y232247D01*
X-34688Y232377D01*
X-34091Y232266D01*
X-33586Y231931D01*
X-32631Y230976D01*
X-21369Y230976D01*
X-20438Y231907D01*
X-20374Y232251D01*
X-20047Y232762D01*
X-19546Y233105D01*
X-18952Y233226D01*
X-15730Y233226D01*
X-13226Y235730D01*
X-13226Y239270D01*
X-15730Y241774D01*
X-18952Y241774D01*
X-19501Y241876D01*
X-20012Y242203D01*
X-20355Y242704D01*
X-20434Y243089D01*
X-21369Y244024D01*
X-22936Y244024D01*
X-23485Y244126D01*
X-23996Y244453D01*
X-24339Y244954D01*
X-24460Y245548D01*
X-24460Y269452D01*
X-24358Y270001D01*
X-24031Y270512D01*
X-23530Y270855D01*
X-22936Y270976D01*
X-21369Y270976D01*
X-20476Y271869D01*
X-20476Y283131D01*
X-21369Y284024D01*
X-32631Y284024D01*
X-33586Y283069D01*
X-34047Y282753D01*
X-34639Y282623D01*
X-35235Y282735D01*
X-35741Y283070D01*
X-37172Y284500D01*
X-42238Y284500D01*
X-42238Y270500D01*
X-37172Y270500D01*
X-35741Y271931D01*
X-35280Y272247D01*
X-34688Y272377D01*
X-34091Y272266D01*
X-33586Y271931D01*
X-32631Y270976D01*
X-31064Y270976D01*
X-30515Y270874D01*
X-30004Y270547D01*
X-29661Y270046D01*
X-29540Y269452D01*
X-29540Y245548D01*
X-29642Y244999D01*
X-29969Y244488D01*
X-30470Y244145D01*
X-31064Y244024D01*
X-32631Y244024D01*
X-33586Y243069D01*
X-34047Y242753D01*
X-34639Y242623D01*
X-35235Y242735D01*
X-35741Y243070D01*
X-37172Y244500D01*
X-42238Y244500D01*
X-42238Y230500D01*
G37*
G36*
X-48828Y270500D02*
X-43762Y270500D01*
X-43762Y276738D01*
X-50000Y276738D01*
X-50000Y271672D01*
X-48828Y270500D01*
G37*
G36*
X-50000Y238262D02*
X-43762Y238262D01*
X-43762Y244500D01*
X-48828Y244500D01*
X-50000Y243328D01*
X-50000Y238262D01*
G37*
G36*
X-48828Y230500D02*
X-43762Y230500D01*
X-43762Y236738D01*
X-50000Y236738D01*
X-50000Y231672D01*
X-48828Y230500D01*
G37*
G36*
X220730Y185726D02*
X224270Y185726D01*
X226774Y188230D01*
X226774Y191770D01*
X224270Y194274D01*
X222449Y194274D01*
X221877Y194385D01*
X221372Y194720D01*
X216052Y200040D01*
X-21393Y200040D01*
X-21942Y200142D01*
X-22453Y200469D01*
X-22796Y200970D01*
X-22917Y201564D01*
X-22917Y202690D01*
X-23810Y203583D01*
X-31190Y203583D01*
X-32083Y202690D01*
X-32083Y192310D01*
X-31190Y191417D01*
X-23810Y191417D01*
X-22917Y192310D01*
X-22917Y193436D01*
X-22815Y193985D01*
X-22488Y194496D01*
X-21987Y194839D01*
X-21393Y194960D01*
X213317Y194960D01*
X213889Y194849D01*
X214394Y194514D01*
X217780Y191128D01*
X218105Y190645D01*
X218226Y190051D01*
X218226Y188230D01*
X220730Y185726D01*
G37*
G36*
X282281Y27460D02*
X338552Y27460D01*
X356372Y45280D01*
X356855Y45605D01*
X357449Y45726D01*
X359560Y45726D01*
X362064Y48230D01*
X362064Y51770D01*
X359560Y54274D01*
X356020Y54274D01*
X353516Y51770D01*
X353516Y50239D01*
X353405Y49667D01*
X353070Y49162D01*
X336894Y32986D01*
X336411Y32661D01*
X335817Y32540D01*
X285017Y32540D01*
X284445Y32651D01*
X283939Y32986D01*
X260486Y56439D01*
X260161Y56922D01*
X260040Y57517D01*
X260040Y185864D01*
X260151Y186436D01*
X260486Y186942D01*
X261774Y188230D01*
X261774Y191770D01*
X259270Y194274D01*
X255730Y194274D01*
X253226Y191770D01*
X253226Y188230D01*
X254514Y186942D01*
X254839Y186459D01*
X254960Y185864D01*
X254960Y54781D01*
X282281Y27460D01*
G37*
G36*
X337395Y102221D02*
X340936Y102221D01*
X343440Y104724D01*
X343440Y105827D01*
X343551Y106399D01*
X343886Y106905D01*
X362047Y125066D01*
X362530Y125391D01*
X363124Y125512D01*
X443864Y125512D01*
X444435Y125400D01*
X444941Y125066D01*
X445721Y124286D01*
X449262Y124286D01*
X451765Y126790D01*
X451765Y130330D01*
X449262Y132834D01*
X445721Y132834D01*
X444941Y132054D01*
X444458Y131729D01*
X443864Y131608D01*
X359968Y131608D01*
X339575Y111215D01*
X339092Y110890D01*
X338498Y110769D01*
X337395Y110769D01*
X334892Y108265D01*
X334892Y104724D01*
X337395Y102221D01*
G37*
G36*
X15710Y6800D02*
X19290Y6800D01*
X22598Y8170D01*
X25130Y10702D01*
X26500Y14010D01*
X26500Y17590D01*
X25130Y20898D01*
X22598Y23430D01*
X19290Y24800D01*
X15710Y24800D01*
X12402Y23430D01*
X9870Y20898D01*
X8500Y17590D01*
X8500Y14010D01*
X9870Y10702D01*
X12402Y8170D01*
X15710Y6800D01*
G37*
%LPD*%
G36*
X416201Y305669D02*
X415606Y305548D01*
X412772Y305548D01*
X412245Y305642D01*
X411729Y305961D01*
X411378Y306455D01*
X411248Y307048D01*
X411359Y307644D01*
X411694Y308150D01*
X414274Y310730D01*
X414274Y312551D01*
X414385Y313123D01*
X414720Y313628D01*
X433106Y332014D01*
X433589Y332339D01*
X434183Y332460D01*
X439470Y332460D01*
X439997Y332366D01*
X440513Y332047D01*
X440864Y331553D01*
X440994Y330960D01*
X440883Y330364D01*
X440548Y329858D01*
X416684Y305994D01*
X416201Y305669D01*
G37*
G36*
X321147Y252155D02*
X320557Y252016D01*
X319959Y252117D01*
X319448Y252444D01*
X319105Y252944D01*
X318984Y253539D01*
X318984Y308799D01*
X319095Y309371D01*
X319430Y309876D01*
X340624Y331070D01*
X341063Y331376D01*
X341653Y331516D01*
X342251Y331414D01*
X342762Y331087D01*
X343105Y330587D01*
X343226Y329993D01*
X343226Y328230D01*
X345730Y325726D01*
X349270Y325726D01*
X350558Y327014D01*
X351041Y327339D01*
X351636Y327460D01*
X355817Y327460D01*
X356389Y327349D01*
X356894Y327014D01*
X363948Y319960D01*
X374476Y319960D01*
X375047Y319849D01*
X375553Y319514D01*
X375885Y319181D01*
X376211Y318698D01*
X376332Y318104D01*
X376332Y316283D01*
X377619Y314995D01*
X377945Y314512D01*
X378066Y313917D01*
X378066Y309573D01*
X377954Y309001D01*
X377619Y308495D01*
X321586Y252461D01*
X321147Y252155D01*
G37*
D10*
X382523Y340848D03*
X372109Y340848D03*
X382523Y351262D03*
X372109Y351262D03*
D11*
X-43000Y237500D03*
X-27000Y237500D03*
X-27000Y277500D03*
X-43000Y277500D03*
D12*
X-27500Y197500D03*
X-42500Y197500D03*
X-27500Y317500D03*
X-42500Y317500D03*
D13*
X454500Y479640D03*
X424500Y479640D03*
X394500Y479640D03*
X364500Y479640D03*
X304500Y479640D03*
X274500Y479640D03*
X244500Y479640D03*
X124500Y479640D03*
X34500Y479640D03*
X469500Y453660D03*
X319500Y453660D03*
X169500Y453660D03*
X139500Y453660D03*
X49500Y453660D03*
X19500Y453660D03*
X334500Y427680D03*
X184500Y427680D03*
X154500Y427680D03*
X94500Y427680D03*
X64500Y427680D03*
X34500Y427680D03*
X439500Y401700D03*
X379500Y401700D03*
X259500Y401700D03*
X229500Y401700D03*
X199500Y401700D03*
X229500Y453660D03*
X169500Y401700D03*
X139500Y401700D03*
X49500Y401700D03*
X19500Y401700D03*
X244500Y375720D03*
X214500Y375720D03*
X184500Y375720D03*
X94500Y375720D03*
X94500Y479640D03*
X34500Y375720D03*
X319500Y349740D03*
X289500Y349740D03*
X199500Y349740D03*
X109500Y349740D03*
X19500Y349740D03*
X64500Y479640D03*
X109500Y401700D03*
X244500Y323760D03*
X214500Y323760D03*
X184500Y323760D03*
X34500Y323760D03*
X49500Y349740D03*
X4500Y323760D03*
X-55500Y323760D03*
X274500Y427680D03*
X319500Y37980D03*
X94500Y323760D03*
X259500Y297780D03*
X349500Y453660D03*
X229500Y297780D03*
X184500Y271800D03*
X184500Y219840D03*
X199500Y297780D03*
X109500Y297780D03*
X34500Y63960D03*
X409500Y245820D03*
X244500Y271800D03*
X154500Y271800D03*
X124500Y271800D03*
X94500Y271800D03*
X124500Y323760D03*
X334500Y115920D03*
X334500Y479640D03*
X34500Y219840D03*
X349500Y245820D03*
X124500Y375720D03*
X259500Y245820D03*
X229500Y245820D03*
X199500Y245820D03*
X139500Y245820D03*
X439500Y89940D03*
X139500Y297780D03*
X19500Y245820D03*
X214500Y427680D03*
X19500Y37980D03*
X424500Y219840D03*
X379500Y245820D03*
X109500Y245820D03*
X169500Y297780D03*
X-10500Y245820D03*
X289500Y401700D03*
X244500Y219840D03*
X124500Y115920D03*
X94500Y219840D03*
X274500Y375720D03*
X-25500Y219840D03*
X229500Y89940D03*
X304500Y167880D03*
X19500Y297780D03*
X469500Y193860D03*
X64500Y271800D03*
X169500Y245820D03*
X139500Y89940D03*
X379500Y453660D03*
X79500Y245820D03*
X154500Y375720D03*
X454500Y219840D03*
X424500Y167880D03*
X154500Y323760D03*
X4500Y271800D03*
X244500Y167880D03*
X79500Y141900D03*
X454500Y63960D03*
X349500Y141900D03*
X49500Y245820D03*
X349500Y401700D03*
X109500Y89940D03*
X229500Y141900D03*
X424500Y115920D03*
X259500Y453660D03*
X109500Y37980D03*
X469500Y141900D03*
X244500Y115920D03*
X214500Y115920D03*
X304500Y427680D03*
X229500Y349740D03*
X169500Y37980D03*
X154500Y115920D03*
X-40500Y297780D03*
X439500Y37980D03*
X469500Y89940D03*
X304500Y323760D03*
X109500Y141900D03*
X64500Y115920D03*
X409500Y89940D03*
X184500Y115920D03*
X64500Y323760D03*
X199500Y89940D03*
X454500Y271800D03*
X169500Y89940D03*
X364500Y115920D03*
X469500Y37980D03*
X214500Y479640D03*
X79500Y453660D03*
X424500Y271800D03*
X19500Y89940D03*
X79500Y89940D03*
X244500Y427680D03*
X64500Y167880D03*
X184500Y63960D03*
X64500Y375720D03*
X289500Y141900D03*
X424500Y63960D03*
X79500Y349740D03*
X94500Y167880D03*
X154500Y63960D03*
X124500Y427680D03*
X214500Y167880D03*
X289500Y297780D03*
X4500Y167880D03*
X214500Y63960D03*
X214500Y271800D03*
X94500Y115920D03*
X49500Y141900D03*
X199500Y37980D03*
X199500Y141900D03*
X79500Y297780D03*
X289500Y89940D03*
X139500Y349740D03*
X334500Y167880D03*
X409500Y37980D03*
X139500Y141900D03*
X439500Y453660D03*
X124500Y63960D03*
X454500Y12000D03*
X124500Y219840D03*
X94500Y63960D03*
X169500Y141900D03*
X49500Y37980D03*
X409500Y453660D03*
X34500Y12000D03*
X154500Y479640D03*
X79500Y401700D03*
X469500Y245820D03*
X409500Y401700D03*
X139500Y37980D03*
X-10500Y297780D03*
X19500Y141900D03*
X304500Y115920D03*
X124500Y167880D03*
X79500Y37980D03*
X259500Y349740D03*
X394500Y12000D03*
X229500Y37980D03*
X184500Y167880D03*
X199500Y453660D03*
X154500Y167880D03*
X364500Y12000D03*
X49500Y297780D03*
X214500Y219840D03*
X244500Y63960D03*
X289500Y453660D03*
X64500Y219840D03*
X94500Y12000D03*
X169500Y349740D03*
X259500Y37980D03*
X394500Y219840D03*
X184500Y479640D03*
X109500Y453660D03*
X424500Y12000D03*
X154500Y219840D03*
X64500Y12000D03*
X462500Y392500D03*
X462500Y110000D03*
X300000Y77500D03*
X300000Y50000D03*
X405000Y320000D03*
X425000Y320000D03*
X362500Y312210D03*
X415000Y370000D03*
X360000Y262500D03*
X449475Y328451D03*
X450963Y163513D03*
X400340Y188688D03*
D14*
X425789Y188688D01*
X450963Y163513D01*
X400340Y180340D02*
X400340Y188688D01*
X400340Y180340D02*
X387500Y167500D01*
X367500Y167500D01*
D13*
X367500Y167500D03*
X397500Y302500D03*
D14*
X443451Y328451D02*
X449475Y328451D01*
X443451Y328451D02*
X417500Y302500D01*
X397500Y302500D01*
X397500Y317500D01*
X387500Y327500D01*
X367500Y327500D01*
X360000Y335000D01*
X360000Y345000D01*
X355000Y350000D01*
D13*
X349042Y350000D03*
D14*
X355000Y350000D01*
X367500Y272500D02*
X367500Y167500D01*
X367500Y272500D02*
X397500Y302500D01*
D13*
X392484Y288481D03*
D15*
X392503Y288500D01*
X449273Y288500D01*
D13*
X449273Y288500D03*
X410000Y312500D03*
D15*
X430000Y332500D01*
X432500Y335000D01*
X452500Y335000D01*
X457896Y329604D01*
X457896Y304604D01*
D13*
X457896Y304604D03*
X415000Y327500D03*
X460000Y337500D03*
D15*
X455029Y337500D02*
X453973Y338556D01*
X455029Y337500D02*
X460000Y337500D01*
X426056Y338556D02*
X415000Y327500D01*
X426056Y338556D02*
X453973Y338556D01*
D13*
X339166Y106495D03*
D14*
X361231Y128560D01*
X447491Y128560D01*
D13*
X447491Y128560D03*
X-17500Y237500D03*
D15*
X-27000Y237500D01*
X-27000Y277500D01*
D13*
X340000Y77500D03*
D15*
X320000Y97500D01*
X320000Y240000D01*
X320000Y247283D01*
X380606Y307889D01*
X380606Y318053D01*
D13*
X380606Y318053D03*
X347500Y330000D03*
D15*
X357500Y330000D01*
X365000Y322500D01*
X376159Y322500D02*
X380606Y318053D01*
X376159Y322500D02*
X365000Y322500D01*
D13*
X340000Y50000D03*
X348938Y342976D03*
D15*
X316444Y310482D02*
X316444Y73556D01*
X316444Y310482D02*
X348938Y342976D01*
X316444Y73556D02*
X340000Y50000D01*
X357500Y50000D02*
X337500Y30000D01*
X283333Y30000D02*
X257500Y55833D01*
X257500Y190000D01*
D13*
X257500Y190000D03*
X357790Y50000D03*
D15*
X357500Y50000D01*
X337500Y30000D02*
X283333Y30000D01*
X215000Y197500D02*
X-27500Y197500D01*
X215000Y197500D02*
X222500Y190000D01*
D13*
X222500Y190000D03*
X-52500Y197500D03*
D15*
X-42500Y197500D01*
X-52500Y197500D02*
X-57500Y202500D01*
X-57500Y312500D01*
X-52500Y317500D01*
X-42500Y317500D01*
D13*
X-20000Y317500D03*
D15*
X-27500Y317500D01*
M02*
