G04 EAGLE Gerber RS-274X export*
G75*
%MOMM*%
%FSLAX34Y34*%
%LPD*%
%INTop Copper*%
%IPPOS*%
%AMOC8*
5,1,8,0,0,1.08239X$1,22.5*%
G01*
G04 Define Apertures*
%ADD10R,1.200000X0.300000*%
%ADD11R,1.200000X0.800000*%
%ADD12R,0.812800X0.889000*%
%ADD13R,0.973900X0.798700*%
%ADD14R,0.798700X0.973900*%
%ADD15R,1.465300X1.164600*%
%ADD16R,0.970200X0.920900*%
%ADD17R,1.000000X1.400000*%
%ADD18R,0.350000X1.000000*%
%ADD19R,1.000000X0.350000*%
%ADD20R,2.160000X2.160000*%
%ADD21C,0.654800*%
%ADD22R,0.500000X0.500000*%
%ADD23R,0.300000X1.400000*%
%ADD24R,0.920900X0.970200*%
%ADD25C,1.270000*%
%ADD26C,0.550000*%
%ADD27C,0.203200*%
%ADD28C,0.304800*%
G36*
X122265Y3060D02*
X121968Y3000D01*
X3794Y3000D01*
X3519Y3051D01*
X3264Y3215D01*
X3092Y3465D01*
X3032Y3762D01*
X3032Y159133D01*
X3057Y159327D01*
X3168Y159553D01*
X3038Y160574D01*
X3032Y160670D01*
X3032Y161693D01*
X2941Y161812D01*
X2843Y162099D01*
X2551Y164389D01*
X-529Y170909D01*
X-5472Y176158D01*
X-11795Y179623D01*
X-18879Y180964D01*
X-22216Y180538D01*
X-22312Y180532D01*
X-47929Y180532D01*
X-48077Y180546D01*
X-54115Y181747D01*
X-54390Y181861D01*
X-59509Y185281D01*
X-59719Y185492D01*
X-63139Y190610D01*
X-63253Y190885D01*
X-64454Y196923D01*
X-64468Y197071D01*
X-64468Y316340D01*
X-64454Y316488D01*
X-63132Y323134D01*
X-63018Y323409D01*
X-59253Y329043D01*
X-59043Y329253D01*
X-53409Y333018D01*
X-53134Y333132D01*
X-46488Y334454D01*
X-46340Y334468D01*
X-22312Y334468D01*
X-22216Y334462D01*
X-18879Y334036D01*
X-11795Y335377D01*
X-5472Y338842D01*
X-529Y344091D01*
X2551Y350611D01*
X2843Y352901D01*
X2893Y353091D01*
X3032Y353301D01*
X3032Y354330D01*
X3038Y354426D01*
X3168Y355441D01*
X3092Y355570D01*
X3032Y355867D01*
X3032Y501238D01*
X3083Y501513D01*
X3246Y501768D01*
X3497Y501940D01*
X3794Y502000D01*
X470429Y502000D01*
X470577Y501985D01*
X476627Y500782D01*
X476902Y500668D01*
X482031Y497241D01*
X482241Y497031D01*
X485668Y491902D01*
X485782Y491627D01*
X486985Y485577D01*
X487000Y485429D01*
X487000Y21160D01*
X486985Y21012D01*
X485661Y14354D01*
X485547Y14079D01*
X481776Y8435D01*
X481566Y8224D01*
X475921Y4453D01*
X475646Y4339D01*
X468988Y3015D01*
X468840Y3000D01*
X337574Y3000D01*
X337311Y3047D01*
X337053Y3206D01*
X336877Y3454D01*
X336812Y3750D01*
X336868Y4048D01*
X337035Y4301D01*
X355040Y22306D01*
X355040Y44964D01*
X355091Y45239D01*
X355255Y45494D01*
X355505Y45666D01*
X355802Y45726D01*
X359560Y45726D01*
X362064Y48230D01*
X362064Y51770D01*
X360263Y53571D01*
X360100Y53813D01*
X360040Y54110D01*
X360040Y54714D01*
X360091Y54989D01*
X360255Y55244D01*
X360505Y55416D01*
X360802Y55476D01*
X364380Y55476D01*
X364666Y55420D01*
X364919Y55253D01*
X365172Y55000D01*
X366738Y55000D01*
X366738Y73000D01*
X366310Y73000D01*
X366035Y73051D01*
X365780Y73215D01*
X365608Y73465D01*
X365548Y73762D01*
X365548Y75922D01*
X365604Y76208D01*
X365771Y76461D01*
X380548Y91237D01*
X380548Y100345D01*
X380599Y100619D01*
X380763Y100875D01*
X381013Y101046D01*
X381310Y101107D01*
X381473Y101107D01*
X382366Y101999D01*
X382366Y113001D01*
X381473Y113894D01*
X380658Y113894D01*
X380383Y113945D01*
X380128Y114108D01*
X379956Y114358D01*
X379896Y114656D01*
X379896Y120345D01*
X379947Y120619D01*
X380111Y120875D01*
X380361Y121046D01*
X380658Y121107D01*
X381473Y121107D01*
X382366Y121999D01*
X382366Y133001D01*
X381473Y133894D01*
X380658Y133894D01*
X380383Y133945D01*
X380128Y134108D01*
X379956Y134358D01*
X379896Y134656D01*
X379896Y140345D01*
X379947Y140619D01*
X380111Y140875D01*
X380361Y141046D01*
X380658Y141107D01*
X381473Y141107D01*
X382366Y141999D01*
X382366Y153001D01*
X381473Y153894D01*
X380658Y153894D01*
X380383Y153945D01*
X380128Y154108D01*
X379956Y154358D01*
X379896Y154656D01*
X379896Y160345D01*
X379947Y160619D01*
X380111Y160875D01*
X380361Y161046D01*
X380658Y161107D01*
X381473Y161107D01*
X382366Y161999D01*
X382366Y171608D01*
X382417Y171882D01*
X382580Y172138D01*
X382830Y172309D01*
X383128Y172370D01*
X386873Y172370D01*
X387147Y172318D01*
X387403Y172155D01*
X387574Y171905D01*
X387635Y171608D01*
X387635Y161999D01*
X388527Y161107D01*
X397777Y161107D01*
X398670Y161999D01*
X398670Y163690D01*
X398721Y163965D01*
X398884Y164220D01*
X399134Y164392D01*
X399432Y164452D01*
X403422Y164452D01*
X403708Y164396D01*
X403961Y164229D01*
X420341Y147849D01*
X420494Y147629D01*
X420563Y147334D01*
X420513Y147035D01*
X420349Y146780D01*
X420099Y146608D01*
X419802Y146548D01*
X415578Y146548D01*
X415292Y146604D01*
X415039Y146771D01*
X411263Y150548D01*
X399432Y150548D01*
X399157Y150599D01*
X398901Y150763D01*
X398730Y151013D01*
X398670Y151310D01*
X398670Y153001D01*
X397777Y153894D01*
X388527Y153894D01*
X387635Y153001D01*
X387635Y141999D01*
X388527Y141107D01*
X397777Y141107D01*
X398670Y141999D01*
X398670Y143690D01*
X398721Y143965D01*
X398884Y144220D01*
X399134Y144392D01*
X399432Y144452D01*
X408422Y144452D01*
X408708Y144396D01*
X408961Y144229D01*
X412651Y140539D01*
X412809Y140308D01*
X412874Y140012D01*
X412818Y139714D01*
X412651Y139461D01*
X403961Y130771D01*
X403719Y130608D01*
X403422Y130548D01*
X399432Y130548D01*
X399157Y130599D01*
X398901Y130763D01*
X398730Y131013D01*
X398670Y131310D01*
X398670Y133001D01*
X397777Y133894D01*
X388527Y133894D01*
X387635Y133001D01*
X387635Y121999D01*
X388527Y121107D01*
X397777Y121107D01*
X398670Y121999D01*
X398670Y123690D01*
X398721Y123965D01*
X398884Y124220D01*
X399134Y124392D01*
X399432Y124452D01*
X406263Y124452D01*
X417039Y135229D01*
X417281Y135392D01*
X417578Y135452D01*
X421802Y135452D01*
X422065Y135405D01*
X422323Y135246D01*
X422499Y134998D01*
X422564Y134702D01*
X422508Y134404D01*
X422341Y134151D01*
X399970Y111781D01*
X399751Y111628D01*
X399456Y111558D01*
X399157Y111609D01*
X398901Y111772D01*
X398730Y112022D01*
X398670Y112320D01*
X398670Y113001D01*
X397777Y113894D01*
X388527Y113894D01*
X387635Y113001D01*
X387635Y101999D01*
X388527Y101107D01*
X397777Y101107D01*
X398670Y101999D01*
X398670Y103690D01*
X398721Y103965D01*
X398884Y104220D01*
X399134Y104392D01*
X399432Y104452D01*
X401263Y104452D01*
X426875Y130065D01*
X427095Y130218D01*
X427390Y130287D01*
X427689Y130237D01*
X427944Y130073D01*
X428116Y129823D01*
X428176Y129526D01*
X428176Y126369D01*
X429069Y125476D01*
X434098Y125476D01*
X434221Y125452D01*
X444239Y125452D01*
X444525Y125396D01*
X444778Y125229D01*
X445721Y124286D01*
X449261Y124286D01*
X451765Y126790D01*
X451765Y130330D01*
X449261Y132834D01*
X445721Y132834D01*
X444658Y131771D01*
X444417Y131608D01*
X444119Y131548D01*
X443986Y131548D01*
X443711Y131599D01*
X443456Y131763D01*
X443284Y132013D01*
X443224Y132310D01*
X443224Y135747D01*
X443171Y135988D01*
X443224Y136272D01*
X443224Y140747D01*
X443171Y140988D01*
X443224Y141272D01*
X443224Y145747D01*
X443171Y145988D01*
X443224Y146272D01*
X443224Y150380D01*
X443280Y150666D01*
X443447Y150919D01*
X443700Y151172D01*
X443700Y152738D01*
X427700Y152738D01*
X427700Y152310D01*
X427649Y152035D01*
X427485Y151780D01*
X427235Y151608D01*
X426938Y151548D01*
X425578Y151548D01*
X425292Y151604D01*
X425039Y151771D01*
X406263Y170548D01*
X399432Y170548D01*
X399157Y170599D01*
X398901Y170763D01*
X398730Y171013D01*
X398670Y171310D01*
X398670Y171608D01*
X398721Y171882D01*
X398884Y172138D01*
X399134Y172309D01*
X399432Y172370D01*
X414330Y172370D01*
X414616Y172314D01*
X414869Y172146D01*
X416055Y170960D01*
X427414Y170960D01*
X427689Y170909D01*
X427944Y170745D01*
X428116Y170495D01*
X428176Y170198D01*
X428176Y166253D01*
X428229Y166012D01*
X428176Y165728D01*
X428176Y161253D01*
X428229Y161012D01*
X428176Y160728D01*
X428176Y156620D01*
X428120Y156334D01*
X427953Y156081D01*
X427700Y155828D01*
X427700Y154262D01*
X443700Y154262D01*
X443700Y154690D01*
X443751Y154965D01*
X443915Y155220D01*
X444165Y155392D01*
X444462Y155452D01*
X447212Y155452D01*
X450776Y159016D01*
X451018Y159179D01*
X451315Y159239D01*
X452733Y159239D01*
X455237Y161743D01*
X455237Y165284D01*
X452733Y167787D01*
X451315Y167787D01*
X451029Y167843D01*
X450776Y168011D01*
X447239Y171548D01*
X443986Y171548D01*
X443711Y171599D01*
X443456Y171763D01*
X443284Y172013D01*
X443224Y172310D01*
X443224Y175747D01*
X443171Y175988D01*
X443224Y176272D01*
X443224Y180747D01*
X443171Y180988D01*
X443224Y181272D01*
X443224Y185747D01*
X443171Y185988D01*
X443224Y186272D01*
X443224Y190747D01*
X443171Y190988D01*
X443224Y191272D01*
X443224Y195747D01*
X443171Y195988D01*
X443224Y196272D01*
X443224Y200747D01*
X443171Y200988D01*
X443224Y201272D01*
X443224Y205747D01*
X443171Y205988D01*
X443224Y206272D01*
X443224Y210747D01*
X443171Y210988D01*
X443224Y211272D01*
X443224Y215747D01*
X443171Y215988D01*
X443224Y216272D01*
X443224Y220747D01*
X443171Y220988D01*
X443224Y221272D01*
X443224Y225747D01*
X443171Y225988D01*
X443224Y226272D01*
X443224Y230747D01*
X443171Y230988D01*
X443224Y231272D01*
X443224Y235747D01*
X443171Y235988D01*
X443224Y236272D01*
X443224Y240747D01*
X443171Y240988D01*
X443224Y241272D01*
X443224Y245747D01*
X443171Y245988D01*
X443224Y246272D01*
X443224Y250747D01*
X443171Y250988D01*
X443224Y251272D01*
X443224Y255747D01*
X443171Y255988D01*
X443224Y256272D01*
X443224Y260747D01*
X443171Y260988D01*
X443224Y261272D01*
X443224Y265747D01*
X443171Y265988D01*
X443224Y266272D01*
X443224Y270747D01*
X443171Y270988D01*
X443224Y271272D01*
X443224Y275747D01*
X443171Y275988D01*
X443224Y276272D01*
X443224Y280747D01*
X443171Y280988D01*
X443224Y281272D01*
X443224Y285198D01*
X443275Y285473D01*
X443439Y285728D01*
X443689Y285900D01*
X443986Y285960D01*
X445453Y285960D01*
X445739Y285904D01*
X445992Y285737D01*
X447503Y284226D01*
X451044Y284226D01*
X452555Y285737D01*
X452796Y285900D01*
X453093Y285960D01*
X455325Y285960D01*
X481096Y311731D01*
X481096Y408552D01*
X464608Y425040D01*
X338948Y425040D01*
X306675Y392767D01*
X306455Y392614D01*
X306160Y392544D01*
X305861Y392595D01*
X305606Y392758D01*
X305434Y393009D01*
X305374Y393306D01*
X305374Y394066D01*
X304175Y396960D01*
X301960Y399175D01*
X299066Y400374D01*
X295934Y400374D01*
X293040Y399175D01*
X290825Y396960D01*
X289626Y394066D01*
X289626Y390934D01*
X290825Y388040D01*
X293040Y385825D01*
X295934Y384626D01*
X296694Y384626D01*
X296958Y384579D01*
X297216Y384420D01*
X297391Y384172D01*
X297456Y383876D01*
X297401Y383578D01*
X297233Y383325D01*
X262460Y348552D01*
X262460Y192924D01*
X262413Y192661D01*
X262254Y192403D01*
X262006Y192227D01*
X261710Y192162D01*
X261412Y192218D01*
X261159Y192385D01*
X259270Y194274D01*
X255730Y194274D01*
X254970Y193515D01*
X254751Y193362D01*
X254456Y193292D01*
X254157Y193343D01*
X253901Y193506D01*
X253730Y193756D01*
X253670Y194053D01*
X253670Y195501D01*
X252777Y196394D01*
X243527Y196394D01*
X242635Y195501D01*
X242635Y184499D01*
X243527Y183607D01*
X252777Y183607D01*
X253670Y184499D01*
X253670Y185947D01*
X253716Y186210D01*
X253876Y186468D01*
X254123Y186643D01*
X254419Y186708D01*
X254717Y186653D01*
X254970Y186485D01*
X255730Y185726D01*
X259270Y185726D01*
X261159Y187615D01*
X261379Y187768D01*
X261674Y187838D01*
X261973Y187787D01*
X262228Y187623D01*
X262400Y187373D01*
X262460Y187076D01*
X262460Y123948D01*
X304737Y81671D01*
X304900Y81430D01*
X304960Y81132D01*
X304960Y73762D01*
X304909Y73487D01*
X304745Y73232D01*
X304495Y73060D01*
X304198Y73000D01*
X303262Y73000D01*
X303262Y55000D01*
X304828Y55000D01*
X305081Y55253D01*
X305323Y55416D01*
X305620Y55476D01*
X309747Y55476D01*
X309988Y55529D01*
X310272Y55476D01*
X314747Y55476D01*
X314988Y55529D01*
X315272Y55476D01*
X319747Y55476D01*
X319988Y55529D01*
X320272Y55476D01*
X324747Y55476D01*
X324988Y55529D01*
X325272Y55476D01*
X329747Y55476D01*
X329988Y55529D01*
X330272Y55476D01*
X334747Y55476D01*
X334988Y55529D01*
X335272Y55476D01*
X337592Y55476D01*
X337855Y55429D01*
X338113Y55270D01*
X338289Y55022D01*
X338354Y54726D01*
X338298Y54428D01*
X338131Y54175D01*
X335726Y51770D01*
X335726Y48230D01*
X338230Y45726D01*
X341770Y45726D01*
X343659Y47615D01*
X343879Y47768D01*
X344174Y47838D01*
X344473Y47787D01*
X344728Y47623D01*
X344900Y47373D01*
X344960Y47076D01*
X344960Y24754D01*
X344904Y24469D01*
X344737Y24216D01*
X330856Y10335D01*
X330615Y10172D01*
X330318Y10112D01*
X129225Y10112D01*
X128939Y10168D01*
X128686Y10335D01*
X45263Y93758D01*
X45100Y93999D01*
X45040Y94297D01*
X45040Y183156D01*
X-11844Y240040D01*
X-13680Y240040D01*
X-13966Y240096D01*
X-14219Y240263D01*
X-15730Y241774D01*
X-19270Y241774D01*
X-21774Y239270D01*
X-21774Y235730D01*
X-19270Y233226D01*
X-15730Y233226D01*
X-14511Y234445D01*
X-14280Y234603D01*
X-13984Y234668D01*
X-13686Y234613D01*
X-13433Y234445D01*
X19671Y201341D01*
X19824Y201121D01*
X19894Y200826D01*
X19843Y200527D01*
X19680Y200272D01*
X19430Y200100D01*
X19133Y200040D01*
X-48680Y200040D01*
X-48966Y200096D01*
X-49219Y200263D01*
X-50730Y201774D01*
X-54270Y201774D01*
X-56774Y199270D01*
X-56774Y195730D01*
X-54270Y193226D01*
X-50730Y193226D01*
X-49219Y194737D01*
X-48977Y194900D01*
X-48680Y194960D01*
X20708Y194960D01*
X20993Y194904D01*
X21246Y194737D01*
X36181Y179802D01*
X36344Y179561D01*
X36404Y179264D01*
X36404Y90404D01*
X122507Y4301D01*
X122660Y4081D01*
X122730Y3786D01*
X122679Y3487D01*
X122516Y3232D01*
X122265Y3060D01*
G37*
%LPC*%
G36*
X15710Y477200D02*
X19290Y477200D01*
X22598Y478570D01*
X25130Y481102D01*
X26500Y484410D01*
X26500Y487990D01*
X25130Y491298D01*
X22598Y493830D01*
X19290Y495200D01*
X15710Y495200D01*
X12402Y493830D01*
X9870Y491298D01*
X8500Y487990D01*
X8500Y484410D01*
X9870Y481102D01*
X12402Y478570D01*
X15710Y477200D01*
G37*
G36*
X227223Y201107D02*
X236473Y201107D01*
X237366Y201999D01*
X237366Y213001D01*
X236473Y213894D01*
X227223Y213894D01*
X226331Y213001D01*
X226331Y210802D01*
X226279Y210527D01*
X226116Y210272D01*
X225866Y210100D01*
X225569Y210040D01*
X98868Y210040D01*
X98582Y210096D01*
X98329Y210263D01*
X-11448Y320040D01*
X-16180Y320040D01*
X-16466Y320096D01*
X-16719Y320263D01*
X-18230Y321774D01*
X-21770Y321774D01*
X-24274Y319270D01*
X-24274Y315730D01*
X-21770Y313226D01*
X-18230Y313226D01*
X-16719Y314737D01*
X-16477Y314900D01*
X-16180Y314960D01*
X-13868Y314960D01*
X-13582Y314904D01*
X-13329Y314737D01*
X96448Y204960D01*
X225569Y204960D01*
X225843Y204909D01*
X226099Y204745D01*
X226270Y204495D01*
X226331Y204198D01*
X226331Y201999D01*
X227223Y201107D01*
G37*
G36*
X242159Y208262D02*
X247390Y208262D01*
X247390Y214370D01*
X243330Y214370D01*
X242159Y213198D01*
X242159Y208262D01*
G37*
G36*
X248914Y208262D02*
X254146Y208262D01*
X254146Y213198D01*
X252974Y214370D01*
X248914Y214370D01*
X248914Y208262D01*
G37*
G36*
X248914Y200631D02*
X252974Y200631D01*
X254146Y201802D01*
X254146Y206738D01*
X248914Y206738D01*
X248914Y200631D01*
G37*
G36*
X243330Y200631D02*
X247390Y200631D01*
X247390Y206738D01*
X242159Y206738D01*
X242159Y201802D01*
X243330Y200631D01*
G37*
G36*
X227223Y183607D02*
X236473Y183607D01*
X237366Y184499D01*
X237366Y195501D01*
X236473Y196394D01*
X227223Y196394D01*
X226331Y195501D01*
X226331Y194053D01*
X226284Y193790D01*
X226124Y193532D01*
X225877Y193357D01*
X225581Y193292D01*
X225283Y193347D01*
X225030Y193515D01*
X224270Y194274D01*
X220730Y194274D01*
X218226Y191770D01*
X218226Y188230D01*
X220730Y185726D01*
X224270Y185726D01*
X225030Y186485D01*
X225249Y186638D01*
X225544Y186708D01*
X225843Y186657D01*
X226099Y186494D01*
X226270Y186244D01*
X226331Y185947D01*
X226331Y184499D01*
X227223Y183607D01*
G37*
G36*
X280465Y38422D02*
X293032Y38422D01*
X293192Y38430D01*
X293334Y38450D01*
X293472Y38483D01*
X293608Y38529D01*
X293738Y38587D01*
X293862Y38657D01*
X293979Y38738D01*
X294088Y38830D01*
X294188Y38932D01*
X294278Y39043D01*
X294358Y39161D01*
X294425Y39287D01*
X294481Y39418D01*
X294525Y39554D01*
X294555Y39693D01*
X294573Y39839D01*
X294578Y39965D01*
X294578Y54238D01*
X294629Y54513D01*
X294792Y54768D01*
X295043Y54940D01*
X295340Y55000D01*
X296738Y55000D01*
X296738Y73000D01*
X295172Y73000D01*
X294000Y71828D01*
X294000Y65331D01*
X293910Y64972D01*
X293716Y64738D01*
X293447Y64599D01*
X293194Y64579D01*
X293194Y64572D01*
X293035Y64578D01*
X273468Y64578D01*
X273308Y64570D01*
X273166Y64550D01*
X273028Y64517D01*
X272892Y64471D01*
X272762Y64413D01*
X272638Y64343D01*
X272521Y64262D01*
X272412Y64170D01*
X272312Y64068D01*
X272222Y63957D01*
X272142Y63839D01*
X272075Y63713D01*
X272019Y63582D01*
X271975Y63446D01*
X271945Y63307D01*
X271927Y63162D01*
X271922Y63035D01*
X271922Y60340D01*
X271871Y60065D01*
X271708Y59810D01*
X271457Y59638D01*
X271160Y59578D01*
X266468Y59578D01*
X266308Y59570D01*
X266166Y59550D01*
X266028Y59517D01*
X265892Y59471D01*
X265762Y59413D01*
X265638Y59343D01*
X265521Y59262D01*
X265412Y59170D01*
X265312Y59068D01*
X265222Y58957D01*
X265142Y58839D01*
X265075Y58713D01*
X265019Y58582D01*
X264975Y58446D01*
X264945Y58307D01*
X264927Y58162D01*
X264922Y58035D01*
X264922Y46968D01*
X264930Y46808D01*
X264950Y46666D01*
X264983Y46528D01*
X265029Y46392D01*
X265087Y46262D01*
X265157Y46138D01*
X265238Y46021D01*
X265330Y45912D01*
X265432Y45812D01*
X265543Y45722D01*
X265661Y45642D01*
X265787Y45575D01*
X265918Y45519D01*
X266054Y45475D01*
X266193Y45445D01*
X266339Y45427D01*
X266465Y45422D01*
X278160Y45422D01*
X278435Y45371D01*
X278690Y45208D01*
X278862Y44957D01*
X278922Y44660D01*
X278922Y39968D01*
X278930Y39808D01*
X278950Y39666D01*
X278983Y39528D01*
X279029Y39392D01*
X279087Y39262D01*
X279157Y39138D01*
X279238Y39021D01*
X279330Y38912D01*
X279432Y38812D01*
X279543Y38722D01*
X279661Y38642D01*
X279787Y38575D01*
X279918Y38519D01*
X280054Y38475D01*
X280193Y38445D01*
X280339Y38427D01*
X280465Y38422D01*
G37*
G36*
X376965Y38422D02*
X389532Y38422D01*
X389692Y38430D01*
X389834Y38450D01*
X389972Y38483D01*
X390108Y38529D01*
X390238Y38587D01*
X390362Y38657D01*
X390479Y38738D01*
X390588Y38830D01*
X390688Y38932D01*
X390778Y39043D01*
X390858Y39161D01*
X390925Y39287D01*
X390981Y39418D01*
X391025Y39554D01*
X391055Y39693D01*
X391073Y39839D01*
X391078Y39965D01*
X391078Y44660D01*
X391129Y44935D01*
X391292Y45190D01*
X391543Y45362D01*
X391840Y45422D01*
X403532Y45422D01*
X403692Y45430D01*
X403834Y45450D01*
X403972Y45483D01*
X404108Y45529D01*
X404238Y45587D01*
X404362Y45657D01*
X404479Y45738D01*
X404588Y45830D01*
X404688Y45932D01*
X404778Y46043D01*
X404858Y46161D01*
X404925Y46287D01*
X404981Y46418D01*
X405025Y46554D01*
X405055Y46693D01*
X405073Y46839D01*
X405078Y46965D01*
X405078Y58032D01*
X405070Y58192D01*
X405050Y58334D01*
X405017Y58472D01*
X404971Y58608D01*
X404913Y58738D01*
X404843Y58862D01*
X404762Y58979D01*
X404670Y59088D01*
X404568Y59188D01*
X404457Y59278D01*
X404339Y59358D01*
X404213Y59425D01*
X404082Y59481D01*
X403946Y59525D01*
X403807Y59555D01*
X403662Y59573D01*
X403535Y59578D01*
X398840Y59578D01*
X398565Y59629D01*
X398310Y59792D01*
X398138Y60043D01*
X398078Y60340D01*
X398078Y63032D01*
X398070Y63192D01*
X398050Y63334D01*
X398017Y63472D01*
X397971Y63608D01*
X397913Y63738D01*
X397843Y63862D01*
X397762Y63979D01*
X397670Y64088D01*
X397568Y64188D01*
X397457Y64278D01*
X397339Y64358D01*
X397213Y64425D01*
X397082Y64481D01*
X396946Y64525D01*
X396807Y64555D01*
X396662Y64573D01*
X396535Y64578D01*
X376968Y64578D01*
X376798Y64570D01*
X376487Y64620D01*
X376232Y64784D01*
X376060Y65034D01*
X376000Y65331D01*
X376000Y71828D01*
X374828Y73000D01*
X373262Y73000D01*
X373262Y55000D01*
X374660Y55000D01*
X374935Y54949D01*
X375190Y54785D01*
X375362Y54535D01*
X375422Y54238D01*
X375422Y39968D01*
X375430Y39808D01*
X375450Y39666D01*
X375483Y39528D01*
X375529Y39392D01*
X375587Y39262D01*
X375657Y39138D01*
X375738Y39021D01*
X375830Y38912D01*
X375932Y38812D01*
X376043Y38722D01*
X376161Y38642D01*
X376287Y38575D01*
X376418Y38519D01*
X376554Y38475D01*
X376693Y38445D01*
X376839Y38427D01*
X376965Y38422D01*
G37*
G36*
X368262Y55000D02*
X371738Y55000D01*
X371738Y73000D01*
X368262Y73000D01*
X368262Y55000D01*
G37*
G36*
X298262Y55000D02*
X301738Y55000D01*
X301738Y73000D01*
X298262Y73000D01*
X298262Y55000D01*
G37*
G36*
X15710Y6800D02*
X19290Y6800D01*
X22598Y8170D01*
X25130Y10702D01*
X26500Y14010D01*
X26500Y17590D01*
X25130Y20898D01*
X22598Y23430D01*
X19290Y24800D01*
X15710Y24800D01*
X12402Y23430D01*
X9870Y20898D01*
X8500Y17590D01*
X8500Y14010D01*
X9870Y10702D01*
X12402Y8170D01*
X15710Y6800D01*
G37*
%LPD*%
G36*
X453308Y291199D02*
X453012Y291134D01*
X452714Y291190D01*
X452461Y291357D01*
X450890Y292928D01*
X450732Y293158D01*
X450667Y293455D01*
X450722Y293753D01*
X450890Y294006D01*
X456991Y300107D01*
X457233Y300270D01*
X457530Y300330D01*
X459666Y300330D01*
X462170Y302834D01*
X462170Y304970D01*
X462226Y305256D01*
X462393Y305509D01*
X472540Y315656D01*
X472540Y358873D01*
X445277Y386136D01*
X336611Y386136D01*
X336348Y386183D01*
X336090Y386342D01*
X335914Y386590D01*
X335849Y386886D01*
X335905Y387184D01*
X336072Y387437D01*
X336675Y388040D01*
X337874Y390934D01*
X337874Y394066D01*
X336675Y396960D01*
X334460Y399175D01*
X331566Y400374D01*
X328434Y400374D01*
X325540Y399175D01*
X323325Y396960D01*
X322126Y394066D01*
X322126Y390934D01*
X323325Y388040D01*
X323928Y387437D01*
X324081Y387217D01*
X324150Y386922D01*
X324100Y386623D01*
X323936Y386368D01*
X323686Y386196D01*
X323389Y386136D01*
X309068Y386136D01*
X308804Y386183D01*
X308546Y386342D01*
X308371Y386590D01*
X308306Y386886D01*
X308361Y387184D01*
X308529Y387437D01*
X340829Y419737D01*
X341071Y419900D01*
X341368Y419960D01*
X462188Y419960D01*
X462474Y419904D01*
X462727Y419737D01*
X475793Y406671D01*
X475956Y406430D01*
X476016Y406132D01*
X476016Y314150D01*
X475960Y313864D01*
X475793Y313612D01*
X453538Y291357D01*
X453308Y291199D01*
G37*
G36*
X275733Y246892D02*
X275438Y246822D01*
X275139Y246873D01*
X274884Y247036D01*
X274712Y247287D01*
X274652Y247584D01*
X274652Y343186D01*
X274708Y343472D01*
X274875Y343725D01*
X308427Y377277D01*
X308669Y377440D01*
X308966Y377500D01*
X324525Y377500D01*
X324788Y377453D01*
X325046Y377294D01*
X325222Y377046D01*
X325287Y376750D01*
X325231Y376452D01*
X325064Y376199D01*
X323325Y374460D01*
X322126Y371566D01*
X322126Y368434D01*
X323325Y365540D01*
X325540Y363325D01*
X328434Y362126D01*
X331566Y362126D01*
X334460Y363325D01*
X336675Y365540D01*
X337874Y368434D01*
X337874Y371566D01*
X336675Y374460D01*
X334936Y376199D01*
X334783Y376419D01*
X334714Y376714D01*
X334764Y377013D01*
X334928Y377268D01*
X335178Y377440D01*
X335475Y377500D01*
X427532Y377500D01*
X427795Y377453D01*
X428053Y377294D01*
X428229Y377046D01*
X428294Y376750D01*
X428238Y376452D01*
X428071Y376199D01*
X427700Y375828D01*
X427700Y374262D01*
X444019Y374262D01*
X444154Y374357D01*
X444450Y374422D01*
X444748Y374367D01*
X445001Y374199D01*
X463681Y355519D01*
X463844Y355278D01*
X463904Y354980D01*
X463904Y341480D01*
X463857Y341217D01*
X463698Y340959D01*
X463450Y340783D01*
X463154Y340718D01*
X462856Y340774D01*
X462603Y340941D01*
X461770Y341774D01*
X458230Y341774D01*
X455726Y339270D01*
X455726Y335730D01*
X458230Y333226D01*
X461770Y333226D01*
X462603Y334059D01*
X462823Y334212D01*
X463118Y334282D01*
X463417Y334231D01*
X463672Y334067D01*
X463844Y333817D01*
X463904Y333520D01*
X463904Y322020D01*
X463848Y321734D01*
X463681Y321481D01*
X453463Y311263D01*
X453222Y311100D01*
X452924Y311040D01*
X443986Y311040D01*
X443711Y311091D01*
X443456Y311255D01*
X443284Y311505D01*
X443224Y311802D01*
X443224Y315747D01*
X443171Y315988D01*
X443224Y316272D01*
X443224Y319690D01*
X443275Y319965D01*
X443439Y320220D01*
X443689Y320392D01*
X443986Y320452D01*
X445786Y320452D01*
X449288Y323954D01*
X449530Y324117D01*
X449827Y324177D01*
X451245Y324177D01*
X453749Y326681D01*
X453749Y330221D01*
X451245Y332725D01*
X449827Y332725D01*
X449541Y332781D01*
X449288Y332948D01*
X445688Y336548D01*
X444462Y336548D01*
X444187Y336599D01*
X443932Y336763D01*
X443760Y337013D01*
X443700Y337310D01*
X443700Y337738D01*
X427700Y337738D01*
X427700Y337310D01*
X427649Y337035D01*
X427485Y336780D01*
X427235Y336608D01*
X426938Y336548D01*
X425578Y336548D01*
X425292Y336604D01*
X425039Y336771D01*
X422606Y339205D01*
X422453Y339424D01*
X422383Y339719D01*
X422434Y340018D01*
X422597Y340274D01*
X422847Y340445D01*
X423145Y340506D01*
X426938Y340506D01*
X427213Y340454D01*
X427468Y340291D01*
X427640Y340041D01*
X427700Y339744D01*
X427700Y339262D01*
X443700Y339262D01*
X443700Y340828D01*
X443447Y341081D01*
X443284Y341323D01*
X443224Y341620D01*
X443224Y345747D01*
X443171Y345988D01*
X443224Y346272D01*
X443224Y350747D01*
X443171Y350988D01*
X443224Y351272D01*
X443224Y355747D01*
X443171Y355988D01*
X443224Y356272D01*
X443224Y360380D01*
X443280Y360666D01*
X443447Y360919D01*
X443700Y361172D01*
X443700Y362738D01*
X427700Y362738D01*
X427700Y362310D01*
X427649Y362035D01*
X427485Y361780D01*
X427235Y361608D01*
X426938Y361548D01*
X402699Y361548D01*
X402413Y361604D01*
X402160Y361771D01*
X395829Y368103D01*
X391102Y368103D01*
X390828Y368154D01*
X390572Y368317D01*
X390401Y368567D01*
X390340Y368865D01*
X390340Y370686D01*
X389448Y371579D01*
X384682Y371579D01*
X384461Y371427D01*
X384165Y371362D01*
X383867Y371418D01*
X383614Y371585D01*
X383145Y372055D01*
X381328Y372055D01*
X381328Y364293D01*
X379804Y364293D01*
X379804Y372055D01*
X377988Y372055D01*
X377518Y371585D01*
X377288Y371427D01*
X376992Y371362D01*
X376694Y371418D01*
X376451Y371579D01*
X371685Y371579D01*
X371355Y371249D01*
X371125Y371091D01*
X370828Y371026D01*
X370530Y371081D01*
X370277Y371249D01*
X369948Y371579D01*
X365185Y371579D01*
X364292Y370686D01*
X364292Y359423D01*
X364736Y358980D01*
X364894Y358750D01*
X364959Y358453D01*
X364903Y358155D01*
X364736Y357902D01*
X364516Y357683D01*
X364516Y357593D01*
X364465Y357318D01*
X364302Y357062D01*
X364051Y356891D01*
X363754Y356831D01*
X352685Y356831D01*
X351792Y355938D01*
X351792Y355036D01*
X351741Y354761D01*
X351578Y354506D01*
X351327Y354334D01*
X351030Y354274D01*
X347272Y354274D01*
X344768Y351770D01*
X344768Y348230D01*
X345919Y347079D01*
X346077Y346849D01*
X346142Y346552D01*
X346086Y346254D01*
X345919Y346001D01*
X345653Y345735D01*
X345411Y345572D01*
X345114Y345512D01*
X343418Y345512D01*
X343132Y345568D01*
X342880Y345735D01*
X341075Y347540D01*
X337980Y347540D01*
X337699Y347593D01*
X337445Y347759D01*
X337276Y348010D01*
X336675Y349460D01*
X334460Y351675D01*
X331566Y352874D01*
X328434Y352874D01*
X325540Y351675D01*
X323325Y349460D01*
X322126Y346566D01*
X322126Y343434D01*
X323325Y340540D01*
X325540Y338325D01*
X328434Y337126D01*
X331566Y337126D01*
X334460Y338325D01*
X336675Y340540D01*
X337276Y341990D01*
X337432Y342228D01*
X337683Y342400D01*
X337980Y342460D01*
X338655Y342460D01*
X338941Y342404D01*
X339194Y342237D01*
X340999Y340432D01*
X345122Y340432D01*
X345408Y340376D01*
X345660Y340209D01*
X347167Y338702D01*
X350980Y338702D01*
X351006Y338708D01*
X351305Y338657D01*
X351560Y338494D01*
X351732Y338244D01*
X351792Y337946D01*
X351792Y336171D01*
X352685Y335279D01*
X355014Y335279D01*
X355289Y335227D01*
X355544Y335064D01*
X355716Y334814D01*
X355776Y334517D01*
X355776Y329920D01*
X355721Y329634D01*
X355553Y329381D01*
X350776Y324605D01*
X350776Y294655D01*
X359473Y285958D01*
X388647Y285958D01*
X388933Y285902D01*
X389186Y285735D01*
X390713Y284207D01*
X391256Y284207D01*
X391520Y284160D01*
X391778Y284000D01*
X391953Y283753D01*
X392018Y283457D01*
X391963Y283159D01*
X391795Y282906D01*
X389261Y280372D01*
X389020Y280209D01*
X388723Y280149D01*
X335624Y280149D01*
X335361Y280196D01*
X335103Y280355D01*
X334927Y280603D01*
X334862Y280899D01*
X334918Y281197D01*
X335085Y281450D01*
X336675Y283040D01*
X337874Y285934D01*
X337874Y289066D01*
X336675Y291960D01*
X334460Y294175D01*
X331566Y295374D01*
X328434Y295374D01*
X325540Y294175D01*
X323325Y291960D01*
X322126Y289066D01*
X322126Y285934D01*
X323325Y283040D01*
X324915Y281450D01*
X325068Y281230D01*
X325137Y280935D01*
X325087Y280636D01*
X324923Y280381D01*
X324673Y280209D01*
X324376Y280149D01*
X309057Y280149D01*
X275953Y247045D01*
X275733Y246892D01*
G37*
%LPC*%
G36*
X427700Y369262D02*
X443700Y369262D01*
X443700Y372738D01*
X427700Y372738D01*
X427700Y369262D01*
G37*
G36*
X427700Y364262D02*
X443700Y364262D01*
X443700Y367738D01*
X427700Y367738D01*
X427700Y364262D01*
G37*
G36*
X328434Y317126D02*
X331566Y317126D01*
X334460Y318325D01*
X336675Y320540D01*
X337276Y321990D01*
X337432Y322228D01*
X337683Y322400D01*
X337980Y322460D01*
X339778Y322460D01*
X343848Y326530D01*
X344079Y326688D01*
X344375Y326753D01*
X344673Y326697D01*
X344926Y326530D01*
X345730Y325726D01*
X349270Y325726D01*
X351774Y328230D01*
X351774Y331770D01*
X349270Y334274D01*
X345730Y334274D01*
X344219Y332763D01*
X343977Y332600D01*
X343680Y332540D01*
X342674Y332540D01*
X338337Y328203D01*
X338112Y328047D01*
X337816Y327980D01*
X337517Y328033D01*
X337263Y328198D01*
X337094Y328450D01*
X336675Y329460D01*
X334460Y331675D01*
X331566Y332874D01*
X328434Y332874D01*
X325540Y331675D01*
X323325Y329460D01*
X322126Y326566D01*
X322126Y323434D01*
X323325Y320540D01*
X325540Y318325D01*
X328434Y317126D01*
G37*
%LPD*%
G36*
X397839Y289016D02*
X397544Y288947D01*
X397245Y288997D01*
X396990Y289161D01*
X396818Y289411D01*
X396758Y289708D01*
X396758Y290251D01*
X394254Y292755D01*
X390713Y292755D01*
X389220Y291261D01*
X388978Y291098D01*
X388681Y291038D01*
X361893Y291038D01*
X361607Y291093D01*
X361354Y291261D01*
X356079Y296536D01*
X355917Y296777D01*
X355856Y297074D01*
X355856Y322185D01*
X355912Y322471D01*
X356079Y322724D01*
X360856Y327500D01*
X360856Y334517D01*
X360907Y334791D01*
X361071Y335047D01*
X361321Y335218D01*
X361618Y335279D01*
X363754Y335279D01*
X364029Y335227D01*
X364284Y335064D01*
X364456Y334814D01*
X364516Y334517D01*
X364516Y334426D01*
X364736Y334207D01*
X364894Y333976D01*
X364959Y333680D01*
X364903Y333382D01*
X364736Y333129D01*
X364292Y332686D01*
X364292Y321423D01*
X365185Y320531D01*
X369948Y320531D01*
X370225Y320808D01*
X370445Y320961D01*
X370740Y321031D01*
X371039Y320980D01*
X371294Y320817D01*
X371466Y320567D01*
X371526Y320270D01*
X371526Y316059D01*
X377626Y309960D01*
X379256Y309960D01*
X379519Y309913D01*
X379777Y309754D01*
X379952Y309506D01*
X380018Y309210D01*
X379962Y308912D01*
X379794Y308659D01*
X379118Y307982D01*
X379118Y297018D01*
X380010Y296125D01*
X390482Y296125D01*
X391375Y297018D01*
X391375Y298690D01*
X391426Y298965D01*
X391589Y299220D01*
X391839Y299392D01*
X392137Y299452D01*
X394188Y299452D01*
X394474Y299396D01*
X394727Y299229D01*
X395730Y298226D01*
X399270Y298226D01*
X401774Y300730D01*
X401774Y304270D01*
X399270Y306774D01*
X395730Y306774D01*
X394727Y305771D01*
X394485Y305608D01*
X394188Y305548D01*
X392137Y305548D01*
X391862Y305599D01*
X391606Y305763D01*
X391435Y306013D01*
X391375Y306310D01*
X391375Y307982D01*
X390698Y308659D01*
X390545Y308879D01*
X390475Y309174D01*
X390526Y309473D01*
X390689Y309728D01*
X390939Y309900D01*
X391236Y309960D01*
X406180Y309960D01*
X406466Y309904D01*
X406719Y309737D01*
X408230Y308226D01*
X411770Y308226D01*
X414274Y310730D01*
X414274Y314270D01*
X411770Y316774D01*
X408230Y316774D01*
X406719Y315263D01*
X406477Y315100D01*
X406180Y315040D01*
X385477Y315040D01*
X385213Y315087D01*
X384955Y315246D01*
X384780Y315494D01*
X384715Y315790D01*
X384770Y316088D01*
X384880Y316253D01*
X384880Y319769D01*
X384931Y320043D01*
X385094Y320299D01*
X385345Y320470D01*
X385642Y320531D01*
X389448Y320531D01*
X390340Y321423D01*
X390340Y323753D01*
X390391Y324027D01*
X390555Y324283D01*
X390805Y324454D01*
X391102Y324515D01*
X411625Y324515D01*
X411911Y324459D01*
X412164Y324291D01*
X413230Y323226D01*
X416770Y323226D01*
X419274Y325730D01*
X419274Y329270D01*
X416770Y331774D01*
X413230Y331774D01*
X411273Y329818D01*
X411032Y329655D01*
X410735Y329595D01*
X391102Y329595D01*
X390828Y329646D01*
X390572Y329809D01*
X390401Y330059D01*
X390340Y330357D01*
X390340Y332686D01*
X389897Y333129D01*
X389739Y333360D01*
X389674Y333656D01*
X389729Y333954D01*
X389897Y334207D01*
X390116Y334426D01*
X390116Y334517D01*
X390167Y334791D01*
X390331Y335047D01*
X390581Y335218D01*
X390878Y335279D01*
X401948Y335279D01*
X401950Y335281D01*
X402192Y335444D01*
X402489Y335505D01*
X417369Y335505D01*
X417655Y335449D01*
X417908Y335281D01*
X422737Y330452D01*
X427414Y330452D01*
X427689Y330401D01*
X427944Y330237D01*
X428116Y329987D01*
X428176Y329690D01*
X428176Y326253D01*
X428229Y326012D01*
X428176Y325728D01*
X428176Y321253D01*
X428229Y321012D01*
X428176Y320728D01*
X428176Y316802D01*
X428125Y316527D01*
X427961Y316272D01*
X427711Y316100D01*
X427414Y316040D01*
X424929Y316040D01*
X398059Y289169D01*
X397839Y289016D01*
G37*
%LPC*%
G36*
X370516Y303262D02*
X376359Y303262D01*
X376359Y308179D01*
X375187Y309351D01*
X370516Y309351D01*
X370516Y303262D01*
G37*
G36*
X363150Y303262D02*
X368992Y303262D01*
X368992Y309351D01*
X364321Y309351D01*
X363150Y308179D01*
X363150Y303262D01*
G37*
G36*
X370516Y295649D02*
X375187Y295649D01*
X376359Y296821D01*
X376359Y301738D01*
X370516Y301738D01*
X370516Y295649D01*
G37*
G36*
X364321Y295649D02*
X368992Y295649D01*
X368992Y301738D01*
X363150Y301738D01*
X363150Y296821D01*
X364321Y295649D01*
G37*
%LPD*%
G36*
X355253Y72524D02*
X355012Y72471D01*
X354728Y72524D01*
X350253Y72524D01*
X350012Y72471D01*
X349728Y72524D01*
X345253Y72524D01*
X345012Y72471D01*
X344728Y72524D01*
X342908Y72524D01*
X342645Y72571D01*
X342387Y72730D01*
X342211Y72978D01*
X342146Y73274D01*
X342202Y73572D01*
X342369Y73825D01*
X344274Y75730D01*
X344274Y79270D01*
X341770Y81774D01*
X341076Y81774D01*
X340813Y81821D01*
X340555Y81980D01*
X340379Y82228D01*
X340314Y82524D01*
X340370Y82822D01*
X340537Y83075D01*
X358048Y100585D01*
X358048Y103069D01*
X358099Y103343D01*
X358263Y103599D01*
X358513Y103770D01*
X358810Y103831D01*
X360501Y103831D01*
X361394Y104723D01*
X361394Y113973D01*
X360501Y114866D01*
X352761Y114866D01*
X352475Y114921D01*
X352222Y115089D01*
X341247Y126063D01*
X341084Y126305D01*
X341024Y126602D01*
X341024Y136131D01*
X340131Y137024D01*
X338302Y137024D01*
X338027Y137075D01*
X337772Y137239D01*
X337600Y137489D01*
X337540Y137786D01*
X337540Y142020D01*
X337593Y142301D01*
X337759Y142555D01*
X338010Y142724D01*
X339460Y143325D01*
X341675Y145540D01*
X342874Y148434D01*
X342874Y151566D01*
X341675Y154460D01*
X339460Y156675D01*
X336566Y157874D01*
X333434Y157874D01*
X330540Y156675D01*
X328325Y154460D01*
X327126Y151566D01*
X327126Y148434D01*
X328325Y145540D01*
X330540Y143325D01*
X331990Y142724D01*
X332228Y142568D01*
X332400Y142317D01*
X332460Y142020D01*
X332460Y137786D01*
X332409Y137511D01*
X332245Y137256D01*
X331995Y137084D01*
X331698Y137024D01*
X328869Y137024D01*
X327976Y136131D01*
X327976Y120869D01*
X328869Y119976D01*
X338398Y119976D01*
X338684Y119920D01*
X338937Y119753D01*
X348383Y110306D01*
X348546Y110065D01*
X348607Y109767D01*
X348607Y104723D01*
X349499Y103831D01*
X350832Y103831D01*
X351096Y103784D01*
X351354Y103624D01*
X351529Y103377D01*
X351594Y103081D01*
X351539Y102783D01*
X351371Y102530D01*
X331341Y82499D01*
X331121Y82346D01*
X330826Y82277D01*
X330527Y82327D01*
X330272Y82491D01*
X330100Y82741D01*
X330040Y83038D01*
X330040Y83668D01*
X281987Y131721D01*
X281824Y131963D01*
X281764Y132260D01*
X281764Y240327D01*
X281820Y240613D01*
X281987Y240866D01*
X312411Y271290D01*
X312653Y271453D01*
X312950Y271513D01*
X326698Y271513D01*
X326973Y271462D01*
X327228Y271298D01*
X327400Y271048D01*
X327460Y270751D01*
X327460Y270480D01*
X327407Y270199D01*
X327241Y269945D01*
X326990Y269776D01*
X325540Y269175D01*
X323325Y266960D01*
X322126Y264066D01*
X322126Y260934D01*
X323325Y258040D01*
X325540Y255825D01*
X328434Y254626D01*
X331566Y254626D01*
X334460Y255825D01*
X336675Y258040D01*
X337874Y260934D01*
X337874Y264066D01*
X336675Y266960D01*
X334460Y269175D01*
X333010Y269776D01*
X332772Y269932D01*
X332600Y270183D01*
X332540Y270480D01*
X332540Y270751D01*
X332591Y271026D01*
X332755Y271281D01*
X333005Y271453D01*
X333302Y271513D01*
X392615Y271513D01*
X421839Y300737D01*
X422081Y300900D01*
X422378Y300960D01*
X427414Y300960D01*
X427689Y300909D01*
X427944Y300745D01*
X428116Y300495D01*
X428176Y300198D01*
X428176Y296253D01*
X428229Y296012D01*
X428176Y295728D01*
X428176Y291253D01*
X428229Y291012D01*
X428176Y290728D01*
X428176Y286253D01*
X428229Y286012D01*
X428176Y285728D01*
X428176Y281253D01*
X428229Y281012D01*
X428176Y280728D01*
X428176Y276253D01*
X428229Y276012D01*
X428176Y275728D01*
X428176Y271253D01*
X428229Y271012D01*
X428176Y270728D01*
X428176Y266253D01*
X428229Y266012D01*
X428176Y265728D01*
X428176Y261253D01*
X428229Y261012D01*
X428176Y260728D01*
X428176Y256253D01*
X428229Y256012D01*
X428176Y255728D01*
X428176Y251253D01*
X428229Y251012D01*
X428176Y250728D01*
X428176Y246253D01*
X428229Y246012D01*
X428176Y245728D01*
X428176Y241253D01*
X428229Y241012D01*
X428176Y240728D01*
X428176Y236253D01*
X428229Y236012D01*
X428176Y235728D01*
X428176Y231253D01*
X428229Y231012D01*
X428176Y230728D01*
X428176Y226253D01*
X428229Y226012D01*
X428176Y225728D01*
X428176Y221253D01*
X428229Y221012D01*
X428176Y220728D01*
X428176Y216253D01*
X428229Y216012D01*
X428176Y215728D01*
X428176Y211253D01*
X428229Y211012D01*
X428176Y210728D01*
X428176Y206253D01*
X428229Y206012D01*
X428176Y205728D01*
X428176Y201253D01*
X428229Y201012D01*
X428176Y200728D01*
X428176Y196253D01*
X428229Y196012D01*
X428176Y195728D01*
X428176Y191253D01*
X428229Y191012D01*
X428176Y190728D01*
X428176Y186253D01*
X428229Y186012D01*
X428176Y185728D01*
X428176Y181253D01*
X428229Y181012D01*
X428176Y180728D01*
X428176Y176802D01*
X428125Y176527D01*
X427961Y176272D01*
X427711Y176100D01*
X427414Y176040D01*
X418475Y176040D01*
X418189Y176096D01*
X417936Y176263D01*
X416750Y177450D01*
X349216Y177450D01*
X348931Y177505D01*
X348678Y177673D01*
X341061Y185289D01*
X340898Y185531D01*
X340838Y185828D01*
X340838Y193126D01*
X339945Y194019D01*
X333588Y194019D01*
X333302Y194075D01*
X333049Y194242D01*
X327611Y199680D01*
X327458Y199900D01*
X327389Y200195D01*
X327439Y200494D01*
X327603Y200749D01*
X327853Y200921D01*
X328150Y200981D01*
X329695Y200981D01*
X330588Y201874D01*
X330588Y203140D01*
X330639Y203415D01*
X330803Y203670D01*
X331053Y203842D01*
X331350Y203902D01*
X350363Y203902D01*
X350638Y203851D01*
X350893Y203687D01*
X351065Y203437D01*
X351125Y203140D01*
X351125Y200010D01*
X352018Y199118D01*
X362982Y199118D01*
X363875Y200010D01*
X363875Y201436D01*
X363926Y201711D01*
X364090Y201966D01*
X364340Y202138D01*
X364637Y202198D01*
X366922Y202198D01*
X367208Y202142D01*
X367461Y201975D01*
X375926Y193509D01*
X376089Y193268D01*
X376150Y192970D01*
X376150Y182292D01*
X377042Y181399D01*
X392958Y181399D01*
X393851Y182292D01*
X393851Y184936D01*
X393902Y185211D01*
X394065Y185466D01*
X394315Y185638D01*
X394613Y185698D01*
X396970Y185698D01*
X397256Y185642D01*
X397509Y185475D01*
X398570Y184414D01*
X402111Y184414D01*
X404614Y186917D01*
X404614Y190458D01*
X402111Y192962D01*
X398570Y192962D01*
X397626Y192017D01*
X397384Y191854D01*
X397087Y191794D01*
X394613Y191794D01*
X394338Y191845D01*
X394082Y192009D01*
X393911Y192259D01*
X393851Y192556D01*
X393851Y195200D01*
X392958Y196093D01*
X382279Y196093D01*
X381993Y196149D01*
X381740Y196316D01*
X380926Y197130D01*
X380773Y197350D01*
X380704Y197645D01*
X380754Y197944D01*
X380918Y198199D01*
X381168Y198371D01*
X381465Y198431D01*
X384238Y198431D01*
X384238Y205492D01*
X375674Y205492D01*
X375674Y204223D01*
X375627Y203959D01*
X375467Y203701D01*
X375220Y203526D01*
X374924Y203461D01*
X374626Y203516D01*
X374373Y203684D01*
X369763Y208294D01*
X364637Y208294D01*
X364362Y208345D01*
X364107Y208509D01*
X363935Y208759D01*
X363875Y209056D01*
X363875Y210482D01*
X362982Y211375D01*
X352018Y211375D01*
X350977Y210333D01*
X350910Y210230D01*
X350660Y210058D01*
X350363Y209998D01*
X333302Y209998D01*
X333027Y210049D01*
X332772Y210213D01*
X332600Y210463D01*
X332540Y210760D01*
X332540Y214520D01*
X332593Y214801D01*
X332759Y215055D01*
X333010Y215224D01*
X334460Y215825D01*
X336675Y218040D01*
X337874Y220934D01*
X337874Y224066D01*
X336675Y226960D01*
X334460Y229175D01*
X331566Y230374D01*
X328434Y230374D01*
X325540Y229175D01*
X323325Y226960D01*
X322126Y224066D01*
X322126Y220934D01*
X323325Y218040D01*
X325540Y215825D01*
X326990Y215224D01*
X327228Y215068D01*
X327400Y214817D01*
X327460Y214520D01*
X327460Y213681D01*
X327409Y213406D01*
X327245Y213151D01*
X326995Y212979D01*
X326698Y212919D01*
X320305Y212919D01*
X319412Y212026D01*
X319412Y210760D01*
X319361Y210485D01*
X319197Y210230D01*
X318947Y210058D01*
X318650Y209998D01*
X299488Y209998D01*
X299202Y210054D01*
X298949Y210221D01*
X298001Y211170D01*
X286999Y211170D01*
X286107Y210277D01*
X286107Y201027D01*
X286999Y200135D01*
X297855Y200135D01*
X298118Y200088D01*
X298376Y199928D01*
X298552Y199681D01*
X298617Y199385D01*
X298561Y199087D01*
X298394Y198834D01*
X294649Y195089D01*
X294407Y194926D01*
X294110Y194866D01*
X286999Y194866D01*
X286107Y193973D01*
X286107Y184723D01*
X286999Y183831D01*
X298001Y183831D01*
X298894Y184723D01*
X298894Y191834D01*
X298949Y192120D01*
X299117Y192373D01*
X301481Y194737D01*
X301723Y194900D01*
X302020Y194960D01*
X308483Y194960D01*
X308746Y194913D01*
X309004Y194754D01*
X309180Y194506D01*
X309245Y194210D01*
X309189Y193912D01*
X309022Y193659D01*
X308686Y193323D01*
X308686Y188812D01*
X320814Y188812D01*
X320814Y193323D01*
X320478Y193659D01*
X320325Y193879D01*
X320255Y194174D01*
X320306Y194473D01*
X320470Y194728D01*
X320720Y194900D01*
X321017Y194960D01*
X324832Y194960D01*
X325118Y194904D01*
X325371Y194737D01*
X329439Y190669D01*
X329602Y190427D01*
X329662Y190130D01*
X329662Y182974D01*
X330555Y182081D01*
X336770Y182081D01*
X337056Y182025D01*
X337308Y181858D01*
X346797Y172370D01*
X364486Y172370D01*
X364749Y172323D01*
X365007Y172163D01*
X365182Y171916D01*
X365247Y171620D01*
X365192Y171322D01*
X365024Y171069D01*
X363226Y169270D01*
X363226Y165730D01*
X365730Y163226D01*
X369270Y163226D01*
X370030Y163985D01*
X370249Y164138D01*
X370544Y164208D01*
X370843Y164157D01*
X371099Y163994D01*
X371270Y163744D01*
X371331Y163447D01*
X371331Y161999D01*
X372223Y161107D01*
X373038Y161107D01*
X373313Y161055D01*
X373568Y160892D01*
X373740Y160642D01*
X373800Y160345D01*
X373800Y154656D01*
X373749Y154381D01*
X373585Y154125D01*
X373335Y153954D01*
X373038Y153894D01*
X372223Y153894D01*
X371331Y153001D01*
X371331Y141999D01*
X372223Y141107D01*
X373038Y141107D01*
X373313Y141055D01*
X373568Y140892D01*
X373740Y140642D01*
X373800Y140345D01*
X373800Y134656D01*
X373749Y134381D01*
X373585Y134125D01*
X373335Y133954D01*
X373038Y133894D01*
X372223Y133894D01*
X371331Y133001D01*
X371331Y129462D01*
X371279Y129187D01*
X371116Y128932D01*
X370866Y128760D01*
X370569Y128700D01*
X362156Y128700D01*
X361881Y128751D01*
X361625Y128915D01*
X361454Y129165D01*
X361394Y129462D01*
X361394Y130277D01*
X360501Y131170D01*
X349499Y131170D01*
X348607Y130277D01*
X348607Y121027D01*
X349499Y120135D01*
X360501Y120135D01*
X361394Y121027D01*
X361394Y121842D01*
X361445Y122117D01*
X361608Y122372D01*
X361858Y122544D01*
X362156Y122604D01*
X370569Y122604D01*
X370843Y122553D01*
X371099Y122389D01*
X371270Y122139D01*
X371290Y122039D01*
X372223Y121107D01*
X373038Y121107D01*
X373313Y121055D01*
X373568Y120892D01*
X373740Y120642D01*
X373800Y120345D01*
X373800Y114656D01*
X373749Y114381D01*
X373585Y114125D01*
X373335Y113954D01*
X373038Y113894D01*
X372223Y113894D01*
X371331Y113001D01*
X371331Y101999D01*
X372223Y101107D01*
X373690Y101107D01*
X373965Y101055D01*
X374220Y100892D01*
X374392Y100642D01*
X374452Y100345D01*
X374452Y94078D01*
X374396Y93792D01*
X374229Y93539D01*
X359452Y78763D01*
X359452Y73286D01*
X359401Y73011D01*
X359237Y72756D01*
X358987Y72584D01*
X358690Y72524D01*
X355253Y72524D01*
G37*
%LPC*%
G36*
X289150Y223262D02*
X296738Y223262D01*
X296738Y230850D01*
X295839Y230850D01*
X292770Y229579D01*
X290421Y227230D01*
X289150Y224161D01*
X289150Y223262D01*
G37*
G36*
X298262Y223262D02*
X305850Y223262D01*
X305850Y224161D01*
X304579Y227230D01*
X302230Y229579D01*
X299161Y230850D01*
X298262Y230850D01*
X298262Y223262D01*
G37*
G36*
X295839Y214150D02*
X296738Y214150D01*
X296738Y221738D01*
X289150Y221738D01*
X289150Y220839D01*
X290421Y217770D01*
X292770Y215421D01*
X295839Y214150D01*
G37*
G36*
X298262Y214150D02*
X299161Y214150D01*
X302230Y215421D01*
X304579Y217770D01*
X305850Y220839D01*
X305850Y221738D01*
X298262Y221738D01*
X298262Y214150D01*
G37*
G36*
X385762Y207016D02*
X394327Y207016D01*
X394327Y212905D01*
X393155Y214077D01*
X385762Y214077D01*
X385762Y207016D01*
G37*
G36*
X375674Y207016D02*
X384238Y207016D01*
X384238Y214077D01*
X376845Y214077D01*
X375674Y212905D01*
X375674Y207016D01*
G37*
G36*
X385762Y198431D02*
X393155Y198431D01*
X394327Y199603D01*
X394327Y205492D01*
X385762Y205492D01*
X385762Y198431D01*
G37*
G36*
X350649Y190516D02*
X356738Y190516D01*
X356738Y196359D01*
X351821Y196359D01*
X350649Y195187D01*
X350649Y190516D01*
G37*
G36*
X358262Y190516D02*
X364351Y190516D01*
X364351Y195187D01*
X363179Y196359D01*
X358262Y196359D01*
X358262Y190516D01*
G37*
G36*
X358262Y183150D02*
X363179Y183150D01*
X364351Y184321D01*
X364351Y188992D01*
X358262Y188992D01*
X358262Y183150D01*
G37*
G36*
X351821Y183150D02*
X356738Y183150D01*
X356738Y188992D01*
X350649Y188992D01*
X350649Y184321D01*
X351821Y183150D01*
G37*
G36*
X309858Y181605D02*
X313988Y181605D01*
X313988Y187288D01*
X308686Y187288D01*
X308686Y182777D01*
X309858Y181605D01*
G37*
G36*
X315512Y181605D02*
X319642Y181605D01*
X320814Y182777D01*
X320814Y187288D01*
X315512Y187288D01*
X315512Y181605D01*
G37*
G36*
X316262Y129262D02*
X322500Y129262D01*
X322500Y136328D01*
X321328Y137500D01*
X316262Y137500D01*
X316262Y129262D01*
G37*
G36*
X308500Y129262D02*
X314738Y129262D01*
X314738Y137500D01*
X309672Y137500D01*
X308500Y136328D01*
X308500Y129262D01*
G37*
G36*
X309672Y119500D02*
X314738Y119500D01*
X314738Y127738D01*
X308500Y127738D01*
X308500Y120672D01*
X309672Y119500D01*
G37*
G36*
X316262Y119500D02*
X321328Y119500D01*
X322500Y120672D01*
X322500Y127738D01*
X316262Y127738D01*
X316262Y119500D01*
G37*
G36*
X319369Y97976D02*
X330631Y97976D01*
X331524Y98869D01*
X331524Y102690D01*
X331575Y102965D01*
X331739Y103220D01*
X331989Y103392D01*
X332286Y103452D01*
X335849Y103452D01*
X336134Y103396D01*
X336387Y103229D01*
X337395Y102221D01*
X340936Y102221D01*
X343440Y104725D01*
X343440Y108265D01*
X340936Y110769D01*
X337395Y110769D01*
X336398Y109771D01*
X336156Y109608D01*
X335859Y109548D01*
X332286Y109548D01*
X332011Y109599D01*
X331756Y109763D01*
X331584Y110013D01*
X331524Y110310D01*
X331524Y114131D01*
X330631Y115024D01*
X319369Y115024D01*
X318476Y114131D01*
X318476Y98869D01*
X319369Y97976D01*
G37*
%LPD*%
G36*
X450650Y119550D02*
X474750Y119550D01*
X474750Y95450D01*
X458650Y95450D01*
X458650Y103450D01*
X450650Y103450D01*
X450650Y119550D01*
G37*
G36*
X450650Y119550D02*
X474750Y119550D01*
X474750Y95450D01*
X458650Y95450D01*
X458650Y103450D01*
X450650Y103450D01*
X450650Y119550D01*
G37*
G36*
X458650Y406550D02*
X474750Y406550D01*
X474750Y382450D01*
X450650Y382450D01*
X450650Y398550D01*
X458650Y398550D01*
X458650Y406550D01*
G37*
G36*
X458650Y406550D02*
X474750Y406550D01*
X474750Y382450D01*
X450650Y382450D01*
X450650Y398550D01*
X458650Y398550D01*
X458650Y406550D01*
G37*
G36*
X293050Y63050D02*
X293050Y39950D01*
X280450Y39950D01*
X280450Y46950D01*
X266450Y46950D01*
X266450Y58050D01*
X273450Y58050D01*
X273450Y63050D01*
X293050Y63050D01*
G37*
G36*
X293050Y63050D02*
X293050Y39950D01*
X280450Y39950D01*
X280450Y46950D01*
X266450Y46950D01*
X266450Y58050D01*
X273450Y58050D01*
X273450Y63050D01*
X293050Y63050D01*
G37*
G36*
X389550Y46950D02*
X389550Y39950D01*
X376950Y39950D01*
X376950Y63050D01*
X396550Y63050D01*
X396550Y58050D01*
X403550Y58050D01*
X403550Y46950D01*
X389550Y46950D01*
G37*
G36*
X389550Y46950D02*
X389550Y39950D01*
X376950Y39950D01*
X376950Y63050D01*
X396550Y63050D01*
X396550Y58050D01*
X403550Y58050D01*
X403550Y46950D01*
X389550Y46950D01*
G37*
D10*
X435700Y128500D03*
X435700Y133500D03*
X435700Y138500D03*
X435700Y143500D03*
X435700Y148500D03*
X435700Y153500D03*
X435700Y158500D03*
X435700Y163500D03*
X435700Y168500D03*
X435700Y173500D03*
X435700Y178500D03*
X435700Y183500D03*
X435700Y188500D03*
X435700Y193500D03*
X435700Y198500D03*
X435700Y203500D03*
X435700Y208500D03*
X435700Y213500D03*
X435700Y218500D03*
X435700Y223500D03*
X435700Y228500D03*
X435700Y233500D03*
X435700Y238500D03*
X435700Y243500D03*
X435700Y248500D03*
X435700Y253500D03*
X435700Y258500D03*
X435700Y263500D03*
X435700Y268500D03*
X435700Y273500D03*
X435700Y278500D03*
X435700Y283500D03*
X435700Y288500D03*
X435700Y293500D03*
X435700Y298500D03*
X435700Y303500D03*
X435700Y308500D03*
X435700Y313500D03*
X435700Y318500D03*
X435700Y323500D03*
X435700Y328500D03*
X435700Y333500D03*
X435700Y338500D03*
X435700Y343500D03*
X435700Y348500D03*
X435700Y353500D03*
X435700Y358500D03*
X435700Y363500D03*
X435700Y368500D03*
X435700Y373500D03*
D11*
X461700Y111000D03*
X461700Y391000D03*
D12*
X314750Y188050D03*
X335250Y188050D03*
X325000Y206950D03*
D13*
X292500Y189348D03*
X292500Y205652D03*
D14*
X393152Y107500D03*
X376848Y107500D03*
X393152Y127500D03*
X376848Y127500D03*
X393152Y147500D03*
X376848Y147500D03*
X393152Y167500D03*
X376848Y167500D03*
D15*
X385000Y188746D03*
X385000Y206254D03*
D16*
X357500Y205246D03*
X357500Y189754D03*
D17*
X325000Y106500D03*
X315500Y128500D03*
X334500Y128500D03*
D13*
X355000Y109348D03*
X355000Y125652D03*
D18*
X367566Y327055D03*
X374066Y327055D03*
X380566Y327055D03*
X387066Y327055D03*
D19*
X396316Y338553D03*
X396316Y343554D03*
X396316Y348556D03*
X396316Y353557D03*
D18*
X387066Y365055D03*
X380566Y365055D03*
X374066Y365055D03*
X367566Y365055D03*
D19*
X358316Y353557D03*
X358316Y348556D03*
X358316Y343554D03*
X358316Y338553D03*
D20*
X377316Y346055D03*
D21*
X382523Y340848D03*
X372109Y340848D03*
X382523Y351262D03*
X372109Y351262D03*
D22*
X285000Y50000D03*
X385000Y50000D03*
D23*
X297500Y64000D03*
X302500Y64000D03*
X307500Y64000D03*
X312500Y64000D03*
X317500Y64000D03*
X322500Y64000D03*
X327500Y64000D03*
X332500Y64000D03*
X337500Y64000D03*
X342500Y64000D03*
X347500Y64000D03*
X352500Y64000D03*
X357500Y64000D03*
X362500Y64000D03*
X367500Y64000D03*
X372500Y64000D03*
D24*
X385246Y302500D03*
X369754Y302500D03*
D14*
X248152Y190000D03*
X231848Y190000D03*
X248152Y207500D03*
X231848Y207500D03*
D25*
X297500Y392500D03*
X330000Y345000D03*
X330000Y392500D03*
X330000Y325000D03*
X330000Y370000D03*
X335000Y150000D03*
X330000Y262500D03*
X330000Y287500D03*
X330000Y222500D03*
X297500Y222500D03*
D26*
X454500Y479640D03*
X424500Y479640D03*
X394500Y479640D03*
X364500Y479640D03*
X304500Y479640D03*
X274500Y479640D03*
X244500Y479640D03*
X124500Y479640D03*
X34500Y479640D03*
X469500Y453660D03*
X319500Y453660D03*
X169500Y453660D03*
X139500Y453660D03*
X49500Y453660D03*
X19500Y453660D03*
X334500Y427680D03*
X184500Y427680D03*
X154500Y427680D03*
X94500Y427680D03*
X64500Y427680D03*
X34500Y427680D03*
X439500Y401700D03*
X379500Y401700D03*
X259500Y401700D03*
X229500Y401700D03*
X199500Y401700D03*
X229500Y453660D03*
X169500Y401700D03*
X139500Y401700D03*
X49500Y401700D03*
X19500Y401700D03*
X244500Y375720D03*
X214500Y375720D03*
X184500Y375720D03*
X94500Y375720D03*
X94500Y479640D03*
X34500Y375720D03*
X319500Y349740D03*
X289500Y349740D03*
X199500Y349740D03*
X109500Y349740D03*
X19500Y349740D03*
X64500Y479640D03*
X109500Y401700D03*
X244500Y323760D03*
X214500Y323760D03*
X184500Y323760D03*
X34500Y323760D03*
X49500Y349740D03*
X4500Y323760D03*
X-55500Y323760D03*
X274500Y427680D03*
X319500Y37980D03*
X94500Y323760D03*
X259500Y297780D03*
X349500Y453660D03*
X229500Y297780D03*
X184500Y271800D03*
X184500Y219840D03*
X199500Y297780D03*
X109500Y297780D03*
X34500Y63960D03*
X409500Y245820D03*
X244500Y271800D03*
X154500Y271800D03*
X124500Y271800D03*
X94500Y271800D03*
X124500Y323760D03*
X334500Y115920D03*
X334500Y479640D03*
X34500Y219840D03*
X349500Y245820D03*
X124500Y375720D03*
X259500Y245820D03*
X229500Y245820D03*
X199500Y245820D03*
X139500Y245820D03*
X439500Y89940D03*
X139500Y297780D03*
X19500Y245820D03*
X214500Y427680D03*
X19500Y37980D03*
X424500Y219840D03*
X379500Y245820D03*
X109500Y245820D03*
X169500Y297780D03*
X-10500Y245820D03*
X289500Y401700D03*
X244500Y219840D03*
X124500Y115920D03*
X94500Y219840D03*
X274500Y375720D03*
X-25500Y219840D03*
X229500Y89940D03*
X304500Y167880D03*
X19500Y297780D03*
X469500Y193860D03*
X64500Y271800D03*
X169500Y245820D03*
X139500Y89940D03*
X379500Y453660D03*
X79500Y245820D03*
X154500Y375720D03*
X454500Y219840D03*
X424500Y167880D03*
X154500Y323760D03*
X4500Y271800D03*
X244500Y167880D03*
X79500Y141900D03*
X454500Y63960D03*
X349500Y141900D03*
X49500Y245820D03*
X349500Y401700D03*
X109500Y89940D03*
X229500Y141900D03*
X424500Y115920D03*
X259500Y453660D03*
X109500Y37980D03*
X469500Y141900D03*
X244500Y115920D03*
X214500Y115920D03*
X304500Y427680D03*
X229500Y349740D03*
X169500Y37980D03*
X154500Y115920D03*
X-40500Y297780D03*
X439500Y37980D03*
X469500Y89940D03*
X304500Y323760D03*
X109500Y141900D03*
X64500Y115920D03*
X409500Y89940D03*
X184500Y115920D03*
X64500Y323760D03*
X199500Y89940D03*
X454500Y271800D03*
X169500Y89940D03*
X364500Y115920D03*
X469500Y37980D03*
X214500Y479640D03*
X79500Y453660D03*
X424500Y271800D03*
X19500Y89940D03*
X79500Y89940D03*
X244500Y427680D03*
X64500Y167880D03*
X184500Y63960D03*
X64500Y375720D03*
X289500Y141900D03*
X424500Y63960D03*
X79500Y349740D03*
X94500Y167880D03*
X154500Y63960D03*
X124500Y427680D03*
X214500Y167880D03*
X289500Y297780D03*
X4500Y167880D03*
X214500Y63960D03*
X214500Y271800D03*
X94500Y115920D03*
X49500Y141900D03*
X199500Y37980D03*
X199500Y141900D03*
X79500Y297780D03*
X289500Y89940D03*
X139500Y349740D03*
X334500Y167880D03*
X409500Y37980D03*
X139500Y141900D03*
X439500Y453660D03*
X124500Y63960D03*
X454500Y12000D03*
X124500Y219840D03*
X94500Y63960D03*
X169500Y141900D03*
X49500Y37980D03*
X409500Y453660D03*
X34500Y12000D03*
X154500Y479640D03*
X79500Y401700D03*
X469500Y245820D03*
X409500Y401700D03*
X139500Y37980D03*
X-10500Y297780D03*
X19500Y141900D03*
X304500Y115920D03*
X124500Y167880D03*
X79500Y37980D03*
X259500Y349740D03*
X394500Y12000D03*
X229500Y37980D03*
X184500Y167880D03*
X199500Y453660D03*
X154500Y167880D03*
X364500Y12000D03*
X49500Y297780D03*
X214500Y219840D03*
X244500Y63960D03*
X289500Y453660D03*
X64500Y219840D03*
X94500Y12000D03*
X169500Y349740D03*
X259500Y37980D03*
X394500Y219840D03*
X184500Y479640D03*
X109500Y453660D03*
X424500Y12000D03*
X154500Y219840D03*
X64500Y12000D03*
X462500Y392500D03*
X462500Y110000D03*
X300000Y77500D03*
X300000Y50000D03*
X405000Y320000D03*
X425000Y320000D03*
D27*
X380566Y353219D02*
X380566Y365055D01*
X380566Y353219D02*
X381892Y351892D01*
D26*
X362500Y312210D03*
X415000Y370000D03*
D27*
X382523Y351262D02*
X381892Y351892D01*
X377316Y347316D02*
X377316Y346055D01*
X377316Y347316D02*
X381892Y351892D01*
X377316Y346055D02*
X382523Y340848D01*
X377316Y346055D02*
X372109Y340848D01*
X377316Y346055D02*
X372109Y351262D01*
D26*
X360000Y262500D03*
D28*
X396316Y338553D02*
X418947Y338553D01*
X424000Y333500D01*
X435700Y333500D01*
X444426Y333500D01*
X449475Y328451D01*
D26*
X449475Y328451D03*
D28*
X444524Y323500D02*
X435700Y323500D01*
X444524Y323500D02*
X449475Y328451D01*
X449426Y328500D02*
X435700Y328500D01*
X449426Y328500D02*
X449475Y328451D01*
X362500Y77500D02*
X362500Y64000D01*
X362500Y77500D02*
X377500Y92500D01*
X377500Y106848D01*
X376848Y107500D01*
X376848Y127500D01*
X376848Y147500D01*
X376848Y167500D01*
X368500Y205246D02*
X357500Y205246D01*
X368500Y205246D02*
X385000Y188746D01*
X355796Y206950D02*
X330000Y206950D01*
X325000Y206950D01*
X355796Y206950D02*
X357500Y205246D01*
X325000Y206950D02*
X293798Y206950D01*
X292500Y205652D01*
X435700Y168500D02*
X445977Y168500D01*
X450963Y163513D01*
D26*
X450963Y163513D03*
D28*
X450950Y163500D02*
X435700Y163500D01*
X450950Y163500D02*
X450963Y163513D01*
X445950Y158500D02*
X435700Y158500D01*
X445950Y158500D02*
X450950Y163500D01*
X400282Y188746D02*
X385000Y188746D01*
X400282Y188746D02*
X400340Y188688D01*
D26*
X400340Y188688D03*
X367500Y167500D03*
D28*
X376848Y167500D01*
D26*
X397500Y302500D03*
D28*
X385246Y302500D01*
D26*
X349042Y350000D03*
D28*
X350661Y350000D02*
X352106Y348556D01*
X350661Y350000D02*
X349042Y350000D01*
X352106Y348556D02*
X358316Y348556D01*
X355000Y125652D02*
X375000Y125652D01*
X376848Y127500D01*
D27*
X330000Y206950D02*
X330000Y222500D01*
X478556Y407500D02*
X463556Y422500D01*
X340000Y422500D01*
X265000Y125000D02*
X307500Y82500D01*
X307500Y64000D01*
X435700Y288500D02*
X449273Y288500D01*
X454273Y288500D02*
X478556Y312783D01*
X454273Y288500D02*
X449273Y288500D01*
X478556Y312783D02*
X478556Y407500D01*
D26*
X392484Y288481D03*
D27*
X392467Y288498D01*
D26*
X449273Y288500D03*
D27*
X392467Y288498D02*
X360525Y288498D01*
X358316Y328553D02*
X358316Y338553D01*
X358316Y328553D02*
X353316Y323553D01*
X353316Y295707D01*
X360525Y288498D01*
X304652Y387152D02*
X340000Y422500D01*
X304652Y387152D02*
X303750Y386250D01*
X265000Y347500D01*
X265000Y125000D01*
X303750Y386250D02*
X297500Y392500D01*
X435700Y293500D02*
X446792Y293500D01*
X457896Y304604D02*
X470000Y316708D01*
X457896Y304604D02*
X446792Y293500D01*
X312500Y82529D02*
X312500Y64000D01*
X312500Y82529D02*
X268556Y126473D01*
X470000Y316708D02*
X470000Y357821D01*
X444225Y383596D01*
D26*
X410000Y312500D03*
X457896Y304604D03*
D27*
X374066Y317111D02*
X374066Y327055D01*
X374066Y317111D02*
X378678Y312500D01*
X410000Y312500D01*
X306125Y383596D02*
X268556Y346027D01*
X268556Y126473D01*
X306125Y383596D02*
X330000Y383596D01*
X444225Y383596D01*
X330000Y383596D02*
X330000Y392500D01*
X311582Y274053D02*
X279224Y241695D01*
X279224Y130892D01*
X327500Y82616D01*
X327500Y64000D01*
X421010Y303500D02*
X435700Y303500D01*
X421010Y303500D02*
X391563Y274053D01*
X330000Y274053D01*
X311582Y274053D01*
X330000Y274053D02*
X330000Y262500D01*
X435700Y308500D02*
X454292Y308500D01*
X466444Y320652D01*
X272112Y127946D02*
X317500Y82558D01*
X317500Y64000D01*
X272112Y127946D02*
X272112Y344554D01*
X307598Y380040D01*
X466444Y337500D02*
X466444Y320652D01*
X466444Y337500D02*
X466444Y356348D01*
X442752Y380040D01*
X330000Y380040D01*
X307598Y380040D01*
X387066Y327055D02*
X402500Y327055D01*
X414555Y327055D01*
X415000Y327500D01*
D26*
X415000Y327500D03*
X460000Y337500D03*
D27*
X466444Y337500D01*
X330000Y370000D02*
X330000Y380040D01*
X310109Y277609D02*
X275668Y243168D01*
X275668Y129419D02*
X322500Y82587D01*
X322500Y64000D01*
X275668Y129419D02*
X275668Y243168D01*
X425981Y313500D02*
X435700Y313500D01*
X425981Y313500D02*
X390090Y277609D01*
X330000Y277609D01*
X310109Y277609D01*
X330000Y277609D02*
X330000Y287500D01*
D28*
X396316Y343554D02*
X435646Y343554D01*
X435700Y343500D01*
X435644Y348556D02*
X396316Y348556D01*
X435644Y348556D02*
X435700Y348500D01*
X435643Y353557D02*
X396316Y353557D01*
X435643Y353557D02*
X435700Y353500D01*
X435700Y358500D02*
X401121Y358500D01*
X394566Y365055D01*
X387066Y365055D01*
X339099Y106500D02*
X325000Y106500D01*
X339099Y106500D02*
X339135Y106464D01*
X339166Y106495D01*
D26*
X339166Y106495D03*
X447491Y128560D03*
D28*
X447431Y128500D01*
X435700Y128500D01*
X435700Y133500D02*
X426000Y133500D01*
X400000Y107500D01*
X393152Y107500D01*
X416000Y138500D02*
X435700Y138500D01*
X416000Y138500D02*
X405000Y127500D01*
X393152Y127500D01*
X414000Y143500D02*
X435700Y143500D01*
X414000Y143500D02*
X410000Y147500D01*
X393152Y147500D01*
X424000Y148500D02*
X435700Y148500D01*
X424000Y148500D02*
X405000Y167500D01*
X393152Y167500D01*
X353652Y109348D02*
X334500Y128500D01*
X353652Y109348D02*
X355000Y109348D01*
X355000Y101848D01*
X332500Y79348D01*
X332500Y64000D01*
D27*
X335000Y129000D02*
X335000Y150000D01*
X335000Y129000D02*
X334500Y128500D01*
X335250Y187250D02*
X335250Y188050D01*
X300652Y197500D02*
X292500Y189348D01*
X300652Y197500D02*
X326199Y197500D01*
X335250Y188449D01*
X335250Y187250D01*
X417107Y173500D02*
X435700Y173500D01*
X417107Y173500D02*
X415698Y174910D01*
X347849Y174910D01*
X335250Y187508D01*
X335250Y188050D01*
D26*
X-17500Y237500D03*
D27*
X-12896Y237500D01*
X42500Y182104D02*
X42500Y92929D01*
X42500Y182104D02*
X-12896Y237500D01*
X347500Y64000D02*
X347500Y23387D01*
X127857Y7572D02*
X42500Y92929D01*
X127857Y7572D02*
X331685Y7572D01*
X347500Y23387D01*
X337500Y64000D02*
X337500Y75000D01*
X340000Y77500D01*
D26*
X340000Y77500D03*
X380606Y318053D03*
D27*
X380566Y318093D01*
X380566Y327055D01*
X347500Y330000D02*
X343726Y330000D01*
X338726Y325000D01*
X330000Y325000D01*
D26*
X347500Y330000D03*
X340000Y50000D03*
D27*
X342500Y52500D01*
X342500Y64000D01*
D26*
X348938Y342976D03*
D27*
X349515Y343554D01*
X358316Y343554D01*
X340023Y345000D02*
X330000Y345000D01*
X340023Y345000D02*
X342051Y342972D01*
X348934Y342972D01*
X348938Y342976D01*
D26*
X257500Y190000D03*
D27*
X256304Y190000D01*
X248152Y190000D01*
D26*
X357790Y50000D03*
D27*
X357500Y50290D02*
X357500Y64000D01*
X357500Y50290D02*
X357790Y50000D01*
D26*
X222500Y190000D03*
D27*
X231848Y190000D01*
D26*
X-52500Y197500D03*
D27*
X352500Y64000D02*
X352500Y23358D01*
X22075Y197500D02*
X-52500Y197500D01*
X22075Y197500D02*
X38944Y180631D01*
X333158Y4016D02*
X352500Y23358D01*
X126384Y4016D02*
X38944Y91456D01*
X38944Y180631D01*
X126384Y4016D02*
X333158Y4016D01*
X231848Y207500D02*
X97500Y207500D01*
X-12500Y317500D01*
X-20000Y317500D01*
D26*
X-20000Y317500D03*
M02*
