G04 EAGLE Gerber RS-274X export*
G75*
%MOMM*%
%FSLAX34Y34*%
%LPD*%
%IN*%
%IPPOS*%
%AMOC8*
5,1,8,0,0,1.08239X$1,22.5*%
G01*
G04 Define Apertures*
%ADD10C,0.254000*%
D10*
X-67500Y197071D02*
X-67426Y195365D01*
X-67203Y193673D01*
X-66833Y192006D01*
X-66320Y190377D01*
X-65666Y188800D01*
X-64878Y187286D01*
X-63961Y185846D01*
X-62921Y184491D01*
X-61768Y183232D01*
X-60509Y182079D01*
X-59154Y181039D01*
X-57714Y180122D01*
X-56200Y179334D01*
X-54623Y178680D01*
X-52994Y178167D01*
X-51327Y177797D01*
X-49635Y177574D01*
X-47929Y177500D01*
X-22071Y177500D01*
X-20356Y177643D01*
X-18635Y177637D01*
X-16921Y177480D01*
X-15227Y177175D01*
X-13566Y176723D01*
X-11951Y176128D01*
X-10393Y175395D01*
X-8906Y174528D01*
X-7500Y173536D01*
X-6186Y172424D01*
X-4973Y171202D01*
X-3872Y169880D01*
X-2890Y168466D01*
X-2035Y166972D01*
X-1314Y165409D01*
X-731Y163789D01*
X-292Y162125D01*
X0Y160429D01*
X0Y0D01*
X468840Y0D01*
X470684Y81D01*
X472514Y321D01*
X474316Y721D01*
X476077Y1276D01*
X477782Y1983D01*
X479420Y2835D01*
X480977Y3827D01*
X482441Y4951D01*
X483802Y6198D01*
X485049Y7559D01*
X486173Y9023D01*
X487165Y10580D01*
X488017Y12218D01*
X488724Y13923D01*
X489279Y15684D01*
X489679Y17486D01*
X489919Y19316D01*
X490000Y21160D01*
X490000Y485429D01*
X489926Y487135D01*
X489703Y488827D01*
X489333Y490494D01*
X488820Y492123D01*
X488166Y493700D01*
X487378Y495214D01*
X486461Y496654D01*
X485421Y498009D01*
X484268Y499268D01*
X483009Y500421D01*
X481654Y501461D01*
X480214Y502378D01*
X478700Y503166D01*
X477123Y503820D01*
X475494Y504333D01*
X473827Y504703D01*
X472135Y504926D01*
X470429Y505000D01*
X0Y505000D01*
X0Y354571D01*
X-292Y352875D01*
X-731Y351211D01*
X-1314Y349591D01*
X-2035Y348028D01*
X-2890Y346534D01*
X-3872Y345120D01*
X-4973Y343798D01*
X-6186Y342576D01*
X-7500Y341464D01*
X-8906Y340472D01*
X-10393Y339605D01*
X-11951Y338872D01*
X-13566Y338277D01*
X-15227Y337825D01*
X-16921Y337520D01*
X-18635Y337363D01*
X-20356Y337357D01*
X-22071Y337500D01*
X-46340Y337500D01*
X-48184Y337419D01*
X-50014Y337179D01*
X-51816Y336779D01*
X-53577Y336224D01*
X-55282Y335517D01*
X-56920Y334665D01*
X-58477Y333673D01*
X-59941Y332549D01*
X-61302Y331302D01*
X-62549Y329941D01*
X-63673Y328477D01*
X-64665Y326920D01*
X-65517Y325282D01*
X-66224Y323577D01*
X-66779Y321816D01*
X-67179Y320014D01*
X-67419Y318184D01*
X-67500Y316340D01*
X-67500Y197071D01*
M02*
