G04 EAGLE Gerber RS-274X export*
G75*
%MOMM*%
%FSLAX34Y34*%
%LPD*%
%INSilkscreen Bottom*%
%IPPOS*%
%AMOC8*
5,1,8,0,0,1.08239X$1,22.5*%
G01*
G04 Define Apertures*
%ADD10C,0.127000*%
%ADD11C,0.120000*%
G36*
X-2621Y263539D02*
X-13930Y263539D01*
X-13930Y265801D01*
X-10053Y265801D01*
X-10053Y267045D01*
X-13930Y268806D01*
X-13930Y271294D01*
X-9778Y269388D01*
X-9674Y269595D01*
X-9557Y269794D01*
X-9284Y270163D01*
X-8965Y270488D01*
X-8603Y270765D01*
X-8407Y270884D01*
X-8203Y270989D01*
X-7990Y271080D01*
X-7769Y271155D01*
X-7542Y271215D01*
X-7307Y271258D01*
X-7067Y271285D01*
X-6821Y271294D01*
X-5852Y271294D01*
X-5520Y271277D01*
X-5198Y271229D01*
X-4888Y271149D01*
X-4590Y271041D01*
X-4308Y270906D01*
X-4041Y270744D01*
X-3793Y270559D01*
X-3564Y270351D01*
X-3356Y270122D01*
X-3170Y269873D01*
X-3009Y269607D01*
X-2873Y269324D01*
X-2765Y269027D01*
X-2686Y268716D01*
X-2637Y268395D01*
X-2621Y268063D01*
X-2621Y263539D01*
G37*
%LPC*%
G36*
X-4883Y265801D02*
X-4883Y268063D01*
X-4902Y268262D01*
X-4957Y268446D01*
X-5044Y268611D01*
X-5161Y268753D01*
X-5304Y268870D01*
X-5469Y268958D01*
X-5653Y269013D01*
X-5852Y269032D01*
X-6821Y269032D01*
X-7021Y269013D01*
X-7204Y268958D01*
X-7369Y268870D01*
X-7512Y268753D01*
X-7629Y268611D01*
X-7716Y268446D01*
X-7772Y268262D01*
X-7791Y268063D01*
X-7791Y265801D01*
X-4883Y265801D01*
G37*
%LPD*%
G36*
X-2621Y253195D02*
X-6191Y253195D01*
X-13930Y254197D01*
X-13930Y256023D01*
X-10020Y257073D01*
X-13930Y258123D01*
X-13930Y259949D01*
X-6191Y260950D01*
X-2621Y260950D01*
X-2621Y258688D01*
X-5674Y258688D01*
X-8582Y258462D01*
X-5206Y258010D01*
X-5206Y256136D01*
X-8582Y255683D01*
X-5674Y255457D01*
X-2621Y255457D01*
X-2621Y253195D01*
G37*
G36*
X-2621Y242883D02*
X-13930Y242883D01*
X-13930Y245145D01*
X-10053Y245145D01*
X-10053Y247407D01*
X-10036Y247738D01*
X-9987Y248060D01*
X-9908Y248371D01*
X-9800Y248668D01*
X-9664Y248951D01*
X-9503Y249217D01*
X-9318Y249466D01*
X-9109Y249695D01*
X-8880Y249903D01*
X-8632Y250088D01*
X-8365Y250250D01*
X-8083Y250385D01*
X-7785Y250493D01*
X-7475Y250572D01*
X-7153Y250621D01*
X-6821Y250638D01*
X-5852Y250638D01*
X-5520Y250621D01*
X-5198Y250572D01*
X-4888Y250493D01*
X-4590Y250385D01*
X-4308Y250250D01*
X-4041Y250088D01*
X-3793Y249903D01*
X-3564Y249695D01*
X-3356Y249466D01*
X-3170Y249217D01*
X-3009Y248951D01*
X-2873Y248668D01*
X-2765Y248371D01*
X-2686Y248060D01*
X-2637Y247738D01*
X-2621Y247407D01*
X-2621Y242883D01*
G37*
%LPC*%
G36*
X-4883Y245145D02*
X-4883Y247407D01*
X-4902Y247606D01*
X-4957Y247790D01*
X-5044Y247955D01*
X-5056Y247968D01*
X-5161Y248097D01*
X-5304Y248214D01*
X-5469Y248302D01*
X-5653Y248357D01*
X-5852Y248376D01*
X-6821Y248376D01*
X-7021Y248357D01*
X-7204Y248302D01*
X-7369Y248214D01*
X-7512Y248097D01*
X-7629Y247955D01*
X-7716Y247790D01*
X-7772Y247606D01*
X-7791Y247407D01*
X-7791Y245145D01*
X-4883Y245145D01*
G37*
%LPD*%
G36*
X-20783Y209600D02*
X-25307Y209600D01*
X-25636Y209617D01*
X-25956Y209667D01*
X-26265Y209747D01*
X-26561Y209857D01*
X-26843Y209995D01*
X-27110Y210159D01*
X-27359Y210347D01*
X-27589Y210557D01*
X-27798Y210789D01*
X-27984Y211039D01*
X-28146Y211307D01*
X-28283Y211590D01*
X-28392Y211888D01*
X-28472Y212198D01*
X-28521Y212518D01*
X-28538Y212847D01*
X-28538Y217678D01*
X-28521Y218007D01*
X-28472Y218327D01*
X-28392Y218636D01*
X-28283Y218933D01*
X-28146Y219215D01*
X-27984Y219482D01*
X-27798Y219730D01*
X-27589Y219960D01*
X-27359Y220169D01*
X-27110Y220356D01*
X-26843Y220518D01*
X-26561Y220654D01*
X-26265Y220763D01*
X-25956Y220843D01*
X-25636Y220893D01*
X-25307Y220909D01*
X-20783Y220909D01*
X-20783Y209600D01*
G37*
%LPC*%
G36*
X-23045Y211878D02*
X-23045Y218648D01*
X-25307Y218648D01*
X-25506Y218628D01*
X-25584Y218604D01*
X-25690Y218571D01*
X-25855Y218481D01*
X-25997Y218363D01*
X-26114Y218219D01*
X-26202Y218055D01*
X-26257Y217873D01*
X-26276Y217678D01*
X-26276Y212847D01*
X-26256Y212653D01*
X-26199Y212471D01*
X-26110Y212306D01*
X-25991Y212163D01*
X-25848Y212044D01*
X-25683Y211955D01*
X-25501Y211898D01*
X-25307Y211878D01*
X-23045Y211878D01*
G37*
%LPD*%
G36*
X-44670Y209600D02*
X-45963Y209600D01*
X-46295Y209617D01*
X-46616Y209665D01*
X-46927Y209745D01*
X-47224Y209853D01*
X-47507Y209988D01*
X-47773Y210150D01*
X-48022Y210335D01*
X-48251Y210543D01*
X-48459Y210772D01*
X-48644Y211021D01*
X-48806Y211287D01*
X-48941Y211570D01*
X-49049Y211867D01*
X-49129Y212178D01*
X-49177Y212499D01*
X-49194Y212831D01*
X-49194Y217678D01*
X-49177Y218007D01*
X-49128Y218327D01*
X-49048Y218636D01*
X-48939Y218933D01*
X-48803Y219215D01*
X-48640Y219482D01*
X-48454Y219730D01*
X-48245Y219960D01*
X-48015Y220169D01*
X-47766Y220356D01*
X-47500Y220518D01*
X-47217Y220654D01*
X-46921Y220763D01*
X-46612Y220843D01*
X-46292Y220893D01*
X-45963Y220909D01*
X-44670Y220909D01*
X-44338Y220893D01*
X-44017Y220844D01*
X-43706Y220765D01*
X-43409Y220657D01*
X-43126Y220521D01*
X-42860Y220360D01*
X-42611Y220174D01*
X-42382Y219966D01*
X-42174Y219737D01*
X-41989Y219489D01*
X-41827Y219222D01*
X-41692Y218940D01*
X-41584Y218642D01*
X-41504Y218332D01*
X-41456Y218010D01*
X-41439Y217678D01*
X-41439Y216644D01*
X-41456Y216315D01*
X-41505Y215995D01*
X-41585Y215686D01*
X-41694Y215389D01*
X-41830Y215107D01*
X-41993Y214841D01*
X-42179Y214592D01*
X-42388Y214362D01*
X-42618Y214153D01*
X-42867Y213967D01*
X-43133Y213804D01*
X-43416Y213668D01*
X-43712Y213559D01*
X-44021Y213479D01*
X-44341Y213430D01*
X-44670Y213413D01*
X-45785Y213413D01*
X-46932Y214172D01*
X-46932Y212831D01*
X-46913Y212632D01*
X-46858Y212448D01*
X-46770Y212283D01*
X-46653Y212141D01*
X-46511Y212024D01*
X-46346Y211936D01*
X-46162Y211881D01*
X-45963Y211862D01*
X-44670Y211862D01*
X-44471Y211881D01*
X-44287Y211936D01*
X-44122Y212024D01*
X-43980Y212141D01*
X-43863Y212283D01*
X-43775Y212448D01*
X-43720Y212632D01*
X-43701Y212831D01*
X-43701Y213154D01*
X-41439Y213154D01*
X-41439Y212831D01*
X-41456Y212499D01*
X-41504Y212178D01*
X-41584Y211867D01*
X-41692Y211570D01*
X-41827Y211287D01*
X-41989Y211021D01*
X-42174Y210772D01*
X-42382Y210543D01*
X-42611Y210335D01*
X-42860Y210150D01*
X-43126Y209988D01*
X-43409Y209853D01*
X-43706Y209745D01*
X-44017Y209665D01*
X-44338Y209617D01*
X-44670Y209600D01*
G37*
%LPC*%
G36*
X-44670Y215675D02*
X-44476Y215695D01*
X-44294Y215751D01*
X-44129Y215841D01*
X-43986Y215960D01*
X-43867Y216103D01*
X-43777Y216268D01*
X-43721Y216449D01*
X-43701Y216644D01*
X-43701Y217678D01*
X-43720Y217877D01*
X-43775Y218061D01*
X-43863Y218226D01*
X-43980Y218369D01*
X-44122Y218486D01*
X-44287Y218573D01*
X-44471Y218628D01*
X-44670Y218648D01*
X-45963Y218648D01*
X-46157Y218628D01*
X-46339Y218571D01*
X-46504Y218481D01*
X-46647Y218363D01*
X-46766Y218219D01*
X-46856Y218055D01*
X-46912Y217873D01*
X-46932Y217678D01*
X-46932Y216919D01*
X-45090Y215675D01*
X-44670Y215675D01*
G37*
%LPD*%
G36*
X-34327Y209600D02*
X-35619Y209600D01*
X-35951Y209617D01*
X-36273Y209665D01*
X-36583Y209745D01*
X-36880Y209853D01*
X-37163Y209988D01*
X-37429Y210150D01*
X-37678Y210335D01*
X-37907Y210543D01*
X-38115Y210772D01*
X-38301Y211021D01*
X-38462Y211287D01*
X-38598Y211570D01*
X-38706Y211867D01*
X-38785Y212178D01*
X-38834Y212499D01*
X-38850Y212831D01*
X-38850Y214512D01*
X-38833Y214841D01*
X-38784Y215161D01*
X-38704Y215470D01*
X-38595Y215766D01*
X-38459Y216048D01*
X-38296Y216315D01*
X-38110Y216564D01*
X-37901Y216794D01*
X-37671Y217003D01*
X-37422Y217189D01*
X-37156Y217351D01*
X-36874Y217488D01*
X-36577Y217597D01*
X-36268Y217677D01*
X-35948Y217726D01*
X-35619Y217743D01*
X-34504Y217743D01*
X-33357Y216983D01*
X-33357Y218648D01*
X-37719Y218648D01*
X-37719Y220909D01*
X-31095Y220909D01*
X-31095Y214237D01*
X-33357Y214237D01*
X-35199Y215481D01*
X-35619Y215481D01*
X-35814Y215461D01*
X-35995Y215404D01*
X-36160Y215315D01*
X-36304Y215196D01*
X-36422Y215053D01*
X-36512Y214888D01*
X-36569Y214706D01*
X-36588Y214512D01*
X-36588Y212831D01*
X-36569Y212632D01*
X-36514Y212448D01*
X-36426Y212283D01*
X-36310Y212141D01*
X-36167Y212024D01*
X-36002Y211936D01*
X-35818Y211881D01*
X-35619Y211862D01*
X-34327Y211862D01*
X-34132Y211882D01*
X-33950Y211938D01*
X-33785Y212028D01*
X-33642Y212147D01*
X-33523Y212290D01*
X-33434Y212455D01*
X-33377Y212637D01*
X-33357Y212831D01*
X-33357Y212993D01*
X-31095Y212993D01*
X-31095Y212831D01*
X-31112Y212502D01*
X-31161Y212182D01*
X-31241Y211873D01*
X-31350Y211577D01*
X-31487Y211294D01*
X-31649Y211028D01*
X-31835Y210779D01*
X-32044Y210549D01*
X-32274Y210340D01*
X-32523Y210154D01*
X-32790Y209991D01*
X-33072Y209855D01*
X-33368Y209746D01*
X-33677Y209666D01*
X-33997Y209617D01*
X-34327Y209600D01*
G37*
G36*
X-20783Y293970D02*
X-25307Y293970D01*
X-25636Y293987D01*
X-25956Y294037D01*
X-26265Y294117D01*
X-26561Y294227D01*
X-26843Y294365D01*
X-27110Y294529D01*
X-27359Y294717D01*
X-27589Y294927D01*
X-27798Y295159D01*
X-27984Y295409D01*
X-28146Y295677D01*
X-28283Y295960D01*
X-28392Y296258D01*
X-28472Y296568D01*
X-28521Y296888D01*
X-28538Y297217D01*
X-28538Y302048D01*
X-28521Y302377D01*
X-28472Y302697D01*
X-28392Y303006D01*
X-28283Y303303D01*
X-28146Y303585D01*
X-27984Y303852D01*
X-27798Y304100D01*
X-27589Y304330D01*
X-27359Y304539D01*
X-27110Y304726D01*
X-26843Y304888D01*
X-26561Y305024D01*
X-26265Y305133D01*
X-25956Y305213D01*
X-25636Y305263D01*
X-25307Y305279D01*
X-20783Y305279D01*
X-20783Y293970D01*
G37*
%LPC*%
G36*
X-23045Y296248D02*
X-23045Y303018D01*
X-25307Y303018D01*
X-25506Y302998D01*
X-25584Y302974D01*
X-25690Y302941D01*
X-25855Y302851D01*
X-25997Y302733D01*
X-26114Y302589D01*
X-26202Y302425D01*
X-26257Y302243D01*
X-26276Y302048D01*
X-26276Y297217D01*
X-26256Y297023D01*
X-26199Y296841D01*
X-26110Y296676D01*
X-25991Y296533D01*
X-25848Y296414D01*
X-25683Y296325D01*
X-25501Y296268D01*
X-25307Y296248D01*
X-23045Y296248D01*
G37*
%LPD*%
G36*
X-44670Y293970D02*
X-45963Y293970D01*
X-46292Y293987D01*
X-46612Y294036D01*
X-46921Y294116D01*
X-47217Y294225D01*
X-47500Y294362D01*
X-47766Y294525D01*
X-48015Y294712D01*
X-48245Y294921D01*
X-48454Y295152D01*
X-48640Y295402D01*
X-48803Y295670D01*
X-48939Y295953D01*
X-49048Y296252D01*
X-49128Y296563D01*
X-49177Y296885D01*
X-49194Y297217D01*
X-49194Y297686D01*
X-49179Y298003D01*
X-49135Y298311D01*
X-49064Y298608D01*
X-48966Y298894D01*
X-48843Y299165D01*
X-48696Y299422D01*
X-48528Y299662D01*
X-48338Y299883D01*
X-48493Y300101D01*
X-48630Y300331D01*
X-48749Y300570D01*
X-48849Y300820D01*
X-48928Y301079D01*
X-48985Y301346D01*
X-49020Y301621D01*
X-49032Y301903D01*
X-49032Y302048D01*
X-49016Y302380D01*
X-48967Y302702D01*
X-48888Y303012D01*
X-48780Y303310D01*
X-48644Y303592D01*
X-48483Y303859D01*
X-48297Y304107D01*
X-48089Y304336D01*
X-47860Y304544D01*
X-47612Y304730D01*
X-47345Y304891D01*
X-47063Y305027D01*
X-46765Y305135D01*
X-46455Y305214D01*
X-46133Y305263D01*
X-45801Y305279D01*
X-44832Y305279D01*
X-44503Y305263D01*
X-44183Y305213D01*
X-43874Y305133D01*
X-43577Y305024D01*
X-43295Y304888D01*
X-43028Y304726D01*
X-42780Y304539D01*
X-42550Y304330D01*
X-42341Y304100D01*
X-42154Y303852D01*
X-41992Y303585D01*
X-41856Y303303D01*
X-41746Y303006D01*
X-41667Y302697D01*
X-41617Y302377D01*
X-41601Y302048D01*
X-41601Y301903D01*
X-41613Y301621D01*
X-41648Y301346D01*
X-41706Y301079D01*
X-41786Y300820D01*
X-41888Y300570D01*
X-42010Y300331D01*
X-42151Y300101D01*
X-42311Y299883D01*
X-42116Y299656D01*
X-41943Y299413D01*
X-41794Y299154D01*
X-41669Y298882D01*
X-41570Y298597D01*
X-41498Y298302D01*
X-41454Y297998D01*
X-41439Y297686D01*
X-41439Y297217D01*
X-41456Y296888D01*
X-41505Y296568D01*
X-41585Y296258D01*
X-41694Y295960D01*
X-41830Y295677D01*
X-41993Y295409D01*
X-42179Y295159D01*
X-42388Y294927D01*
X-42618Y294717D01*
X-42867Y294529D01*
X-43133Y294365D01*
X-43416Y294227D01*
X-43712Y294117D01*
X-44021Y294037D01*
X-44341Y293987D01*
X-44670Y293970D01*
G37*
%LPC*%
G36*
X-44670Y296232D02*
X-44476Y296247D01*
X-44294Y296302D01*
X-44129Y296392D01*
X-43986Y296513D01*
X-43867Y296660D01*
X-43777Y296829D01*
X-43721Y297017D01*
X-43701Y297217D01*
X-43701Y297686D01*
X-43720Y297881D01*
X-43775Y298062D01*
X-43863Y298227D01*
X-43980Y298371D01*
X-44122Y298489D01*
X-44287Y298579D01*
X-44471Y298636D01*
X-44670Y298655D01*
X-45963Y298655D01*
X-46162Y298636D01*
X-46346Y298581D01*
X-46511Y298493D01*
X-46653Y298377D01*
X-46770Y298234D01*
X-46858Y298069D01*
X-46913Y297885D01*
X-46932Y297686D01*
X-46932Y297217D01*
X-46912Y297017D01*
X-46856Y296832D01*
X-46766Y296664D01*
X-46647Y296519D01*
X-46504Y296399D01*
X-46339Y296309D01*
X-46157Y296252D01*
X-45963Y296232D01*
X-44670Y296232D01*
G37*
G36*
X-44783Y300917D02*
X-44595Y300942D01*
X-44421Y301003D01*
X-44265Y301096D01*
X-44129Y301216D01*
X-44017Y301361D01*
X-43934Y301526D01*
X-43881Y301708D01*
X-43862Y301903D01*
X-43862Y302048D01*
X-43882Y302243D01*
X-43937Y302425D01*
X-44024Y302589D01*
X-44141Y302733D01*
X-44284Y302851D01*
X-44449Y302941D01*
X-44632Y302998D01*
X-44832Y303018D01*
X-45801Y303018D01*
X-46001Y302998D01*
X-46184Y302943D01*
X-46349Y302856D01*
X-46492Y302739D01*
X-46609Y302596D01*
X-46696Y302431D01*
X-46751Y302247D01*
X-46771Y302048D01*
X-46771Y301903D01*
X-46751Y301703D01*
X-46694Y301517D01*
X-46604Y301349D01*
X-46486Y301204D01*
X-46342Y301084D01*
X-46178Y300994D01*
X-46095Y300968D01*
X-45996Y300937D01*
X-45801Y300917D01*
X-44783Y300917D01*
G37*
%LPD*%
G36*
X-34327Y293970D02*
X-35619Y293970D01*
X-35951Y293987D01*
X-36273Y294035D01*
X-36583Y294115D01*
X-36880Y294223D01*
X-37163Y294358D01*
X-37429Y294520D01*
X-37678Y294705D01*
X-37907Y294913D01*
X-38115Y295142D01*
X-38301Y295391D01*
X-38462Y295657D01*
X-38598Y295940D01*
X-38706Y296237D01*
X-38785Y296548D01*
X-38834Y296869D01*
X-38850Y297201D01*
X-38850Y298882D01*
X-38833Y299211D01*
X-38784Y299531D01*
X-38704Y299840D01*
X-38595Y300136D01*
X-38459Y300418D01*
X-38296Y300685D01*
X-38110Y300934D01*
X-37901Y301164D01*
X-37671Y301373D01*
X-37422Y301559D01*
X-37156Y301721D01*
X-36874Y301858D01*
X-36577Y301967D01*
X-36268Y302047D01*
X-35948Y302096D01*
X-35619Y302113D01*
X-34504Y302113D01*
X-33357Y301353D01*
X-33357Y303018D01*
X-37719Y303018D01*
X-37719Y305279D01*
X-31095Y305279D01*
X-31095Y298607D01*
X-33357Y298607D01*
X-35199Y299851D01*
X-35619Y299851D01*
X-35814Y299831D01*
X-35995Y299774D01*
X-36160Y299685D01*
X-36304Y299566D01*
X-36422Y299423D01*
X-36512Y299258D01*
X-36569Y299076D01*
X-36588Y298882D01*
X-36588Y297201D01*
X-36569Y297002D01*
X-36514Y296818D01*
X-36426Y296653D01*
X-36310Y296511D01*
X-36167Y296394D01*
X-36002Y296306D01*
X-35818Y296251D01*
X-35619Y296232D01*
X-34327Y296232D01*
X-34132Y296252D01*
X-33950Y296308D01*
X-33785Y296398D01*
X-33642Y296517D01*
X-33523Y296660D01*
X-33434Y296825D01*
X-33377Y297007D01*
X-33357Y297201D01*
X-33357Y297363D01*
X-31095Y297363D01*
X-31095Y297201D01*
X-31112Y296872D01*
X-31161Y296552D01*
X-31241Y296243D01*
X-31350Y295947D01*
X-31487Y295664D01*
X-31649Y295398D01*
X-31835Y295149D01*
X-32044Y294919D01*
X-32274Y294710D01*
X-32523Y294524D01*
X-32790Y294361D01*
X-33072Y294225D01*
X-33368Y294116D01*
X-33677Y294036D01*
X-33997Y293987D01*
X-34327Y293970D01*
G37*
D10*
X-50000Y278500D02*
X-50000Y236500D01*
X-20000Y236500D02*
X-20000Y278500D01*
X-33000Y268500D02*
X-32848Y268498D01*
X-32696Y268492D01*
X-32544Y268483D01*
X-32393Y268469D01*
X-32242Y268452D01*
X-32091Y268431D01*
X-31941Y268406D01*
X-31792Y268377D01*
X-31644Y268345D01*
X-31496Y268308D01*
X-31349Y268269D01*
X-31204Y268225D01*
X-31059Y268177D01*
X-30916Y268127D01*
X-30774Y268072D01*
X-30634Y268014D01*
X-30495Y267952D01*
X-30358Y267887D01*
X-30222Y267818D01*
X-30088Y267746D01*
X-29956Y267671D01*
X-29826Y267592D01*
X-29698Y267510D01*
X-29572Y267425D01*
X-29449Y267336D01*
X-29327Y267245D01*
X-29208Y267150D01*
X-29092Y267053D01*
X-28978Y266952D01*
X-28866Y266849D01*
X-28757Y266743D01*
X-28651Y266634D01*
X-28548Y266522D01*
X-28447Y266408D01*
X-28350Y266292D01*
X-28255Y266173D01*
X-28164Y266051D01*
X-28075Y265928D01*
X-27990Y265802D01*
X-27908Y265674D01*
X-27829Y265544D01*
X-27754Y265412D01*
X-27682Y265278D01*
X-27613Y265142D01*
X-27548Y265005D01*
X-27486Y264866D01*
X-27428Y264726D01*
X-27373Y264584D01*
X-27323Y264441D01*
X-27275Y264296D01*
X-27231Y264151D01*
X-27192Y264004D01*
X-27155Y263856D01*
X-27123Y263708D01*
X-27094Y263559D01*
X-27069Y263409D01*
X-27048Y263258D01*
X-27031Y263107D01*
X-27017Y262956D01*
X-27008Y262804D01*
X-27002Y262652D01*
X-27000Y262500D01*
X-33000Y268500D02*
X-37000Y268500D01*
X-37152Y268498D01*
X-37304Y268492D01*
X-37456Y268483D01*
X-37607Y268469D01*
X-37758Y268452D01*
X-37909Y268431D01*
X-38059Y268406D01*
X-38208Y268377D01*
X-38356Y268345D01*
X-38504Y268308D01*
X-38651Y268269D01*
X-38796Y268225D01*
X-38941Y268177D01*
X-39084Y268127D01*
X-39226Y268072D01*
X-39366Y268014D01*
X-39505Y267952D01*
X-39642Y267887D01*
X-39778Y267818D01*
X-39912Y267746D01*
X-40044Y267671D01*
X-40174Y267592D01*
X-40302Y267510D01*
X-40428Y267425D01*
X-40551Y267336D01*
X-40673Y267245D01*
X-40792Y267150D01*
X-40908Y267053D01*
X-41022Y266952D01*
X-41134Y266849D01*
X-41243Y266743D01*
X-41349Y266634D01*
X-41452Y266522D01*
X-41553Y266408D01*
X-41650Y266292D01*
X-41745Y266173D01*
X-41836Y266051D01*
X-41925Y265928D01*
X-42010Y265802D01*
X-42092Y265674D01*
X-42171Y265544D01*
X-42246Y265412D01*
X-42318Y265278D01*
X-42387Y265142D01*
X-42452Y265005D01*
X-42514Y264866D01*
X-42572Y264726D01*
X-42627Y264584D01*
X-42677Y264441D01*
X-42725Y264296D01*
X-42769Y264151D01*
X-42808Y264004D01*
X-42845Y263856D01*
X-42877Y263708D01*
X-42906Y263559D01*
X-42931Y263409D01*
X-42952Y263258D01*
X-42969Y263107D01*
X-42983Y262956D01*
X-42992Y262804D01*
X-42998Y262652D01*
X-43000Y262500D01*
X-43000Y252500D01*
X-42998Y252348D01*
X-42992Y252196D01*
X-42983Y252044D01*
X-42969Y251893D01*
X-42952Y251742D01*
X-42931Y251591D01*
X-42906Y251441D01*
X-42877Y251292D01*
X-42845Y251144D01*
X-42808Y250996D01*
X-42769Y250849D01*
X-42725Y250704D01*
X-42677Y250559D01*
X-42627Y250416D01*
X-42572Y250274D01*
X-42514Y250134D01*
X-42452Y249995D01*
X-42387Y249858D01*
X-42318Y249722D01*
X-42246Y249588D01*
X-42171Y249456D01*
X-42092Y249326D01*
X-42010Y249198D01*
X-41925Y249072D01*
X-41836Y248949D01*
X-41745Y248827D01*
X-41650Y248708D01*
X-41553Y248592D01*
X-41452Y248478D01*
X-41349Y248366D01*
X-41243Y248257D01*
X-41134Y248151D01*
X-41022Y248048D01*
X-40908Y247947D01*
X-40792Y247850D01*
X-40673Y247755D01*
X-40551Y247664D01*
X-40428Y247575D01*
X-40302Y247490D01*
X-40174Y247408D01*
X-40044Y247329D01*
X-39912Y247254D01*
X-39778Y247182D01*
X-39642Y247113D01*
X-39505Y247048D01*
X-39366Y246986D01*
X-39226Y246928D01*
X-39084Y246873D01*
X-38941Y246823D01*
X-38796Y246775D01*
X-38651Y246731D01*
X-38504Y246692D01*
X-38356Y246655D01*
X-38208Y246623D01*
X-38059Y246594D01*
X-37909Y246569D01*
X-37758Y246548D01*
X-37607Y246531D01*
X-37456Y246517D01*
X-37304Y246508D01*
X-37152Y246502D01*
X-37000Y246500D01*
X-33000Y246500D01*
X-32848Y246502D01*
X-32696Y246508D01*
X-32544Y246517D01*
X-32393Y246531D01*
X-32242Y246548D01*
X-32091Y246569D01*
X-31941Y246594D01*
X-31792Y246623D01*
X-31644Y246655D01*
X-31496Y246692D01*
X-31349Y246731D01*
X-31204Y246775D01*
X-31059Y246823D01*
X-30916Y246873D01*
X-30774Y246928D01*
X-30634Y246986D01*
X-30495Y247048D01*
X-30358Y247113D01*
X-30222Y247182D01*
X-30088Y247254D01*
X-29956Y247329D01*
X-29826Y247408D01*
X-29698Y247490D01*
X-29572Y247575D01*
X-29449Y247664D01*
X-29327Y247755D01*
X-29208Y247850D01*
X-29092Y247947D01*
X-28978Y248048D01*
X-28866Y248151D01*
X-28757Y248257D01*
X-28651Y248366D01*
X-28548Y248478D01*
X-28447Y248592D01*
X-28350Y248708D01*
X-28255Y248827D01*
X-28164Y248949D01*
X-28075Y249072D01*
X-27990Y249198D01*
X-27908Y249326D01*
X-27829Y249456D01*
X-27754Y249588D01*
X-27682Y249722D01*
X-27613Y249858D01*
X-27548Y249995D01*
X-27486Y250134D01*
X-27428Y250274D01*
X-27373Y250416D01*
X-27323Y250559D01*
X-27275Y250704D01*
X-27231Y250849D01*
X-27192Y250996D01*
X-27155Y251144D01*
X-27123Y251292D01*
X-27094Y251441D01*
X-27069Y251591D01*
X-27048Y251742D01*
X-27031Y251893D01*
X-27017Y252044D01*
X-27008Y252196D01*
X-27002Y252348D01*
X-27000Y252500D01*
X-27000Y262500D01*
D11*
X-21901Y205199D02*
X-43000Y205199D01*
X-21901Y205199D02*
X-21901Y189801D01*
X-43000Y189801D01*
X-43000Y325199D02*
X-21901Y325199D01*
X-21901Y309801D01*
X-43000Y309801D01*
M02*
