G04 EAGLE Gerber RS-274X export*
G75*
%MOMM*%
%FSLAX34Y34*%
%LPD*%
%INSilkscreen Top*%
%IPPOS*%
%AMOC8*
5,1,8,0,0,1.08239X$1,22.5*%
G01*
G04 Define Apertures*
%ADD10C,0.127000*%
%ADD11C,0.200000*%
%ADD12C,0.152400*%
G36*
X378534Y375262D02*
X382598Y375262D01*
X382598Y372468D01*
X378534Y372468D01*
X378534Y375262D01*
G37*
G36*
X307238Y235000D02*
X303222Y235000D01*
X303222Y245041D01*
X307238Y245041D01*
X307530Y245026D01*
X307814Y244982D01*
X308089Y244911D01*
X308352Y244814D01*
X308602Y244693D01*
X308839Y244549D01*
X309060Y244383D01*
X309264Y244198D01*
X309450Y243994D01*
X309615Y243773D01*
X309759Y243536D01*
X309880Y243286D01*
X309977Y243023D01*
X310048Y242748D01*
X310092Y242464D01*
X310107Y242172D01*
X310107Y237883D01*
X310092Y237591D01*
X310048Y237306D01*
X309977Y237031D01*
X309880Y236767D01*
X309759Y236515D01*
X309615Y236277D01*
X309450Y236055D01*
X309264Y235850D01*
X309060Y235663D01*
X308839Y235496D01*
X308602Y235351D01*
X308352Y235229D01*
X308089Y235131D01*
X307814Y235059D01*
X307530Y235015D01*
X307238Y235000D01*
G37*
%LPC*%
G36*
X307238Y237022D02*
X307411Y237040D01*
X307572Y237090D01*
X307718Y237170D01*
X307846Y237275D01*
X307951Y237403D01*
X308031Y237549D01*
X308081Y237710D01*
X308099Y237883D01*
X308099Y242172D01*
X308082Y242345D01*
X308033Y242506D01*
X307955Y242652D01*
X307851Y242780D01*
X307725Y242885D01*
X307578Y242965D01*
X307484Y242994D01*
X307415Y243015D01*
X307238Y243033D01*
X305230Y243033D01*
X305230Y237022D01*
X307238Y237022D01*
G37*
%LPD*%
G36*
X211350Y200670D02*
X203595Y200670D01*
X203595Y202932D01*
X206342Y202932D01*
X206342Y209217D01*
X203595Y207601D01*
X203595Y210218D01*
X206584Y211979D01*
X208604Y211979D01*
X208604Y202932D01*
X211350Y202932D01*
X211350Y200670D01*
G37*
G36*
X321681Y235000D02*
X320534Y235000D01*
X320241Y235015D01*
X319957Y235059D01*
X319683Y235130D01*
X319420Y235226D01*
X319169Y235348D01*
X318933Y235492D01*
X318712Y235657D01*
X318508Y235843D01*
X318322Y236047D01*
X318157Y236268D01*
X318012Y236504D01*
X317891Y236755D01*
X317794Y237018D01*
X317723Y237292D01*
X317680Y237577D01*
X317665Y237869D01*
X317665Y238371D01*
X319673Y238371D01*
X319673Y237869D01*
X319691Y237696D01*
X319741Y237535D01*
X319820Y237388D01*
X319926Y237261D01*
X320053Y237156D01*
X320199Y237076D01*
X320361Y237026D01*
X320534Y237008D01*
X321681Y237008D01*
X321858Y237025D01*
X322021Y237074D01*
X322168Y237152D01*
X322294Y237256D01*
X322398Y237382D01*
X322476Y237529D01*
X322525Y237692D01*
X322542Y237869D01*
X322542Y238156D01*
X322525Y238333D01*
X322476Y238496D01*
X322398Y238642D01*
X322294Y238769D01*
X322168Y238873D01*
X322021Y238950D01*
X321858Y238999D01*
X321681Y239016D01*
X320677Y239016D01*
X320677Y241024D01*
X321681Y241024D01*
X321858Y241041D01*
X322021Y241090D01*
X322168Y241168D01*
X322294Y241272D01*
X322398Y241398D01*
X322476Y241545D01*
X322525Y241708D01*
X322542Y241885D01*
X322542Y242172D01*
X322525Y242349D01*
X322476Y242512D01*
X322398Y242658D01*
X322294Y242785D01*
X322168Y242889D01*
X322021Y242967D01*
X321858Y243016D01*
X321681Y243033D01*
X320534Y243033D01*
X320361Y243015D01*
X320199Y242965D01*
X320053Y242885D01*
X319926Y242780D01*
X319820Y242652D01*
X319741Y242506D01*
X319691Y242345D01*
X319673Y242172D01*
X319673Y241670D01*
X317665Y241670D01*
X317665Y242172D01*
X317680Y242464D01*
X317723Y242748D01*
X317794Y243023D01*
X317891Y243286D01*
X318012Y243536D01*
X318157Y243773D01*
X318322Y243994D01*
X318508Y244198D01*
X318712Y244383D01*
X318933Y244549D01*
X319169Y244693D01*
X319420Y244814D01*
X319683Y244911D01*
X319957Y244982D01*
X320241Y245026D01*
X320534Y245041D01*
X321681Y245041D01*
X321976Y245026D01*
X322261Y244983D01*
X322537Y244912D01*
X322801Y244816D01*
X323052Y244696D01*
X323288Y244553D01*
X323509Y244388D01*
X323713Y244203D01*
X323897Y244000D01*
X324062Y243779D01*
X324205Y243543D01*
X324325Y243292D01*
X324422Y243028D01*
X324492Y242752D01*
X324535Y242466D01*
X324550Y242172D01*
X324550Y241885D01*
X324538Y241620D01*
X324503Y241362D01*
X324445Y241112D01*
X324367Y240872D01*
X324268Y240642D01*
X324150Y240423D01*
X324014Y240215D01*
X323861Y240020D01*
X324014Y239825D01*
X324150Y239618D01*
X324268Y239399D01*
X324367Y239169D01*
X324445Y238928D01*
X324503Y238679D01*
X324538Y238421D01*
X324550Y238156D01*
X324550Y237869D01*
X324535Y237574D01*
X324492Y237288D01*
X324422Y237013D01*
X324325Y236749D01*
X324205Y236498D01*
X324062Y236261D01*
X323897Y236041D01*
X323713Y235837D01*
X323509Y235653D01*
X323288Y235488D01*
X323052Y235345D01*
X322801Y235224D01*
X322537Y235128D01*
X322261Y235058D01*
X321976Y235015D01*
X321681Y235000D01*
G37*
G36*
X339462Y235000D02*
X338315Y235000D01*
X338023Y235015D01*
X337739Y235059D01*
X337464Y235130D01*
X337201Y235226D01*
X336950Y235348D01*
X336714Y235492D01*
X336493Y235657D01*
X336289Y235843D01*
X336103Y236047D01*
X335938Y236268D01*
X335794Y236504D01*
X335672Y236755D01*
X335576Y237018D01*
X335505Y237292D01*
X335461Y237577D01*
X335446Y237869D01*
X335446Y238371D01*
X337454Y238371D01*
X337454Y237869D01*
X337472Y237696D01*
X337522Y237535D01*
X337602Y237388D01*
X337707Y237261D01*
X337835Y237156D01*
X337981Y237076D01*
X338142Y237026D01*
X338315Y237008D01*
X339462Y237008D01*
X339639Y237025D01*
X339803Y237074D01*
X339949Y237152D01*
X340076Y237256D01*
X340179Y237382D01*
X340257Y237529D01*
X340306Y237692D01*
X340323Y237869D01*
X340323Y238156D01*
X340306Y238333D01*
X340257Y238496D01*
X340179Y238642D01*
X340076Y238769D01*
X339949Y238873D01*
X339803Y238950D01*
X339639Y238999D01*
X339462Y239016D01*
X338458Y239016D01*
X338458Y241024D01*
X339462Y241024D01*
X339639Y241041D01*
X339803Y241090D01*
X339949Y241168D01*
X340076Y241272D01*
X340179Y241398D01*
X340257Y241545D01*
X340306Y241708D01*
X340323Y241885D01*
X340323Y242172D01*
X340306Y242349D01*
X340257Y242512D01*
X340179Y242658D01*
X340076Y242785D01*
X339949Y242889D01*
X339803Y242967D01*
X339639Y243016D01*
X339462Y243033D01*
X338315Y243033D01*
X338142Y243015D01*
X337981Y242965D01*
X337835Y242885D01*
X337707Y242780D01*
X337602Y242652D01*
X337522Y242506D01*
X337472Y242345D01*
X337454Y242172D01*
X337454Y241670D01*
X335446Y241670D01*
X335446Y242172D01*
X335461Y242464D01*
X335505Y242748D01*
X335576Y243023D01*
X335672Y243286D01*
X335794Y243536D01*
X335938Y243773D01*
X336103Y243994D01*
X336289Y244198D01*
X336493Y244383D01*
X336714Y244549D01*
X336950Y244693D01*
X337201Y244814D01*
X337464Y244911D01*
X337739Y244982D01*
X338023Y245026D01*
X338315Y245041D01*
X339462Y245041D01*
X339757Y245026D01*
X340043Y244983D01*
X340318Y244912D01*
X340582Y244816D01*
X340833Y244696D01*
X341070Y244553D01*
X341290Y244388D01*
X341494Y244203D01*
X341679Y244000D01*
X341843Y243779D01*
X341986Y243543D01*
X342107Y243292D01*
X342203Y243028D01*
X342273Y242752D01*
X342316Y242466D01*
X342331Y242172D01*
X342331Y241885D01*
X342319Y241620D01*
X342284Y241362D01*
X342227Y241112D01*
X342148Y240872D01*
X342050Y240642D01*
X341932Y240423D01*
X341796Y240215D01*
X341643Y240020D01*
X341796Y239825D01*
X341932Y239618D01*
X342050Y239399D01*
X342148Y239169D01*
X342227Y238928D01*
X342284Y238679D01*
X342319Y238421D01*
X342331Y238156D01*
X342331Y237869D01*
X342316Y237574D01*
X342273Y237288D01*
X342203Y237013D01*
X342107Y236749D01*
X341986Y236498D01*
X341843Y236261D01*
X341679Y236041D01*
X341494Y235837D01*
X341290Y235653D01*
X341070Y235488D01*
X340833Y235345D01*
X340582Y235224D01*
X340318Y235128D01*
X340043Y235058D01*
X339757Y235015D01*
X339462Y235000D01*
G37*
G36*
X330906Y235000D02*
X329070Y235000D01*
X326545Y241871D01*
X326545Y245041D01*
X328554Y245041D01*
X328554Y242229D01*
X329988Y238313D01*
X331422Y242229D01*
X331422Y245041D01*
X333430Y245041D01*
X333430Y241871D01*
X330906Y235000D01*
G37*
G36*
X297625Y257420D02*
X293608Y257420D01*
X293608Y267461D01*
X297625Y267461D01*
X297917Y267446D01*
X298201Y267402D01*
X298475Y267331D01*
X298739Y267234D01*
X298989Y267113D01*
X299226Y266969D01*
X299447Y266803D01*
X299651Y266618D01*
X299836Y266414D01*
X300002Y266193D01*
X300146Y265956D01*
X300267Y265706D01*
X300364Y265443D01*
X300435Y265168D01*
X300479Y264884D01*
X300493Y264592D01*
X300493Y260303D01*
X300479Y260011D01*
X300435Y259726D01*
X300364Y259451D01*
X300267Y259187D01*
X300146Y258935D01*
X300002Y258697D01*
X299836Y258475D01*
X299651Y258270D01*
X299447Y258083D01*
X299226Y257916D01*
X298989Y257771D01*
X298739Y257649D01*
X298475Y257551D01*
X298201Y257479D01*
X297917Y257435D01*
X297625Y257420D01*
G37*
%LPC*%
G36*
X297625Y259442D02*
X297798Y259460D01*
X297959Y259510D01*
X298105Y259590D01*
X298233Y259695D01*
X298338Y259823D01*
X298417Y259969D01*
X298468Y260130D01*
X298485Y260303D01*
X298485Y264592D01*
X298468Y264765D01*
X298419Y264926D01*
X298342Y265072D01*
X298238Y265200D01*
X298111Y265305D01*
X297965Y265385D01*
X297871Y265414D01*
X297802Y265435D01*
X297625Y265453D01*
X295617Y265453D01*
X295617Y259442D01*
X297625Y259442D01*
G37*
%LPD*%
G36*
X315968Y257420D02*
X314821Y257420D01*
X314529Y257435D01*
X314245Y257479D01*
X313970Y257551D01*
X313707Y257649D01*
X313456Y257771D01*
X313220Y257916D01*
X312999Y258083D01*
X312795Y258270D01*
X312609Y258475D01*
X312444Y258697D01*
X312300Y258935D01*
X312179Y259187D01*
X312082Y259451D01*
X312011Y259726D01*
X311967Y260011D01*
X311952Y260303D01*
X311952Y264592D01*
X311967Y264884D01*
X312011Y265168D01*
X312082Y265443D01*
X312179Y265706D01*
X312300Y265956D01*
X312444Y266193D01*
X312609Y266414D01*
X312795Y266618D01*
X312999Y266803D01*
X313220Y266969D01*
X313456Y267113D01*
X313707Y267234D01*
X313970Y267331D01*
X314245Y267402D01*
X314529Y267446D01*
X314821Y267461D01*
X315968Y267461D01*
X316263Y267446D01*
X316549Y267403D01*
X316824Y267332D01*
X317088Y267236D01*
X317339Y267116D01*
X317576Y266973D01*
X317796Y266808D01*
X318000Y266623D01*
X318185Y266420D01*
X318349Y266199D01*
X318493Y265963D01*
X318613Y265712D01*
X318709Y265448D01*
X318779Y265172D01*
X318822Y264886D01*
X318837Y264592D01*
X318837Y263803D01*
X316829Y263803D01*
X316829Y264592D01*
X316812Y264769D01*
X316763Y264932D01*
X316685Y265078D01*
X316582Y265205D01*
X316455Y265309D01*
X316309Y265387D01*
X316145Y265436D01*
X315968Y265453D01*
X314821Y265453D01*
X314644Y265435D01*
X314481Y265385D01*
X314334Y265305D01*
X314208Y265200D01*
X314104Y265072D01*
X314026Y264926D01*
X313977Y264765D01*
X313960Y264592D01*
X313960Y260303D01*
X313978Y260130D01*
X314028Y259969D01*
X314108Y259823D01*
X314213Y259695D01*
X314341Y259590D01*
X314487Y259510D01*
X314648Y259460D01*
X314821Y259442D01*
X315968Y259442D01*
X316141Y259460D01*
X316303Y259510D01*
X316449Y259590D01*
X316576Y259695D01*
X316682Y259823D01*
X316761Y259969D01*
X316811Y260130D01*
X316829Y260303D01*
X316829Y261092D01*
X318837Y261092D01*
X318837Y260303D01*
X318822Y260008D01*
X318779Y259722D01*
X318708Y259446D01*
X318611Y259181D01*
X318490Y258929D01*
X318346Y258691D01*
X318180Y258469D01*
X317994Y258264D01*
X317791Y258078D01*
X317570Y257912D01*
X317333Y257768D01*
X317082Y257647D01*
X316819Y257550D01*
X316545Y257479D01*
X316261Y257435D01*
X315968Y257420D01*
G37*
G36*
X304773Y257420D02*
X302765Y257420D01*
X302765Y259815D01*
X307642Y265782D01*
X307642Y267461D01*
X309650Y267461D01*
X309650Y265065D01*
X304773Y259098D01*
X304773Y257420D01*
G37*
G36*
X288445Y282420D02*
X284429Y282420D01*
X284429Y292461D01*
X288445Y292461D01*
X288737Y292446D01*
X289021Y292402D01*
X289296Y292331D01*
X289559Y292234D01*
X289810Y292113D01*
X290046Y291969D01*
X290267Y291803D01*
X290471Y291618D01*
X290657Y291414D01*
X290822Y291193D01*
X290966Y290956D01*
X291087Y290706D01*
X291184Y290443D01*
X291255Y290168D01*
X291299Y289884D01*
X291314Y289592D01*
X291314Y285303D01*
X291299Y285011D01*
X291255Y284726D01*
X291184Y284451D01*
X291087Y284187D01*
X290966Y283935D01*
X290822Y283697D01*
X290657Y283475D01*
X290471Y283270D01*
X290267Y283083D01*
X290046Y282916D01*
X289810Y282771D01*
X289559Y282649D01*
X289296Y282551D01*
X289021Y282479D01*
X288737Y282435D01*
X288445Y282420D01*
G37*
%LPC*%
G36*
X288445Y284442D02*
X288618Y284460D01*
X288779Y284510D01*
X288925Y284590D01*
X289053Y284695D01*
X289158Y284823D01*
X289238Y284969D01*
X289288Y285130D01*
X289306Y285303D01*
X289306Y289592D01*
X289289Y289765D01*
X289240Y289926D01*
X289162Y290072D01*
X289058Y290200D01*
X288932Y290305D01*
X288785Y290385D01*
X288691Y290414D01*
X288622Y290435D01*
X288445Y290453D01*
X286437Y290453D01*
X286437Y284442D01*
X288445Y284442D01*
G37*
%LPD*%
G36*
X315876Y282420D02*
X314915Y282420D01*
X314612Y282435D01*
X314318Y282480D01*
X314035Y282553D01*
X313763Y282652D01*
X313505Y282776D01*
X313261Y282924D01*
X313034Y283094D01*
X312824Y283284D01*
X312634Y283494D01*
X312464Y283721D01*
X312316Y283965D01*
X312192Y284223D01*
X312093Y284495D01*
X312020Y284778D01*
X311975Y285072D01*
X311960Y285375D01*
X311960Y285805D01*
X313968Y285805D01*
X313968Y285375D01*
X313988Y285186D01*
X314043Y285009D01*
X314132Y284848D01*
X314248Y284708D01*
X314388Y284592D01*
X314549Y284503D01*
X314726Y284448D01*
X314915Y284428D01*
X315876Y284428D01*
X316086Y284444D01*
X316274Y284489D01*
X316438Y284561D01*
X316577Y284658D01*
X316688Y284776D01*
X316769Y284912D01*
X316820Y285065D01*
X316837Y285231D01*
X316823Y285379D01*
X316784Y285518D01*
X316720Y285649D01*
X316633Y285773D01*
X316526Y285891D01*
X316400Y286003D01*
X316097Y286216D01*
X315739Y286418D01*
X315339Y286615D01*
X314470Y287023D01*
X314029Y287246D01*
X313601Y287491D01*
X313201Y287765D01*
X312843Y288073D01*
X312684Y288243D01*
X312540Y288424D01*
X312414Y288617D01*
X312307Y288823D01*
X312220Y289043D01*
X312157Y289277D01*
X312117Y289527D01*
X312103Y289793D01*
X312118Y290080D01*
X312160Y290356D01*
X312230Y290619D01*
X312325Y290869D01*
X312445Y291104D01*
X312588Y291324D01*
X312754Y291527D01*
X312941Y291713D01*
X313148Y291880D01*
X313373Y292029D01*
X313617Y292157D01*
X313876Y292264D01*
X314152Y292348D01*
X314441Y292410D01*
X314744Y292448D01*
X315058Y292461D01*
X315732Y292461D01*
X316035Y292445D01*
X316329Y292401D01*
X316614Y292328D01*
X316886Y292229D01*
X317146Y292105D01*
X317390Y291957D01*
X317619Y291787D01*
X317830Y291596D01*
X318022Y291387D01*
X318193Y291159D01*
X318342Y290916D01*
X318468Y290657D01*
X318568Y290386D01*
X318641Y290102D01*
X318686Y289808D01*
X318702Y289506D01*
X318702Y289219D01*
X316693Y289219D01*
X316693Y289506D01*
X316674Y289695D01*
X316618Y289872D01*
X316529Y290032D01*
X316412Y290173D01*
X316270Y290289D01*
X316106Y290377D01*
X315926Y290433D01*
X315732Y290453D01*
X315058Y290453D01*
X314836Y290441D01*
X314644Y290406D01*
X314481Y290350D01*
X314348Y290273D01*
X314245Y290178D01*
X314171Y290065D01*
X314126Y289936D01*
X314112Y289793D01*
X314125Y289701D01*
X314165Y289612D01*
X314229Y289524D01*
X314315Y289438D01*
X314548Y289266D01*
X314851Y289092D01*
X315609Y288720D01*
X316478Y288287D01*
X316920Y288036D01*
X317347Y287756D01*
X317747Y287444D01*
X318105Y287094D01*
X318265Y286903D01*
X318408Y286702D01*
X318534Y286489D01*
X318642Y286264D01*
X318728Y286026D01*
X318792Y285775D01*
X318831Y285510D01*
X318845Y285231D01*
X318830Y284937D01*
X318786Y284653D01*
X318715Y284381D01*
X318617Y284120D01*
X318494Y283874D01*
X318348Y283642D01*
X318179Y283427D01*
X317990Y283229D01*
X317780Y283049D01*
X317553Y282890D01*
X317308Y282751D01*
X317048Y282635D01*
X316773Y282543D01*
X316485Y282475D01*
X316186Y282434D01*
X315876Y282420D01*
G37*
G36*
X306789Y282420D02*
X305641Y282420D01*
X305349Y282435D01*
X305065Y282479D01*
X304791Y282551D01*
X304527Y282649D01*
X304277Y282771D01*
X304040Y282916D01*
X303819Y283083D01*
X303615Y283270D01*
X303430Y283475D01*
X303264Y283697D01*
X303120Y283935D01*
X302999Y284187D01*
X302902Y284451D01*
X302831Y284726D01*
X302787Y285011D01*
X302773Y285303D01*
X302773Y289592D01*
X302787Y289884D01*
X302831Y290168D01*
X302902Y290443D01*
X302999Y290706D01*
X303120Y290956D01*
X303264Y291193D01*
X303430Y291414D01*
X303615Y291618D01*
X303819Y291803D01*
X304040Y291969D01*
X304277Y292113D01*
X304527Y292234D01*
X304791Y292331D01*
X305065Y292402D01*
X305349Y292446D01*
X305641Y292461D01*
X306789Y292461D01*
X307083Y292446D01*
X307369Y292403D01*
X307645Y292332D01*
X307909Y292236D01*
X308160Y292116D01*
X308396Y291973D01*
X308617Y291808D01*
X308820Y291623D01*
X309005Y291420D01*
X309170Y291199D01*
X309313Y290963D01*
X309433Y290712D01*
X309529Y290448D01*
X309600Y290172D01*
X309643Y289886D01*
X309658Y289592D01*
X309658Y288803D01*
X307649Y288803D01*
X307649Y289592D01*
X307632Y289769D01*
X307583Y289932D01*
X307506Y290078D01*
X307402Y290205D01*
X307275Y290309D01*
X307129Y290387D01*
X306966Y290436D01*
X306789Y290453D01*
X305641Y290453D01*
X305464Y290435D01*
X305301Y290385D01*
X305155Y290305D01*
X305028Y290200D01*
X304924Y290072D01*
X304847Y289926D01*
X304798Y289765D01*
X304781Y289592D01*
X304781Y285303D01*
X304798Y285130D01*
X304849Y284969D01*
X304928Y284823D01*
X305033Y284695D01*
X305161Y284590D01*
X305307Y284510D01*
X305468Y284460D01*
X305641Y284442D01*
X306789Y284442D01*
X306962Y284460D01*
X307123Y284510D01*
X307269Y284590D01*
X307397Y284695D01*
X307502Y284823D01*
X307581Y284969D01*
X307632Y285130D01*
X307649Y285303D01*
X307649Y286092D01*
X309658Y286092D01*
X309658Y285303D01*
X309643Y285008D01*
X309599Y284722D01*
X309528Y284446D01*
X309431Y284181D01*
X309310Y283929D01*
X309166Y283691D01*
X309000Y283469D01*
X308815Y283264D01*
X308611Y283078D01*
X308390Y282912D01*
X308153Y282768D01*
X307903Y282647D01*
X307639Y282550D01*
X307365Y282479D01*
X307081Y282435D01*
X306789Y282420D01*
G37*
G36*
X299896Y285246D02*
X294159Y285246D01*
X294159Y287254D01*
X299896Y287254D01*
X299896Y285246D01*
G37*
G36*
X315876Y319920D02*
X314915Y319920D01*
X314612Y319935D01*
X314318Y319980D01*
X314035Y320053D01*
X313763Y320152D01*
X313505Y320276D01*
X313261Y320424D01*
X313034Y320594D01*
X312824Y320784D01*
X312634Y320994D01*
X312464Y321221D01*
X312316Y321465D01*
X312192Y321723D01*
X312093Y321995D01*
X312020Y322278D01*
X311975Y322572D01*
X311960Y322875D01*
X311960Y323305D01*
X313968Y323305D01*
X313968Y322875D01*
X313988Y322686D01*
X314043Y322509D01*
X314132Y322348D01*
X314248Y322208D01*
X314388Y322092D01*
X314549Y322003D01*
X314726Y321948D01*
X314915Y321928D01*
X315876Y321928D01*
X316086Y321944D01*
X316274Y321989D01*
X316438Y322061D01*
X316577Y322158D01*
X316688Y322276D01*
X316769Y322412D01*
X316820Y322565D01*
X316837Y322731D01*
X316823Y322879D01*
X316784Y323018D01*
X316720Y323149D01*
X316633Y323273D01*
X316526Y323391D01*
X316400Y323503D01*
X316097Y323716D01*
X315739Y323918D01*
X315339Y324115D01*
X314470Y324523D01*
X314029Y324746D01*
X313601Y324991D01*
X313201Y325265D01*
X312843Y325573D01*
X312684Y325743D01*
X312540Y325924D01*
X312414Y326117D01*
X312307Y326323D01*
X312220Y326543D01*
X312157Y326777D01*
X312117Y327027D01*
X312103Y327293D01*
X312118Y327580D01*
X312160Y327856D01*
X312230Y328119D01*
X312325Y328369D01*
X312445Y328604D01*
X312588Y328824D01*
X312754Y329027D01*
X312941Y329213D01*
X313148Y329380D01*
X313373Y329529D01*
X313617Y329657D01*
X313876Y329764D01*
X314152Y329848D01*
X314441Y329910D01*
X314744Y329948D01*
X315058Y329961D01*
X315732Y329961D01*
X316035Y329945D01*
X316329Y329901D01*
X316614Y329828D01*
X316886Y329729D01*
X317146Y329605D01*
X317390Y329457D01*
X317619Y329287D01*
X317830Y329096D01*
X318022Y328887D01*
X318193Y328659D01*
X318342Y328416D01*
X318468Y328157D01*
X318568Y327886D01*
X318641Y327602D01*
X318686Y327308D01*
X318702Y327006D01*
X318702Y326719D01*
X316693Y326719D01*
X316693Y327006D01*
X316674Y327195D01*
X316618Y327372D01*
X316529Y327532D01*
X316412Y327673D01*
X316270Y327789D01*
X316106Y327877D01*
X315926Y327933D01*
X315732Y327953D01*
X315058Y327953D01*
X314836Y327941D01*
X314644Y327906D01*
X314481Y327850D01*
X314348Y327773D01*
X314245Y327678D01*
X314171Y327565D01*
X314126Y327436D01*
X314112Y327293D01*
X314125Y327201D01*
X314165Y327112D01*
X314229Y327024D01*
X314315Y326938D01*
X314548Y326766D01*
X314851Y326592D01*
X315609Y326220D01*
X316478Y325787D01*
X316920Y325536D01*
X317347Y325256D01*
X317747Y324944D01*
X318105Y324594D01*
X318265Y324403D01*
X318408Y324202D01*
X318534Y323989D01*
X318642Y323764D01*
X318728Y323526D01*
X318792Y323275D01*
X318831Y323010D01*
X318845Y322731D01*
X318830Y322437D01*
X318786Y322153D01*
X318715Y321881D01*
X318617Y321620D01*
X318494Y321374D01*
X318348Y321142D01*
X318179Y320927D01*
X317990Y320729D01*
X317780Y320549D01*
X317553Y320390D01*
X317308Y320251D01*
X317048Y320135D01*
X316773Y320043D01*
X316485Y319975D01*
X316186Y319934D01*
X315876Y319920D01*
G37*
G36*
X306789Y319920D02*
X305641Y319920D01*
X305349Y319935D01*
X305065Y319979D01*
X304791Y320051D01*
X304527Y320149D01*
X304277Y320271D01*
X304040Y320416D01*
X303819Y320583D01*
X303615Y320770D01*
X303430Y320975D01*
X303264Y321197D01*
X303120Y321435D01*
X302999Y321687D01*
X302902Y321951D01*
X302831Y322226D01*
X302787Y322511D01*
X302773Y322803D01*
X302773Y327092D01*
X302787Y327384D01*
X302831Y327668D01*
X302902Y327943D01*
X302999Y328206D01*
X303120Y328456D01*
X303264Y328693D01*
X303430Y328914D01*
X303615Y329118D01*
X303819Y329303D01*
X304040Y329469D01*
X304277Y329613D01*
X304527Y329734D01*
X304791Y329831D01*
X305065Y329902D01*
X305349Y329946D01*
X305641Y329961D01*
X306789Y329961D01*
X307083Y329946D01*
X307369Y329903D01*
X307645Y329832D01*
X307909Y329736D01*
X308160Y329616D01*
X308396Y329473D01*
X308617Y329308D01*
X308820Y329123D01*
X309005Y328920D01*
X309170Y328699D01*
X309313Y328463D01*
X309433Y328212D01*
X309529Y327948D01*
X309600Y327672D01*
X309643Y327386D01*
X309658Y327092D01*
X309658Y326303D01*
X307649Y326303D01*
X307649Y327092D01*
X307632Y327269D01*
X307583Y327432D01*
X307506Y327578D01*
X307402Y327705D01*
X307275Y327809D01*
X307129Y327887D01*
X306966Y327936D01*
X306789Y327953D01*
X305641Y327953D01*
X305464Y327935D01*
X305301Y327885D01*
X305155Y327805D01*
X305028Y327700D01*
X304924Y327572D01*
X304847Y327426D01*
X304798Y327265D01*
X304781Y327092D01*
X304781Y322803D01*
X304798Y322630D01*
X304849Y322469D01*
X304928Y322323D01*
X305033Y322195D01*
X305161Y322090D01*
X305307Y322010D01*
X305468Y321960D01*
X305641Y321942D01*
X306789Y321942D01*
X306962Y321960D01*
X307123Y322010D01*
X307269Y322090D01*
X307397Y322195D01*
X307502Y322323D01*
X307581Y322469D01*
X307632Y322630D01*
X307649Y322803D01*
X307649Y323592D01*
X309658Y323592D01*
X309658Y322803D01*
X309643Y322508D01*
X309599Y322222D01*
X309528Y321946D01*
X309431Y321681D01*
X309310Y321429D01*
X309166Y321191D01*
X309000Y320969D01*
X308815Y320764D01*
X308611Y320578D01*
X308390Y320412D01*
X308153Y320268D01*
X307903Y320147D01*
X307639Y320050D01*
X307365Y319979D01*
X307081Y319935D01*
X306789Y319920D01*
G37*
G36*
X288875Y319920D02*
X286867Y319920D01*
X286867Y327953D01*
X284429Y327953D01*
X284429Y329961D01*
X291314Y329961D01*
X291314Y327953D01*
X288875Y327953D01*
X288875Y319920D01*
G37*
G36*
X299896Y322746D02*
X294159Y322746D01*
X294159Y324754D01*
X299896Y324754D01*
X299896Y322746D01*
G37*
G36*
X317089Y337654D02*
X315697Y339920D01*
X314837Y339920D01*
X314544Y339935D01*
X314260Y339979D01*
X313986Y340051D01*
X313723Y340149D01*
X313472Y340271D01*
X313235Y340416D01*
X313014Y340583D01*
X312811Y340770D01*
X312625Y340975D01*
X312459Y341197D01*
X312315Y341435D01*
X312194Y341687D01*
X312097Y341951D01*
X312026Y342226D01*
X311983Y342511D01*
X311968Y342803D01*
X311968Y347092D01*
X311983Y347384D01*
X312026Y347668D01*
X312097Y347943D01*
X312194Y348206D01*
X312315Y348456D01*
X312459Y348693D01*
X312625Y348914D01*
X312811Y349118D01*
X313014Y349303D01*
X313235Y349469D01*
X313472Y349613D01*
X313723Y349734D01*
X313986Y349831D01*
X314260Y349902D01*
X314544Y349946D01*
X314837Y349961D01*
X315984Y349961D01*
X316279Y349946D01*
X316564Y349903D01*
X316840Y349832D01*
X317104Y349736D01*
X317355Y349616D01*
X317591Y349473D01*
X317812Y349308D01*
X318015Y349123D01*
X318200Y348920D01*
X318365Y348699D01*
X318508Y348463D01*
X318628Y348212D01*
X318725Y347948D01*
X318795Y347672D01*
X318838Y347386D01*
X318853Y347092D01*
X318853Y342803D01*
X318832Y342454D01*
X318772Y342118D01*
X318675Y341797D01*
X318543Y341494D01*
X318377Y341212D01*
X318181Y340951D01*
X317956Y340716D01*
X317705Y340508D01*
X318853Y338643D01*
X317089Y337654D01*
G37*
%LPC*%
G36*
X315984Y341942D02*
X316157Y341960D01*
X316318Y342010D01*
X316464Y342090D01*
X316592Y342195D01*
X316697Y342323D01*
X316777Y342469D01*
X316827Y342630D01*
X316845Y342803D01*
X316845Y347092D01*
X316828Y347269D01*
X316779Y347432D01*
X316701Y347578D01*
X316597Y347705D01*
X316471Y347809D01*
X316324Y347887D01*
X316161Y347936D01*
X315984Y347953D01*
X314837Y347953D01*
X314660Y347935D01*
X314496Y347885D01*
X314350Y347805D01*
X314223Y347700D01*
X314120Y347572D01*
X314042Y347426D01*
X313993Y347265D01*
X313976Y347092D01*
X313976Y342803D01*
X313994Y342630D01*
X314044Y342469D01*
X314123Y342323D01*
X314229Y342195D01*
X314356Y342090D01*
X314502Y342010D01*
X314664Y341960D01*
X314837Y341942D01*
X315984Y341942D01*
G37*
%LPD*%
G36*
X304788Y339920D02*
X302780Y339920D01*
X302780Y349961D01*
X306797Y349961D01*
X307091Y349946D01*
X307377Y349903D01*
X307653Y349832D01*
X307916Y349736D01*
X308167Y349616D01*
X308404Y349473D01*
X308625Y349308D01*
X308828Y349123D01*
X309013Y348920D01*
X309177Y348699D01*
X309321Y348463D01*
X309441Y348212D01*
X309537Y347948D01*
X309607Y347672D01*
X309651Y347386D01*
X309665Y347092D01*
X309665Y346231D01*
X309657Y346013D01*
X309634Y345800D01*
X309595Y345592D01*
X309542Y345389D01*
X309395Y345005D01*
X309196Y344650D01*
X308950Y344328D01*
X308661Y344045D01*
X308334Y343803D01*
X307973Y343606D01*
X309665Y339920D01*
X307456Y339920D01*
X305893Y343363D01*
X304788Y343363D01*
X304788Y339920D01*
G37*
%LPC*%
G36*
X306797Y345371D02*
X306974Y345388D01*
X307137Y345437D01*
X307283Y345514D01*
X307410Y345618D01*
X307513Y345745D01*
X307591Y345891D01*
X307640Y346054D01*
X307657Y346231D01*
X307657Y347092D01*
X307640Y347269D01*
X307591Y347432D01*
X307513Y347578D01*
X307410Y347705D01*
X307283Y347809D01*
X307137Y347887D01*
X306974Y347936D01*
X306797Y347953D01*
X304788Y347953D01*
X304788Y345371D01*
X306797Y345371D01*
G37*
%LPD*%
G36*
X300478Y339920D02*
X293593Y339920D01*
X293593Y341928D01*
X296031Y341928D01*
X296031Y347953D01*
X293593Y347953D01*
X293593Y349961D01*
X300478Y349961D01*
X300478Y347953D01*
X298039Y347953D01*
X298039Y341928D01*
X300478Y341928D01*
X300478Y339920D01*
G37*
G36*
X279696Y339920D02*
X277688Y339920D01*
X277688Y347953D01*
X275249Y347953D01*
X275249Y349961D01*
X282134Y349961D01*
X282134Y347953D01*
X279696Y347953D01*
X279696Y339920D01*
G37*
G36*
X290717Y342746D02*
X284979Y342746D01*
X284979Y344754D01*
X290717Y344754D01*
X290717Y342746D01*
G37*
G36*
X313960Y364920D02*
X311952Y364920D01*
X311952Y374961D01*
X313960Y374961D01*
X313960Y370944D01*
X314003Y370944D01*
X316470Y374961D01*
X318837Y374961D01*
X315739Y369940D01*
X318837Y364920D01*
X316470Y364920D01*
X314003Y368936D01*
X313960Y368936D01*
X313960Y364920D01*
G37*
G36*
X297625Y364920D02*
X296477Y364920D01*
X296185Y364935D01*
X295901Y364979D01*
X295627Y365051D01*
X295363Y365149D01*
X295113Y365271D01*
X294876Y365416D01*
X294655Y365583D01*
X294451Y365770D01*
X294266Y365975D01*
X294100Y366197D01*
X293956Y366435D01*
X293835Y366687D01*
X293738Y366951D01*
X293667Y367226D01*
X293623Y367511D01*
X293608Y367803D01*
X293608Y372092D01*
X293623Y372384D01*
X293667Y372668D01*
X293738Y372943D01*
X293835Y373206D01*
X293956Y373456D01*
X294100Y373693D01*
X294266Y373914D01*
X294451Y374118D01*
X294655Y374303D01*
X294876Y374469D01*
X295113Y374613D01*
X295363Y374734D01*
X295627Y374831D01*
X295901Y374902D01*
X296185Y374946D01*
X296477Y374961D01*
X297625Y374961D01*
X297919Y374946D01*
X298205Y374903D01*
X298481Y374832D01*
X298745Y374736D01*
X298996Y374616D01*
X299232Y374473D01*
X299453Y374308D01*
X299656Y374123D01*
X299841Y373920D01*
X300006Y373699D01*
X300149Y373463D01*
X300269Y373212D01*
X300365Y372948D01*
X300435Y372672D01*
X300479Y372386D01*
X300493Y372092D01*
X300493Y371303D01*
X298485Y371303D01*
X298485Y372092D01*
X298468Y372269D01*
X298419Y372432D01*
X298342Y372578D01*
X298238Y372705D01*
X298111Y372809D01*
X297965Y372887D01*
X297802Y372936D01*
X297625Y372953D01*
X296477Y372953D01*
X296300Y372935D01*
X296137Y372885D01*
X295991Y372805D01*
X295864Y372700D01*
X295760Y372572D01*
X295682Y372426D01*
X295634Y372265D01*
X295617Y372092D01*
X295617Y367803D01*
X295634Y367630D01*
X295684Y367469D01*
X295764Y367323D01*
X295869Y367195D01*
X295997Y367090D01*
X296143Y367010D01*
X296304Y366960D01*
X296477Y366942D01*
X297625Y366942D01*
X297798Y366960D01*
X297959Y367010D01*
X298105Y367090D01*
X298233Y367195D01*
X298338Y367323D01*
X298417Y367469D01*
X298468Y367630D01*
X298485Y367803D01*
X298485Y368592D01*
X300493Y368592D01*
X300493Y367803D01*
X300479Y367508D01*
X300435Y367222D01*
X300364Y366946D01*
X300267Y366681D01*
X300146Y366429D01*
X300002Y366191D01*
X299836Y365969D01*
X299651Y365764D01*
X299447Y365578D01*
X299226Y365412D01*
X298989Y365268D01*
X298739Y365147D01*
X298475Y365050D01*
X298201Y364979D01*
X297917Y364935D01*
X297625Y364920D01*
G37*
G36*
X309650Y364920D02*
X302765Y364920D01*
X302765Y374961D01*
X304773Y374961D01*
X304773Y366928D01*
X309650Y366928D01*
X309650Y364920D01*
G37*
G36*
X299697Y431179D02*
X295408Y431179D01*
X295116Y431194D01*
X294832Y431237D01*
X294558Y431308D01*
X294294Y431405D01*
X294044Y431526D01*
X293807Y431670D01*
X293586Y431836D01*
X293382Y432021D01*
X293197Y432225D01*
X293031Y432446D01*
X292887Y432683D01*
X292766Y432934D01*
X292669Y433197D01*
X292598Y433471D01*
X292554Y433755D01*
X292539Y434048D01*
X292539Y435195D01*
X292554Y435490D01*
X292597Y435775D01*
X292668Y436051D01*
X292764Y436315D01*
X292884Y436566D01*
X293027Y436802D01*
X293192Y437023D01*
X293377Y437226D01*
X293580Y437411D01*
X293801Y437576D01*
X294037Y437719D01*
X294288Y437839D01*
X294552Y437935D01*
X294828Y438006D01*
X295114Y438049D01*
X295408Y438064D01*
X299697Y438064D01*
X299992Y438049D01*
X300278Y438005D01*
X300554Y437934D01*
X300819Y437837D01*
X301071Y437716D01*
X301309Y437572D01*
X301531Y437407D01*
X301736Y437221D01*
X301922Y437017D01*
X302088Y436796D01*
X302232Y436560D01*
X302353Y436309D01*
X302450Y436046D01*
X302521Y435771D01*
X302565Y435487D01*
X302580Y435195D01*
X302580Y434048D01*
X302565Y433755D01*
X302521Y433471D01*
X302449Y433197D01*
X302351Y432934D01*
X302229Y432683D01*
X302084Y432446D01*
X301917Y432225D01*
X301730Y432021D01*
X301525Y431836D01*
X301303Y431670D01*
X301065Y431526D01*
X300813Y431405D01*
X300549Y431308D01*
X300274Y431237D01*
X299989Y431194D01*
X299697Y431179D01*
G37*
%LPC*%
G36*
X299697Y433187D02*
X299870Y433204D01*
X300031Y433255D01*
X300177Y433334D01*
X300305Y433440D01*
X300410Y433567D01*
X300490Y433713D01*
X300540Y433875D01*
X300558Y434048D01*
X300558Y435195D01*
X300540Y435368D01*
X300490Y435529D01*
X300410Y435675D01*
X300305Y435803D01*
X300177Y435908D01*
X300031Y435988D01*
X299870Y436038D01*
X299697Y436056D01*
X295408Y436056D01*
X295231Y436039D01*
X295068Y435990D01*
X294922Y435912D01*
X294795Y435808D01*
X294691Y435682D01*
X294613Y435535D01*
X294565Y435372D01*
X294548Y435195D01*
X294548Y434048D01*
X294565Y433871D01*
X294615Y433707D01*
X294695Y433561D01*
X294800Y433434D01*
X294928Y433331D01*
X295074Y433253D01*
X295235Y433204D01*
X295408Y433187D01*
X299697Y433187D01*
G37*
%LPD*%
G36*
X302580Y403648D02*
X292539Y403648D01*
X292539Y405555D01*
X295881Y407090D01*
X292539Y408625D01*
X292539Y410533D01*
X302580Y410533D01*
X302580Y408524D01*
X297258Y408524D01*
X299109Y407664D01*
X299109Y406516D01*
X297258Y405656D01*
X302580Y405656D01*
X302580Y403648D01*
G37*
G36*
X299625Y421991D02*
X299195Y421991D01*
X299195Y423999D01*
X299625Y423999D01*
X299814Y424019D01*
X299991Y424075D01*
X300152Y424163D01*
X300292Y424279D01*
X300409Y424420D01*
X300497Y424580D01*
X300552Y424757D01*
X300572Y424946D01*
X300572Y425907D01*
X300556Y426117D01*
X300511Y426305D01*
X300439Y426470D01*
X300342Y426608D01*
X300225Y426719D01*
X300088Y426801D01*
X299935Y426851D01*
X299769Y426868D01*
X299621Y426855D01*
X299482Y426815D01*
X299351Y426751D01*
X299227Y426665D01*
X299109Y426558D01*
X298997Y426431D01*
X298784Y426129D01*
X298582Y425770D01*
X298385Y425370D01*
X297977Y424501D01*
X297754Y424060D01*
X297509Y423632D01*
X297235Y423233D01*
X296927Y422874D01*
X296757Y422715D01*
X296576Y422572D01*
X296383Y422445D01*
X296177Y422338D01*
X295957Y422252D01*
X295723Y422188D01*
X295473Y422148D01*
X295207Y422135D01*
X294920Y422149D01*
X294644Y422192D01*
X294381Y422261D01*
X294131Y422356D01*
X293896Y422476D01*
X293676Y422620D01*
X293473Y422785D01*
X293287Y422972D01*
X293120Y423179D01*
X292971Y423404D01*
X292843Y423648D01*
X292736Y423908D01*
X292652Y424183D01*
X292590Y424472D01*
X292552Y424775D01*
X292539Y425090D01*
X292539Y425764D01*
X292555Y426066D01*
X292599Y426361D01*
X292672Y426645D01*
X292771Y426917D01*
X292895Y427177D01*
X293043Y427422D01*
X293213Y427650D01*
X293404Y427861D01*
X293613Y428053D01*
X293841Y428225D01*
X294084Y428374D01*
X294343Y428499D01*
X294614Y428599D01*
X294898Y428672D01*
X295192Y428717D01*
X295494Y428733D01*
X295781Y428733D01*
X295781Y426725D01*
X295494Y426725D01*
X295305Y426705D01*
X295128Y426649D01*
X294968Y426561D01*
X294827Y426443D01*
X294711Y426301D01*
X294623Y426138D01*
X294567Y425957D01*
X294548Y425764D01*
X294548Y425090D01*
X294559Y424868D01*
X294594Y424675D01*
X294650Y424513D01*
X294727Y424379D01*
X294822Y424276D01*
X294935Y424202D01*
X295064Y424158D01*
X295207Y424143D01*
X295299Y424156D01*
X295388Y424196D01*
X295476Y424260D01*
X295562Y424346D01*
X295734Y424580D01*
X295908Y424882D01*
X296280Y425641D01*
X296713Y426510D01*
X296964Y426951D01*
X297244Y427379D01*
X297556Y427778D01*
X297906Y428137D01*
X298097Y428296D01*
X298298Y428439D01*
X298511Y428566D01*
X298736Y428673D01*
X298974Y428759D01*
X299225Y428823D01*
X299490Y428863D01*
X299769Y428876D01*
X300063Y428861D01*
X300347Y428818D01*
X300619Y428746D01*
X300880Y428648D01*
X301126Y428526D01*
X301358Y428379D01*
X301573Y428211D01*
X301771Y428021D01*
X301951Y427812D01*
X302110Y427584D01*
X302249Y427339D01*
X302365Y427079D01*
X302457Y426804D01*
X302525Y426517D01*
X302566Y426217D01*
X302580Y425907D01*
X302580Y424946D01*
X302565Y424643D01*
X302520Y424350D01*
X302447Y424066D01*
X302348Y423795D01*
X302224Y423536D01*
X302076Y423293D01*
X301906Y423065D01*
X301716Y422855D01*
X301506Y422665D01*
X301279Y422495D01*
X301035Y422347D01*
X300777Y422223D01*
X300505Y422124D01*
X300222Y422051D01*
X299928Y422006D01*
X299625Y421991D01*
G37*
G36*
X294548Y412804D02*
X292539Y412804D01*
X292539Y419689D01*
X294548Y419689D01*
X294548Y417250D01*
X300572Y417250D01*
X300572Y419689D01*
X302580Y419689D01*
X302580Y412804D01*
X300572Y412804D01*
X300572Y415242D01*
X294548Y415242D01*
X294548Y412804D01*
G37*
G36*
X332197Y412804D02*
X327908Y412804D01*
X327616Y412819D01*
X327332Y412862D01*
X327058Y412933D01*
X326794Y413030D01*
X326544Y413151D01*
X326307Y413295D01*
X326086Y413461D01*
X325882Y413646D01*
X325697Y413850D01*
X325531Y414071D01*
X325387Y414308D01*
X325266Y414559D01*
X325169Y414822D01*
X325098Y415096D01*
X325054Y415380D01*
X325039Y415673D01*
X325039Y416820D01*
X325054Y417115D01*
X325097Y417400D01*
X325168Y417676D01*
X325264Y417940D01*
X325384Y418191D01*
X325527Y418427D01*
X325692Y418648D01*
X325877Y418851D01*
X326080Y419036D01*
X326301Y419201D01*
X326537Y419344D01*
X326788Y419464D01*
X327052Y419560D01*
X327328Y419631D01*
X327614Y419674D01*
X327908Y419689D01*
X332197Y419689D01*
X332492Y419674D01*
X332778Y419630D01*
X333054Y419559D01*
X333319Y419462D01*
X333571Y419341D01*
X333809Y419197D01*
X334031Y419032D01*
X334236Y418846D01*
X334422Y418642D01*
X334588Y418421D01*
X334732Y418185D01*
X334853Y417934D01*
X334950Y417671D01*
X335021Y417396D01*
X335065Y417112D01*
X335080Y416820D01*
X335080Y415673D01*
X335065Y415380D01*
X335021Y415096D01*
X334949Y414822D01*
X334851Y414559D01*
X334729Y414308D01*
X334584Y414071D01*
X334417Y413850D01*
X334230Y413646D01*
X334025Y413461D01*
X333803Y413295D01*
X333565Y413151D01*
X333313Y413030D01*
X333049Y412933D01*
X332774Y412862D01*
X332489Y412819D01*
X332197Y412804D01*
G37*
%LPC*%
G36*
X332197Y414812D02*
X332370Y414829D01*
X332531Y414880D01*
X332677Y414959D01*
X332805Y415065D01*
X332910Y415192D01*
X332990Y415338D01*
X333040Y415500D01*
X333058Y415673D01*
X333058Y416820D01*
X333040Y416993D01*
X332990Y417154D01*
X332910Y417300D01*
X332805Y417428D01*
X332677Y417533D01*
X332531Y417613D01*
X332370Y417663D01*
X332197Y417681D01*
X327908Y417681D01*
X327731Y417664D01*
X327568Y417615D01*
X327422Y417537D01*
X327295Y417433D01*
X327191Y417307D01*
X327113Y417160D01*
X327065Y416997D01*
X327048Y416820D01*
X327048Y415673D01*
X327065Y415496D01*
X327115Y415332D01*
X327195Y415186D01*
X327300Y415059D01*
X327428Y414956D01*
X327574Y414878D01*
X327735Y414829D01*
X327908Y414812D01*
X332197Y414812D01*
G37*
%LPD*%
G36*
X335080Y403648D02*
X325039Y403648D01*
X325039Y405555D01*
X328381Y407090D01*
X325039Y408625D01*
X325039Y410533D01*
X335080Y410533D01*
X335080Y408524D01*
X329758Y408524D01*
X331609Y407664D01*
X331609Y406516D01*
X329758Y405656D01*
X335080Y405656D01*
X335080Y403648D01*
G37*
G36*
X332125Y421991D02*
X331695Y421991D01*
X331695Y423999D01*
X332125Y423999D01*
X332314Y424019D01*
X332491Y424075D01*
X332652Y424163D01*
X332792Y424279D01*
X332909Y424420D01*
X332997Y424580D01*
X333052Y424757D01*
X333072Y424946D01*
X333072Y425907D01*
X333056Y426117D01*
X333011Y426305D01*
X332939Y426470D01*
X332842Y426608D01*
X332725Y426719D01*
X332588Y426801D01*
X332435Y426851D01*
X332269Y426868D01*
X332121Y426855D01*
X331982Y426815D01*
X331851Y426751D01*
X331727Y426665D01*
X331609Y426558D01*
X331497Y426431D01*
X331284Y426129D01*
X331082Y425770D01*
X330885Y425370D01*
X330477Y424501D01*
X330254Y424060D01*
X330009Y423632D01*
X329735Y423233D01*
X329427Y422874D01*
X329257Y422715D01*
X329076Y422572D01*
X328883Y422445D01*
X328677Y422338D01*
X328457Y422252D01*
X328223Y422188D01*
X327973Y422148D01*
X327707Y422135D01*
X327420Y422149D01*
X327144Y422192D01*
X326881Y422261D01*
X326631Y422356D01*
X326396Y422476D01*
X326176Y422620D01*
X325973Y422785D01*
X325787Y422972D01*
X325620Y423179D01*
X325471Y423404D01*
X325343Y423648D01*
X325236Y423908D01*
X325152Y424183D01*
X325090Y424472D01*
X325052Y424775D01*
X325039Y425090D01*
X325039Y425764D01*
X325055Y426066D01*
X325099Y426361D01*
X325172Y426645D01*
X325271Y426917D01*
X325395Y427177D01*
X325543Y427422D01*
X325713Y427650D01*
X325904Y427861D01*
X326113Y428053D01*
X326341Y428225D01*
X326584Y428374D01*
X326843Y428499D01*
X327114Y428599D01*
X327398Y428672D01*
X327692Y428717D01*
X327994Y428733D01*
X328281Y428733D01*
X328281Y426725D01*
X327994Y426725D01*
X327805Y426705D01*
X327628Y426649D01*
X327468Y426561D01*
X327327Y426443D01*
X327211Y426301D01*
X327123Y426138D01*
X327067Y425957D01*
X327048Y425764D01*
X327048Y425090D01*
X327059Y424868D01*
X327094Y424675D01*
X327150Y424513D01*
X327227Y424379D01*
X327322Y424276D01*
X327435Y424202D01*
X327564Y424158D01*
X327707Y424143D01*
X327799Y424156D01*
X327888Y424196D01*
X327976Y424260D01*
X328062Y424346D01*
X328234Y424580D01*
X328408Y424882D01*
X328780Y425641D01*
X329213Y426510D01*
X329464Y426951D01*
X329744Y427379D01*
X330056Y427778D01*
X330406Y428137D01*
X330597Y428296D01*
X330798Y428439D01*
X331011Y428566D01*
X331236Y428673D01*
X331474Y428759D01*
X331725Y428823D01*
X331990Y428863D01*
X332269Y428876D01*
X332563Y428861D01*
X332847Y428818D01*
X333119Y428746D01*
X333380Y428648D01*
X333626Y428526D01*
X333858Y428379D01*
X334073Y428211D01*
X334271Y428021D01*
X334451Y427812D01*
X334610Y427584D01*
X334749Y427339D01*
X334865Y427079D01*
X334957Y426804D01*
X335025Y426517D01*
X335066Y426217D01*
X335080Y425907D01*
X335080Y424946D01*
X335065Y424643D01*
X335020Y424350D01*
X334947Y424066D01*
X334848Y423795D01*
X334724Y423536D01*
X334576Y423293D01*
X334406Y423065D01*
X334216Y422855D01*
X334006Y422665D01*
X333779Y422495D01*
X333535Y422347D01*
X333277Y422223D01*
X333005Y422124D01*
X332722Y422051D01*
X332428Y422006D01*
X332125Y421991D01*
G37*
G36*
X327048Y431179D02*
X325039Y431179D01*
X325039Y438064D01*
X327048Y438064D01*
X327048Y435625D01*
X333072Y435625D01*
X333072Y438064D01*
X335080Y438064D01*
X335080Y431179D01*
X333072Y431179D01*
X333072Y433617D01*
X327048Y433617D01*
X327048Y431179D01*
G37*
G36*
X340080Y161148D02*
X330039Y161148D01*
X330039Y164877D01*
X330054Y165171D01*
X330097Y165457D01*
X330168Y165733D01*
X330264Y165997D01*
X330384Y166248D01*
X330527Y166484D01*
X330692Y166705D01*
X330877Y166908D01*
X331080Y167093D01*
X331301Y167258D01*
X331537Y167401D01*
X331788Y167521D01*
X332052Y167617D01*
X332328Y167688D01*
X332614Y167731D01*
X332908Y167746D01*
X333052Y167746D01*
X333286Y167736D01*
X333516Y167709D01*
X333740Y167664D01*
X333957Y167602D01*
X334167Y167524D01*
X334369Y167431D01*
X334561Y167323D01*
X334744Y167201D01*
X334947Y167385D01*
X335167Y167548D01*
X335404Y167691D01*
X335655Y167810D01*
X335920Y167905D01*
X336196Y167975D01*
X336484Y168018D01*
X336781Y168033D01*
X337211Y168033D01*
X337506Y168018D01*
X337792Y167975D01*
X338067Y167904D01*
X338331Y167808D01*
X338582Y167688D01*
X338819Y167545D01*
X339039Y167380D01*
X339243Y167195D01*
X339427Y166992D01*
X339592Y166771D01*
X339735Y166535D01*
X339856Y166284D01*
X339952Y166020D01*
X340022Y165744D01*
X340065Y165458D01*
X340080Y165164D01*
X340080Y161148D01*
G37*
%LPC*%
G36*
X338072Y163156D02*
X338072Y165164D01*
X338055Y165341D01*
X338006Y165504D01*
X337928Y165650D01*
X337824Y165777D01*
X337698Y165881D01*
X337551Y165958D01*
X337388Y166007D01*
X337211Y166024D01*
X336781Y166024D01*
X336604Y166007D01*
X336441Y165958D01*
X336294Y165881D01*
X336168Y165777D01*
X336064Y165650D01*
X335986Y165504D01*
X335937Y165341D01*
X335920Y165164D01*
X335920Y163156D01*
X338072Y163156D01*
G37*
G36*
X333912Y163156D02*
X333912Y164877D01*
X333895Y165054D01*
X333846Y165217D01*
X333769Y165363D01*
X333665Y165490D01*
X333538Y165594D01*
X333392Y165672D01*
X333229Y165721D01*
X333052Y165738D01*
X332908Y165738D01*
X332731Y165721D01*
X332568Y165672D01*
X332422Y165594D01*
X332295Y165490D01*
X332191Y165363D01*
X332113Y165217D01*
X332065Y165054D01*
X332048Y164877D01*
X332048Y163156D01*
X333912Y163156D01*
G37*
%LPD*%
G36*
X340080Y170304D02*
X330039Y170304D01*
X330039Y172312D01*
X338072Y172312D01*
X338072Y177189D01*
X340080Y177189D01*
X340080Y170304D01*
G37*
G36*
X469853Y241453D02*
X468156Y241453D01*
X468156Y243715D01*
X469853Y243715D01*
X470047Y243734D01*
X470229Y243791D01*
X470394Y243881D01*
X470537Y243999D01*
X470656Y244143D01*
X470746Y244308D01*
X470802Y244489D01*
X470822Y244684D01*
X470822Y245976D01*
X470802Y246171D01*
X470746Y246353D01*
X470656Y246517D01*
X470537Y246661D01*
X470394Y246780D01*
X470229Y246869D01*
X470047Y246926D01*
X469853Y246946D01*
X464053Y246946D01*
X464053Y242907D01*
X461791Y242907D01*
X461791Y249208D01*
X469853Y249208D01*
X470182Y249191D01*
X470502Y249142D01*
X470812Y249062D01*
X471110Y248953D01*
X471393Y248816D01*
X471661Y248654D01*
X471912Y248467D01*
X472143Y248258D01*
X472353Y248029D01*
X472541Y247780D01*
X472705Y247513D01*
X472843Y247231D01*
X472953Y246935D01*
X473033Y246625D01*
X473083Y246306D01*
X473100Y245976D01*
X473100Y244684D01*
X473083Y244355D01*
X473034Y244035D01*
X472954Y243726D01*
X472845Y243429D01*
X472708Y243147D01*
X472545Y242881D01*
X472358Y242632D01*
X472149Y242402D01*
X471918Y242193D01*
X471668Y242006D01*
X471400Y241844D01*
X471117Y241708D01*
X470818Y241599D01*
X470507Y241519D01*
X470185Y241469D01*
X469853Y241453D01*
G37*
G36*
X466169Y251765D02*
X463552Y251765D01*
X461791Y254754D01*
X461791Y256774D01*
X470838Y256774D01*
X470838Y259520D01*
X473100Y259520D01*
X473100Y251765D01*
X470838Y251765D01*
X470838Y254512D01*
X464553Y254512D01*
X466169Y251765D01*
G37*
G36*
X280545Y168170D02*
X278283Y168170D01*
X278283Y179479D01*
X282807Y179479D01*
X283138Y179463D01*
X283460Y179414D01*
X283771Y179335D01*
X284068Y179227D01*
X284351Y179091D01*
X284617Y178930D01*
X284866Y178744D01*
X285095Y178536D01*
X285303Y178307D01*
X285488Y178059D01*
X285650Y177792D01*
X285785Y177510D01*
X285893Y177212D01*
X285972Y176902D01*
X286021Y176580D01*
X286038Y176248D01*
X286038Y175279D01*
X286029Y175033D01*
X286002Y174793D01*
X285959Y174558D01*
X285899Y174331D01*
X285823Y174110D01*
X285733Y173897D01*
X285628Y173693D01*
X285509Y173498D01*
X285232Y173136D01*
X284906Y172816D01*
X284538Y172543D01*
X284339Y172426D01*
X284131Y172322D01*
X286038Y168170D01*
X283550Y168170D01*
X281789Y172048D01*
X280545Y172048D01*
X280545Y168170D01*
G37*
%LPC*%
G36*
X282807Y174309D02*
X283006Y174328D01*
X283190Y174384D01*
X283355Y174471D01*
X283497Y174588D01*
X283614Y174731D01*
X283702Y174896D01*
X283757Y175079D01*
X283776Y175279D01*
X283776Y176248D01*
X283757Y176447D01*
X283702Y176631D01*
X283614Y176796D01*
X283497Y176939D01*
X283355Y177056D01*
X283190Y177143D01*
X283006Y177198D01*
X282807Y177218D01*
X280545Y177218D01*
X280545Y174309D01*
X282807Y174309D01*
G37*
%LPD*%
G36*
X301847Y168170D02*
X299585Y168170D01*
X299585Y171304D01*
X304432Y176313D01*
X304432Y177218D01*
X301201Y177218D01*
X301201Y175925D01*
X298939Y175925D01*
X298939Y179479D01*
X306694Y179479D01*
X306694Y175408D01*
X301847Y170400D01*
X301847Y168170D01*
G37*
G36*
X296350Y168170D02*
X288595Y168170D01*
X288595Y170432D01*
X291342Y170432D01*
X291342Y176717D01*
X288595Y175101D01*
X288595Y177718D01*
X291584Y179479D01*
X293604Y179479D01*
X293604Y170432D01*
X296350Y170432D01*
X296350Y168170D01*
G37*
G36*
X403215Y100670D02*
X400953Y100670D01*
X400953Y111979D01*
X405476Y111979D01*
X405808Y111963D01*
X406130Y111914D01*
X406441Y111835D01*
X406738Y111727D01*
X407020Y111591D01*
X407287Y111430D01*
X407535Y111244D01*
X407765Y111036D01*
X407973Y110807D01*
X408158Y110559D01*
X408319Y110292D01*
X408455Y110010D01*
X408563Y109712D01*
X408642Y109402D01*
X408691Y109080D01*
X408708Y108748D01*
X408708Y107779D01*
X408699Y107533D01*
X408672Y107293D01*
X408629Y107058D01*
X408569Y106831D01*
X408493Y106610D01*
X408403Y106397D01*
X408298Y106193D01*
X408179Y105998D01*
X407901Y105636D01*
X407576Y105316D01*
X407208Y105043D01*
X407009Y104926D01*
X406801Y104822D01*
X408708Y100670D01*
X406220Y100670D01*
X404459Y104548D01*
X403215Y104548D01*
X403215Y100670D01*
G37*
%LPC*%
G36*
X405476Y106809D02*
X405676Y106828D01*
X405860Y106884D01*
X406025Y106971D01*
X406167Y107088D01*
X406284Y107231D01*
X406372Y107396D01*
X406427Y107579D01*
X406446Y107779D01*
X406446Y108748D01*
X406427Y108947D01*
X406372Y109131D01*
X406284Y109296D01*
X406167Y109439D01*
X406025Y109556D01*
X405860Y109643D01*
X405676Y109698D01*
X405476Y109718D01*
X403215Y109718D01*
X403215Y106809D01*
X405476Y106809D01*
G37*
%LPD*%
G36*
X419020Y100670D02*
X411265Y100670D01*
X411265Y102932D01*
X414012Y102932D01*
X414012Y109217D01*
X411265Y107601D01*
X411265Y110218D01*
X414254Y111979D01*
X416274Y111979D01*
X416274Y102932D01*
X419020Y102932D01*
X419020Y100670D01*
G37*
G36*
X403215Y120670D02*
X400953Y120670D01*
X400953Y131979D01*
X405476Y131979D01*
X405808Y131963D01*
X406130Y131914D01*
X406441Y131835D01*
X406738Y131727D01*
X407020Y131591D01*
X407287Y131430D01*
X407535Y131244D01*
X407765Y131036D01*
X407973Y130807D01*
X408158Y130559D01*
X408319Y130292D01*
X408455Y130010D01*
X408563Y129712D01*
X408642Y129402D01*
X408691Y129080D01*
X408708Y128748D01*
X408708Y127779D01*
X408699Y127533D01*
X408672Y127293D01*
X408629Y127058D01*
X408569Y126831D01*
X408493Y126610D01*
X408403Y126397D01*
X408298Y126193D01*
X408179Y125998D01*
X407901Y125636D01*
X407576Y125316D01*
X407208Y125043D01*
X407009Y124926D01*
X406801Y124822D01*
X408708Y120670D01*
X406220Y120670D01*
X404459Y124548D01*
X403215Y124548D01*
X403215Y120670D01*
G37*
%LPC*%
G36*
X405476Y126809D02*
X405676Y126828D01*
X405860Y126884D01*
X406025Y126971D01*
X406167Y127088D01*
X406284Y127231D01*
X406372Y127396D01*
X406427Y127579D01*
X406446Y127779D01*
X406446Y128748D01*
X406427Y128947D01*
X406372Y129131D01*
X406284Y129296D01*
X406167Y129439D01*
X406025Y129556D01*
X405860Y129643D01*
X405676Y129698D01*
X405476Y129718D01*
X403215Y129718D01*
X403215Y126809D01*
X405476Y126809D01*
G37*
%LPD*%
G36*
X419020Y120670D02*
X411265Y120670D01*
X411265Y124758D01*
X416758Y127843D01*
X416758Y128748D01*
X416739Y128947D01*
X416684Y129131D01*
X416596Y129296D01*
X416480Y129439D01*
X416337Y129556D01*
X416172Y129643D01*
X415988Y129698D01*
X415789Y129718D01*
X414496Y129718D01*
X414302Y129698D01*
X414120Y129641D01*
X413955Y129551D01*
X413812Y129433D01*
X413693Y129289D01*
X413604Y129125D01*
X413547Y128943D01*
X413527Y128748D01*
X413527Y127860D01*
X411265Y127860D01*
X411265Y128748D01*
X411282Y129077D01*
X411331Y129397D01*
X411411Y129706D01*
X411520Y130003D01*
X411657Y130285D01*
X411819Y130552D01*
X412005Y130800D01*
X412214Y131030D01*
X412444Y131239D01*
X412693Y131426D01*
X412959Y131588D01*
X413242Y131724D01*
X413538Y131833D01*
X413847Y131913D01*
X414167Y131963D01*
X414496Y131979D01*
X415789Y131979D01*
X416121Y131963D01*
X416443Y131914D01*
X416753Y131835D01*
X417050Y131727D01*
X417333Y131591D01*
X417599Y131430D01*
X417848Y131244D01*
X418077Y131036D01*
X418285Y130807D01*
X418471Y130559D01*
X418632Y130292D01*
X418767Y130010D01*
X418876Y129712D01*
X418955Y129402D01*
X419004Y129080D01*
X419020Y128748D01*
X419020Y126502D01*
X413527Y123417D01*
X413527Y122932D01*
X419020Y122932D01*
X419020Y120670D01*
G37*
G36*
X403538Y140670D02*
X401276Y140670D01*
X401276Y151979D01*
X405800Y151979D01*
X406131Y151963D01*
X406453Y151914D01*
X406764Y151835D01*
X407061Y151727D01*
X407344Y151591D01*
X407610Y151430D01*
X407859Y151244D01*
X408088Y151036D01*
X408296Y150807D01*
X408481Y150559D01*
X408643Y150292D01*
X408778Y150010D01*
X408886Y149712D01*
X408966Y149402D01*
X409014Y149080D01*
X409031Y148748D01*
X409031Y147779D01*
X409022Y147533D01*
X408995Y147293D01*
X408952Y147058D01*
X408892Y146831D01*
X408817Y146610D01*
X408726Y146397D01*
X408621Y146193D01*
X408502Y145998D01*
X408225Y145636D01*
X407899Y145316D01*
X407531Y145043D01*
X407332Y144926D01*
X407124Y144822D01*
X409031Y140670D01*
X406543Y140670D01*
X404782Y144548D01*
X403538Y144548D01*
X403538Y140670D01*
G37*
%LPC*%
G36*
X405800Y146809D02*
X405999Y146828D01*
X406183Y146884D01*
X406348Y146971D01*
X406490Y147088D01*
X406607Y147231D01*
X406695Y147396D01*
X406750Y147579D01*
X406769Y147779D01*
X406769Y148748D01*
X406750Y148947D01*
X406695Y149131D01*
X406607Y149296D01*
X406490Y149439D01*
X406348Y149556D01*
X406183Y149643D01*
X405999Y149698D01*
X405800Y149718D01*
X403538Y149718D01*
X403538Y146809D01*
X405800Y146809D01*
G37*
%LPD*%
G36*
X415789Y140670D02*
X414497Y140670D01*
X414167Y140687D01*
X413847Y140736D01*
X413538Y140816D01*
X413242Y140925D01*
X412960Y141061D01*
X412693Y141224D01*
X412444Y141410D01*
X412214Y141619D01*
X412006Y141849D01*
X411819Y142098D01*
X411657Y142364D01*
X411520Y142647D01*
X411411Y142943D01*
X411331Y143252D01*
X411282Y143572D01*
X411265Y143901D01*
X411265Y144467D01*
X413527Y144467D01*
X413527Y143901D01*
X413547Y143707D01*
X413604Y143525D01*
X413693Y143360D01*
X413812Y143217D01*
X413956Y143098D01*
X414120Y143008D01*
X414302Y142952D01*
X414497Y142932D01*
X415789Y142932D01*
X415988Y142951D01*
X416172Y143006D01*
X416337Y143094D01*
X416480Y143211D01*
X416597Y143353D01*
X416684Y143518D01*
X416739Y143702D01*
X416758Y143901D01*
X416758Y144224D01*
X416739Y144424D01*
X416684Y144608D01*
X416597Y144772D01*
X416480Y144915D01*
X416337Y145032D01*
X416172Y145120D01*
X415988Y145175D01*
X415789Y145194D01*
X414658Y145194D01*
X414658Y147456D01*
X415789Y147456D01*
X415988Y147475D01*
X416172Y147530D01*
X416337Y147618D01*
X416480Y147734D01*
X416597Y147877D01*
X416684Y148042D01*
X416739Y148226D01*
X416758Y148425D01*
X416758Y148748D01*
X416739Y148947D01*
X416684Y149131D01*
X416597Y149296D01*
X416480Y149439D01*
X416337Y149556D01*
X416172Y149643D01*
X415988Y149698D01*
X415789Y149718D01*
X414497Y149718D01*
X414302Y149698D01*
X414120Y149641D01*
X413956Y149551D01*
X413812Y149433D01*
X413693Y149289D01*
X413604Y149125D01*
X413547Y148943D01*
X413527Y148748D01*
X413527Y148183D01*
X411265Y148183D01*
X411265Y148748D01*
X411282Y149077D01*
X411331Y149397D01*
X411411Y149706D01*
X411520Y150003D01*
X411657Y150285D01*
X411819Y150552D01*
X412006Y150800D01*
X412214Y151030D01*
X412444Y151239D01*
X412693Y151426D01*
X412960Y151588D01*
X413242Y151724D01*
X413538Y151833D01*
X413847Y151913D01*
X414167Y151963D01*
X414497Y151979D01*
X415789Y151979D01*
X416121Y151963D01*
X416443Y151914D01*
X416753Y151835D01*
X417050Y151727D01*
X417333Y151591D01*
X417600Y151430D01*
X417848Y151244D01*
X418077Y151036D01*
X418285Y150807D01*
X418471Y150559D01*
X418632Y150292D01*
X418768Y150010D01*
X418876Y149712D01*
X418955Y149402D01*
X419004Y149080D01*
X419020Y148748D01*
X419020Y148425D01*
X419007Y148126D01*
X418967Y147836D01*
X418903Y147555D01*
X418814Y147284D01*
X418703Y147025D01*
X418570Y146778D01*
X418417Y146544D01*
X418245Y146325D01*
X418417Y146105D01*
X418570Y145872D01*
X418703Y145625D01*
X418814Y145365D01*
X418903Y145095D01*
X418967Y144814D01*
X419007Y144523D01*
X419020Y144224D01*
X419020Y143901D01*
X419004Y143569D01*
X418955Y143248D01*
X418876Y142937D01*
X418768Y142640D01*
X418632Y142357D01*
X418471Y142091D01*
X418285Y141842D01*
X418077Y141613D01*
X417848Y141405D01*
X417600Y141220D01*
X417333Y141058D01*
X417050Y140923D01*
X416753Y140815D01*
X416443Y140735D01*
X416121Y140687D01*
X415789Y140670D01*
G37*
G36*
X403215Y160670D02*
X400953Y160670D01*
X400953Y171979D01*
X405476Y171979D01*
X405808Y171963D01*
X406130Y171914D01*
X406441Y171835D01*
X406738Y171727D01*
X407020Y171591D01*
X407287Y171430D01*
X407535Y171244D01*
X407765Y171036D01*
X407973Y170807D01*
X408158Y170559D01*
X408319Y170292D01*
X408455Y170010D01*
X408563Y169712D01*
X408642Y169402D01*
X408691Y169080D01*
X408708Y168748D01*
X408708Y167779D01*
X408699Y167533D01*
X408672Y167293D01*
X408629Y167058D01*
X408569Y166831D01*
X408493Y166610D01*
X408403Y166397D01*
X408298Y166193D01*
X408179Y165998D01*
X407901Y165636D01*
X407576Y165316D01*
X407208Y165043D01*
X407009Y164926D01*
X406801Y164822D01*
X408708Y160670D01*
X406220Y160670D01*
X404459Y164548D01*
X403215Y164548D01*
X403215Y160670D01*
G37*
%LPC*%
G36*
X405476Y166809D02*
X405676Y166828D01*
X405860Y166884D01*
X406025Y166971D01*
X406167Y167088D01*
X406284Y167231D01*
X406372Y167396D01*
X406427Y167579D01*
X406446Y167779D01*
X406446Y168748D01*
X406427Y168947D01*
X406372Y169131D01*
X406284Y169296D01*
X406167Y169439D01*
X406025Y169556D01*
X405860Y169643D01*
X405676Y169698D01*
X405476Y169718D01*
X403215Y169718D01*
X403215Y166809D01*
X405476Y166809D01*
G37*
%LPD*%
G36*
X417566Y160670D02*
X415304Y160670D01*
X415304Y165032D01*
X411265Y165032D01*
X411265Y171979D01*
X413527Y171979D01*
X413527Y167294D01*
X415304Y167294D01*
X415304Y171010D01*
X417566Y171010D01*
X417566Y167294D01*
X419020Y167294D01*
X419020Y165032D01*
X417566Y165032D01*
X417566Y160670D01*
G37*
G36*
X388853Y236137D02*
X384022Y236137D01*
X383693Y236154D01*
X383373Y236203D01*
X383064Y236283D01*
X382767Y236392D01*
X382485Y236529D01*
X382219Y236691D01*
X381970Y236877D01*
X381740Y237086D01*
X381531Y237316D01*
X381344Y237565D01*
X381182Y237832D01*
X381046Y238114D01*
X380937Y238410D01*
X380857Y238719D01*
X380807Y239039D01*
X380791Y239369D01*
X380791Y240661D01*
X380807Y240993D01*
X380856Y241315D01*
X380935Y241625D01*
X381043Y241922D01*
X381179Y242205D01*
X381340Y242471D01*
X381526Y242720D01*
X381734Y242949D01*
X381963Y243157D01*
X382211Y243343D01*
X382478Y243504D01*
X382760Y243640D01*
X383058Y243748D01*
X383368Y243827D01*
X383690Y243876D01*
X384022Y243892D01*
X388853Y243892D01*
X389185Y243875D01*
X389507Y243826D01*
X389818Y243746D01*
X390117Y243637D01*
X390400Y243501D01*
X390668Y243338D01*
X390918Y243152D01*
X391149Y242943D01*
X391358Y242713D01*
X391545Y242464D01*
X391708Y242198D01*
X391845Y241916D01*
X391954Y241619D01*
X392034Y241310D01*
X392083Y240990D01*
X392100Y240661D01*
X392100Y239369D01*
X392083Y239039D01*
X392033Y238719D01*
X391953Y238410D01*
X391843Y238114D01*
X391705Y237832D01*
X391541Y237565D01*
X391353Y237316D01*
X391143Y237086D01*
X390912Y236877D01*
X390661Y236691D01*
X390393Y236529D01*
X390110Y236392D01*
X389812Y236283D01*
X389502Y236203D01*
X389182Y236154D01*
X388853Y236137D01*
G37*
%LPC*%
G36*
X383053Y239272D02*
X384461Y240136D01*
X386898Y241630D01*
X384022Y241630D01*
X383823Y241611D01*
X383639Y241556D01*
X383474Y241468D01*
X383331Y241352D01*
X383214Y241209D01*
X383127Y241044D01*
X383072Y240860D01*
X383053Y240661D01*
X383053Y239272D01*
G37*
G36*
X388853Y238399D02*
X389047Y238419D01*
X389229Y238476D01*
X389394Y238565D01*
X389537Y238684D01*
X389656Y238827D01*
X389746Y238992D01*
X389802Y239174D01*
X389822Y239369D01*
X389822Y240758D01*
X387985Y239631D01*
X385977Y238399D01*
X388853Y238399D01*
G37*
%LPD*%
G36*
X384587Y226095D02*
X384022Y226095D01*
X383693Y226112D01*
X383373Y226161D01*
X383064Y226241D01*
X382767Y226350D01*
X382485Y226487D01*
X382219Y226649D01*
X381970Y226836D01*
X381740Y227045D01*
X381531Y227274D01*
X381344Y227523D01*
X381182Y227790D01*
X381046Y228072D01*
X380937Y228368D01*
X380857Y228678D01*
X380807Y228997D01*
X380791Y229327D01*
X380791Y230619D01*
X380807Y230951D01*
X380856Y231273D01*
X380935Y231583D01*
X381043Y231881D01*
X381179Y232163D01*
X381340Y232430D01*
X381526Y232678D01*
X381734Y232907D01*
X381963Y233115D01*
X382211Y233301D01*
X382478Y233462D01*
X382760Y233598D01*
X383058Y233706D01*
X383368Y233785D01*
X383690Y233834D01*
X384022Y233850D01*
X384345Y233850D01*
X384644Y233837D01*
X384934Y233797D01*
X385215Y233733D01*
X385486Y233644D01*
X385745Y233533D01*
X385992Y233401D01*
X386226Y233247D01*
X386445Y233075D01*
X386665Y233247D01*
X386898Y233401D01*
X387145Y233533D01*
X387405Y233644D01*
X387675Y233733D01*
X387956Y233797D01*
X388247Y233837D01*
X388546Y233850D01*
X388869Y233850D01*
X389201Y233834D01*
X389523Y233785D01*
X389833Y233706D01*
X390130Y233598D01*
X390413Y233462D01*
X390679Y233301D01*
X390928Y233115D01*
X391157Y232907D01*
X391365Y232678D01*
X391550Y232430D01*
X391712Y232163D01*
X391847Y231881D01*
X391956Y231583D01*
X392035Y231273D01*
X392083Y230951D01*
X392100Y230619D01*
X392100Y229327D01*
X392083Y228997D01*
X392034Y228678D01*
X391954Y228368D01*
X391845Y228072D01*
X391709Y227790D01*
X391546Y227523D01*
X391360Y227274D01*
X391151Y227045D01*
X390921Y226836D01*
X390672Y226649D01*
X390406Y226487D01*
X390123Y226350D01*
X389827Y226241D01*
X389518Y226161D01*
X389198Y226112D01*
X388869Y226095D01*
X388303Y226095D01*
X388303Y228357D01*
X388869Y228357D01*
X389064Y228377D01*
X389245Y228434D01*
X389410Y228523D01*
X389553Y228642D01*
X389672Y228786D01*
X389762Y228950D01*
X389818Y229132D01*
X389838Y229327D01*
X389838Y230619D01*
X389819Y230818D01*
X389764Y231002D01*
X389676Y231167D01*
X389559Y231310D01*
X389417Y231427D01*
X389252Y231514D01*
X389068Y231569D01*
X388869Y231589D01*
X388546Y231589D01*
X388346Y231569D01*
X388162Y231514D01*
X387998Y231427D01*
X387855Y231310D01*
X387738Y231167D01*
X387650Y231002D01*
X387595Y230818D01*
X387576Y230619D01*
X387576Y229488D01*
X385314Y229488D01*
X385314Y230619D01*
X385295Y230818D01*
X385240Y231002D01*
X385153Y231167D01*
X385036Y231310D01*
X384893Y231427D01*
X384728Y231514D01*
X384544Y231569D01*
X384345Y231589D01*
X384022Y231589D01*
X383823Y231569D01*
X383639Y231514D01*
X383474Y231427D01*
X383331Y231310D01*
X383214Y231167D01*
X383127Y231002D01*
X383072Y230818D01*
X383053Y230619D01*
X383053Y229327D01*
X383072Y229132D01*
X383129Y228950D01*
X383219Y228786D01*
X383337Y228642D01*
X383481Y228523D01*
X383646Y228434D01*
X383827Y228377D01*
X384022Y228357D01*
X384587Y228357D01*
X384587Y226095D01*
G37*
G36*
X388853Y216106D02*
X384022Y216106D01*
X383693Y216123D01*
X383373Y216172D01*
X383064Y216252D01*
X382767Y216361D01*
X382485Y216497D01*
X382219Y216660D01*
X381970Y216846D01*
X381740Y217055D01*
X381531Y217285D01*
X381344Y217534D01*
X381182Y217800D01*
X381046Y218083D01*
X380937Y218379D01*
X380857Y218688D01*
X380807Y219008D01*
X380791Y219337D01*
X380791Y220630D01*
X380807Y220962D01*
X380856Y221283D01*
X380935Y221594D01*
X381043Y221891D01*
X381179Y222174D01*
X381340Y222440D01*
X381526Y222689D01*
X381734Y222918D01*
X381963Y223126D01*
X382211Y223311D01*
X382478Y223473D01*
X382760Y223608D01*
X383058Y223716D01*
X383368Y223796D01*
X383690Y223844D01*
X384022Y223861D01*
X384910Y223861D01*
X384910Y221599D01*
X384022Y221599D01*
X383823Y221580D01*
X383639Y221525D01*
X383474Y221437D01*
X383331Y221320D01*
X383214Y221178D01*
X383127Y221013D01*
X383072Y220829D01*
X383053Y220630D01*
X383053Y219337D01*
X383072Y219138D01*
X383129Y218954D01*
X383219Y218789D01*
X383337Y218647D01*
X383481Y218530D01*
X383646Y218442D01*
X383827Y218387D01*
X384022Y218368D01*
X388853Y218368D01*
X389047Y218388D01*
X389229Y218444D01*
X389394Y218534D01*
X389537Y218653D01*
X389656Y218796D01*
X389746Y218961D01*
X389802Y219143D01*
X389822Y219337D01*
X389822Y220630D01*
X389802Y220824D01*
X389746Y221006D01*
X389656Y221171D01*
X389537Y221314D01*
X389394Y221433D01*
X389229Y221523D01*
X389047Y221579D01*
X388853Y221599D01*
X387964Y221599D01*
X387964Y223861D01*
X388853Y223861D01*
X389185Y223844D01*
X389507Y223795D01*
X389818Y223715D01*
X390117Y223606D01*
X390400Y223470D01*
X390668Y223307D01*
X390918Y223121D01*
X391149Y222912D01*
X391358Y222682D01*
X391545Y222433D01*
X391708Y222167D01*
X391845Y221884D01*
X391954Y221588D01*
X392034Y221279D01*
X392083Y220959D01*
X392100Y220630D01*
X392100Y219337D01*
X392083Y219008D01*
X392033Y218688D01*
X391953Y218379D01*
X391843Y218083D01*
X391705Y217800D01*
X391541Y217534D01*
X391353Y217285D01*
X391143Y217055D01*
X390912Y216846D01*
X390661Y216660D01*
X390393Y216497D01*
X390110Y216361D01*
X389812Y216252D01*
X389502Y216172D01*
X389182Y216123D01*
X388853Y216106D01*
G37*
G36*
X356817Y226095D02*
X356252Y226095D01*
X355923Y226112D01*
X355603Y226161D01*
X355294Y226241D01*
X354997Y226350D01*
X354715Y226487D01*
X354449Y226649D01*
X354200Y226836D01*
X353970Y227045D01*
X353761Y227274D01*
X353574Y227523D01*
X353412Y227790D01*
X353276Y228072D01*
X353167Y228368D01*
X353087Y228678D01*
X353037Y228997D01*
X353021Y229327D01*
X353021Y230619D01*
X353037Y230951D01*
X353086Y231273D01*
X353165Y231583D01*
X353273Y231881D01*
X353409Y232163D01*
X353570Y232430D01*
X353756Y232678D01*
X353964Y232907D01*
X354193Y233115D01*
X354441Y233301D01*
X354708Y233462D01*
X354990Y233598D01*
X355288Y233706D01*
X355598Y233785D01*
X355920Y233834D01*
X356252Y233850D01*
X356575Y233850D01*
X356874Y233837D01*
X357164Y233797D01*
X357445Y233733D01*
X357716Y233644D01*
X357975Y233533D01*
X358222Y233401D01*
X358456Y233247D01*
X358675Y233075D01*
X358895Y233247D01*
X359128Y233401D01*
X359375Y233533D01*
X359635Y233644D01*
X359905Y233733D01*
X360186Y233797D01*
X360477Y233837D01*
X360776Y233850D01*
X361099Y233850D01*
X361431Y233834D01*
X361753Y233785D01*
X362063Y233706D01*
X362360Y233598D01*
X362643Y233462D01*
X362909Y233301D01*
X363158Y233115D01*
X363387Y232907D01*
X363595Y232678D01*
X363780Y232430D01*
X363942Y232163D01*
X364077Y231881D01*
X364186Y231583D01*
X364265Y231273D01*
X364313Y230951D01*
X364330Y230619D01*
X364330Y229327D01*
X364313Y228997D01*
X364264Y228678D01*
X364184Y228368D01*
X364075Y228072D01*
X363939Y227790D01*
X363776Y227523D01*
X363590Y227274D01*
X363381Y227045D01*
X363151Y226836D01*
X362902Y226649D01*
X362636Y226487D01*
X362353Y226350D01*
X362057Y226241D01*
X361748Y226161D01*
X361428Y226112D01*
X361099Y226095D01*
X360533Y226095D01*
X360533Y228357D01*
X361099Y228357D01*
X361294Y228377D01*
X361475Y228434D01*
X361640Y228523D01*
X361783Y228642D01*
X361902Y228786D01*
X361992Y228950D01*
X362048Y229132D01*
X362068Y229327D01*
X362068Y230619D01*
X362049Y230818D01*
X361994Y231002D01*
X361906Y231167D01*
X361789Y231310D01*
X361647Y231427D01*
X361482Y231514D01*
X361298Y231569D01*
X361099Y231589D01*
X360776Y231589D01*
X360576Y231569D01*
X360392Y231514D01*
X360228Y231427D01*
X360085Y231310D01*
X359968Y231167D01*
X359880Y231002D01*
X359825Y230818D01*
X359806Y230619D01*
X359806Y229488D01*
X357544Y229488D01*
X357544Y230619D01*
X357525Y230818D01*
X357470Y231002D01*
X357383Y231167D01*
X357266Y231310D01*
X357123Y231427D01*
X356958Y231514D01*
X356774Y231569D01*
X356575Y231589D01*
X356252Y231589D01*
X356053Y231569D01*
X355869Y231514D01*
X355704Y231427D01*
X355561Y231310D01*
X355444Y231167D01*
X355357Y231002D01*
X355302Y230818D01*
X355283Y230619D01*
X355283Y229327D01*
X355302Y229132D01*
X355359Y228950D01*
X355449Y228786D01*
X355567Y228642D01*
X355711Y228523D01*
X355876Y228434D01*
X356057Y228377D01*
X356252Y228357D01*
X356817Y228357D01*
X356817Y226095D01*
G37*
G36*
X361083Y216106D02*
X356252Y216106D01*
X355923Y216123D01*
X355603Y216172D01*
X355294Y216252D01*
X354997Y216361D01*
X354715Y216497D01*
X354449Y216660D01*
X354200Y216846D01*
X353970Y217055D01*
X353761Y217285D01*
X353574Y217534D01*
X353412Y217800D01*
X353276Y218083D01*
X353167Y218379D01*
X353087Y218688D01*
X353037Y219008D01*
X353021Y219337D01*
X353021Y220630D01*
X353037Y220962D01*
X353086Y221283D01*
X353165Y221594D01*
X353273Y221891D01*
X353409Y222174D01*
X353570Y222440D01*
X353756Y222689D01*
X353964Y222918D01*
X354193Y223126D01*
X354441Y223311D01*
X354708Y223473D01*
X354990Y223608D01*
X355288Y223716D01*
X355598Y223796D01*
X355920Y223844D01*
X356252Y223861D01*
X357140Y223861D01*
X357140Y221599D01*
X356252Y221599D01*
X356053Y221580D01*
X355869Y221525D01*
X355704Y221437D01*
X355561Y221320D01*
X355444Y221178D01*
X355357Y221013D01*
X355302Y220829D01*
X355283Y220630D01*
X355283Y219337D01*
X355302Y219138D01*
X355359Y218954D01*
X355449Y218789D01*
X355567Y218647D01*
X355711Y218530D01*
X355876Y218442D01*
X356057Y218387D01*
X356252Y218368D01*
X361083Y218368D01*
X361277Y218388D01*
X361459Y218444D01*
X361624Y218534D01*
X361767Y218653D01*
X361886Y218796D01*
X361976Y218961D01*
X362032Y219143D01*
X362052Y219337D01*
X362052Y220630D01*
X362032Y220824D01*
X361976Y221006D01*
X361886Y221171D01*
X361767Y221314D01*
X361624Y221433D01*
X361459Y221523D01*
X361277Y221579D01*
X361083Y221599D01*
X360194Y221599D01*
X360194Y223861D01*
X361083Y223861D01*
X361415Y223844D01*
X361737Y223795D01*
X362048Y223715D01*
X362347Y223606D01*
X362630Y223470D01*
X362898Y223307D01*
X363148Y223121D01*
X363379Y222912D01*
X363588Y222682D01*
X363775Y222433D01*
X363938Y222167D01*
X364075Y221884D01*
X364184Y221588D01*
X364264Y221279D01*
X364313Y220959D01*
X364330Y220630D01*
X364330Y219337D01*
X364313Y219008D01*
X364263Y218688D01*
X364183Y218379D01*
X364073Y218083D01*
X363935Y217800D01*
X363771Y217534D01*
X363583Y217285D01*
X363373Y217055D01*
X363142Y216846D01*
X362891Y216660D01*
X362623Y216497D01*
X362340Y216361D01*
X362042Y216252D01*
X361732Y216172D01*
X361412Y216123D01*
X361083Y216106D01*
G37*
G36*
X357399Y236137D02*
X354782Y236137D01*
X353021Y239126D01*
X353021Y241146D01*
X362068Y241146D01*
X362068Y243892D01*
X364330Y243892D01*
X364330Y236137D01*
X362068Y236137D01*
X362068Y238884D01*
X355783Y238884D01*
X357399Y236137D01*
G37*
G36*
X291720Y117917D02*
X290153Y120470D01*
X289184Y120470D01*
X288855Y120487D01*
X288535Y120537D01*
X288226Y120617D01*
X287929Y120727D01*
X287647Y120865D01*
X287381Y121029D01*
X287132Y121217D01*
X286902Y121427D01*
X286693Y121659D01*
X286506Y121909D01*
X286344Y122177D01*
X286208Y122460D01*
X286099Y122758D01*
X286019Y123068D01*
X285969Y123388D01*
X285953Y123717D01*
X285953Y128548D01*
X285969Y128877D01*
X286019Y129197D01*
X286099Y129506D01*
X286208Y129803D01*
X286344Y130085D01*
X286506Y130352D01*
X286693Y130600D01*
X286902Y130830D01*
X287132Y131039D01*
X287381Y131226D01*
X287647Y131388D01*
X287929Y131524D01*
X288226Y131633D01*
X288535Y131713D01*
X288855Y131763D01*
X289184Y131779D01*
X290476Y131779D01*
X290808Y131763D01*
X291130Y131714D01*
X291441Y131635D01*
X291738Y131527D01*
X292020Y131391D01*
X292287Y131230D01*
X292535Y131044D01*
X292765Y130836D01*
X292973Y130607D01*
X293158Y130359D01*
X293319Y130092D01*
X293455Y129810D01*
X293563Y129512D01*
X293642Y129202D01*
X293691Y128880D01*
X293708Y128548D01*
X293708Y123717D01*
X293685Y123324D01*
X293617Y122945D01*
X293507Y122584D01*
X293358Y122243D01*
X293172Y121925D01*
X292951Y121632D01*
X292698Y121367D01*
X292415Y121132D01*
X293708Y119032D01*
X291720Y117917D01*
G37*
%LPC*%
G36*
X290476Y122748D02*
X290671Y122768D01*
X290853Y122825D01*
X291017Y122914D01*
X291161Y123033D01*
X291280Y123176D01*
X291369Y123341D01*
X291426Y123523D01*
X291446Y123717D01*
X291446Y128548D01*
X291427Y128747D01*
X291372Y128931D01*
X291284Y129096D01*
X291167Y129239D01*
X291025Y129356D01*
X290860Y129443D01*
X290676Y129498D01*
X290476Y129518D01*
X289184Y129518D01*
X288985Y129498D01*
X288801Y129441D01*
X288636Y129351D01*
X288493Y129233D01*
X288376Y129089D01*
X288289Y128925D01*
X288234Y128743D01*
X288215Y128548D01*
X288215Y123717D01*
X288234Y123523D01*
X288291Y123341D01*
X288381Y123176D01*
X288499Y123033D01*
X288643Y122914D01*
X288808Y122825D01*
X288989Y122768D01*
X289184Y122748D01*
X290476Y122748D01*
G37*
%LPD*%
G36*
X304020Y120470D02*
X296265Y120470D01*
X296265Y122732D01*
X299012Y122732D01*
X299012Y129017D01*
X296265Y127401D01*
X296265Y130018D01*
X299254Y131779D01*
X301274Y131779D01*
X301274Y122732D01*
X304020Y122732D01*
X304020Y120470D01*
G37*
G36*
X360293Y134296D02*
X348984Y134296D01*
X348984Y138820D01*
X349000Y139152D01*
X349049Y139474D01*
X349128Y139784D01*
X349236Y140081D01*
X349372Y140364D01*
X349533Y140630D01*
X349719Y140879D01*
X349927Y141108D01*
X350156Y141316D01*
X350404Y141502D01*
X350671Y141663D01*
X350953Y141798D01*
X351251Y141907D01*
X351561Y141986D01*
X351883Y142035D01*
X352215Y142051D01*
X353184Y142051D01*
X353430Y142042D01*
X353670Y142016D01*
X353905Y141972D01*
X354132Y141912D01*
X354353Y141837D01*
X354566Y141746D01*
X354770Y141641D01*
X354965Y141522D01*
X355327Y141245D01*
X355647Y140920D01*
X355920Y140551D01*
X356037Y140353D01*
X356141Y140145D01*
X360293Y142051D01*
X360293Y139563D01*
X356415Y137802D01*
X356415Y136558D01*
X360293Y136558D01*
X360293Y134296D01*
G37*
%LPC*%
G36*
X354154Y136558D02*
X354154Y138820D01*
X354134Y139019D01*
X354079Y139203D01*
X353992Y139368D01*
X353875Y139511D01*
X353732Y139627D01*
X353567Y139715D01*
X353384Y139770D01*
X353184Y139789D01*
X352215Y139789D01*
X352015Y139770D01*
X351832Y139715D01*
X351667Y139627D01*
X351524Y139511D01*
X351407Y139368D01*
X351320Y139203D01*
X351265Y139019D01*
X351245Y138820D01*
X351245Y136558D01*
X354154Y136558D01*
G37*
%LPD*%
G36*
X355656Y144609D02*
X348984Y144609D01*
X348984Y151233D01*
X351245Y151233D01*
X351245Y146871D01*
X352910Y146871D01*
X352150Y148018D01*
X352150Y149132D01*
X352167Y149462D01*
X352216Y149781D01*
X352296Y150091D01*
X352405Y150387D01*
X352542Y150669D01*
X352704Y150936D01*
X352890Y151185D01*
X353099Y151414D01*
X353329Y151623D01*
X353578Y151810D01*
X353845Y151972D01*
X354127Y152109D01*
X354423Y152218D01*
X354732Y152298D01*
X355052Y152347D01*
X355381Y152364D01*
X357062Y152364D01*
X357394Y152347D01*
X357715Y152298D01*
X358026Y152219D01*
X358323Y152111D01*
X358606Y151975D01*
X358872Y151814D01*
X359121Y151629D01*
X359350Y151421D01*
X359558Y151191D01*
X359743Y150943D01*
X359905Y150676D01*
X360040Y150394D01*
X360148Y150097D01*
X360228Y149786D01*
X360276Y149464D01*
X360293Y149132D01*
X360293Y147840D01*
X360276Y147511D01*
X360227Y147191D01*
X360147Y146882D01*
X360038Y146585D01*
X359901Y146303D01*
X359739Y146037D01*
X359553Y145788D01*
X359344Y145558D01*
X359114Y145349D01*
X358865Y145162D01*
X358599Y145000D01*
X358316Y144864D01*
X358020Y144755D01*
X357711Y144675D01*
X357391Y144625D01*
X357062Y144609D01*
X356900Y144609D01*
X356900Y146871D01*
X357062Y146871D01*
X357256Y146890D01*
X357438Y146947D01*
X357603Y147037D01*
X357746Y147155D01*
X357865Y147299D01*
X357955Y147464D01*
X358011Y147645D01*
X358031Y147840D01*
X358031Y149132D01*
X358012Y149332D01*
X357957Y149516D01*
X357869Y149681D01*
X357752Y149823D01*
X357610Y149940D01*
X357445Y150028D01*
X357261Y150083D01*
X357062Y150102D01*
X355381Y150102D01*
X355187Y150082D01*
X355005Y150025D01*
X354840Y149936D01*
X354697Y149817D01*
X354578Y149673D01*
X354489Y149509D01*
X354432Y149327D01*
X354412Y149132D01*
X354412Y148712D01*
X355656Y146871D01*
X355656Y144609D01*
G37*
G36*
X296042Y235000D02*
X294034Y235000D01*
X294034Y245041D01*
X296602Y245041D01*
X298911Y239088D01*
X298911Y245041D01*
X300919Y245041D01*
X300919Y235000D01*
X298352Y235000D01*
X296042Y240953D01*
X296042Y235000D01*
G37*
G36*
X357353Y310231D02*
X356180Y310625D01*
X357117Y312963D01*
X354515Y312858D01*
X354515Y314049D01*
X357099Y313935D01*
X356197Y316248D01*
X357353Y316642D01*
X357993Y314172D01*
X360182Y315792D01*
X360813Y314750D01*
X358553Y313436D01*
X360795Y312070D01*
X360165Y311028D01*
X357993Y312683D01*
X357353Y310231D01*
G37*
G36*
X343020Y25000D02*
X335265Y25000D01*
X335265Y29088D01*
X340758Y32173D01*
X340758Y33078D01*
X340739Y33277D01*
X340684Y33461D01*
X340596Y33626D01*
X340480Y33769D01*
X340337Y33886D01*
X340172Y33973D01*
X339988Y34028D01*
X339789Y34048D01*
X338496Y34048D01*
X338302Y34028D01*
X338120Y33971D01*
X337955Y33881D01*
X337812Y33763D01*
X337693Y33619D01*
X337604Y33455D01*
X337547Y33273D01*
X337527Y33078D01*
X337527Y32190D01*
X335265Y32190D01*
X335265Y33078D01*
X335282Y33407D01*
X335331Y33727D01*
X335411Y34036D01*
X335520Y34333D01*
X335657Y34615D01*
X335819Y34882D01*
X336005Y35130D01*
X336214Y35360D01*
X336444Y35569D01*
X336693Y35756D01*
X336959Y35918D01*
X337242Y36054D01*
X337538Y36163D01*
X337847Y36243D01*
X338167Y36293D01*
X338496Y36309D01*
X339789Y36309D01*
X340121Y36293D01*
X340443Y36244D01*
X340753Y36165D01*
X341050Y36057D01*
X341333Y35921D01*
X341599Y35760D01*
X341848Y35574D01*
X342077Y35366D01*
X342285Y35137D01*
X342471Y34889D01*
X342632Y34622D01*
X342767Y34340D01*
X342876Y34042D01*
X342955Y33732D01*
X343004Y33410D01*
X343020Y33078D01*
X343020Y30832D01*
X337527Y27747D01*
X337527Y27262D01*
X343020Y27262D01*
X343020Y25000D01*
G37*
G36*
X329476Y25000D02*
X328184Y25000D01*
X327855Y25017D01*
X327535Y25066D01*
X327226Y25146D01*
X326929Y25255D01*
X326647Y25392D01*
X326381Y25555D01*
X326132Y25742D01*
X325902Y25951D01*
X325693Y26182D01*
X325506Y26432D01*
X325344Y26700D01*
X325208Y26983D01*
X325099Y27282D01*
X325019Y27593D01*
X324969Y27915D01*
X324953Y28247D01*
X324953Y29944D01*
X327215Y29944D01*
X327215Y28247D01*
X327234Y28053D01*
X327291Y27871D01*
X327381Y27706D01*
X327499Y27563D01*
X327643Y27444D01*
X327808Y27355D01*
X327989Y27298D01*
X328184Y27278D01*
X329476Y27278D01*
X329671Y27298D01*
X329853Y27355D01*
X330017Y27444D01*
X330161Y27563D01*
X330280Y27706D01*
X330369Y27871D01*
X330426Y28053D01*
X330446Y28247D01*
X330446Y34048D01*
X326407Y34048D01*
X326407Y36309D01*
X332708Y36309D01*
X332708Y28247D01*
X332691Y27918D01*
X332642Y27598D01*
X332562Y27288D01*
X332453Y26990D01*
X332316Y26707D01*
X332154Y26439D01*
X331967Y26189D01*
X331758Y25957D01*
X331529Y25747D01*
X331280Y25559D01*
X331013Y25395D01*
X330731Y25257D01*
X330435Y25147D01*
X330125Y25067D01*
X329806Y25017D01*
X329476Y25000D01*
G37*
G36*
X386520Y278170D02*
X378765Y278170D01*
X378765Y282258D01*
X384258Y285343D01*
X384258Y286248D01*
X384239Y286447D01*
X384184Y286631D01*
X384096Y286796D01*
X383980Y286939D01*
X383837Y287056D01*
X383672Y287143D01*
X383488Y287198D01*
X383289Y287218D01*
X381996Y287218D01*
X381802Y287198D01*
X381620Y287141D01*
X381455Y287051D01*
X381312Y286933D01*
X381193Y286789D01*
X381104Y286625D01*
X381047Y286443D01*
X381027Y286248D01*
X381027Y285360D01*
X378765Y285360D01*
X378765Y286248D01*
X378782Y286577D01*
X378831Y286897D01*
X378911Y287206D01*
X379020Y287503D01*
X379157Y287785D01*
X379319Y288052D01*
X379505Y288300D01*
X379714Y288530D01*
X379944Y288739D01*
X380193Y288926D01*
X380459Y289088D01*
X380742Y289224D01*
X381038Y289333D01*
X381347Y289413D01*
X381667Y289463D01*
X381996Y289479D01*
X383289Y289479D01*
X383621Y289463D01*
X383943Y289414D01*
X384253Y289335D01*
X384550Y289227D01*
X384833Y289091D01*
X385099Y288930D01*
X385348Y288744D01*
X385577Y288536D01*
X385785Y288307D01*
X385971Y288059D01*
X386132Y287792D01*
X386267Y287510D01*
X386376Y287212D01*
X386455Y286902D01*
X386504Y286580D01*
X386520Y286248D01*
X386520Y284002D01*
X381027Y280917D01*
X381027Y280432D01*
X386520Y280432D01*
X386520Y278170D01*
G37*
G36*
X372976Y278170D02*
X371684Y278170D01*
X371355Y278187D01*
X371035Y278237D01*
X370726Y278317D01*
X370429Y278427D01*
X370147Y278565D01*
X369881Y278729D01*
X369632Y278917D01*
X369402Y279127D01*
X369193Y279359D01*
X369006Y279609D01*
X368844Y279877D01*
X368708Y280160D01*
X368599Y280458D01*
X368519Y280768D01*
X368469Y281088D01*
X368453Y281417D01*
X368453Y286248D01*
X368469Y286577D01*
X368519Y286897D01*
X368599Y287206D01*
X368708Y287503D01*
X368844Y287785D01*
X369006Y288052D01*
X369193Y288300D01*
X369402Y288530D01*
X369632Y288739D01*
X369881Y288926D01*
X370147Y289088D01*
X370429Y289224D01*
X370726Y289333D01*
X371035Y289413D01*
X371355Y289463D01*
X371684Y289479D01*
X372976Y289479D01*
X373308Y289463D01*
X373630Y289414D01*
X373941Y289335D01*
X374238Y289227D01*
X374520Y289091D01*
X374787Y288930D01*
X375035Y288744D01*
X375265Y288536D01*
X375473Y288307D01*
X375658Y288059D01*
X375819Y287792D01*
X375955Y287510D01*
X376063Y287212D01*
X376142Y286902D01*
X376191Y286580D01*
X376208Y286248D01*
X376208Y285360D01*
X373946Y285360D01*
X373946Y286248D01*
X373927Y286447D01*
X373872Y286631D01*
X373784Y286796D01*
X373667Y286939D01*
X373525Y287056D01*
X373360Y287143D01*
X373176Y287198D01*
X372976Y287218D01*
X371684Y287218D01*
X371485Y287198D01*
X371301Y287141D01*
X371136Y287051D01*
X370993Y286933D01*
X370876Y286789D01*
X370789Y286625D01*
X370734Y286443D01*
X370715Y286248D01*
X370715Y281417D01*
X370734Y281223D01*
X370791Y281041D01*
X370881Y280876D01*
X370999Y280733D01*
X371143Y280614D01*
X371308Y280525D01*
X371489Y280468D01*
X371684Y280448D01*
X372976Y280448D01*
X373171Y280468D01*
X373353Y280525D01*
X373517Y280614D01*
X373661Y280733D01*
X373780Y280876D01*
X373869Y281041D01*
X373926Y281223D01*
X373946Y281417D01*
X373946Y282306D01*
X376208Y282306D01*
X376208Y281417D01*
X376191Y281085D01*
X376142Y280763D01*
X376062Y280452D01*
X375953Y280153D01*
X375816Y279870D01*
X375654Y279602D01*
X375467Y279352D01*
X375258Y279121D01*
X375029Y278912D01*
X374780Y278725D01*
X374513Y278562D01*
X374231Y278425D01*
X373935Y278316D01*
X373625Y278236D01*
X373306Y278187D01*
X372976Y278170D01*
G37*
G36*
X205715Y185670D02*
X203453Y185670D01*
X203453Y196979D01*
X207976Y196979D01*
X208308Y196963D01*
X208630Y196914D01*
X208941Y196835D01*
X209238Y196727D01*
X209520Y196591D01*
X209787Y196430D01*
X210035Y196244D01*
X210265Y196036D01*
X210473Y195807D01*
X210658Y195559D01*
X210819Y195292D01*
X210955Y195010D01*
X211063Y194712D01*
X211142Y194402D01*
X211191Y194080D01*
X211208Y193748D01*
X211208Y192779D01*
X211199Y192533D01*
X211172Y192293D01*
X211129Y192058D01*
X211069Y191831D01*
X210993Y191610D01*
X210903Y191397D01*
X210798Y191193D01*
X210679Y190998D01*
X210401Y190636D01*
X210076Y190316D01*
X209708Y190043D01*
X209509Y189926D01*
X209301Y189822D01*
X211208Y185670D01*
X208720Y185670D01*
X206959Y189548D01*
X205715Y189548D01*
X205715Y185670D01*
G37*
%LPC*%
G36*
X207976Y191809D02*
X208176Y191828D01*
X208360Y191884D01*
X208525Y191971D01*
X208667Y192088D01*
X208784Y192231D01*
X208872Y192396D01*
X208927Y192579D01*
X208946Y192779D01*
X208946Y193748D01*
X208927Y193947D01*
X208872Y194131D01*
X208784Y194296D01*
X208667Y194439D01*
X208525Y194556D01*
X208360Y194643D01*
X208176Y194698D01*
X207976Y194718D01*
X205715Y194718D01*
X205715Y191809D01*
X207976Y191809D01*
G37*
%LPD*%
G36*
X218289Y185670D02*
X216996Y185670D01*
X216665Y185687D01*
X216343Y185735D01*
X216032Y185815D01*
X215735Y185923D01*
X215452Y186058D01*
X215186Y186220D01*
X214937Y186405D01*
X214708Y186613D01*
X214500Y186842D01*
X214315Y187091D01*
X214153Y187357D01*
X214018Y187640D01*
X213910Y187937D01*
X213830Y188248D01*
X213782Y188569D01*
X213765Y188901D01*
X213765Y189224D01*
X216027Y189224D01*
X216027Y188901D01*
X216046Y188702D01*
X216101Y188518D01*
X216189Y188353D01*
X216306Y188211D01*
X216448Y188094D01*
X216613Y188006D01*
X216797Y187951D01*
X216996Y187932D01*
X218289Y187932D01*
X218488Y187951D01*
X218672Y188006D01*
X218837Y188094D01*
X218980Y188211D01*
X219096Y188353D01*
X219184Y188518D01*
X219239Y188702D01*
X219258Y188901D01*
X219258Y190242D01*
X218111Y189483D01*
X216996Y189483D01*
X216667Y189500D01*
X216347Y189549D01*
X216038Y189629D01*
X215742Y189738D01*
X215459Y189874D01*
X215193Y190037D01*
X214944Y190223D01*
X214714Y190432D01*
X214505Y190662D01*
X214319Y190911D01*
X214157Y191177D01*
X214020Y191459D01*
X213911Y191756D01*
X213831Y192065D01*
X213782Y192385D01*
X213765Y192714D01*
X213765Y193748D01*
X213782Y194080D01*
X213830Y194402D01*
X213910Y194712D01*
X214018Y195010D01*
X214153Y195292D01*
X214315Y195559D01*
X214500Y195807D01*
X214708Y196036D01*
X214937Y196244D01*
X215186Y196430D01*
X215452Y196591D01*
X215735Y196727D01*
X216032Y196835D01*
X216343Y196914D01*
X216665Y196963D01*
X216996Y196979D01*
X218289Y196979D01*
X218618Y196963D01*
X218938Y196913D01*
X219247Y196833D01*
X219544Y196724D01*
X219826Y196588D01*
X220092Y196426D01*
X220341Y196239D01*
X220571Y196030D01*
X220780Y195800D01*
X220966Y195552D01*
X221129Y195285D01*
X221265Y195003D01*
X221374Y194706D01*
X221454Y194397D01*
X221503Y194077D01*
X221520Y193748D01*
X221520Y188901D01*
X221504Y188569D01*
X221455Y188248D01*
X221376Y187937D01*
X221267Y187640D01*
X221132Y187357D01*
X220971Y187091D01*
X220785Y186842D01*
X220577Y186613D01*
X220348Y186405D01*
X220099Y186220D01*
X219833Y186058D01*
X219550Y185923D01*
X219253Y185815D01*
X218943Y185735D01*
X218621Y185687D01*
X218289Y185670D01*
G37*
%LPC*%
G36*
X217416Y191745D02*
X219258Y192989D01*
X219258Y193748D01*
X219238Y193943D01*
X219182Y194125D01*
X219092Y194289D01*
X218974Y194433D01*
X218830Y194551D01*
X218665Y194641D01*
X218484Y194698D01*
X218289Y194718D01*
X216996Y194718D01*
X216797Y194698D01*
X216613Y194643D01*
X216448Y194556D01*
X216306Y194439D01*
X216189Y194296D01*
X216101Y194131D01*
X216046Y193947D01*
X216027Y193748D01*
X216027Y192714D01*
X216047Y192519D01*
X216104Y192338D01*
X216193Y192173D01*
X216312Y192030D01*
X216455Y191911D01*
X216620Y191821D01*
X216802Y191765D01*
X216996Y191745D01*
X217416Y191745D01*
G37*
%LPD*%
G36*
X218463Y200670D02*
X217170Y200670D01*
X216841Y200687D01*
X216521Y200737D01*
X216212Y200817D01*
X215916Y200927D01*
X215633Y201065D01*
X215367Y201229D01*
X215118Y201417D01*
X214888Y201627D01*
X214679Y201859D01*
X214493Y202109D01*
X214330Y202377D01*
X214194Y202660D01*
X214085Y202958D01*
X214005Y203268D01*
X213956Y203588D01*
X213939Y203917D01*
X213939Y208748D01*
X213956Y209077D01*
X214005Y209397D01*
X214085Y209706D01*
X214194Y210003D01*
X214330Y210285D01*
X214493Y210552D01*
X214679Y210800D01*
X214888Y211030D01*
X215118Y211239D01*
X215367Y211426D01*
X215633Y211588D01*
X215916Y211724D01*
X216212Y211833D01*
X216521Y211913D01*
X216841Y211963D01*
X217170Y211979D01*
X218463Y211979D01*
X218795Y211963D01*
X219116Y211914D01*
X219427Y211835D01*
X219724Y211727D01*
X220007Y211591D01*
X220273Y211430D01*
X220522Y211244D01*
X220751Y211036D01*
X220959Y210807D01*
X221144Y210559D01*
X221306Y210292D01*
X221441Y210010D01*
X221549Y209712D01*
X221629Y209402D01*
X221677Y209080D01*
X221694Y208748D01*
X221694Y203917D01*
X221677Y203585D01*
X221628Y203263D01*
X221548Y202952D01*
X221439Y202653D01*
X221303Y202370D01*
X221140Y202102D01*
X220954Y201852D01*
X220745Y201621D01*
X220515Y201412D01*
X220266Y201225D01*
X220000Y201062D01*
X219717Y200925D01*
X219421Y200816D01*
X219112Y200736D01*
X218792Y200687D01*
X218463Y200670D01*
G37*
%LPC*%
G36*
X219432Y205872D02*
X219432Y208748D01*
X219413Y208947D01*
X219358Y209131D01*
X219270Y209296D01*
X219153Y209439D01*
X219011Y209556D01*
X218846Y209643D01*
X218662Y209698D01*
X218463Y209718D01*
X217073Y209718D01*
X217937Y208309D01*
X219432Y205872D01*
G37*
G36*
X218560Y202948D02*
X217433Y204785D01*
X216201Y206793D01*
X216201Y203917D01*
X216221Y203723D01*
X216277Y203541D01*
X216367Y203376D01*
X216486Y203233D01*
X216629Y203114D01*
X216794Y203025D01*
X216976Y202968D01*
X217170Y202948D01*
X218560Y202948D01*
G37*
%LPD*%
G36*
X195545Y200670D02*
X193283Y200670D01*
X193283Y211979D01*
X197807Y211979D01*
X198138Y211963D01*
X198460Y211914D01*
X198771Y211835D01*
X199068Y211727D01*
X199351Y211591D01*
X199617Y211430D01*
X199866Y211244D01*
X200095Y211036D01*
X200303Y210807D01*
X200488Y210559D01*
X200650Y210292D01*
X200785Y210010D01*
X200893Y209712D01*
X200972Y209402D01*
X201021Y209080D01*
X201038Y208748D01*
X201038Y207779D01*
X201029Y207533D01*
X201002Y207293D01*
X200959Y207058D01*
X200899Y206831D01*
X200823Y206610D01*
X200733Y206397D01*
X200628Y206193D01*
X200509Y205998D01*
X200232Y205636D01*
X199906Y205316D01*
X199538Y205043D01*
X199339Y204926D01*
X199131Y204822D01*
X201038Y200670D01*
X198550Y200670D01*
X196789Y204548D01*
X195545Y204548D01*
X195545Y200670D01*
G37*
%LPC*%
G36*
X197807Y206809D02*
X198006Y206828D01*
X198190Y206884D01*
X198355Y206971D01*
X198497Y207088D01*
X198614Y207231D01*
X198702Y207396D01*
X198757Y207579D01*
X198776Y207779D01*
X198776Y208748D01*
X198757Y208947D01*
X198702Y209131D01*
X198614Y209296D01*
X198497Y209439D01*
X198355Y209556D01*
X198190Y209643D01*
X198006Y209698D01*
X197807Y209718D01*
X195545Y209718D01*
X195545Y206809D01*
X197807Y206809D01*
G37*
%LPD*%
G36*
X288894Y235000D02*
X287747Y235000D01*
X287454Y235015D01*
X287170Y235059D01*
X286896Y235131D01*
X286633Y235229D01*
X286382Y235351D01*
X286146Y235496D01*
X285925Y235663D01*
X285721Y235850D01*
X285535Y236055D01*
X285370Y236277D01*
X285226Y236515D01*
X285104Y236767D01*
X285008Y237031D01*
X284937Y237306D01*
X284893Y237591D01*
X284878Y237883D01*
X284878Y242172D01*
X284893Y242464D01*
X284937Y242748D01*
X285008Y243023D01*
X285104Y243286D01*
X285226Y243536D01*
X285370Y243773D01*
X285535Y243994D01*
X285721Y244198D01*
X285925Y244383D01*
X286146Y244549D01*
X286382Y244693D01*
X286633Y244814D01*
X286896Y244911D01*
X287170Y244982D01*
X287454Y245026D01*
X287747Y245041D01*
X288894Y245041D01*
X289189Y245026D01*
X289475Y244983D01*
X289750Y244912D01*
X290014Y244816D01*
X290265Y244696D01*
X290502Y244553D01*
X290722Y244388D01*
X290926Y244203D01*
X291110Y244000D01*
X291275Y243779D01*
X291418Y243543D01*
X291539Y243292D01*
X291635Y243028D01*
X291705Y242752D01*
X291748Y242466D01*
X291763Y242172D01*
X291763Y241383D01*
X289755Y241383D01*
X289755Y242172D01*
X289738Y242349D01*
X289689Y242512D01*
X289611Y242658D01*
X289507Y242785D01*
X289381Y242889D01*
X289234Y242967D01*
X289071Y243016D01*
X288894Y243033D01*
X287747Y243033D01*
X287570Y243015D01*
X287407Y242965D01*
X287260Y242885D01*
X287134Y242780D01*
X287030Y242652D01*
X286952Y242506D01*
X286903Y242345D01*
X286886Y242172D01*
X286886Y237883D01*
X286904Y237710D01*
X286954Y237549D01*
X287034Y237403D01*
X287139Y237275D01*
X287266Y237170D01*
X287413Y237090D01*
X287574Y237040D01*
X287747Y237022D01*
X288894Y237022D01*
X289067Y237040D01*
X289228Y237090D01*
X289375Y237170D01*
X289502Y237275D01*
X289607Y237403D01*
X289687Y237549D01*
X289737Y237710D01*
X289755Y237883D01*
X289755Y238443D01*
X288034Y238443D01*
X288034Y240451D01*
X291763Y240451D01*
X291763Y237883D01*
X291748Y237588D01*
X291704Y237302D01*
X291633Y237026D01*
X291537Y236761D01*
X291415Y236509D01*
X291271Y236271D01*
X291106Y236049D01*
X290920Y235844D01*
X290716Y235658D01*
X290495Y235492D01*
X290259Y235348D01*
X290008Y235227D01*
X289745Y235130D01*
X289470Y235059D01*
X289186Y235015D01*
X288894Y235000D01*
G37*
D10*
X438700Y104500D02*
X438700Y123800D01*
X438700Y378200D02*
X438700Y397500D01*
X447500Y397500D01*
X477900Y403500D02*
X488700Y403500D01*
X488700Y98500D02*
X477900Y98500D01*
X447500Y104500D02*
X438700Y104500D01*
X488700Y98500D02*
X488700Y403500D01*
D11*
X422510Y128500D02*
X422512Y128563D01*
X422518Y128625D01*
X422528Y128687D01*
X422541Y128749D01*
X422559Y128809D01*
X422580Y128868D01*
X422605Y128926D01*
X422634Y128982D01*
X422666Y129036D01*
X422701Y129088D01*
X422739Y129137D01*
X422781Y129185D01*
X422825Y129229D01*
X422873Y129271D01*
X422922Y129309D01*
X422974Y129344D01*
X423028Y129376D01*
X423084Y129405D01*
X423142Y129430D01*
X423201Y129451D01*
X423261Y129469D01*
X423323Y129482D01*
X423385Y129492D01*
X423447Y129498D01*
X423510Y129500D01*
X423573Y129498D01*
X423635Y129492D01*
X423697Y129482D01*
X423759Y129469D01*
X423819Y129451D01*
X423878Y129430D01*
X423936Y129405D01*
X423992Y129376D01*
X424046Y129344D01*
X424098Y129309D01*
X424147Y129271D01*
X424195Y129229D01*
X424239Y129185D01*
X424281Y129137D01*
X424319Y129088D01*
X424354Y129036D01*
X424386Y128982D01*
X424415Y128926D01*
X424440Y128868D01*
X424461Y128809D01*
X424479Y128749D01*
X424492Y128687D01*
X424502Y128625D01*
X424508Y128563D01*
X424510Y128500D01*
X424508Y128437D01*
X424502Y128375D01*
X424492Y128313D01*
X424479Y128251D01*
X424461Y128191D01*
X424440Y128132D01*
X424415Y128074D01*
X424386Y128018D01*
X424354Y127964D01*
X424319Y127912D01*
X424281Y127863D01*
X424239Y127815D01*
X424195Y127771D01*
X424147Y127729D01*
X424098Y127691D01*
X424046Y127656D01*
X423992Y127624D01*
X423936Y127595D01*
X423878Y127570D01*
X423819Y127549D01*
X423759Y127531D01*
X423697Y127518D01*
X423635Y127508D01*
X423573Y127502D01*
X423510Y127500D01*
X423447Y127502D01*
X423385Y127508D01*
X423323Y127518D01*
X423261Y127531D01*
X423201Y127549D01*
X423142Y127570D01*
X423084Y127595D01*
X423028Y127624D01*
X422974Y127656D01*
X422922Y127691D01*
X422873Y127729D01*
X422825Y127771D01*
X422781Y127815D01*
X422739Y127863D01*
X422701Y127912D01*
X422666Y127964D01*
X422634Y128018D01*
X422605Y128074D01*
X422580Y128132D01*
X422559Y128191D01*
X422541Y128251D01*
X422528Y128313D01*
X422518Y128375D01*
X422512Y128437D01*
X422510Y128500D01*
D12*
X329119Y189230D02*
X320881Y189230D01*
X341520Y189230D02*
X341520Y205770D01*
X331131Y205770D01*
X308480Y205770D02*
X308480Y189230D01*
X308480Y205770D02*
X318869Y205770D01*
X307210Y186270D02*
X307208Y186200D01*
X307202Y186130D01*
X307193Y186061D01*
X307179Y185992D01*
X307162Y185924D01*
X307141Y185858D01*
X307117Y185792D01*
X307089Y185728D01*
X307057Y185666D01*
X307022Y185605D01*
X306984Y185546D01*
X306942Y185490D01*
X306898Y185436D01*
X306850Y185384D01*
X306800Y185336D01*
X306747Y185290D01*
X306692Y185247D01*
X306635Y185207D01*
X306575Y185170D01*
X306513Y185137D01*
X306450Y185107D01*
X306385Y185081D01*
X306319Y185058D01*
X306252Y185039D01*
X306183Y185024D01*
X306114Y185012D01*
X306045Y185004D01*
X305975Y185000D01*
X305905Y185000D01*
X305835Y185004D01*
X305766Y185012D01*
X305697Y185024D01*
X305628Y185039D01*
X305561Y185058D01*
X305495Y185081D01*
X305430Y185107D01*
X305367Y185137D01*
X305305Y185170D01*
X305245Y185207D01*
X305188Y185247D01*
X305133Y185290D01*
X305080Y185336D01*
X305030Y185384D01*
X304982Y185436D01*
X304938Y185490D01*
X304896Y185546D01*
X304858Y185605D01*
X304823Y185666D01*
X304791Y185728D01*
X304763Y185792D01*
X304739Y185858D01*
X304718Y185924D01*
X304701Y185992D01*
X304687Y186061D01*
X304678Y186130D01*
X304672Y186200D01*
X304670Y186270D01*
X304672Y186340D01*
X304678Y186410D01*
X304687Y186479D01*
X304701Y186548D01*
X304718Y186616D01*
X304739Y186682D01*
X304763Y186748D01*
X304791Y186812D01*
X304823Y186874D01*
X304858Y186935D01*
X304896Y186994D01*
X304938Y187050D01*
X304982Y187104D01*
X305030Y187156D01*
X305080Y187204D01*
X305133Y187250D01*
X305188Y187293D01*
X305245Y187333D01*
X305305Y187370D01*
X305367Y187403D01*
X305430Y187433D01*
X305495Y187459D01*
X305561Y187482D01*
X305628Y187501D01*
X305697Y187516D01*
X305766Y187528D01*
X305835Y187536D01*
X305905Y187540D01*
X305975Y187540D01*
X306045Y187536D01*
X306114Y187528D01*
X306183Y187516D01*
X306252Y187501D01*
X306319Y187482D01*
X306385Y187459D01*
X306450Y187433D01*
X306513Y187403D01*
X306575Y187370D01*
X306635Y187333D01*
X306692Y187293D01*
X306747Y187250D01*
X306800Y187204D01*
X306850Y187156D01*
X306898Y187104D01*
X306942Y187050D01*
X306984Y186994D01*
X307022Y186935D01*
X307057Y186874D01*
X307089Y186812D01*
X307117Y186748D01*
X307141Y186682D01*
X307162Y186616D01*
X307179Y186548D01*
X307193Y186479D01*
X307202Y186410D01*
X307208Y186340D01*
X307210Y186270D01*
D10*
X284491Y189000D02*
X284491Y206000D01*
X300509Y206000D02*
X300509Y189000D01*
X376500Y99491D02*
X393500Y99491D01*
X393500Y115509D02*
X376500Y115509D01*
X376500Y119491D02*
X393500Y119491D01*
X393500Y135509D02*
X376500Y135509D01*
X376500Y139491D02*
X393500Y139491D01*
X393500Y155509D02*
X376500Y155509D01*
X376500Y159491D02*
X393500Y159491D01*
X393500Y175509D02*
X376500Y175509D01*
X374533Y186500D02*
X374533Y208500D01*
X395467Y208500D02*
X395467Y186500D01*
X365491Y188750D02*
X365491Y206250D01*
X349509Y206250D02*
X349509Y188750D01*
X346991Y126000D02*
X346991Y109000D01*
X363009Y109000D02*
X363009Y126000D01*
D12*
X400606Y322765D02*
X400606Y333476D01*
X400606Y369345D02*
X392143Y369345D01*
X354026Y369345D02*
X354026Y358634D01*
X354026Y322765D02*
X362489Y322765D01*
X392143Y322765D02*
X400606Y322765D01*
X400606Y358634D02*
X400606Y369345D01*
X362489Y369345D02*
X354026Y369345D01*
X354026Y333476D02*
X354026Y322765D01*
D11*
X296500Y77500D02*
X296502Y77563D01*
X296508Y77625D01*
X296518Y77687D01*
X296531Y77749D01*
X296549Y77809D01*
X296570Y77868D01*
X296595Y77926D01*
X296624Y77982D01*
X296656Y78036D01*
X296691Y78088D01*
X296729Y78137D01*
X296771Y78185D01*
X296815Y78229D01*
X296863Y78271D01*
X296912Y78309D01*
X296964Y78344D01*
X297018Y78376D01*
X297074Y78405D01*
X297132Y78430D01*
X297191Y78451D01*
X297251Y78469D01*
X297313Y78482D01*
X297375Y78492D01*
X297437Y78498D01*
X297500Y78500D01*
X297563Y78498D01*
X297625Y78492D01*
X297687Y78482D01*
X297749Y78469D01*
X297809Y78451D01*
X297868Y78430D01*
X297926Y78405D01*
X297982Y78376D01*
X298036Y78344D01*
X298088Y78309D01*
X298137Y78271D01*
X298185Y78229D01*
X298229Y78185D01*
X298271Y78137D01*
X298309Y78088D01*
X298344Y78036D01*
X298376Y77982D01*
X298405Y77926D01*
X298430Y77868D01*
X298451Y77809D01*
X298469Y77749D01*
X298482Y77687D01*
X298492Y77625D01*
X298498Y77563D01*
X298500Y77500D01*
X298498Y77437D01*
X298492Y77375D01*
X298482Y77313D01*
X298469Y77251D01*
X298451Y77191D01*
X298430Y77132D01*
X298405Y77074D01*
X298376Y77018D01*
X298344Y76964D01*
X298309Y76912D01*
X298271Y76863D01*
X298229Y76815D01*
X298185Y76771D01*
X298137Y76729D01*
X298088Y76691D01*
X298036Y76656D01*
X297982Y76624D01*
X297926Y76595D01*
X297868Y76570D01*
X297809Y76549D01*
X297749Y76531D01*
X297687Y76518D01*
X297625Y76508D01*
X297563Y76502D01*
X297500Y76500D01*
X297437Y76502D01*
X297375Y76508D01*
X297313Y76518D01*
X297251Y76531D01*
X297191Y76549D01*
X297132Y76570D01*
X297074Y76595D01*
X297018Y76624D01*
X296964Y76656D01*
X296912Y76691D01*
X296863Y76729D01*
X296815Y76771D01*
X296771Y76815D01*
X296729Y76863D01*
X296691Y76912D01*
X296656Y76964D01*
X296624Y77018D01*
X296595Y77074D01*
X296570Y77132D01*
X296549Y77191D01*
X296531Y77251D01*
X296518Y77313D01*
X296508Y77375D01*
X296502Y77437D01*
X296500Y77500D01*
D10*
X275500Y43800D02*
X275500Y33000D01*
X267500Y33000D01*
X267500Y19000D01*
X402500Y19000D01*
X402500Y33000D01*
X394500Y33000D01*
X394500Y43800D01*
X386250Y294509D02*
X368750Y294509D01*
X368750Y310491D02*
X386250Y310491D01*
X248500Y181991D02*
X231500Y181991D01*
X231500Y198009D02*
X248500Y198009D01*
X248500Y199491D02*
X231500Y199491D01*
X231500Y215509D02*
X248500Y215509D01*
M02*
