G04 EAGLE Gerber RS-274X export*
G75*
%MOMM*%
%FSLAX34Y34*%
%LPD*%
%INSolderpaste Top*%
%IPPOS*%
%AMOC8*
5,1,8,0,0,1.08239X$1,22.5*%
G01*
G04 Define Apertures*
%ADD10R,1.200000X0.300000*%
%ADD11R,0.812800X0.889000*%
%ADD12R,0.973900X0.798700*%
%ADD13R,0.798700X0.973900*%
%ADD14R,1.465300X1.164600*%
%ADD15R,0.970200X0.920900*%
%ADD16R,1.000000X1.400000*%
%ADD17R,0.300000X1.400000*%
%ADD18R,0.920900X0.970200*%
G36*
X450650Y119550D02*
X474750Y119550D01*
X474750Y95450D01*
X458650Y95450D01*
X458650Y103450D01*
X450650Y103450D01*
X450650Y119550D01*
G37*
G36*
X458650Y406550D02*
X474750Y406550D01*
X474750Y382450D01*
X450650Y382450D01*
X450650Y398550D01*
X458650Y398550D01*
X458650Y406550D01*
G37*
G36*
X293050Y63050D02*
X293050Y39950D01*
X280450Y39950D01*
X280450Y46950D01*
X266450Y46950D01*
X266450Y58050D01*
X273450Y58050D01*
X273450Y63050D01*
X293050Y63050D01*
G37*
G36*
X389550Y46950D02*
X389550Y39950D01*
X376950Y39950D01*
X376950Y63050D01*
X396550Y63050D01*
X396550Y58050D01*
X403550Y58050D01*
X403550Y46950D01*
X389550Y46950D01*
G37*
G36*
X378892Y349119D02*
X380380Y347630D01*
X380380Y344479D01*
X378892Y342991D01*
X375741Y342991D01*
X374252Y344479D01*
X374252Y347630D01*
X375741Y349119D01*
X378892Y349119D01*
G37*
G36*
X353438Y345183D02*
X363194Y345183D01*
X363194Y341926D01*
X353438Y341926D01*
X353438Y345183D01*
G37*
G36*
X353438Y350184D02*
X363194Y350184D01*
X363194Y346927D01*
X353438Y346927D01*
X353438Y350184D01*
G37*
G36*
X391438Y345183D02*
X401194Y345183D01*
X401194Y341926D01*
X391438Y341926D01*
X391438Y345183D01*
G37*
G36*
X391438Y350184D02*
X401194Y350184D01*
X401194Y346927D01*
X391438Y346927D01*
X391438Y350184D01*
G37*
G36*
X353438Y340181D02*
X363194Y340181D01*
X363194Y336925D01*
X353438Y336925D01*
X353438Y340181D01*
G37*
G36*
X353438Y355185D02*
X363194Y355185D01*
X363194Y351929D01*
X353438Y351929D01*
X353438Y355185D01*
G37*
G36*
X365938Y331933D02*
X369194Y331933D01*
X369194Y322177D01*
X365938Y322177D01*
X365938Y331933D01*
G37*
G36*
X365938Y369933D02*
X369194Y369933D01*
X369194Y360177D01*
X365938Y360177D01*
X365938Y369933D01*
G37*
G36*
X372438Y331933D02*
X375694Y331933D01*
X375694Y322177D01*
X372438Y322177D01*
X372438Y331933D01*
G37*
G36*
X372438Y369933D02*
X375694Y369933D01*
X375694Y360177D01*
X372438Y360177D01*
X372438Y369933D01*
G37*
G36*
X378938Y331933D02*
X382194Y331933D01*
X382194Y322177D01*
X378938Y322177D01*
X378938Y331933D01*
G37*
G36*
X378938Y369933D02*
X382194Y369933D01*
X382194Y360177D01*
X378938Y360177D01*
X378938Y369933D01*
G37*
G36*
X385438Y331933D02*
X388694Y331933D01*
X388694Y322177D01*
X385438Y322177D01*
X385438Y331933D01*
G37*
G36*
X385438Y369933D02*
X388694Y369933D01*
X388694Y360177D01*
X385438Y360177D01*
X385438Y369933D01*
G37*
G36*
X391438Y340181D02*
X401194Y340181D01*
X401194Y336925D01*
X391438Y336925D01*
X391438Y340181D01*
G37*
G36*
X391438Y355185D02*
X401194Y355185D01*
X401194Y351929D01*
X391438Y351929D01*
X391438Y355185D01*
G37*
G36*
X371018Y349119D02*
X372506Y347630D01*
X372506Y344479D01*
X371018Y342991D01*
X367138Y342991D01*
X367138Y349119D01*
X371018Y349119D01*
G37*
G36*
X378892Y341245D02*
X380380Y339756D01*
X380380Y335877D01*
X374252Y335877D01*
X374252Y339756D01*
X375741Y341245D01*
X378892Y341245D01*
G37*
G36*
X374252Y356233D02*
X380380Y356233D01*
X380380Y352353D01*
X378892Y350865D01*
X375741Y350865D01*
X374252Y352353D01*
X374252Y356233D01*
G37*
G36*
X383615Y349119D02*
X387494Y349119D01*
X387494Y342991D01*
X383615Y342991D01*
X382126Y344479D01*
X382126Y347630D01*
X383615Y349119D01*
G37*
G36*
X371018Y341245D02*
X372506Y339756D01*
X372506Y335877D01*
X367138Y335877D01*
X367138Y341245D01*
X371018Y341245D01*
G37*
G36*
X367138Y356233D02*
X372506Y356233D01*
X372506Y352353D01*
X371018Y350865D01*
X367138Y350865D01*
X367138Y356233D01*
G37*
G36*
X383615Y341245D02*
X387494Y341245D01*
X387494Y335877D01*
X382126Y335877D01*
X382126Y339756D01*
X383615Y341245D01*
G37*
G36*
X382126Y356233D02*
X387494Y356233D01*
X387494Y350865D01*
X383615Y350865D01*
X382126Y352353D01*
X382126Y356233D01*
G37*
D10*
X435700Y128500D03*
X435700Y133500D03*
X435700Y138500D03*
X435700Y143500D03*
X435700Y148500D03*
X435700Y153500D03*
X435700Y158500D03*
X435700Y163500D03*
X435700Y168500D03*
X435700Y173500D03*
X435700Y178500D03*
X435700Y183500D03*
X435700Y188500D03*
X435700Y193500D03*
X435700Y198500D03*
X435700Y203500D03*
X435700Y208500D03*
X435700Y213500D03*
X435700Y218500D03*
X435700Y223500D03*
X435700Y228500D03*
X435700Y233500D03*
X435700Y238500D03*
X435700Y243500D03*
X435700Y248500D03*
X435700Y253500D03*
X435700Y258500D03*
X435700Y263500D03*
X435700Y268500D03*
X435700Y273500D03*
X435700Y278500D03*
X435700Y283500D03*
X435700Y288500D03*
X435700Y293500D03*
X435700Y298500D03*
X435700Y303500D03*
X435700Y308500D03*
X435700Y313500D03*
X435700Y318500D03*
X435700Y323500D03*
X435700Y328500D03*
X435700Y333500D03*
X435700Y338500D03*
X435700Y343500D03*
X435700Y348500D03*
X435700Y353500D03*
X435700Y358500D03*
X435700Y363500D03*
X435700Y368500D03*
X435700Y373500D03*
D11*
X314750Y188050D03*
X335250Y188050D03*
X325000Y206950D03*
D12*
X292500Y189348D03*
X292500Y205652D03*
D13*
X393152Y107500D03*
X376848Y107500D03*
X393152Y127500D03*
X376848Y127500D03*
X393152Y147500D03*
X376848Y147500D03*
X393152Y167500D03*
X376848Y167500D03*
D14*
X385000Y188746D03*
X385000Y206254D03*
D15*
X357500Y205246D03*
X357500Y189754D03*
D16*
X325000Y106500D03*
X315500Y128500D03*
X334500Y128500D03*
D12*
X355000Y109348D03*
X355000Y125652D03*
D17*
X297500Y64000D03*
X302500Y64000D03*
X307500Y64000D03*
X312500Y64000D03*
X317500Y64000D03*
X322500Y64000D03*
X327500Y64000D03*
X332500Y64000D03*
X337500Y64000D03*
X342500Y64000D03*
X347500Y64000D03*
X352500Y64000D03*
X357500Y64000D03*
X362500Y64000D03*
X367500Y64000D03*
X372500Y64000D03*
D18*
X385246Y302500D03*
X369754Y302500D03*
D13*
X248152Y190000D03*
X231848Y190000D03*
X248152Y207500D03*
X231848Y207500D03*
M02*
