G04 EAGLE Gerber RS-274X export*
G75*
%MOMM*%
%FSLAX34Y34*%
%LPD*%
%INSoldermask Top*%
%IPPOS*%
%AMOC8*
5,1,8,0,0,1.08239X$1,22.5*%
G01*
G04 Define Apertures*
%ADD10R,1.301600X0.401600*%
%ADD11C,1.301600*%
%ADD12R,0.914400X0.990600*%
%ADD13R,1.075500X0.900300*%
%ADD14R,0.900300X1.075500*%
%ADD15R,1.566900X1.266200*%
%ADD16R,1.071800X1.022500*%
%ADD17R,1.101600X1.501600*%
%ADD18R,0.451600X1.101600*%
%ADD19R,1.101600X0.451600*%
%ADD20R,0.400000X1.500000*%
%ADD21R,1.022500X1.071800*%
%ADD22C,1.371600*%
G36*
X449650Y120550D02*
X475750Y120550D01*
X475750Y94450D01*
X457650Y94450D01*
X457650Y102450D01*
X449650Y102450D01*
X449650Y120550D01*
G37*
G36*
X457650Y407550D02*
X475750Y407550D01*
X475750Y381450D01*
X449650Y381450D01*
X449650Y399550D01*
X457650Y399550D01*
X457650Y407550D01*
G37*
G36*
X294050Y64050D02*
X294050Y38950D01*
X279450Y38950D01*
X279450Y45950D01*
X265450Y45950D01*
X265450Y59050D01*
X272450Y59050D01*
X272450Y64050D01*
X294050Y64050D01*
G37*
G36*
X390550Y45950D02*
X390550Y38950D01*
X375950Y38950D01*
X375950Y64050D01*
X397550Y64050D01*
X397550Y59050D01*
X404550Y59050D01*
X404550Y45950D01*
X390550Y45950D01*
G37*
G36*
X365754Y357617D02*
X371506Y357617D01*
X371506Y334493D01*
X365754Y334493D01*
X365754Y357617D01*
G37*
G36*
X365754Y340245D02*
X388878Y340245D01*
X388878Y334493D01*
X365754Y334493D01*
X365754Y340245D01*
G37*
G36*
X365754Y357617D02*
X388878Y357617D01*
X388878Y351865D01*
X365754Y351865D01*
X365754Y357617D01*
G37*
G36*
X383126Y357617D02*
X388878Y357617D01*
X388878Y334493D01*
X383126Y334493D01*
X383126Y357617D01*
G37*
G36*
X375252Y357617D02*
X379380Y357617D01*
X379380Y334493D01*
X375252Y334493D01*
X375252Y357617D01*
G37*
G36*
X365754Y348119D02*
X388878Y348119D01*
X388878Y343991D01*
X365754Y343991D01*
X365754Y348119D01*
G37*
G36*
X352493Y341126D02*
X364139Y341126D01*
X364139Y335980D01*
X352493Y335980D01*
X352493Y341126D01*
G37*
G36*
X352493Y346127D02*
X364139Y346127D01*
X364139Y340981D01*
X352493Y340981D01*
X352493Y346127D01*
G37*
G36*
X352493Y351129D02*
X364139Y351129D01*
X364139Y345983D01*
X352493Y345983D01*
X352493Y351129D01*
G37*
G36*
X352493Y356130D02*
X364139Y356130D01*
X364139Y350984D01*
X352493Y350984D01*
X352493Y356130D01*
G37*
G36*
X364993Y332878D02*
X370139Y332878D01*
X370139Y321232D01*
X364993Y321232D01*
X364993Y332878D01*
G37*
G36*
X364993Y370878D02*
X370139Y370878D01*
X370139Y359232D01*
X364993Y359232D01*
X364993Y370878D01*
G37*
G36*
X371493Y332878D02*
X376639Y332878D01*
X376639Y321232D01*
X371493Y321232D01*
X371493Y332878D01*
G37*
G36*
X371493Y370878D02*
X376639Y370878D01*
X376639Y359232D01*
X371493Y359232D01*
X371493Y370878D01*
G37*
G36*
X377993Y332878D02*
X383139Y332878D01*
X383139Y321232D01*
X377993Y321232D01*
X377993Y332878D01*
G37*
G36*
X377993Y370878D02*
X383139Y370878D01*
X383139Y359232D01*
X377993Y359232D01*
X377993Y370878D01*
G37*
G36*
X384493Y332878D02*
X389639Y332878D01*
X389639Y321232D01*
X384493Y321232D01*
X384493Y332878D01*
G37*
G36*
X384493Y370878D02*
X389639Y370878D01*
X389639Y359232D01*
X384493Y359232D01*
X384493Y370878D01*
G37*
G36*
X390493Y341126D02*
X402139Y341126D01*
X402139Y335980D01*
X390493Y335980D01*
X390493Y341126D01*
G37*
G36*
X390493Y346127D02*
X402139Y346127D01*
X402139Y340981D01*
X390493Y340981D01*
X390493Y346127D01*
G37*
G36*
X390493Y351129D02*
X402139Y351129D01*
X402139Y345983D01*
X390493Y345983D01*
X390493Y351129D01*
G37*
G36*
X390493Y356130D02*
X402139Y356130D01*
X402139Y350984D01*
X390493Y350984D01*
X390493Y356130D01*
G37*
D10*
X435700Y128500D03*
X435700Y133500D03*
X435700Y138500D03*
X435700Y143500D03*
X435700Y148500D03*
X435700Y153500D03*
X435700Y158500D03*
X435700Y163500D03*
X435700Y168500D03*
X435700Y173500D03*
X435700Y178500D03*
X435700Y183500D03*
X435700Y188500D03*
X435700Y193500D03*
X435700Y198500D03*
X435700Y203500D03*
X435700Y208500D03*
X435700Y213500D03*
X435700Y218500D03*
X435700Y223500D03*
X435700Y228500D03*
X435700Y233500D03*
X435700Y238500D03*
X435700Y243500D03*
X435700Y248500D03*
X435700Y253500D03*
X435700Y258500D03*
X435700Y263500D03*
X435700Y268500D03*
X435700Y273500D03*
X435700Y278500D03*
X435700Y283500D03*
X435700Y288500D03*
X435700Y293500D03*
X435700Y298500D03*
X435700Y303500D03*
X435700Y308500D03*
X435700Y313500D03*
X435700Y318500D03*
X435700Y323500D03*
X435700Y328500D03*
X435700Y333500D03*
X435700Y338500D03*
X435700Y343500D03*
X435700Y348500D03*
X435700Y353500D03*
X435700Y358500D03*
X435700Y363500D03*
X435700Y368500D03*
X435700Y373500D03*
D11*
X17500Y486200D03*
X17500Y15800D03*
X695000Y486200D03*
X695000Y15800D03*
D12*
X314750Y188050D03*
X335250Y188050D03*
X325000Y206950D03*
D13*
X292500Y189348D03*
X292500Y205652D03*
D14*
X393152Y107500D03*
X376848Y107500D03*
X393152Y127500D03*
X376848Y127500D03*
X393152Y147500D03*
X376848Y147500D03*
X393152Y167500D03*
X376848Y167500D03*
D15*
X385000Y188746D03*
X385000Y206254D03*
D16*
X357500Y205246D03*
X357500Y189754D03*
D17*
X325000Y106500D03*
X315500Y128500D03*
X334500Y128500D03*
D13*
X355000Y109348D03*
X355000Y125652D03*
D18*
X367566Y327055D03*
X374066Y327055D03*
X380566Y327055D03*
X387066Y327055D03*
D19*
X396316Y338553D03*
X396316Y343554D03*
X396316Y348556D03*
X396316Y353557D03*
D18*
X387066Y365055D03*
X380566Y365055D03*
X374066Y365055D03*
X367566Y365055D03*
D19*
X358316Y353557D03*
X358316Y348556D03*
X358316Y343554D03*
X358316Y338553D03*
D20*
X342500Y64000D03*
X337500Y64000D03*
X332500Y64000D03*
X327500Y64000D03*
X322500Y64000D03*
X317500Y64000D03*
X312500Y64000D03*
X307500Y64000D03*
X302500Y64000D03*
X297500Y64000D03*
X347500Y64000D03*
X352500Y64000D03*
X357500Y64000D03*
X362500Y64000D03*
X367500Y64000D03*
X372500Y64000D03*
D21*
X385246Y302500D03*
X369754Y302500D03*
D14*
X248152Y190000D03*
X231848Y190000D03*
X248152Y207500D03*
X231848Y207500D03*
D22*
X297500Y392500D03*
X330000Y345000D03*
X330000Y392500D03*
X330000Y325000D03*
X330000Y370000D03*
X335000Y150000D03*
X330000Y262500D03*
X330000Y287500D03*
X330000Y222500D03*
X297500Y222500D03*
M02*
