M48
;GenerationSoftware,Autodesk,EAGLE,9.7.0*%
;CreationDate,2026-09-03T20:36:18Z*%
FMAT,2
ICI,OFF
METRIC,TZ,000.000
T7C0.300
T6C0.350
T5C0.450
T4C0.650
T3C1.000
T2C1.500
T1C2.500
%
G90
M71
T1
X7000Y48000
X82000Y48000
X82000Y6000
X7000Y6000
T2
X79500Y35500
X86500Y35500
T3
X85250Y15950
X85250Y23950
T4
X4855Y39140
X4855Y33360
T5
X36393Y15000
T6
X22300Y4937
X18700Y18085
X24000Y40750
X5750Y26998
X24250Y26000
X22147Y31750
X26500Y31750
X26500Y28750
X27500Y28750
X31353Y25160
X12000Y43500
X11500Y34500
X13750Y34000
X13000Y34500
X12000Y34000
X58250Y45636
X59779Y45636
X61500Y45636
X64186Y45636
X24575Y13349
X21441Y16700
X22639Y17880
X22660Y15437
X20269Y15445
X20195Y17905
X66571Y9500
X66571Y12500
X66571Y15500
X70000Y11250
X33250Y40000
X24013Y14771
X22039Y14097
X33250Y13610
X21333Y11358
X26715Y24470
X26500Y26240
X33229Y38029
X30946Y36773
X44931Y49948
X46079Y51171
X76802Y42448
X79401Y46500
X77050Y44191
X31314Y22055
X31314Y18998
X29845Y21750
X38261Y37687
X38261Y34334
X70667Y45156
X69022Y49063
X68961Y50795
X72184Y49272
X71120Y46956
X46076Y49934
X48015Y49934
X38261Y50794
X67502Y41813
X69351Y41345
X21257Y24657
X19273Y24663
X19282Y31708
X13735Y21541
X12080Y14211
X12093Y12674
X28049Y13361
X26000Y11914
X29681Y13622
X24013Y18723
X21434Y18734
X23977Y17032
X33250Y12610
X37036Y12063
X33254Y11010
X53250Y9610
X61000Y9860
X44500Y5860
X70000Y23360
X63000Y51860
X15625Y6898
X16940Y10076
X65947Y6044
X39785Y52330
X66562Y51860
X32535Y7076
X33205Y8270
X37193Y7078
X15153Y42653
X52500Y6928
X7125Y41375
X7125Y39750
X16528Y37403
X69449Y14000
X34900Y52221
X32800Y52221
X28600Y52221
X26500Y52221
X24400Y52221
X13900Y52221
X9700Y52221
X31750Y50402
X29650Y50402
X27550Y50402
X25450Y50402
X23350Y50402
X21250Y50402
X30700Y52221
X10750Y50402
X6550Y50402
X4450Y50402
X22300Y52221
X32800Y48584
X30700Y48584
X28600Y48584
X22300Y48584
X13900Y48584
X9700Y48584
X84250Y46765
X29650Y46765
X11800Y48584
X14950Y46765
X8650Y46765
X4450Y46765
X2350Y46765
X85300Y44946
X20200Y52221
X37000Y44946
X1300Y44946
X84250Y43128
X82150Y43128
X31750Y43128
X83200Y41309
X62200Y41309
X58000Y41309
X30700Y41309
X84250Y39491
X9700Y41309
X25450Y39491
X23350Y39491
X14950Y39491
X83200Y37672
X53800Y37672
X49600Y37672
X43300Y37672
X39100Y37672
X22300Y37672
X1300Y37672
X82150Y35853
X75850Y35853
X56950Y35853
X52750Y35853
X48550Y35853
X10750Y39491
X6550Y10393
X87400Y34035
X76900Y34035
X13900Y26760
X85300Y30398
X55900Y34035
X51700Y34035
X3400Y48584
X49600Y34035
X45400Y34035
X1300Y34035
X54850Y32216
X44350Y32216
X40150Y32216
X74800Y30398
X66400Y30398
X79000Y34035
X55900Y30398
X45400Y30398
X43300Y30398
X69550Y28579
X26500Y34035
X51700Y26760
X7600Y52221
X81100Y30398
X86350Y28579
X41200Y30398
X73750Y28579
X59050Y28579
X54850Y28579
X77950Y6756
X40150Y28579
X60100Y30398
X60100Y41309
X52750Y32216
X87400Y26760
X83200Y26760
X84250Y35853
X71650Y32216
X60100Y26760
X45400Y26760
X41200Y26760
X48550Y28579
X8650Y50402
X11800Y26760
X82150Y24942
X77950Y24942
X56950Y24942
X40150Y24942
X60100Y19486
X4450Y6756
X81100Y23123
X64300Y23123
X4450Y14030
X60100Y23123
X51700Y30398
X40150Y35853
X17050Y6756
X47500Y26760
X86350Y21305
X82150Y21305
X77950Y21305
X83200Y8574
X59050Y21305
X40150Y21305
X18100Y26760
X76900Y4937
X16000Y26760
X47500Y34035
X10750Y21305
X43300Y34035
X2350Y21305
X81100Y26760
X87400Y19486
X85300Y19486
X8650Y17667
X81100Y34035
X41200Y34035
X83200Y15849
X55900Y19486
X58000Y34035
X3400Y19486
X1300Y19486
X2350Y6756
X39100Y34035
X84250Y17667
X56950Y21305
X24400Y48584
X80050Y17667
X75850Y17667
X45400Y37672
X59050Y17667
X76900Y30398
X53800Y34035
X55900Y26760
X84250Y14030
X59050Y24942
X39100Y23123
X14950Y50402
X59050Y14030
X86350Y14030
X55900Y15849
X52750Y17667
X79000Y23123
X79000Y30398
X83200Y23123
X54850Y17667
X18100Y8574
X63250Y17667
X56950Y6756
X20200Y41309
X70600Y4937
X63250Y14030
X56950Y14030
X34900Y48584
X54850Y14030
X6550Y3119
X87400Y12212
X87400Y30398
X68000Y45500
X5500Y4937
X63250Y21305
X83200Y12212
X81100Y12212
X80050Y10393
X21403Y39903
X60100Y15849
X5500Y8574
X2350Y17667
X48550Y32216
X63250Y24942
X48550Y17667
X3400Y12212
X1300Y15849
X26500Y48584
X55900Y12212
X54850Y35853
X61150Y17667
X84250Y50402
X1300Y12212
X49600Y30398
X47500Y30398
X33850Y50402
X39100Y30398
X61150Y35853
X6550Y17667
X87400Y23123
X4450Y10393
X2350Y10393
X51700Y37672
X59050Y6756
X49600Y26760
X44350Y28579
X14950Y35853
X59050Y32216
X84250Y6756
X3400Y4937
X83200Y44946
X77950Y28579
X9700Y1300
X52750Y28579
X22300Y8574
X3400Y8574
X11800Y1300
X56950Y28579
X85300Y8574
X10750Y17667
X87400Y8574
X63250Y6756
X43300Y26760
X86350Y24942
X51700Y12212
X29650Y6756
X74800Y4937
X87400Y15849
X85300Y4937
X44350Y35853
X4450Y17667
X82150Y3119
X53800Y26760
X14950Y28579
X30700Y4937
X24400Y34035
X1300Y8574
X83200Y34035
X31750Y46765
X86350Y6756
X58000Y37672
X18100Y4937
X76900Y23123
X81100Y15849
X18100Y52221
X16000Y41309
X80050Y3119
X86350Y17667
X47500Y37672
X70600Y30398
X33850Y3119
X80050Y6756
X79000Y8574
X86350Y10393
X21250Y3119
X8650Y10393
X29650Y3119
X25450Y3119
X41200Y37672
X10750Y3119
X8650Y3119
X79000Y1300
X32800Y4937
X79000Y48584
X10750Y24942
X6550Y14030
X74800Y37672
X55900Y23123
X22300Y34035
X16000Y52221
X60100Y12212
X13900Y1300
X52750Y14030
X10397Y38152
X9724Y34089
X9099Y34089
X9724Y33464
X9099Y33464
X11022Y38152
X10397Y37527
X11022Y37527
X2750Y27375
X2802Y45004
X7500Y25500
X6929Y30184
X10500Y30000
X7500Y33875
X7500Y38625
X4375Y29625
X3625Y29625
X4375Y28875
X3625Y28875
X34414Y45056
X78750Y44971
X78698Y46500
X53340Y41229
X22093Y30642
X26120Y15591
X41750Y50500
X69750Y46529
X17856Y32500
X70116Y42750
X75045Y41455
X26294Y19750
X16000Y21250
X17000Y11000
X15360Y15610
X13423Y12592
X81077Y39929
X80162Y49987
X30359Y13003
X26941Y12470
X21529Y21338
X19000Y14097
X18985Y21375
X24510Y20967
X73159Y40731
X70375Y40625
X78010Y47500
X52121Y50902
X59343Y50939
X78029Y46029
X60046Y50902
X53340Y48158
X78018Y44203
X71698Y44078
X71963Y50000
X38195Y45750
X69487Y51508
X42508Y45381
X72419Y40723
X86000Y43500
X73779Y50610
X33250Y39000
X38250Y52750
X71658Y52122
X69670Y50800
X30750Y42250
X36705Y46475
X30858Y38564
X31250Y40000
X70500Y26000
X63029Y26767
X69750Y26000
X63742Y26742
X29900Y20532
X29900Y19374
X29258Y18155
X29900Y18506
X66365Y48250
X67249Y46249
X29900Y16399
X29900Y15696
X29900Y17804
X29727Y17101
X28901Y10759
X29600Y11054
X31250Y33000
X30480Y23165
X27720Y33750
X30990Y9931
X25460Y13960
X39000Y5929
X17552Y13201
X29750Y12564
X28000Y15560
X55000Y6500
X16529Y12727
X30401Y9527
X14519Y16517
X71750Y3750
X65250Y2221
X56750Y11750
X57750Y9779
X64250Y11750
X63540Y9847
X15250Y16668
X15280Y17471
X83750Y30000
X69750Y24250
X11722Y24778
X16250Y26000
X24475Y23000
X31250Y23500
X46250Y26000
X61250Y26000
X53750Y26000
X38750Y26000
X38750Y18500
X37000Y17750
X26750Y23768
X33036Y15036
X22078Y26152
X25881Y13387
X74000Y10500
X76750Y10500
X38750Y17555
X46250Y17555
X23625Y13960
X13649Y17880
X31314Y17009
X31417Y12750
X31629Y9002
X10777Y16250
X11500Y3750
X75000Y9000
X82500Y24250
X77500Y24250
X68750Y3000
X62000Y2750
X28977Y8611
X20250Y4750
X13443Y11863
X18325Y13172
X20398Y12047
X19250Y8500
X16538Y13458
X36985Y13510
X48000Y8250
X32658Y34812
X33568Y15497
X50250Y9500
X49493Y11773
X15115Y13452
X4750Y36535
X4731Y35144
X62500Y45000
X57516Y45620
X66000Y45000
X57484Y44906
X66500Y22500
X33750Y42000
X42500Y49750
X64268Y25002
X64901Y46030
X47372Y44872
X68500Y51524
X61250Y49777
X16803Y17809
X68750Y44750
X62500Y38250
X18558Y32509
X61971Y39000
X32667Y36823
X16077Y18353
X17135Y18476
X31750Y39250
X11800Y52221
T7
X5750Y25906
X5750Y25094
X74500Y46750
X74500Y45402
X73152Y46750
X74500Y48098
X75848Y46750
M30